<?xml version="1.0" encoding="UTF-8" standalone="no"?>
<svg
   width="19.99999"
   height="20"
   viewBox="0 0 19.99999 20"
   fill="none"
   version="1.1"
   id="svg9"
   xmlns="http://www.w3.org/2000/svg"
   xmlns:svg="http://www.w3.org/2000/svg">
  <defs
     id="defs13" />
  <path
     fill-rule="evenodd"
     clip-rule="evenodd"
     d="M 0,10 C 0,4.477 4.47701,0 9.99999,0 c 5.523,0 10,4.477 10,10 0,5.522 -4.477,10 -10,10 C 4.47701,20 0,15.522 0,10 Z m 9.72699,3.605 4.568,-6 c 0.335,-0.439 0.25,-1.066 -0.189,-1.401 -0.441,-0.335 -1.068,-0.249 -1.402,0.19 L 8.91999,11.363 7.28701,9.277 C 6.947,8.841 6.31701,8.765 5.88301,9.106 c -0.43501,0.34 -0.511,0.969 -0.171,1.403 l 2.43198,3.107 c 0.19,0.242 0.48,0.384 0.787,0.384 h 0.007 c 0.31,-0.002 0.601,-0.148 0.789,-0.395 z"
     fill="#17c013"
     id="path2" />
  <mask
     id="mask0_3856_5604"
     maskUnits="userSpaceOnUse"
     x="2"
     y="2"
     width="21"
     height="21">
    <path
       fill-rule="evenodd"
       clip-rule="evenodd"
       d="m 2.22021,12.0005 c 0,-5.523 4.47701,-10 9.99999,-10 5.523,0 10,4.477 10,10 0,5.522 -4.477,10 -10,10 -5.52298,0 -9.99999,-4.478 -9.99999,-10 z m 9.72699,3.605 4.568,-6 c 0.335,-0.439 0.25,-1.066 -0.189,-1.401 -0.441,-0.335 -1.068,-0.249 -1.402,0.19 l -3.784,4.969 -1.63298,-2.086 c -0.34001,-0.436 -0.97,-0.512 -1.404,-0.171 -0.43501,0.34 -0.511,0.969 -0.171,1.403 l 2.43198,3.107 c 0.19,0.242 0.48,0.384 0.787,0.384 h 0.007 c 0.31,-0.002 0.601,-0.148 0.789,-0.395 z"
       fill="#ffffff"
       id="path4" />
  </mask>
  <g
     mask="url(#mask0_3856_5604)"
     id="g7"
     transform="translate(-2.22021,-2.0005)" />
</svg>
