<svg width="14" height="14" viewBox="0 0 14 14" fill="none" xmlns="http://www.w3.org/2000/svg">
<path d="M13.68 0.336332C13.2727 -0.0712235 12.6328 -0.0712235 12.1673 0.336332L6.98927 5.51811L1.86941 0.336332C1.46214 -0.0712235 0.822161 -0.129446 0.356718 0.27811C-0.108724 0.685666 -0.108724 1.32611 0.298538 1.73367C0.298538 1.79189 0.356718 1.79189 0.414899 1.85011L5.59295 7.03189L0.356718 12.2137C-0.0505438 12.6795 0.00763644 13.3199 0.473079 13.7275C0.880341 14.0768 1.46214 14.0768 1.86941 13.7275L7.04745 8.54567L12.2255 13.7275C12.6328 14.135 13.3309 14.0768 13.7382 13.611C14.0873 13.2035 14.0873 12.6212 13.7382 12.2137L8.56014 7.03189L13.7382 1.85011C14.0873 1.44256 14.0873 0.743888 13.68 0.336332Z" fill="#4C57FF"/>
</svg>
