<svg viewBox="0 0 21 25" fill="none" xmlns="http://www.w3.org/2000/svg">
<path d="M20.8365 4.56749C20.7827 4.84234 20.7434 5.12107 20.6718 5.3912C20.4802 6.11475 20.097 6.77373 19.5624 7.29931C17.4345 9.42313 15.3199 11.5611 13.1693 13.6622C11.8423 14.9584 10.2632 15.2402 8.51913 14.6133C8.47288 14.5967 8.42803 14.5769 8.37983 14.5556C8.36128 14.5472 8.345 14.5346 8.33234 14.5187C8.31968 14.5029 8.31101 14.4842 8.30705 14.4643C8.3031 14.4444 8.30398 14.4239 8.30961 14.4044C8.31524 14.3849 8.32547 14.3671 8.33943 14.3523C8.69995 13.9914 9.05712 13.6258 9.42766 13.2746C9.49787 13.208 9.62603 13.1583 9.72047 13.168C10.6075 13.2604 11.3364 12.9634 11.9602 12.3379C14.0454 10.2489 16.1342 8.16475 18.2265 6.08554C19.1328 5.17993 19.2749 3.87732 18.5887 2.87482C17.6997 1.57942 15.8954 1.41035 14.7537 2.53139C13.5451 3.71824 12.3524 4.9209 11.1528 6.11663C10.2286 7.03779 9.30452 7.95894 8.38067 8.8801C7.76551 9.49087 7.51059 10.2266 7.60531 11.0864C7.61228 11.1502 7.6028 11.2402 7.56296 11.2807C7.5039 11.3416 7.44465 11.4021 7.38522 11.4623C6.83637 12.0209 5.87797 11.6605 5.84342 10.8793V10.8618C5.79188 9.58027 6.23068 8.4831 7.13809 7.57693C9.24768 5.46958 11.3595 3.36417 13.4735 1.26071C14.1363 0.601076 14.9273 0.187138 15.8562 0.0416633C15.8931 0.0322625 15.9289 0.0188567 15.9629 0.00168557C15.965 0.000828862 15.9673 0.000358652 15.9696 0.000297371H17.084C17.0859 -9.91236e-05 17.0879 -9.91236e-05 17.0898 0.000297371C17.1328 0.0177276 17.1769 0.0322888 17.2219 0.0438843C18.9997 0.392302 20.1444 1.43811 20.6732 3.15577C20.7568 3.4234 20.7847 3.70741 20.8376 3.98365L20.8365 4.56749Z" fill="currentColor"/>
<path d="M13.0943 10.1747C13.1242 10.1865 13.1507 10.2056 13.1714 10.2301C13.1921 10.2547 13.2064 10.284 13.213 10.3154C13.2196 10.3468 13.2183 10.3793 13.2092 10.4101C13.2001 10.4408 13.1835 10.4689 13.1609 10.4917C12.7681 10.8823 12.3894 11.2599 12.0053 11.6316C11.9649 11.6705 11.8726 11.6744 11.8077 11.6669C10.9719 11.5681 10.25 11.8004 9.65355 12.3943C7.50608 14.5321 5.36083 16.6722 3.21781 18.8143C2.24492 19.7902 2.26053 21.3779 3.22812 22.3329C4.18568 23.2782 5.77177 23.2818 6.74159 22.3201C8.8991 20.1806 11.051 18.0353 13.1974 15.8843C13.785 15.2965 14.004 14.575 13.9081 13.7527C13.9 13.683 13.9123 13.5844 13.9563 13.5392C14.3235 13.1611 14.6974 12.7896 15.0813 12.4054C15.1037 12.3833 15.131 12.367 15.1611 12.3577C15.1911 12.3485 15.2229 12.3466 15.2539 12.3523C15.2848 12.358 15.3139 12.371 15.3386 12.3903C15.3634 12.4096 15.3831 12.4346 15.3961 12.4631C15.5764 12.8658 15.6844 13.2968 15.7154 13.7366C15.8132 15.0136 15.4527 16.1519 14.5483 17.0644C12.3708 19.2642 10.1789 21.4493 7.97274 23.62C6.7232 24.8451 4.81281 25.1222 3.22728 24.3809C2.44953 24.0202 1.79841 23.435 1.35825 22.7012C0.918093 21.9675 0.70918 21.1189 0.758572 20.2655C0.820144 19.1952 1.21938 18.2699 1.97635 17.5114C4.12188 15.3618 6.25905 13.2005 8.43633 11.0811C9.76695 9.78598 11.3553 9.53334 13.0929 10.1738L13.0943 10.1747Z" fill="currentColor"/>
</svg>
