<svg width="30" height="23" viewBox="0 0 30 23" fill="none" xmlns="http://www.w3.org/2000/svg">
<path d="M24.1833 22.375V18.2667C24.1833 15.9708 22.8542 14.2792 21.1625 12.95C24.7875 13.4333 29.5 15.2458 29.5 18.2667V20.925C29.5 21.65 28.8958 22.2542 28.1708 22.2542L24.1833 22.375ZM1.82917 22.375C1.10417 22.375 0.5 21.7708 0.5 21.0458V18.3875C0.5 14.7625 7.50833 12.95 11.0125 12.95C14.5167 12.95 21.525 14.7625 21.525 18.3875V21.0458C21.525 21.7708 20.9208 22.375 20.1958 22.375H1.82917ZM17.175 11.1375C19.4708 8.11665 19.4708 3.88748 17.175 0.86665C17.7792 0.624984 18.3833 0.50415 18.9875 0.50415C21.8875 0.50415 24.3042 3.04165 24.3042 5.94165C24.425 8.84165 22.25 11.2583 19.35 11.3792C18.5042 11.5 17.9 11.3792 17.175 11.1375ZM5.81667 6.06248C5.69583 3.16248 8.1125 0.624984 11.0125 0.624984C13.9125 0.624984 16.3292 3.16248 16.3292 6.06248C16.3292 8.96248 14.0333 11.5 11.0125 11.5C8.1125 11.5 5.69583 8.96248 5.81667 6.06248Z" fill="white"/>
</svg>
