<svg width="30" height="29" viewBox="0 0 30 29" fill="none" xmlns="http://www.w3.org/2000/svg">
<path d="M21.1625 29H8.8375C4.24583 29 0.5 25.2542 0.5 20.6625V8.3375C0.5 6.04167 1.34583 3.9875 2.91667 2.41667C4.4875 0.845833 6.54167 0 8.71667 0H21.1625C23.4583 0 25.5125 0.845833 27.0833 2.41667C28.6542 3.9875 29.5 6.04167 29.5 8.21667V20.6625C29.5 25.2542 25.7542 29 21.1625 29ZM11.9792 7.6125C11.375 7.6125 10.8917 8.09583 10.8917 8.7V20.3C10.8917 20.9042 11.375 21.3875 11.9792 21.3875C12.2208 21.3875 12.3417 21.2667 12.5833 21.1458L21.4042 15.3458C21.7667 15.1042 21.8875 14.7417 21.8875 14.3792C21.8875 14.0167 21.6458 13.6542 21.4042 13.4125L12.5833 7.73333C12.3417 7.6125 12.1 7.6125 11.9792 7.6125Z" fill="white"/>
</svg>
