<svg viewBox="0 0 25 24" fill="none" xmlns="http://www.w3.org/2000/svg">
<path d="M12.0227 17.9909C8.70321 17.9909 6.01231 15.3052 6.01231 11.9922C6.01231 8.67918 8.70321 5.98832 12.0227 5.98832C15.3421 5.98832 18.033 8.674 18.033 11.987C18.0226 15.3104 15.3369 17.9909 12.0227 17.9909ZM12.0227 0C5.38375 0 0.00195312 5.37135 0.00195312 11.987V23.8341C0.00195312 23.9222 0.0694853 23.9896 0.157797 23.9896C0.199355 23.9844 0.240913 23.9689 0.277276 23.9429C3.42531 20.884 6.26686 22.5327 6.26686 22.5327C8.03308 23.497 10.0123 24.0051 12.0279 24C18.672 24 24.0538 18.6286 24.0538 12.0026C24.033 5.37653 18.6512 0 12.0227 0Z" fill="currentColor"/>
</svg>
