<svg width="21" height="21" viewBox="0 0 21 21" fill="none" xmlns="http://www.w3.org/2000/svg">
<path fill-rule="evenodd" clip-rule="evenodd" d="M10.5245 20.5C11.3115 20.5 11.9495 19.862 11.9495 19.075V11.95H19.0748C19.8618 11.95 20.4998 11.312 20.4998 10.525C20.4998 9.73801 19.8618 9.10001 19.0748 9.10001H11.9495V1.97499C11.9495 1.18798 11.3115 0.549988 10.5245 0.549988C9.73751 0.549988 9.09951 1.18798 9.09951 1.97499V9.10001H1.9748C1.1878 9.10001 0.549805 9.73801 0.549805 10.525C0.549805 11.312 1.1878 11.95 1.9748 11.95H9.09951V19.075C9.09951 19.862 9.73751 20.5 10.5245 20.5Z" fill="#6B6B6B"/>
</svg>
