<?xml version="1.0" encoding="utf-8"?>
<!-- Generator: Adobe Illustrator 24.1.3, SVG Export Plug-In . SVG Version: 6.00 Build 0)  -->
<svg version="1.1" id="Layer_1" xmlns="http://www.w3.org/2000/svg" xmlns:xlink="http://www.w3.org/1999/xlink" x="0px" y="0px"
	 viewBox="0 0 1024 231" style="enable-background:new 0 0 1024 231;" xml:space="preserve">
<style type="text/css">
	.st0{fill:#212121;}
</style>
<path class="st0" d="M117.04-0.05C53.24-0.05,1.52,51.67,1.52,115.48c0,5.78,0,114.08,0,114.08c0,0.8,0.65,1.45,1.45,1.45
	c0.44,0,0.83-0.2,1.1-0.52c30.29-29.49,57.58-13.61,57.58-13.61l0,0c16.45,9,35.32,14.13,55.4,14.13
	c63.8,0,115.52-51.72,115.52-115.52S180.84-0.05,117.04-0.05z M117.04,173.24c-31.9,0-57.76-25.86-57.76-57.76
	s25.86-57.76,57.76-57.76s57.76,25.86,57.76,57.76S148.94,173.24,117.04,173.24z"/>
<g>
	<path class="st0" d="M433.53,173.51V44.48c0-11.44,9.28-20.72,20.72-20.72h0v129.03C454.25,164.23,444.97,173.51,433.53,173.51
		L433.53,173.51z"/>
	<path class="st0" d="M591.98,114.15c-0.77-31.6-26.63-56.99-58.42-56.99c-1.67,0-3.31,0.07-4.94,0.21
		c-30.52,1.95-53.76,26.04-53.76,59.84c0,31.88,26.3,56.18,58.57,56.18c15.74,0,29.68-6.77,37.45-19.92h0.4v0
		c0,9.46,7.67,17.13,17.13,17.13H592c0,0,0-11.01,0-22.73v-10.92v-22.8H591.98z M571.68,115.62c0,20.92-16.93,38.85-38.45,38.85
		c-20.72,0-37.65-18.13-37.65-38.85c0-21.72,16.93-39.45,37.65-39.45C556.14,76.17,571.68,94.1,571.68,115.62z"/>
	<path class="st0" d="M628.87,206.88l16.13-39.05L600.97,59.65l0,0c13.43,0,25.46,8.3,30.22,20.86l24.57,64.8l25.19-64.87
		c4.87-12.54,16.94-20.8,30.39-20.8l0,0L658.62,187C653.64,199.03,641.9,206.88,628.87,206.88L628.87,206.88z"/>
	<path class="st0" d="M729.55,173.51V44.48c0-11.44,9.28-20.72,20.72-20.72h0v129.03C750.27,164.23,741,173.51,729.55,173.51
		L729.55,173.51z"/>
	<path class="st0" d="M829.23,173.39c-31.08,0-58.77-26.5-58.77-57.58c0-33.67,26.5-58.57,60.36-58.57
		c30.48,0,59.17,23.91,58.77,58.97C889.2,145.7,864.49,173.39,829.23,173.39z M829.83,76.17c-20.72,0-38.65,17.53-38.65,39.05
		c0,20.92,17.33,39.25,38.25,39.25c21.72,0,39.45-17.13,39.45-39.45C868.87,93.51,851.54,76.17,829.83,76.17z"/>
	<path class="st0" d="M1001.88,71.57c-5.92-5.05-12.85-8.96-20.44-11.37c-5.73-1.91-11.84-2.95-17.81-2.95
		c-33.27,0-59.17,25.7-59.17,58.97c0,29.89,27.29,57.18,58.97,57.18c15.74,0,29.49-5.78,38.05-17.33h0.4
		c0,25.3-13.35,39.05-38.65,39.05c-4.92,0-9.42-0.66-13.53-2.02c-8.91-2.96-18.15,3.3-18.16,12.69c8.96,5.33,19.64,8.26,31.49,8.26
		c37.45,0,59.57-22.11,59.57-57.97v-39.6C1022.6,98.5,1014.56,82.4,1001.88,71.57z M925.17,115.43c0-21.52,17.33-39.25,37.85-39.25
		c19.13,0,38.85,13.35,38.85,39.25c0,17.93-14.54,39.05-38.65,39.05C942.71,154.48,925.17,136.55,925.17,115.43z"/>
	<path class="st0" d="M412.6,115.55c0-0.17,0.01-0.35,0.01-0.52c0-8.11-1.67-15.83-4.68-22.83c-7.94-19.45-25.34-32.83-47.14-34.71
		c-1.98-0.21-4-0.31-6.04-0.31c-15.01,0-28.68,5.71-38.96,15.08c-11.55,10.52-18.81,25.65-18.9,42.49h-0.03v92.73h0
		c11.44,0,20.72-9.28,20.72-20.72v-27.37v-4.7h0.4c4.88,8.13,13.35,13.86,23.53,16.69c4.79,1.34,9.96,2.03,15.32,2.03
		c31.67,0,55.78-25.5,55.78-56.58C412.62,116.39,412.61,115.97,412.6,115.55z M317.19,115.22c0-0.16,0.01-0.32,0.01-0.49
		c0.25-20.33,16.09-38.56,36.65-38.56c22.11,0,38.05,19.32,38.05,39.45c0,21.12-15.94,38.85-37.25,38.85
		C333.13,154.47,317.19,136.74,317.19,115.22z"/>
</g>
</svg>
