<?xml version="1.0" encoding="utf-8"?>
<!-- Generator: Adobe Illustrator 24.2.0, SVG Export Plug-In . SVG Version: 6.00 Build 0)  -->
<svg version="1.1" id="Layer_1" xmlns="http://www.w3.org/2000/svg" xmlns:xlink="http://www.w3.org/1999/xlink" x="0px" y="0px"
	 viewBox="0 0 122 122" style="enable-background:new 0 0 122 122;" xml:space="preserve">
<style type="text/css">
	.st0{fill:#212121;}
</style>
<path class="st0" d="M61.05-0.05c-33.6,0-60.83,27.23-60.83,60.83c0,3.04,0,60.07,0,60.07c0,0.42,0.34,0.76,0.76,0.76
	c0.23,0,0.44-0.11,0.58-0.27c15.95-15.53,30.32-7.17,30.32-7.17l0,0c8.66,4.74,18.6,7.44,29.17,7.44c33.6,0,60.83-27.23,60.83-60.83
	S94.65-0.05,61.05-0.05z M61.05,91.2c-16.8,0-30.42-13.62-30.42-30.42s13.62-30.42,30.42-30.42s30.42,13.62,30.42,30.42
	S77.85,91.2,61.05,91.2z"/>
</svg>
