<?xml version="1.0" encoding="utf-8"?>
<!-- Generator: Adobe Illustrator 25.3.1, SVG Export Plug-In . SVG Version: 6.00 Build 0)  -->
<svg version="1.1" id="Icons" xmlns="http://www.w3.org/2000/svg" xmlns:xlink="http://www.w3.org/1999/xlink" x="0px" y="0px"
	 viewBox="0 0 24 24" style="enable-background:new 0 0 24 24;" xml:space="preserve">
<path id="check_x5F_circle" d="M12,0C5.4,0,0,5.4,0,12s5.4,12,12,12s12-5.4,12-12S18.6,0,12,0z M8.7,17.1l-4.3-4.3
	c-0.5-0.5-0.5-1.2,0-1.7s1.2-0.5,1.7,0l3.5,3.5l8.3-8.3c0.5-0.5,1.2-0.5,1.7,0C20,6.8,20,7.6,19.5,8l-9.1,9.1
	C10,17.6,9.2,17.6,8.7,17.1z"/>
</svg>
