<?xml version="1.0" encoding="utf-8"?>
<!-- Generator: Adobe Illustrator 25.3.1, SVG Export Plug-In . SVG Version: 6.00 Build 0)  -->
<svg version="1.1" id="Icons" xmlns="http://www.w3.org/2000/svg" xmlns:xlink="http://www.w3.org/1999/xlink" x="0px" y="0px"
	 viewBox="0 0 24 24" style="enable-background:new 0 0 24 24;" xml:space="preserve">
<path id="close_x5F_circle" d="M12,0C5.4,0,0,5.4,0,12s5.4,12,12,12s12-5.4,12-12S18.6,0,12,0z M17.2,17.2c-0.5,0.5-1.2,0.5-1.7,0
	L12,13.7l-3.5,3.5c-0.5,0.5-1.2,0.5-1.7,0s-0.5-1.2,0-1.7l3.5-3.5L6.8,8.5C6.3,8,6.3,7.3,6.8,6.8s1.2-0.5,1.7,0l3.5,3.5l3.5-3.5
	c0.5-0.5,1.2-0.5,1.7,0s0.5,1.2,0,1.7L13.7,12l3.5,3.5C17.6,15.9,17.6,16.7,17.2,17.2z"/>
</svg>
