<?xml version="1.0" encoding="utf-8"?>
<!-- Generator: Adobe Illustrator 25.0.0, SVG Export Plug-In . SVG Version: 6.00 Build 0)  -->
<svg version="1.1" id="Layer_2_1_" xmlns="http://www.w3.org/2000/svg" xmlns:xlink="http://www.w3.org/1999/xlink" x="0px" y="0px"
	 viewBox="0 0 24 24" style="enable-background:new 0 0 24 24;" xml:space="preserve">
<path d="M12,0C5.4,0,0,5.4,0,12c0,6.6,5.4,12,12,12c6.6,0,12-5.4,12-12C24,5.4,18.6,0,12,0z M12,22C6.5,22,2,17.5,2,12
	C2,6.5,6.5,2,12,2c5.5,0,10,4.5,10,10C22,17.5,17.5,22,12,22z"/>
<path d="M15.4,10.7h-2.1V8.5c0-0.3-0.2-0.5-0.5-0.5h-1.6c-0.3,0-0.5,0.3-0.5,0.5v2.2H8.5c-0.3,0-0.5,0.2-0.5,0.5v1.6
	c0,0.3,0.3,0.5,0.5,0.5h2.1v2.2c0,0.3,0.2,0.5,0.5,0.5h1.6c0.3,0,0.5-0.2,0.5-0.5v-2.2h2.1c0.3,0,0.5-0.2,0.5-0.5v-1.6
	C15.9,10.9,15.7,10.7,15.4,10.7z"/>
</svg>
