<?xml version="1.0" encoding="utf-8"?>
<!-- Generator: Adobe Illustrator 25.3.1, SVG Export Plug-In . SVG Version: 6.00 Build 0)  -->
<svg version="1.1" id="Icons" xmlns="http://www.w3.org/2000/svg" xmlns:xlink="http://www.w3.org/1999/xlink" x="0px" y="0px"
	 viewBox="0 0 24 24" style="enable-background:new 0 0 24 24;" xml:space="preserve">
<g id="delete">
	<path d="M3.9,21.3c0,1.5,1.2,2.7,2.7,2.7h10.9c1.5,0,2.7-1.2,2.7-2.7v-16H3.9V21.3z M8.2,12.8c-0.5-0.5-0.5-1.4,0-1.9
		s1.4-0.5,1.9,0l1.9,1.9l1.9-1.9c0.5-0.5,1.4-0.5,1.9,0c0.5,0.5,0.5,1.4,0,1.9l-1.9,1.9l1.9,1.9c0.5,0.5,0.5,1.4,0,1.9
		c-0.5,0.5-1.4,0.5-1.9,0l-1.9-2l-1.9,1.9c-0.5,0.5-1.4,0.5-1.9,0s-0.5-1.4,0-1.9l1.9-1.9L8.2,12.8z M20.1,1.3h-3.4l-1-0.9
		C15.5,0.1,15.2,0,14.8,0H9.2c-0.4,0-0.7,0.1-1,0.4l-1,0.9H3.9c-0.7,0-1.4,0.6-1.4,1.3S3.1,4,3.9,4h16.3c0.7,0,1.4-0.6,1.4-1.3
		S20.9,1.3,20.1,1.3z"/>
</g>
</svg>
