<?xml version="1.0" encoding="utf-8"?>
<!-- Generator: Adobe Illustrator 25.3.1, SVG Export Plug-In . SVG Version: 6.00 Build 0)  -->
<svg version="1.1" id="Icons" xmlns="http://www.w3.org/2000/svg" xmlns:xlink="http://www.w3.org/1999/xlink" x="0px" y="0px"
	 viewBox="0 0 24 24" style="enable-background:new 0 0 24 24;" xml:space="preserve">
<path d="M17.6,15.5h-1.1l-0.4-0.4c1.7-2,2.6-4.7,2.1-7.5c-0.7-3.9-3.9-7-7.9-7.5c-6-0.7-11,4.3-10.2,10.2c0.5,3.9,3.6,7.2,7.5,7.9
	c2.9,0.5,5.5-0.4,7.5-2.1l0.4,0.4v1.1l6,6c0.6,0.6,1.5,0.6,2.1,0s0.6-1.5,0-2.1L17.6,15.5z M9.2,15.5c-3.5,0-6.3-2.8-6.3-6.3
	s2.8-6.3,6.3-6.3s6.3,2.8,6.3,6.3S12.7,15.5,9.2,15.5z"/>
</svg>
