<?xml version="1.0" encoding="utf-8"?>
<!-- Generator: Adobe Illustrator 25.3.1, SVG Export Plug-In . SVG Version: 6.00 Build 0)  -->
<svg version="1.1" id="Icons" xmlns="http://www.w3.org/2000/svg" xmlns:xlink="http://www.w3.org/1999/xlink" x="0px" y="0px"
	 viewBox="0 0 24 24" style="enable-background:new 0 0 24 24;" xml:space="preserve">
<g id="gallery">
	<path d="M23.8,21.1l-8.4-10.9C15,9.8,14.2,9.6,13.7,10c-0.1,0.1-0.2,0.1-0.2,0.2l0,0L10,14.8l2.7,3.5c0.4,0.5,0.3,1.3-0.3,1.6
		c-0.5,0.4-1.2,0.3-1.6-0.2c-1.3-1.6-2.8-3.6-3.7-4.8c-0.4-0.5-1.2-0.6-1.7-0.2c-0.1,0.1-0.2,0.1-0.2,0.2l-4.8,6.2
		c-0.4,0.5-0.3,1.3,0.2,1.6C0.7,22.9,0.9,23,1.2,23h21.6c0.7,0,1.2-0.5,1.2-1.2C24,21.6,23.9,21.3,23.8,21.1z"/>
	<path d="M0.8,6.9H3v2.2c0,0.4,0.3,0.7,0.8,0.7h1.5C5.7,9.8,6,9.5,6,9.1V6.9h2.3C8.7,6.9,9,6.5,9,6.1V4.7C9,4.3,8.7,4,8.2,4H6V1.7
		C6,1.3,5.7,1,5.3,1H3.8C3.3,1,3,1.3,3,1.7v2.2H0.8C0.3,3.9,0,4.3,0,4.7v1.5C0,6.5,0.3,6.9,0.8,6.9z"/>
</g>
</svg>
