<?xml version="1.0" encoding="utf-8"?>
<!-- Generator: Adobe Illustrator 25.0.0, SVG Export Plug-In . SVG Version: 6.00 Build 0)  -->
<svg version="1.1" id="Layer_1" xmlns="http://www.w3.org/2000/svg" xmlns:xlink="http://www.w3.org/1999/xlink" x="0px" y="0px"
	 viewBox="0 0 76.74 76.74" style="enable-background:new 0 0 76.74 76.74;" xml:space="preserve">
<style type="text/css">
	.st0{filter:url(#Adobe_OpacityMaskFilter);}
	.st1{fill:url(#SVGID_2_);}
	.st2{mask:url(#SVGID_1_);fill:url(#SVGID_3_);}
	.st3{filter:url(#Adobe_OpacityMaskFilter_1_);}
	.st4{clip-path:url(#SVGID_5_);fill:url(#SVGID_7_);}
	.st5{clip-path:url(#SVGID_5_);mask:url(#SVGID_6_);fill:url(#SVGID_8_);}
	.st6{filter:url(#Adobe_OpacityMaskFilter_2_);}
	.st7{clip-path:url(#SVGID_10_);fill:url(#SVGID_12_);}
	.st8{clip-path:url(#SVGID_10_);mask:url(#SVGID_11_);fill:url(#SVGID_13_);}
	.st9{filter:url(#Adobe_OpacityMaskFilter_3_);}
	.st10{clip-path:url(#SVGID_15_);fill:url(#SVGID_17_);}
	.st11{clip-path:url(#SVGID_15_);mask:url(#SVGID_16_);fill:url(#SVGID_18_);}
	.st12{fill-rule:evenodd;clip-rule:evenodd;fill:none;}
	.st13{filter:url(#Adobe_OpacityMaskFilter_4_);}
	.st14{fill:url(#SVGID_20_);}
	.st15{mask:url(#SVGID_19_);fill:url(#SVGID_21_);}
	.st16{filter:url(#Adobe_OpacityMaskFilter_5_);}
	.st17{clip-path:url(#SVGID_23_);fill:url(#SVGID_25_);}
	.st18{clip-path:url(#SVGID_23_);mask:url(#SVGID_24_);fill:url(#SVGID_26_);}
	.st19{filter:url(#Adobe_OpacityMaskFilter_6_);}
	.st20{clip-path:url(#SVGID_28_);fill:url(#SVGID_30_);}
	.st21{clip-path:url(#SVGID_28_);mask:url(#SVGID_29_);fill:url(#SVGID_31_);}
	.st22{fill:none;}
	.st23{filter:url(#Adobe_OpacityMaskFilter_7_);}
	.st24{fill:url(#SVGID_33_);}
	.st25{mask:url(#SVGID_32_);fill:url(#SVGID_34_);}
	.st26{filter:url(#Adobe_OpacityMaskFilter_8_);}
	.st27{clip-path:url(#SVGID_36_);fill:url(#SVGID_38_);}
	.st28{clip-path:url(#SVGID_36_);mask:url(#SVGID_37_);fill:url(#SVGID_39_);}
	.st29{filter:url(#Adobe_OpacityMaskFilter_9_);}
	.st30{clip-path:url(#SVGID_41_);fill:url(#SVGID_43_);}
	.st31{clip-path:url(#SVGID_41_);mask:url(#SVGID_42_);fill:url(#SVGID_44_);}
</style>
<defs>
	<filter id="Adobe_OpacityMaskFilter" filterUnits="userSpaceOnUse" x="122.89" y="22.72" width="147.44" height="147.43">
		<feColorMatrix  type="matrix" values="1 0 0 0 0  0 1 0 0 0  0 0 1 0 0  0 0 0 1 0"/>
	</filter>
</defs>
<mask maskUnits="userSpaceOnUse" x="122.89" y="22.72" width="147.44" height="147.43" id="SVGID_1_">
	<g class="st0">
		
			<linearGradient id="SVGID_2_" gradientUnits="userSpaceOnUse" x1="-600.5455" y1="435.2908" x2="-597.9438" y2="435.2908" gradientTransform="matrix(53.3315 -54.9234 -54.9234 -53.3315 56034.1602 -9571.8721)">
			<stop  offset="0" style="stop-color:#FFFFFF"/>
			<stop  offset="0.0551" style="stop-color:#FFFFFF"/>
			<stop  offset="0.1036" style="stop-color:#FFFFFF"/>
			<stop  offset="0.1495" style="stop-color:#FFFFFF"/>
			<stop  offset="0.1937" style="stop-color:#FFFFFF"/>
			<stop  offset="0.2144" style="stop-color:#FFFFFF"/>
			<stop  offset="0.4593" style="stop-color:#FFFFFF"/>
			<stop  offset="0.6801" style="stop-color:#FFFFFF"/>
			<stop  offset="1" style="stop-color:#FFFFFF"/>
		</linearGradient>
		<polygon class="st1" points="122.89,97.47 195.48,22.72 270.33,95.4 197.74,170.15 		"/>
	</g>
</mask>
<linearGradient id="SVGID_3_" gradientUnits="userSpaceOnUse" x1="-600.5455" y1="435.2908" x2="-597.9438" y2="435.2908" gradientTransform="matrix(53.3315 -54.9234 -54.9234 -53.3315 56034.1602 -9571.8682)">
	<stop  offset="0" style="stop-color:#FFC17C"/>
	<stop  offset="0.0551" style="stop-color:#FFBE7D"/>
	<stop  offset="0.1036" style="stop-color:#FFB37F"/>
	<stop  offset="0.1495" style="stop-color:#FFA184"/>
	<stop  offset="0.1937" style="stop-color:#FF888A"/>
	<stop  offset="0.2144" style="stop-color:#FF798D"/>
	<stop  offset="0.4593" style="stop-color:#CE16E4"/>
	<stop  offset="0.6801" style="stop-color:#4C57FF"/>
	<stop  offset="1" style="stop-color:#00F3D3"/>
</linearGradient>
<polygon class="st2" points="122.89,97.47 195.48,22.72 270.33,95.4 197.74,170.15 "/>
<g>
	<defs>
		<path id="SVGID_4_" d="M-59.71,13.52l-2.69,2.69c-1.54,1.54-3.84,1.54-5.37,0l-11.9-11.89c-4.6,1.54-9.98,0.77-13.81-3.07
			c-4.22-4.22-4.99-10.74-2.3-15.73l8.82,9.21l5.37-5.37l-8.44-9.21c4.99-2.69,11.51-1.92,15.73,2.3c3.84,3.84,4.6,9.21,3.07,13.81
			l11.89,11.89C-58.18,9.3-58.18,11.99-59.71,13.52 M-76.98-39.81c-21.1,0-38.37,17.27-38.37,38.37c0,21.1,17.27,38.37,38.37,38.37
			c21.11,0,38.37-17.27,38.37-38.37C-38.61-22.55-55.87-39.81-76.98-39.81"/>
	</defs>
	<clipPath id="SVGID_5_">
		<use xlink:href="#SVGID_4_"  style="overflow:visible;"/>
	</clipPath>
	<defs>
		<filter id="Adobe_OpacityMaskFilter_1_" filterUnits="userSpaceOnUse" x="-153.72" y="-78.18" width="153.48" height="153.48">
			<feColorMatrix  type="matrix" values="1 0 0 0 0  0 1 0 0 0  0 0 1 0 0  0 0 0 1 0"/>
		</filter>
	</defs>
	<mask maskUnits="userSpaceOnUse" x="-153.72" y="-78.18" width="153.48" height="153.48" id="SVGID_6_">
		<g class="st3">
			
				<linearGradient id="SVGID_7_" gradientUnits="userSpaceOnUse" x1="-600.41" y1="440.3987" x2="-597.6783" y2="440.3987" gradientTransform="matrix(43.8177 -43.6264 -43.6264 -43.8177 45369.5195 -6823.0967)">
				<stop  offset="0" style="stop-color:#FFFFFF"/>
				<stop  offset="0.0551" style="stop-color:#FFFFFF"/>
				<stop  offset="0.1036" style="stop-color:#FFFFFF"/>
				<stop  offset="0.1495" style="stop-color:#FFFFFF"/>
				<stop  offset="0.1937" style="stop-color:#FFFFFF"/>
				<stop  offset="0.2144" style="stop-color:#FFFFFF"/>
				<stop  offset="0.4593" style="stop-color:#FFFFFF"/>
				<stop  offset="0.6801" style="stop-color:#FFFFFF"/>
				<stop  offset="1" style="stop-color:#FFFFFF"/>
			</linearGradient>
			<polygon class="st4" points="-153.72,-1.61 -76.81,-78.18 -0.24,-1.27 -77.15,75.3 			"/>
		</g>
	</mask>
	
		<linearGradient id="SVGID_8_" gradientUnits="userSpaceOnUse" x1="-600.41" y1="440.3987" x2="-597.6783" y2="440.3987" gradientTransform="matrix(43.8177 -43.6264 -43.6264 -43.8177 45369.5195 -6823.0967)">
		<stop  offset="0" style="stop-color:#FCC07D"/>
		<stop  offset="0.0551" style="stop-color:#FBBD7D"/>
		<stop  offset="0.1036" style="stop-color:#F9B17F"/>
		<stop  offset="0.1495" style="stop-color:#F79F84"/>
		<stop  offset="0.1937" style="stop-color:#F3868A"/>
		<stop  offset="0.2144" style="stop-color:#F1788C"/>
		<stop  offset="0.4593" style="stop-color:#A14C9C"/>
		<stop  offset="0.6801" style="stop-color:#5361AB"/>
		<stop  offset="1" style="stop-color:#66C5BB"/>
	</linearGradient>
	<polygon class="st5" points="-153.72,-1.61 -76.81,-78.18 -0.24,-1.27 -77.15,75.3 	"/>
</g>
<g>
	<defs>
		<path id="SVGID_9_" d="M-24.33,43.82c-1.17,1.02-2.78,1.02-3.95,0l-0.15-0.15c-7.74-6.87-12.71-11.39-12.56-17.09
			c0.15-2.48,1.32-4.97,3.36-6.28c3.94-2.63,8.62-1.46,11.25,1.61c2.63-3.07,7.3-4.24,11.25-1.61c2.04,1.46,3.36,3.8,3.36,6.28
			C-11.62,32.28-16.59,36.81-24.33,43.82C-24.33,43.67-24.47,43.82-24.33,43.82"/>
	</defs>
	<clipPath id="SVGID_10_">
		<use xlink:href="#SVGID_9_"  style="overflow:visible;"/>
	</clipPath>
	<defs>
		<filter id="Adobe_OpacityMaskFilter_2_" filterUnits="userSpaceOnUse" x="-54.71" y="2.92" width="56.67" height="56.67">
			<feColorMatrix  type="matrix" values="1 0 0 0 0  0 1 0 0 0  0 0 1 0 0  0 0 0 1 0"/>
		</filter>
	</defs>
	<mask maskUnits="userSpaceOnUse" x="-54.71" y="2.92" width="56.67" height="56.67" id="SVGID_11_">
		<g class="st6">
			
				<linearGradient id="SVGID_12_" gradientUnits="userSpaceOnUse" x1="-600.8318" y1="437.9735" x2="-599.8318" y2="437.9735" gradientTransform="matrix(53.3315 -54.9234 -54.9234 -53.3315 56034.1602 -9571.8721)">
				<stop  offset="0" style="stop-color:#FFFFFF"/>
				<stop  offset="0.0551" style="stop-color:#FFFFFF"/>
				<stop  offset="0.1036" style="stop-color:#FFFFFF"/>
				<stop  offset="0.1495" style="stop-color:#FFFFFF"/>
				<stop  offset="0.1937" style="stop-color:#FFFFFF"/>
				<stop  offset="0.2144" style="stop-color:#FFFFFF"/>
				<stop  offset="0.4593" style="stop-color:#FFFFFF"/>
				<stop  offset="0.6801" style="stop-color:#FFFFFF"/>
				<stop  offset="1" style="stop-color:#FFFFFF"/>
			</linearGradient>
			<polygon class="st7" points="-54.71,31.66 -26.81,2.92 1.96,30.86 -25.94,59.59 			"/>
		</g>
	</mask>
	
		<linearGradient id="SVGID_13_" gradientUnits="userSpaceOnUse" x1="-600.8318" y1="437.9735" x2="-599.8318" y2="437.9735" gradientTransform="matrix(53.3315 -54.9234 -54.9234 -53.3315 56034.1602 -9571.8682)">
		<stop  offset="0" style="stop-color:#FCC07D"/>
		<stop  offset="0.0551" style="stop-color:#FBBD7D"/>
		<stop  offset="0.1036" style="stop-color:#F9B17F"/>
		<stop  offset="0.1495" style="stop-color:#F79F84"/>
		<stop  offset="0.1937" style="stop-color:#F3868A"/>
		<stop  offset="0.2144" style="stop-color:#F1788C"/>
		<stop  offset="0.4593" style="stop-color:#A14C9C"/>
		<stop  offset="0.6801" style="stop-color:#5361AB"/>
		<stop  offset="1" style="stop-color:#66C5BB"/>
	</linearGradient>
	<polygon class="st8" points="-54.71,31.66 -26.81,2.92 1.96,30.86 -25.94,59.59 	"/>
</g>
<g>
	<defs>
		<path id="SVGID_14_" d="M43.7,70.52c-3.04,2.66-7.22,2.66-10.26,0l-0.38-0.38C12.91,52.27-0.01,40.49,0.37,25.67
			c0.38-6.46,3.42-12.92,8.74-16.34c10.26-6.84,22.42-3.8,29.26,4.18c6.84-7.98,19.01-11.02,29.27-4.18
			c5.32,3.8,8.74,9.88,8.74,16.34C76.77,40.49,63.84,52.27,43.7,70.52C43.7,70.14,43.32,70.52,43.7,70.52"/>
	</defs>
	<clipPath id="SVGID_15_">
		<use xlink:href="#SVGID_14_"  style="overflow:visible;"/>
	</clipPath>
	<defs>
		<filter id="Adobe_OpacityMaskFilter_3_" filterUnits="userSpaceOnUse" x="-35.57" y="-35.75" width="148.24" height="148.24">
			<feColorMatrix  type="matrix" values="1 0 0 0 0  0 1 0 0 0  0 0 1 0 0  0 0 0 1 0"/>
		</filter>
	</defs>
	<mask maskUnits="userSpaceOnUse" x="-35.57" y="-35.75" width="148.24" height="148.24" id="SVGID_16_">
		<g class="st9">
			
				<linearGradient id="SVGID_17_" gradientUnits="userSpaceOnUse" x1="-600.549" y1="438.273" x2="-598.012" y2="438.273" gradientTransform="matrix(42.5856 42.1875 42.1875 -42.5856 7088.5718 44003.4258)">
				<stop  offset="0" style="stop-color:#FFFFFF"/>
				<stop  offset="0.0551" style="stop-color:#FFFFFF"/>
				<stop  offset="0.1036" style="stop-color:#FFFFFF"/>
				<stop  offset="0.1495" style="stop-color:#FFFFFF"/>
				<stop  offset="0.1937" style="stop-color:#FFFFFF"/>
				<stop  offset="0.2144" style="stop-color:#FFFFFF"/>
				<stop  offset="0.4593" style="stop-color:#FFFFFF"/>
				<stop  offset="0.6801" style="stop-color:#FFFFFF"/>
				<stop  offset="1" style="stop-color:#FFFFFF"/>
			</linearGradient>
			<polygon class="st10" points="38.2,-35.75 112.67,38.02 38.9,112.49 -35.57,38.72 			"/>
		</g>
	</mask>
	
		<linearGradient id="SVGID_18_" gradientUnits="userSpaceOnUse" x1="-600.549" y1="438.273" x2="-598.012" y2="438.273" gradientTransform="matrix(42.5856 42.1875 42.1875 -42.5856 7088.5718 44003.4258)">
		<stop  offset="0" style="stop-color:#FFC17C"/>
		<stop  offset="0.0551" style="stop-color:#FFBE7D"/>
		<stop  offset="0.1036" style="stop-color:#FFB37F"/>
		<stop  offset="0.1495" style="stop-color:#FFA184"/>
		<stop  offset="0.1937" style="stop-color:#FF888A"/>
		<stop  offset="0.2144" style="stop-color:#FF798D"/>
		<stop  offset="0.4593" style="stop-color:#CE16E4"/>
		<stop  offset="0.6801" style="stop-color:#4C57FF"/>
		<stop  offset="1" style="stop-color:#00F3D3"/>
	</linearGradient>
	<polygon class="st11" points="38.2,-35.75 112.67,38.02 38.9,112.49 -35.57,38.72 	"/>
</g>
<path class="st12" d="M149.25,54.51l-2.66,2.66c-1.52,1.52-3.8,1.52-5.32,0L129.5,45.39c-4.56,1.52-9.87,0.76-13.67-3.04
	c-4.18-4.18-4.94-10.63-2.28-15.57l8.73,9.11l5.32-5.32l-8.35-9.12c4.94-2.66,11.39-1.9,15.57,2.28c3.8,3.8,4.56,9.11,3.04,13.67
	l11.77,11.77C150.77,50.33,150.77,52.99,149.25,54.51 M132.16,1.72c-20.88,0-37.97,17.09-37.97,37.98
	c0,20.89,17.09,37.98,37.97,37.98c20.89,0,37.98-17.09,37.98-37.98C170.14,18.81,153.05,1.72,132.16,1.72"/>
<defs>
	<filter id="Adobe_OpacityMaskFilter_4_" filterUnits="userSpaceOnUse" x="80.49" y="-37.93" width="151.9" height="151.9">
		<feColorMatrix  type="matrix" values="1 0 0 0 0  0 1 0 0 0  0 0 1 0 0  0 0 0 1 0"/>
	</filter>
</defs>
<mask maskUnits="userSpaceOnUse" x="80.49" y="-37.93" width="151.9" height="151.9" id="SVGID_19_">
	<g class="st13">
		
			<linearGradient id="SVGID_20_" gradientUnits="userSpaceOnUse" x1="-598.1675" y1="437.283" x2="-595.464" y2="437.283" gradientTransform="matrix(43.8177 -43.6264 -43.6264 -43.8177 45369.5195 -6823.0967)">
			<stop  offset="0" style="stop-color:#FFFFFF"/>
			<stop  offset="0.0551" style="stop-color:#FFFFFF"/>
			<stop  offset="0.1036" style="stop-color:#FFFFFF"/>
			<stop  offset="0.1495" style="stop-color:#FFFFFF"/>
			<stop  offset="0.1937" style="stop-color:#FFFFFF"/>
			<stop  offset="0.2144" style="stop-color:#FFFFFF"/>
			<stop  offset="0.4593" style="stop-color:#FFFFFF"/>
			<stop  offset="0.6801" style="stop-color:#FFFFFF"/>
			<stop  offset="1" style="stop-color:#FFFFFF"/>
		</linearGradient>
		<polygon class="st14" points="80.49,37.86 156.61,-37.93 232.39,38.19 156.27,113.98 		"/>
	</g>
</mask>
<linearGradient id="SVGID_21_" gradientUnits="userSpaceOnUse" x1="-598.1675" y1="437.283" x2="-595.464" y2="437.283" gradientTransform="matrix(43.8177 -43.6264 -43.6264 -43.8177 45369.5195 -6823.0967)">
	<stop  offset="0" style="stop-color:#FFC17C"/>
	<stop  offset="0.0551" style="stop-color:#FFBE7D"/>
	<stop  offset="0.1036" style="stop-color:#FFB37F"/>
	<stop  offset="0.1495" style="stop-color:#FFA184"/>
	<stop  offset="0.1937" style="stop-color:#FF888A"/>
	<stop  offset="0.2144" style="stop-color:#FF798D"/>
	<stop  offset="0.4593" style="stop-color:#CE16E4"/>
	<stop  offset="0.6801" style="stop-color:#4C57FF"/>
	<stop  offset="1" style="stop-color:#00F3D3"/>
</linearGradient>
<polygon class="st15" points="80.49,37.86 156.61,-37.93 232.39,38.19 156.27,113.98 "/>
<g>
	<defs>
		<path id="SVGID_22_" d="M-86.62,139.45c-3.04,2.66-7.22,2.66-10.26,0l-0.38-0.38c-20.14-17.86-33.06-29.64-32.69-44.47
			c0.38-6.46,3.42-12.92,8.74-16.34c10.26-6.84,22.42-3.8,29.26,4.18c6.84-7.98,19.01-11.02,29.27-4.18
			c5.32,3.8,8.74,9.88,8.74,16.34C-53.56,109.42-66.48,121.2-86.62,139.45C-86.62,139.07-87,139.45-86.62,139.45"/>
	</defs>
	<clipPath id="SVGID_23_">
		<use xlink:href="#SVGID_22_"  style="overflow:visible;"/>
	</clipPath>
	<defs>
		<filter id="Adobe_OpacityMaskFilter_5_" filterUnits="userSpaceOnUse" x="-167.12" y="31.09" width="151.87" height="151.87">
			<feColorMatrix  type="matrix" values="1 0 0 0 0  0 1 0 0 0  0 0 1 0 0  0 0 0 1 0"/>
		</filter>
	</defs>
	<mask maskUnits="userSpaceOnUse" x="-167.12" y="31.09" width="151.87" height="151.87" id="SVGID_24_">
		<g class="st16">
			
				<linearGradient id="SVGID_25_" gradientUnits="userSpaceOnUse" x1="-601.7735" y1="439.3748" x2="-599.0699" y2="439.3748" gradientTransform="matrix(42.7148 -44.7069 -44.7069 -42.7148 45184.0391 -7952.6992)">
				<stop  offset="0" style="stop-color:#FFFFFF"/>
				<stop  offset="0.0551" style="stop-color:#FFFFFF"/>
				<stop  offset="0.1036" style="stop-color:#FFFFFF"/>
				<stop  offset="0.1495" style="stop-color:#FFFFFF"/>
				<stop  offset="0.1937" style="stop-color:#FFFFFF"/>
				<stop  offset="0.2144" style="stop-color:#FFFFFF"/>
				<stop  offset="0.4593" style="stop-color:#FFFFFF"/>
				<stop  offset="0.6801" style="stop-color:#FFFFFF"/>
				<stop  offset="1" style="stop-color:#FFFFFF"/>
			</linearGradient>
			<polygon class="st17" points="-167.12,108.75 -92.92,31.09 -15.25,105.29 -89.46,182.96 			"/>
		</g>
	</mask>
	
		<linearGradient id="SVGID_26_" gradientUnits="userSpaceOnUse" x1="-601.7735" y1="439.3748" x2="-599.0699" y2="439.3748" gradientTransform="matrix(42.7148 -44.7069 -44.7069 -42.7148 45184.0391 -7952.6992)">
		<stop  offset="0" style="stop-color:#FFC17C"/>
		<stop  offset="0.0551" style="stop-color:#FFBE7D"/>
		<stop  offset="0.1036" style="stop-color:#FFB37F"/>
		<stop  offset="0.1495" style="stop-color:#FFA184"/>
		<stop  offset="0.1937" style="stop-color:#FF888A"/>
		<stop  offset="0.2144" style="stop-color:#FF798D"/>
		<stop  offset="0.4593" style="stop-color:#CE16E4"/>
		<stop  offset="0.6801" style="stop-color:#4C57FF"/>
		<stop  offset="1" style="stop-color:#00F3D3"/>
	</linearGradient>
	<polygon class="st18" points="-167.12,108.75 -92.92,31.09 -15.25,105.29 -89.46,182.96 	"/>
</g>
<g>
	<defs>
		<path id="SVGID_27_" d="M-10.72,170.96c-2.83,2.48-6.73,2.48-9.56,0l-0.35-0.35c-18.77-16.64-30.81-27.62-30.46-41.44
			c0.35-6.02,3.19-12.04,8.15-15.23c9.56-6.37,20.89-3.54,27.27,3.9c6.38-7.44,17.71-10.27,27.27-3.9
			c4.96,3.54,8.15,9.21,8.15,15.23C20.09,142.98,8.05,153.96-10.72,170.96C-10.72,170.6-11.07,170.96-10.72,170.96"/>
	</defs>
	<clipPath id="SVGID_28_">
		<use xlink:href="#SVGID_27_"  style="overflow:visible;"/>
	</clipPath>
	<defs>
		<filter id="Adobe_OpacityMaskFilter_6_" filterUnits="userSpaceOnUse" x="-84.37" y="71.81" width="137.38" height="137.38">
			<feColorMatrix  type="matrix" values="1 0 0 0 0  0 1 0 0 0  0 0 1 0 0  0 0 0 1 0"/>
		</filter>
	</defs>
	<mask maskUnits="userSpaceOnUse" x="-84.37" y="71.81" width="137.38" height="137.38" id="SVGID_29_">
		<g class="st19">
			
				<linearGradient id="SVGID_30_" gradientUnits="userSpaceOnUse" x1="-602.7649" y1="436.8792" x2="-600.3406" y2="436.8792" gradientTransform="matrix(53.3315 -54.9234 -54.9234 -53.3315 56034.1602 -9571.8721)">
				<stop  offset="0" style="stop-color:#FFFFFF"/>
				<stop  offset="0.0551" style="stop-color:#FFFFFF"/>
				<stop  offset="0.1036" style="stop-color:#FFFFFF"/>
				<stop  offset="0.1495" style="stop-color:#FFFFFF"/>
				<stop  offset="0.1937" style="stop-color:#FFFFFF"/>
				<stop  offset="0.2144" style="stop-color:#FFFFFF"/>
				<stop  offset="0.4593" style="stop-color:#FFFFFF"/>
				<stop  offset="0.6801" style="stop-color:#FFFFFF"/>
				<stop  offset="1" style="stop-color:#FFFFFF"/>
			</linearGradient>
			<polygon class="st20" points="-84.37,141.47 -16.73,71.81 53.01,139.53 -14.63,209.19 			"/>
		</g>
	</mask>
	
		<linearGradient id="SVGID_31_" gradientUnits="userSpaceOnUse" x1="-602.7649" y1="436.8792" x2="-600.3406" y2="436.8792" gradientTransform="matrix(53.3315 -54.9234 -54.9234 -53.3315 56034.1602 -9571.8682)">
		<stop  offset="0" style="stop-color:#FFC17C"/>
		<stop  offset="0.0551" style="stop-color:#FFBE7D"/>
		<stop  offset="0.1036" style="stop-color:#FFB37F"/>
		<stop  offset="0.1495" style="stop-color:#FFA184"/>
		<stop  offset="0.1937" style="stop-color:#FF888A"/>
		<stop  offset="0.2144" style="stop-color:#FF798D"/>
		<stop  offset="0.4593" style="stop-color:#CE16E4"/>
		<stop  offset="0.6801" style="stop-color:#4C57FF"/>
		<stop  offset="1" style="stop-color:#00F3D3"/>
	</linearGradient>
	<polygon class="st21" points="-84.37,141.47 -16.73,71.81 53.01,139.53 -14.63,209.19 	"/>
</g>
<path class="st22" d="M62.82-59.72l-5.26-5.26c-0.59-0.58-0.59-1.46,0-2.05c0.58-0.58,1.46-0.58,2.04,0l4.24,4.24l10.08-10.08
	c0.58-0.58,1.46-0.58,2.05,0c0.58,0.58,0.58,1.46,0,2.05l-11.1,11.1C64.28-59.13,63.41-59.13,62.82-59.72 M66.77-80.61
	c-8.04,0-14.61,6.57-14.61,14.61c0,8.04,6.57,14.61,14.61,14.61c8.03,0,14.61-6.57,14.61-14.61C81.38-74.03,74.8-80.61,66.77-80.61"
	/>
<defs>
	<filter id="Adobe_OpacityMaskFilter_7_" filterUnits="userSpaceOnUse" x="37.55" y="-95.22" width="58.43" height="58.43">
		<feColorMatrix  type="matrix" values="1 0 0 0 0  0 1 0 0 0  0 0 1 0 0  0 0 0 1 0"/>
	</filter>
</defs>
<mask maskUnits="userSpaceOnUse" x="37.55" y="-95.22" width="58.43" height="58.43" id="SVGID_32_">
	<g class="st23">
		
			<linearGradient id="SVGID_33_" gradientUnits="userSpaceOnUse" x1="-600.941" y1="439.8412" x2="-599.941" y2="439.8412" gradientTransform="matrix(42.5856 42.1875 42.1875 -42.5856 7088.5718 44003.4258)">
			<stop  offset="0" style="stop-color:#FFFFFF"/>
			<stop  offset="0.0551" style="stop-color:#FFFFFF"/>
			<stop  offset="0.1036" style="stop-color:#FFFFFF"/>
			<stop  offset="0.1495" style="stop-color:#FFFFFF"/>
			<stop  offset="0.1937" style="stop-color:#FFFFFF"/>
			<stop  offset="0.2144" style="stop-color:#FFFFFF"/>
			<stop  offset="0.4593" style="stop-color:#FFFFFF"/>
			<stop  offset="0.6801" style="stop-color:#FFFFFF"/>
			<stop  offset="1" style="stop-color:#FFFFFF"/>
		</linearGradient>
		<polygon class="st24" points="66.63,-95.22 95.98,-66.14 66.9,-36.78 37.55,-65.86 		"/>
	</g>
</mask>
<linearGradient id="SVGID_34_" gradientUnits="userSpaceOnUse" x1="-600.941" y1="439.8412" x2="-599.941" y2="439.8412" gradientTransform="matrix(42.5856 42.1875 42.1875 -42.5856 7088.5718 44003.4258)">
	<stop  offset="0" style="stop-color:#FFC17C"/>
	<stop  offset="0.0551" style="stop-color:#FFBE7D"/>
	<stop  offset="0.1036" style="stop-color:#FFB37F"/>
	<stop  offset="0.1495" style="stop-color:#FFA184"/>
	<stop  offset="0.1937" style="stop-color:#FF888A"/>
	<stop  offset="0.2144" style="stop-color:#FF798D"/>
	<stop  offset="0.4593" style="stop-color:#CE16E4"/>
	<stop  offset="0.6801" style="stop-color:#4C57FF"/>
	<stop  offset="1" style="stop-color:#00F3D3"/>
</linearGradient>
<polygon class="st25" points="66.63,-95.22 95.98,-66.14 66.9,-36.78 37.55,-65.86 "/>
<g>
	<defs>
		<path id="SVGID_35_" d="M88.05,202.24l-2.63,2.63c-1.5,1.5-3.76,1.5-5.26,0l-11.65-11.65c-4.51,1.5-9.77,0.75-13.53-3.01
			c-4.13-4.13-4.89-10.52-2.25-15.41l8.64,9.02l5.26-5.26l-8.27-9.02c4.89-2.63,11.27-1.88,15.41,2.26
			c3.76,3.76,4.51,9.02,3.01,13.53l11.65,11.65C89.55,198.1,89.55,200.73,88.05,202.24 M71.14,150c-20.67,0-37.58,16.91-37.58,37.58
			c0,20.67,16.91,37.58,37.58,37.58c20.67,0,37.58-16.91,37.58-37.58C108.72,166.91,91.81,150,71.14,150"/>
	</defs>
	<clipPath id="SVGID_36_">
		<use xlink:href="#SVGID_35_"  style="overflow:visible;"/>
	</clipPath>
	<defs>
		<filter id="Adobe_OpacityMaskFilter_8_" filterUnits="userSpaceOnUse" x="-4.02" y="112.42" width="150.32" height="150.32">
			<feColorMatrix  type="matrix" values="1 0 0 0 0  0 1 0 0 0  0 0 1 0 0  0 0 0 1 0"/>
		</filter>
	</defs>
	<mask maskUnits="userSpaceOnUse" x="-4.02" y="112.42" width="150.32" height="150.32" id="SVGID_37_">
		<g class="st26">
			
				<linearGradient id="SVGID_38_" gradientUnits="userSpaceOnUse" x1="-600.834" y1="436.5422" x2="-598.1586" y2="436.5422" gradientTransform="matrix(43.8177 -43.6264 -43.6264 -43.8177 45369.5195 -6823.0967)">
				<stop  offset="0" style="stop-color:#FFFFFF"/>
				<stop  offset="0.0551" style="stop-color:#FFFFFF"/>
				<stop  offset="0.1036" style="stop-color:#FFFFFF"/>
				<stop  offset="0.1495" style="stop-color:#FFFFFF"/>
				<stop  offset="0.1937" style="stop-color:#FFFFFF"/>
				<stop  offset="0.2144" style="stop-color:#FFFFFF"/>
				<stop  offset="0.4593" style="stop-color:#FFFFFF"/>
				<stop  offset="0.6801" style="stop-color:#FFFFFF"/>
				<stop  offset="1" style="stop-color:#FFFFFF"/>
			</linearGradient>
			<polygon class="st27" points="-4.02,187.42 71.3,112.42 146.3,187.75 70.97,262.74 			"/>
		</g>
	</mask>
	
		<linearGradient id="SVGID_39_" gradientUnits="userSpaceOnUse" x1="-600.834" y1="436.5422" x2="-598.1586" y2="436.5422" gradientTransform="matrix(43.8177 -43.6264 -43.6264 -43.8177 45369.5195 -6823.0967)">
		<stop  offset="0" style="stop-color:#FFC17C"/>
		<stop  offset="0.0551" style="stop-color:#FFBE7D"/>
		<stop  offset="0.1036" style="stop-color:#FFB37F"/>
		<stop  offset="0.1495" style="stop-color:#FFA184"/>
		<stop  offset="0.1937" style="stop-color:#FF888A"/>
		<stop  offset="0.2144" style="stop-color:#FF798D"/>
		<stop  offset="0.4593" style="stop-color:#CE16E4"/>
		<stop  offset="0.6801" style="stop-color:#4C57FF"/>
		<stop  offset="1" style="stop-color:#00F3D3"/>
	</linearGradient>
	<polygon class="st28" points="-4.02,187.42 71.3,112.42 146.3,187.75 70.97,262.74 	"/>
</g>
<g>
	<defs>
		<path id="SVGID_40_" d="M170.15,217.31c-3.04,2.66-7.22,2.66-10.26,0l-0.38-0.38c-20.14-17.86-33.06-29.64-32.69-44.47
			c0.38-6.46,3.42-12.92,8.74-16.34c10.26-6.84,22.42-3.8,29.26,4.18c6.84-7.98,19.01-11.02,29.27-4.18
			c5.32,3.8,8.74,9.88,8.74,16.34C203.21,187.28,190.29,199.06,170.15,217.31C170.15,216.93,169.77,217.31,170.15,217.31"/>
	</defs>
	<clipPath id="SVGID_41_">
		<use xlink:href="#SVGID_40_"  style="overflow:visible;"/>
	</clipPath>
	<defs>
		<filter id="Adobe_OpacityMaskFilter_9_" filterUnits="userSpaceOnUse" x="90.88" y="111.04" width="148.24" height="148.24">
			<feColorMatrix  type="matrix" values="1 0 0 0 0  0 1 0 0 0  0 0 1 0 0  0 0 0 1 0"/>
		</filter>
	</defs>
	<mask maskUnits="userSpaceOnUse" x="90.88" y="111.04" width="148.24" height="148.24" id="SVGID_42_">
		<g class="st29">
			
				<linearGradient id="SVGID_43_" gradientUnits="userSpaceOnUse" x1="-597.327" y1="438.0179" x2="-594.7901" y2="438.0179" gradientTransform="matrix(42.5856 42.1875 42.1875 -42.5856 7088.5718 44003.4258)">
				<stop  offset="0" style="stop-color:#FFFFFF"/>
				<stop  offset="0.0551" style="stop-color:#FFFFFF"/>
				<stop  offset="0.1036" style="stop-color:#FFFFFF"/>
				<stop  offset="0.1495" style="stop-color:#FFFFFF"/>
				<stop  offset="0.1937" style="stop-color:#FFFFFF"/>
				<stop  offset="0.2144" style="stop-color:#FFFFFF"/>
				<stop  offset="0.4593" style="stop-color:#FFFFFF"/>
				<stop  offset="0.6801" style="stop-color:#FFFFFF"/>
				<stop  offset="1" style="stop-color:#FFFFFF"/>
			</linearGradient>
			<polygon class="st30" points="164.65,111.04 239.12,184.81 165.35,259.28 90.88,185.51 			"/>
		</g>
	</mask>
	
		<linearGradient id="SVGID_44_" gradientUnits="userSpaceOnUse" x1="-597.327" y1="438.0179" x2="-594.7901" y2="438.0179" gradientTransform="matrix(42.5856 42.1875 42.1875 -42.5856 7088.5718 44003.4258)">
		<stop  offset="0" style="stop-color:#FFC17C"/>
		<stop  offset="0.0551" style="stop-color:#FFBE7D"/>
		<stop  offset="0.1036" style="stop-color:#FFB37F"/>
		<stop  offset="0.1495" style="stop-color:#FFA184"/>
		<stop  offset="0.1937" style="stop-color:#FF888A"/>
		<stop  offset="0.2144" style="stop-color:#FF798D"/>
		<stop  offset="0.4593" style="stop-color:#CE16E4"/>
		<stop  offset="0.6801" style="stop-color:#4C57FF"/>
		<stop  offset="1" style="stop-color:#00F3D3"/>
	</linearGradient>
	<polygon class="st31" points="164.65,111.04 239.12,184.81 165.35,259.28 90.88,185.51 	"/>
</g>
</svg>
