<?xml version="1.0" encoding="utf-8"?>
<!-- Generator: Adobe Illustrator 25.0.0, SVG Export Plug-In . SVG Version: 6.00 Build 0)  -->
<svg version="1.1" id="Layer_1" xmlns="http://www.w3.org/2000/svg" xmlns:xlink="http://www.w3.org/1999/xlink" x="0px" y="0px"
	 viewBox="0 0 76.74 76.74" style="enable-background:new 0 0 76.74 76.74;" xml:space="preserve">
<style type="text/css">
	.st0{filter:url(#Adobe_OpacityMaskFilter);}
	.st1{clip-path:url(#SVGID_2_);fill:url(#SVGID_4_);}
	.st2{clip-path:url(#SVGID_2_);mask:url(#SVGID_3_);fill:url(#SVGID_5_);}
	.st3{filter:url(#Adobe_OpacityMaskFilter_1_);}
	.st4{clip-path:url(#SVGID_7_);fill:url(#SVGID_9_);}
	.st5{clip-path:url(#SVGID_7_);mask:url(#SVGID_8_);fill:url(#SVGID_10_);}
	.st6{filter:url(#Adobe_OpacityMaskFilter_2_);}
	.st7{clip-path:url(#SVGID_12_);fill:url(#SVGID_14_);}
	.st8{clip-path:url(#SVGID_12_);mask:url(#SVGID_13_);fill:url(#SVGID_15_);}
	.st9{filter:url(#Adobe_OpacityMaskFilter_3_);}
	.st10{clip-path:url(#SVGID_17_);fill:url(#SVGID_19_);}
	.st11{clip-path:url(#SVGID_17_);mask:url(#SVGID_18_);fill:url(#SVGID_20_);}
</style>
<g>
	<defs>
		<path id="SVGID_1_" d="M-59.71,13.52l-2.69,2.69c-1.54,1.54-3.84,1.54-5.37,0l-11.9-11.89c-4.6,1.54-9.98,0.77-13.81-3.07
			c-4.22-4.22-4.99-10.74-2.3-15.73l8.82,9.21l5.37-5.37l-8.44-9.21c4.99-2.69,11.51-1.92,15.73,2.3c3.84,3.84,4.6,9.21,3.07,13.81
			l11.89,11.89C-58.18,9.3-58.18,11.99-59.71,13.52 M-76.98-39.81c-21.1,0-38.37,17.27-38.37,38.37c0,21.1,17.27,38.37,38.37,38.37
			c21.11,0,38.37-17.27,38.37-38.37C-38.61-22.55-55.87-39.81-76.98-39.81"/>
	</defs>
	<clipPath id="SVGID_2_">
		<use xlink:href="#SVGID_1_"  style="overflow:visible;"/>
	</clipPath>
	<defs>
		<filter id="Adobe_OpacityMaskFilter" filterUnits="userSpaceOnUse" x="-153.72" y="-78.18" width="153.48" height="153.48">
			<feColorMatrix  type="matrix" values="1 0 0 0 0  0 1 0 0 0  0 0 1 0 0  0 0 0 1 0"/>
		</filter>
	</defs>
	<mask maskUnits="userSpaceOnUse" x="-153.72" y="-78.18" width="153.48" height="153.48" id="SVGID_3_">
		<g class="st0">
			
				<linearGradient id="SVGID_4_" gradientUnits="userSpaceOnUse" x1="-600.41" y1="440.3987" x2="-597.6783" y2="440.3987" gradientTransform="matrix(43.8177 -43.6264 -43.6264 -43.8177 45369.5195 -6823.0967)">
				<stop  offset="0" style="stop-color:#FFFFFF"/>
				<stop  offset="0.0551" style="stop-color:#FFFFFF"/>
				<stop  offset="0.1036" style="stop-color:#FFFFFF"/>
				<stop  offset="0.1495" style="stop-color:#FFFFFF"/>
				<stop  offset="0.1937" style="stop-color:#FFFFFF"/>
				<stop  offset="0.2144" style="stop-color:#FFFFFF"/>
				<stop  offset="0.4593" style="stop-color:#FFFFFF"/>
				<stop  offset="0.6801" style="stop-color:#FFFFFF"/>
				<stop  offset="1" style="stop-color:#FFFFFF"/>
			</linearGradient>
			<polygon class="st1" points="-153.72,-1.61 -76.81,-78.18 -0.24,-1.27 -77.15,75.3 			"/>
		</g>
	</mask>
	
		<linearGradient id="SVGID_5_" gradientUnits="userSpaceOnUse" x1="-600.41" y1="440.3987" x2="-597.6783" y2="440.3987" gradientTransform="matrix(43.8177 -43.6264 -43.6264 -43.8177 45369.5195 -6823.0967)">
		<stop  offset="0" style="stop-color:#FCC07D"/>
		<stop  offset="0.0551" style="stop-color:#FBBD7D"/>
		<stop  offset="0.1036" style="stop-color:#F9B17F"/>
		<stop  offset="0.1495" style="stop-color:#F79F84"/>
		<stop  offset="0.1937" style="stop-color:#F3868A"/>
		<stop  offset="0.2144" style="stop-color:#F1788C"/>
		<stop  offset="0.4593" style="stop-color:#A14C9C"/>
		<stop  offset="0.6801" style="stop-color:#5361AB"/>
		<stop  offset="1" style="stop-color:#66C5BB"/>
	</linearGradient>
	<polygon class="st2" points="-153.72,-1.61 -76.81,-78.18 -0.24,-1.27 -77.15,75.3 	"/>
</g>
<g>
	<defs>
		<path id="SVGID_6_" d="M-24.33,43.82c-1.17,1.02-2.78,1.02-3.95,0l-0.15-0.15c-7.74-6.87-12.71-11.39-12.56-17.09
			c0.15-2.48,1.32-4.97,3.36-6.28c3.94-2.63,8.62-1.46,11.25,1.61c2.63-3.07,7.3-4.24,11.25-1.61c2.04,1.46,3.36,3.8,3.36,6.28
			C-11.62,32.28-16.59,36.81-24.33,43.82C-24.33,43.67-24.47,43.82-24.33,43.82"/>
	</defs>
	<clipPath id="SVGID_7_">
		<use xlink:href="#SVGID_6_"  style="overflow:visible;"/>
	</clipPath>
	<defs>
		<filter id="Adobe_OpacityMaskFilter_1_" filterUnits="userSpaceOnUse" x="-54.71" y="2.92" width="56.67" height="56.67">
			<feColorMatrix  type="matrix" values="1 0 0 0 0  0 1 0 0 0  0 0 1 0 0  0 0 0 1 0"/>
		</filter>
	</defs>
	<mask maskUnits="userSpaceOnUse" x="-54.71" y="2.92" width="56.67" height="56.67" id="SVGID_8_">
		<g class="st3">
			
				<linearGradient id="SVGID_9_" gradientUnits="userSpaceOnUse" x1="-600.8318" y1="437.9735" x2="-599.8318" y2="437.9735" gradientTransform="matrix(53.3315 -54.9234 -54.9234 -53.3315 56034.1602 -9571.8721)">
				<stop  offset="0" style="stop-color:#FFFFFF"/>
				<stop  offset="0.0551" style="stop-color:#FFFFFF"/>
				<stop  offset="0.1036" style="stop-color:#FFFFFF"/>
				<stop  offset="0.1495" style="stop-color:#FFFFFF"/>
				<stop  offset="0.1937" style="stop-color:#FFFFFF"/>
				<stop  offset="0.2144" style="stop-color:#FFFFFF"/>
				<stop  offset="0.4593" style="stop-color:#FFFFFF"/>
				<stop  offset="0.6801" style="stop-color:#FFFFFF"/>
				<stop  offset="1" style="stop-color:#FFFFFF"/>
			</linearGradient>
			<polygon class="st4" points="-54.71,31.66 -26.81,2.92 1.96,30.86 -25.94,59.59 			"/>
		</g>
	</mask>
	
		<linearGradient id="SVGID_10_" gradientUnits="userSpaceOnUse" x1="-600.8318" y1="437.9735" x2="-599.8318" y2="437.9735" gradientTransform="matrix(53.3315 -54.9234 -54.9234 -53.3315 56034.1602 -9571.8682)">
		<stop  offset="0" style="stop-color:#FCC07D"/>
		<stop  offset="0.0551" style="stop-color:#FBBD7D"/>
		<stop  offset="0.1036" style="stop-color:#F9B17F"/>
		<stop  offset="0.1495" style="stop-color:#F79F84"/>
		<stop  offset="0.1937" style="stop-color:#F3868A"/>
		<stop  offset="0.2144" style="stop-color:#F1788C"/>
		<stop  offset="0.4593" style="stop-color:#A14C9C"/>
		<stop  offset="0.6801" style="stop-color:#5361AB"/>
		<stop  offset="1" style="stop-color:#66C5BB"/>
	</linearGradient>
	<polygon class="st5" points="-54.71,31.66 -26.81,2.92 1.96,30.86 -25.94,59.59 	"/>
</g>
<g>
	<defs>
		<path id="SVGID_11_" d="M108.37,32.66c-1.17,1.02-2.78,1.02-3.95,0l-0.15-0.15c-7.74-6.87-12.71-11.39-12.56-17.09
			c0.15-2.48,1.32-4.97,3.36-6.28c3.94-2.63,8.62-1.46,11.25,1.61c2.63-3.07,7.3-4.24,11.25-1.61c2.04,1.46,3.36,3.8,3.36,6.28
			C121.08,21.12,116.11,25.64,108.37,32.66C108.37,32.51,108.22,32.66,108.37,32.66"/>
	</defs>
	<clipPath id="SVGID_12_">
		<use xlink:href="#SVGID_11_"  style="overflow:visible;"/>
	</clipPath>
	<defs>
		<filter id="Adobe_OpacityMaskFilter_2_" filterUnits="userSpaceOnUse" x="77.99" y="-8.24" width="56.67" height="56.67">
			<feColorMatrix  type="matrix" values="1 0 0 0 0  0 1 0 0 0  0 0 1 0 0  0 0 0 1 0"/>
		</filter>
	</defs>
	<mask maskUnits="userSpaceOnUse" x="77.99" y="-8.24" width="56.67" height="56.67" id="SVGID_13_">
		<g class="st6">
			
				<linearGradient id="SVGID_14_" gradientUnits="userSpaceOnUse" x1="-599.5197" y1="436.8316" x2="-598.5197" y2="436.8316" gradientTransform="matrix(53.3315 -54.9234 -54.9234 -53.3315 56034.1602 -9571.8721)">
				<stop  offset="0" style="stop-color:#FFFFFF"/>
				<stop  offset="0.0551" style="stop-color:#FFFFFF"/>
				<stop  offset="0.1036" style="stop-color:#FFFFFF"/>
				<stop  offset="0.1495" style="stop-color:#FFFFFF"/>
				<stop  offset="0.1937" style="stop-color:#FFFFFF"/>
				<stop  offset="0.2144" style="stop-color:#FFFFFF"/>
				<stop  offset="0.4593" style="stop-color:#FFFFFF"/>
				<stop  offset="0.6801" style="stop-color:#FFFFFF"/>
				<stop  offset="1" style="stop-color:#FFFFFF"/>
			</linearGradient>
			<polygon class="st7" points="77.99,20.49 105.89,-8.24 134.66,19.69 106.76,48.43 			"/>
		</g>
	</mask>
	
		<linearGradient id="SVGID_15_" gradientUnits="userSpaceOnUse" x1="-599.5197" y1="436.8316" x2="-598.5197" y2="436.8316" gradientTransform="matrix(53.3315 -54.9234 -54.9234 -53.3315 56034.1602 -9571.8682)">
		<stop  offset="0" style="stop-color:#FFC17C"/>
		<stop  offset="0.0551" style="stop-color:#FFBE7D"/>
		<stop  offset="0.1036" style="stop-color:#FFB37F"/>
		<stop  offset="0.1495" style="stop-color:#FFA184"/>
		<stop  offset="0.1937" style="stop-color:#FF888A"/>
		<stop  offset="0.2144" style="stop-color:#FF798D"/>
		<stop  offset="0.4593" style="stop-color:#CE16E4"/>
		<stop  offset="0.6801" style="stop-color:#4C57FF"/>
		<stop  offset="1" style="stop-color:#00F3D3"/>
	</linearGradient>
	<polygon class="st8" points="77.99,20.49 105.89,-8.24 134.66,19.69 106.76,48.43 	"/>
</g>
<g>
	<defs>
		<path id="SVGID_16_" d="M55.48,53.21l-2.66,2.66c-1.52,1.52-3.8,1.52-5.32,0L35.73,44.09c-4.56,1.52-9.87,0.76-13.67-3.04
			c-4.18-4.18-4.94-10.63-2.28-15.57l8.73,9.11l5.32-5.32l-8.35-9.12c4.94-2.66,11.39-1.9,15.57,2.28c3.8,3.8,4.56,9.11,3.04,13.67
			l11.77,11.77C57,49.03,57,51.69,55.48,53.21 M38.39,0.42C17.51,0.42,0.42,17.51,0.42,38.4c0,20.89,17.09,37.98,37.97,37.98
			c20.89,0,37.98-17.09,37.98-37.98C76.37,17.51,59.28,0.42,38.39,0.42"/>
	</defs>
	<clipPath id="SVGID_17_">
		<use xlink:href="#SVGID_16_"  style="overflow:visible;"/>
	</clipPath>
	<defs>
		<filter id="Adobe_OpacityMaskFilter_3_" filterUnits="userSpaceOnUse" x="-37.56" y="-37.56" width="151.9" height="151.9">
			<feColorMatrix  type="matrix" values="1 0 0 0 0  0 1 0 0 0  0 0 1 0 0  0 0 0 1 0"/>
		</filter>
	</defs>
	<mask maskUnits="userSpaceOnUse" x="-37.56" y="-37.56" width="151.9" height="151.9" id="SVGID_18_">
		<g class="st9">
			
				<linearGradient id="SVGID_19_" gradientUnits="userSpaceOnUse" x1="-599.5247" y1="438.6257" x2="-596.8211" y2="438.6257" gradientTransform="matrix(43.8177 -43.6264 -43.6264 -43.8177 45369.5195 -6823.0967)">
				<stop  offset="0" style="stop-color:#FFFFFF"/>
				<stop  offset="0.0551" style="stop-color:#FFFFFF"/>
				<stop  offset="0.1036" style="stop-color:#FFFFFF"/>
				<stop  offset="0.1495" style="stop-color:#FFFFFF"/>
				<stop  offset="0.1937" style="stop-color:#FFFFFF"/>
				<stop  offset="0.2144" style="stop-color:#FFFFFF"/>
				<stop  offset="0.4593" style="stop-color:#FFFFFF"/>
				<stop  offset="0.6801" style="stop-color:#FFFFFF"/>
				<stop  offset="1" style="stop-color:#FFFFFF"/>
			</linearGradient>
			<polygon class="st10" points="-37.56,38.23 38.56,-37.56 114.34,38.56 38.23,114.35 			"/>
		</g>
	</mask>
	
		<linearGradient id="SVGID_20_" gradientUnits="userSpaceOnUse" x1="-599.5247" y1="438.6257" x2="-596.8211" y2="438.6257" gradientTransform="matrix(43.8177 -43.6264 -43.6264 -43.8177 45369.5195 -6823.0967)">
		<stop  offset="0" style="stop-color:#FFC17C"/>
		<stop  offset="0.0551" style="stop-color:#FFBE7D"/>
		<stop  offset="0.1036" style="stop-color:#FFB37F"/>
		<stop  offset="0.1495" style="stop-color:#FFA184"/>
		<stop  offset="0.1937" style="stop-color:#FF888A"/>
		<stop  offset="0.2144" style="stop-color:#FF798D"/>
		<stop  offset="0.4593" style="stop-color:#CE16E4"/>
		<stop  offset="0.6801" style="stop-color:#4C57FF"/>
		<stop  offset="1" style="stop-color:#00F3D3"/>
	</linearGradient>
	<polygon class="st11" points="-37.56,38.23 38.56,-37.56 114.34,38.56 38.23,114.35 	"/>
</g>
</svg>
