<?xml version="1.0" encoding="utf-8"?>
<!-- Generator: Adobe Illustrator 25.3.1, SVG Export Plug-In . SVG Version: 6.00 Build 0)  -->
<svg version="1.1" id="Icons" xmlns="http://www.w3.org/2000/svg" xmlns:xlink="http://www.w3.org/1999/xlink" x="0px" y="0px"
	 viewBox="0 0 24 24" style="enable-background:new 0 0 24 24;" xml:space="preserve">
<path id="like" d="M21.2,2.7C18,0.5,14.1,1.5,12,4C9.9,1.5,6,0.5,2.8,2.7C1.1,3.8,0.1,5.7,0,7.8c-0.2,4.6,4,8.3,10.3,14l0.1,0.1
	c0.9,0.8,2.3,0.8,3.2,0l0.1-0.1c6.3-5.7,10.4-9.4,10.3-14C23.9,5.7,22.9,3.8,21.2,2.7z M12.1,20L12,20.1L11.9,20
	c-5.7-5.1-9.5-8.5-9.5-12c0-2.3,1.7-4.1,4-4.2c0.1,0,0.1,0,0.2,0c1.9,0,3.5,1.1,4.3,2.8h2.2c0.7-1.7,2.4-2.8,4.3-2.8
	c2.3-0.1,4.1,1.7,4.2,4c0,0.1,0,0.1,0,0.2C21.6,11.5,17.8,14.9,12.1,20L12.1,20z"/>
</svg>
