<?xml version="1.0" encoding="utf-8"?>
<!-- Generator: Adobe Illustrator 25.3.1, SVG Export Plug-In . SVG Version: 6.00 Build 0)  -->
<svg version="1.1" id="Icons" xmlns="http://www.w3.org/2000/svg" xmlns:xlink="http://www.w3.org/1999/xlink" x="0px" y="0px"
	 viewBox="0 0 24 24" style="enable-background:new 0 0 24 24;" xml:space="preserve">
<path id="playlogs" d="M17.1,24H6.9C3.1,24,0,20.9,0,17.1V6.9C0,5,0.7,3.3,2,2s3-2,4.8-2h10.3C19,0,20.7,0.7,22,2s2,3,2,4.8v10.3
	C24,20.9,20.9,24,17.1,24z M9.5,6.3C9,6.3,8.6,6.7,8.6,7.2l0,0v9.6c0,0.5,0.4,0.9,0.9,0.9c0.2,0,0.3-0.1,0.5-0.2l7.3-4.8
	c0.3-0.2,0.4-0.5,0.4-0.8s-0.2-0.6-0.4-0.8L10,6.4C9.8,6.3,9.6,6.3,9.5,6.3L9.5,6.3z"/>
</svg>
