<?xml version="1.0" encoding="utf-8"?>
<!-- Generator: Adobe Illustrator 25.3.1, SVG Export Plug-In . SVG Version: 6.00 Build 0)  -->
<svg version="1.1" id="Icons" xmlns="http://www.w3.org/2000/svg" xmlns:xlink="http://www.w3.org/1999/xlink" x="0px" y="0px"
	 viewBox="0 0 24 24" style="enable-background:new 0 0 24 24;" xml:space="preserve">
<path id="mic" d="M12,15.2c2,0,3.7-1.7,3.7-3.8l0,0V3.8C15.7,1.7,14.1,0,12,0c-2,0-3.7,1.6-3.7,3.7c0,0,0,0,0,0.1v7.6
	C8.3,13.4,9.9,15.1,12,15.2L12,15.2z M19.3,11.4c-0.6,0-1.1,0.5-1.2,1.1c-0.5,3.4-3.7,5.7-7,5.2c-2.6-0.4-4.7-2.5-5.1-5.2
	c-0.1-0.6-0.6-1.1-1.2-1.1c-0.7,0-1.2,0.6-1.2,1.3c0,0.1,0,0.1,0,0.2c0.6,3.8,3.5,6.7,7.3,7.3v2.6c0,0.7,0.5,1.2,1.2,1.2
	s1.2-0.6,1.2-1.2l0,0v-2.6c3.7-0.6,6.7-3.5,7.3-7.3c0.1-0.7-0.4-1.3-1-1.4C19.4,11.4,19.3,11.4,19.3,11.4z"/>
</svg>
