<?xml version="1.0" encoding="utf-8"?>
<!-- Generator: Adobe Illustrator 25.3.1, SVG Export Plug-In . SVG Version: 6.00 Build 0)  -->
<svg version="1.1" id="Icons" xmlns="http://www.w3.org/2000/svg" xmlns:xlink="http://www.w3.org/1999/xlink" x="0px" y="0px"
	 viewBox="0 0 24 24" style="enable-background:new 0 0 24 24;" xml:space="preserve">
<g id="mic_inactive">
	<path d="M12,15.2L12,15.2c2.1,0,3.7-1.7,3.7-3.8l0,0V3.8C15.7,1.7,14.1,0,12,0c-2,0-3.7,1.6-3.7,3.7c0,0,0,0,0,0.1v7.6
		C8.3,13.4,9.9,15.1,12,15.2z M10.5,3.5C10.5,2.7,11.2,2,12,2s1.5,0.7,1.5,1.5v8c0,0.8-0.7,1.5-1.5,1.5s-1.5-0.7-1.5-1.5V3.5z"/>
	<path d="M19.4,11.4c-0.1,0-0.1,0-0.2,0c-0.6,0-1.1,0.5-1.2,1.1c-0.5,3.4-3.7,5.7-7,5.2c-2.6-0.4-4.7-2.5-5.1-5.2
		c-0.1-0.6-0.6-1.1-1.2-1.1c-0.7,0-1.2,0.6-1.2,1.3c0,0.1,0,0.1,0,0.2c0.6,3.8,3.5,6.7,7.3,7.3v2.6c0,0.7,0.5,1.2,1.2,1.2
		s1.2-0.6,1.2-1.2l0,0v-2.6c3.7-0.6,6.7-3.5,7.3-7.3C20.6,12.1,20.1,11.5,19.4,11.4z"/>
</g>
</svg>
