<?xml version="1.0" encoding="utf-8"?>
<!-- Generator: Adobe Illustrator 25.3.1, SVG Export Plug-In . SVG Version: 6.00 Build 0)  -->
<svg version="1.1" id="Icons" xmlns="http://www.w3.org/2000/svg" xmlns:xlink="http://www.w3.org/1999/xlink" x="0px" y="0px"
	 viewBox="0 0 24 24" style="enable-background:new 0 0 24 24;" xml:space="preserve">
<path id="more_vertical" d="M12,6.1c1.7,0,3-1.3,3-3s-1.3-3-3-3s-3,1.3-3,3C9,4.7,10.3,6.1,12,6.1z M12,9.1c-1.7,0-3,1.3-3,3
	s1.3,3,3,3s3-1.3,3-3S13.7,9.1,12,9.1z M12,18.1c-1.7,0-3,1.3-3,3s1.3,3,3,3s3-1.3,3-3S13.7,18.1,12,18.1z"/>
</svg>
