<?xml version="1.0" encoding="utf-8"?>
<!-- Generator: Adobe Illustrator 25.3.1, SVG Export Plug-In . SVG Version: 6.00 Build 0)  -->
<svg version="1.1" id="Icons" xmlns="http://www.w3.org/2000/svg" xmlns:xlink="http://www.w3.org/1999/xlink" x="0px" y="0px"
	 viewBox="0 0 24 24" style="enable-background:new 0 0 24 24;" xml:space="preserve">
<path id="people" d="M19.6,21v-3.4c0-1.9-1.1-3.3-2.5-4.4c3,0.4,6.9,1.9,6.9,4.4v2.2c0,0.6-0.5,1.1-1.1,1.1L19.6,21L19.6,21z
	 M1.1,21C0.5,21,0,20.5,0,19.9v-2.2c0-3,5.8-4.5,8.7-4.5s8.7,1.5,8.7,4.5v2.2c0,0.6-0.5,1.1-1.1,1.1H1.1z M13.8,11.7
	c1.9-2.5,1.9-6,0-8.5c0.5-0.2,1-0.3,1.5-0.3c2.4,0,4.4,2.1,4.4,4.5l0,0c0.1,2.4-1.7,4.4-4.1,4.5C14.9,12,14.4,11.9,13.8,11.7
	L13.8,11.7z M4.4,7.5C4.3,5.1,6.3,3,8.7,3s4.4,2.1,4.4,4.5S11.2,12,8.7,12C6.3,12,4.3,9.9,4.4,7.5z"/>
</svg>
