<?xml version="1.0" encoding="utf-8"?>
<!-- Generator: Adobe Illustrator 25.2.1, SVG Export Plug-In . SVG Version: 6.00 Build 0)  -->
<svg version="1.1" id="Layer_1" xmlns="http://www.w3.org/2000/svg" xmlns:xlink="http://www.w3.org/1999/xlink" x="0px" y="0px"
	 viewBox="0 0 1023 202.9" style="enable-background:new 0 0 1023 202.9;" xml:space="preserve">
<style type="text/css">
	.st0{fill:#212121;}
</style>
<g>
	<path class="st0" d="M101.2,151.9c-27.9,0-50.6-22.6-50.6-50.6c0-27.9,22.6-50.6,50.6-50.6s50.6,22.6,50.6,50.6
		C151.7,129.3,129.1,151.9,101.2,151.9 M101.2,0.2C45.3,0.2,0,45.5,0,101.3v99.9c0,0.7,0.6,1.3,1.3,1.3c0.4,0,0.7-0.2,1-0.4
		c26.5-25.8,50.4-11.9,50.4-11.9h0c14.4,7.9,30.9,12.4,48.5,12.4c55.9,0,101.2-45.3,101.2-101.2C202.3,45.5,157,0.2,101.2,0.2"/>
	<path class="st0" d="M274.2,97.5c0-0.2,0-0.3,0-0.5c0.3-21.7,17.2-41.1,39.1-41.1c23.6,0,40.6,20.6,40.6,42.1
		c0,22.5-17,41.4-39.7,41.4C291.2,139.4,274.2,120.5,274.2,97.5 M376,97.9c0-0.2,0-0.4,0-0.6c0-8.6-1.8-16.9-5-24.3
		c-8.5-20.7-27-35-50.3-37c-2.1-0.2-4.3-0.3-6.4-0.3c-16,0-30.6,6.1-41.5,16.1c-12.3,11.2-20.1,27.4-20.1,45.3h0v105.5
		c12.2,0,22.1-9.9,22.1-22.1v-35.8v-5h0.4c5.2,8.7,14.2,14.8,25.1,17.8c5.1,1.4,10.6,2.2,16.3,2.2c33.8,0,59.5-27.2,59.5-60.3
		C376,98.8,376,98.3,376,97.9"/>
	<path class="st0" d="M398.3,159.7V22.1c0-12.2,9.9-22.1,22.1-22.1v137.6C420.4,149.8,410.5,159.7,398.3,159.7"/>
	<path class="st0" d="M545.6,97.9c0,22.3-18.1,41.4-41,41.4c-22.1,0-40.1-19.3-40.1-41.4c0-23.2,18.1-42.1,40.1-42.1
		C529,55.9,545.6,75,545.6,97.9 M567.2,96.4c-0.8-33.7-28.4-60.8-62.3-60.8c-1.8,0-3.5,0.1-5.3,0.2c-32.5,2.1-57.3,27.8-57.3,63.8
		c0,34,28,59.9,62.4,59.9c16.8,0,31.6-7.2,39.9-21.2h0.4c0,10.1,8.2,18.3,18.3,18.3h3.8v-24.2v-11.6L567.2,96.4L567.2,96.4z"/>
	<path class="st0" d="M601.6,201.9l18.9-48.3L573.5,38.3c14.3,0,27.1,8.8,32.2,22.2l26.2,69.1l26.9-69.2
		c5.2-13.4,18.1-22.2,32.4-22.2l-59.5,144.1C626.3,195.2,615.5,201.9,601.6,201.9"/>
	<path class="st0" d="M710.6,159.7V22.1c0-12.2,9.9-22.1,22.1-22.1v137.6C732.7,149.8,722.8,159.7,710.6,159.7z"/>
	<path class="st0" d="M817.5,55.9c-22.1,0-41.2,18.7-41.2,41.6c0,22.3,18.5,41.8,40.8,41.8c23.2,0,42.1-18.3,42.1-42.1
		C859.1,74.4,840.6,55.9,817.5,55.9 M816.8,159.5c-33.1,0-62.7-28.2-62.7-61.4c0-35.9,28.2-62.4,64.4-62.4
		c32.5,0,63.1,25.5,62.7,62.9C880.8,130,854.4,159.5,816.8,159.5"/>
	<path class="st0" d="M919.1,97.7c0-22.9,18.5-41.8,40.4-41.8c20.4,0,41.4,14.2,41.4,41.8c0,19.1-15.5,41.6-41.2,41.6
		C937.8,139.4,919.1,120.3,919.1,97.7 M1000.9,51c-6.3-5.4-13.7-9.5-21.8-12.1c-6.1-2-12.6-3.1-19-3.1c-35.5,0-63.1,27.4-63.1,62.9
		c0,31.9,29.1,61,62.9,61c16.8,0,31.4-6.2,40.6-18.5h0.4c0,27-14.2,41.6-41.2,41.6c-5.2,0-10-0.7-14.4-2.2
		c-9.5-3.1-19.4,3.5-19.4,13.5c9.6,5.7,20.9,8.8,33.6,8.8c39.9,0,63.5-23.6,63.5-61.8V98.9C1023,79.7,1014.4,62.5,1000.9,51"/>
</g>
</svg>
