<svg id="Layer_1" data-name="Layer 1" xmlns="http://www.w3.org/2000/svg" xmlns:xlink="http://www.w3.org/1999/xlink" viewBox="0 0 1024 231"><defs><style>.cls-1{fill:#fff;}.cls-2{fill:none;}.cls-3{clip-path:url(#clip-path);}.cls-4{mask:url(#mask);}.cls-5{fill:#ff3a58;}.cls-6{fill:#ff9432;}.cls-7{fill:#ffd363;}.cls-8{fill:#0de2bc;}.cls-9{fill:#4c57ff;}.cls-10{fill:#ce16e4;}</style><clipPath id="clip-path"><rect class="cls-2" x="-46.83" y="-46.8" width="325.02" height="325.02"/></clipPath><mask id="mask" x="-202.42" y="-102.46" width="690.98" height="413.04" maskUnits="userSpaceOnUse"><g id="mask0"><path class="cls-1" d="M115.69,172.64a57.15,57.15,0,1,1,57.21-57.15A57.18,57.18,0,0,1,115.69,172.64Zm0-171.34A114.34,114.34,0,0,0,1.28,115.6V228.43a1.49,1.49,0,0,0,1.47,1.47,2,2,0,0,0,1.13-.45c29.84-29.36,57-13.55,57-13.55A114.33,114.33,0,1,0,115.69,1.3Z"/></g></mask></defs><path class="cls-1" d="M433.53,173.51v-129a20.72,20.72,0,0,1,20.72-20.72h0v129a20.72,20.72,0,0,1-20.72,20.72Z"/><path class="cls-1" d="M592,114.15a58.44,58.44,0,0,0-58.42-57c-1.67,0-3.31.07-4.94.21-30.52,2-53.76,26-53.76,59.84,0,31.88,26.3,56.18,58.57,56.18,15.74,0,29.68-6.77,37.45-19.92h.4a17.13,17.13,0,0,0,17.13,17.13H592V114.15Zm-20.3,1.47c0,20.92-16.93,38.85-38.45,38.85-20.72,0-37.65-18.13-37.65-38.85,0-21.72,16.93-39.45,37.65-39.45C556.14,76.17,571.68,94.1,571.68,115.62Z"/><path class="cls-1" d="M628.87,206.88l16.13-39L601,59.65h0a32.31,32.31,0,0,1,30.22,20.86l24.57,64.8L681,80.44a32.6,32.6,0,0,1,30.39-20.8h0L658.62,187a32.2,32.2,0,0,1-29.75,19.88Z"/><path class="cls-1" d="M729.55,173.51v-129a20.72,20.72,0,0,1,20.72-20.72h0v129a20.72,20.72,0,0,1-20.72,20.72Z"/><path class="cls-1" d="M829.23,173.39c-31.08,0-58.77-26.5-58.77-57.58,0-33.67,26.5-58.57,60.36-58.57,30.48,0,59.17,23.91,58.77,59C889.2,145.7,864.49,173.39,829.23,173.39Zm.6-97.22c-20.72,0-38.65,17.53-38.65,39.05,0,20.92,17.33,39.25,38.25,39.25a39.15,39.15,0,1,0,.4-78.3Z"/><path class="cls-1" d="M1001.88,71.57A59.05,59.05,0,0,0,981.44,60.2a56.84,56.84,0,0,0-17.81-3c-33.27,0-59.17,25.7-59.17,59,0,29.89,27.29,57.18,59,57.18,15.74,0,29.49-5.78,38.05-17.33h.4c0,25.3-13.35,39.05-38.65,39.05a42.82,42.82,0,0,1-13.53-2,13.6,13.6,0,0,0-18.16,12.69A61,61,0,0,0,963,214.05c37.45,0,59.57-22.11,59.57-58v-39.6A58.9,58.9,0,0,0,1001.88,71.57Zm-76.71,43.86c0-21.52,17.33-39.25,37.85-39.25,19.13,0,38.85,13.35,38.85,39.25,0,17.93-14.54,39-38.65,39C942.71,154.48,925.17,136.55,925.17,115.43Z"/><path class="cls-1" d="M412.6,115.55c0-.17,0-.35,0-.52a57.66,57.66,0,0,0-4.68-22.83,55.26,55.26,0,0,0-47.14-34.71,57.87,57.87,0,0,0-63.9,57.26h0v92.73h0a20.72,20.72,0,0,0,20.72-20.72V154.69h.4c4.88,8.13,13.35,13.86,23.53,16.69a57,57,0,0,0,15.32,2c31.67,0,55.78-25.5,55.78-56.58C412.62,116.39,412.61,116,412.6,115.55Zm-95.41-.33c0-.16,0-.32,0-.49.25-20.33,16.09-38.56,36.65-38.56,22.11,0,38,19.32,38,39.45,0,21.12-15.94,38.85-37.25,38.85C333.13,154.47,317.19,136.74,317.19,115.22Z"/><g class="cls-3"><g class="cls-4"><path class="cls-5" d="M294.87-101.21l-.05-1.25c-1.48.18-4.11.82-4.67,2.74.56-1.92-3.69-.62-4.16-2.53l.19.76c-5.31,0-9.94,3-15,5.2-1.39,3.72-5.17,2.72-7.18,6.06,1.07,2.3-.24.8-2.45,3,1.14-1.22-1-1.61-2-1.26a4.28,4.28,0,0,1-1,2.11c-1-.3-5.42.44-5.55,2.63-2,.5-.13-.89-.11-1.54-1.41-.55-.63,1.71-1.67,1.4a.56.56,0,0,1-.05-.45c-2.27,1.8-4.07,2.31-6.69,3.86,1.29,2.07-1.83,2.48-2.37,4-.13-.88-1.93.29-2.9.43l-.2,2.4c-.35,2.17-2.46.46-3.61,2.34l.66,0c-.77,1.48-4.87,2.68-6.87,2.52-8.33,12-19,10.69-30.11,20.43-.32,1.16,1.33.56,1.38,1.87,0,.07-.12.13-.17.19.2.08.05.27.43.43a5.21,5.21,0,0,1,1.6-1.9c-.65,1.26.16,2.9-1.69,3.41-.05-.28.09-.48.37-.87-1.26.74-.79,1.47-2,1.74-1.32.48-.71.72-1.33.2l-3.94,1.7c-.35,2.94-3.66,2.82-4.33,3.07-.62-1.55,1.91-2,1.77-3.89l-1.94,0,.72,1.07-1.94,1,0-.27c.1.55.19,1.11-.51,1.07a1.91,1.91,0,0,1-.45-.4l-.76,1.43c-.11-1.59,12.87-10,12.1-11.31-3.86,2-5.32-1.33-8.34-.07L160-50a7.11,7.11,0,0,0,.33-1.71l-.4-.14-.29,1.51L157.73-52a6.16,6.16,0,0,0,.27-.62c2.26.26,7-1.59,7.84.6,2.48-1.62-1.61-.51-.92-2l.32-.13a4.47,4.47,0,0,1-3.1-.05c-.95-.8.91-2.62,1.77-2.82l.65,1.66c1.79-2.07-.3-3.74,0-6.08,2.17-.76,2.16,1.18,3.5,2.1l1.55-1.68.83,1c1-1.14.48-2.27,2.44-3.1-.42,1.82,3.22-.89,2.62,1.59,1.18-.34-.14-2.46,1.42-1.48-.24-1.53-1.25.07-2,.09-1.63-1.26,1.4-2.22,2.16-3.43.75.72,0,1.47,1.76,1.05A1.28,1.28,0,0,1,180.35-67c-.82-1,1.29-1.29,2.06-1.76-1,.41-2.76.56-2.93-.71.31-.87.7-1.48,2.26-2.42l-1.39.28c.07-2.41,3-.5,4.31-2.25-.23,1.14-.69,1.48-.72,2.68a32.58,32.58,0,0,1,2.27-4.37l2.66.37c-.42-.86,1.69-1.15.88-2.15,2.36-.67-.48,2.29-.05,3.15,2.82-1,.46-3,3.89-3.12l0,1.47c.78-.47,1.8-2.09,2.27-1.68-.28-.33-.53.07-1,.4-1.2-2.32,2.22-3.88.25-5.75l-1.11.62c1.21-1.54,1.16-3.75,2.94-3.91,1.45,0,.5,1.87.4,2.81,1.56-1-.68-3.14,1.22-4.23-1.18.35-1.61-.52-1.5-1.45-1.12.61-3.52,1.76-2.44,2.35l.54-.07c.34.6,0,1.2-.1,1.67-1.36,1-1.39-.46-2-.65-2.54,1.35,1.49,2.2-.63,3.67l-.6-.19c-.57,1.27-2,2.49-1.29,4-2-.66-1.92,2.28-3.58,2.23-2.59-2.78,3.7-2.43,3.58-4.91-1.58.21-.52-1.86-.62-2.86L187.56-80c-.6-.2-2.81-.91-2.57.63l.33-.14c-1.1,1.35.25,2.28-1.26,2.76-.4-.14-.42-.87-.49-1.14-1.31.54-.37,1.34-.88,2.15-1.3.55-.43-1.61-1.62-1.25-.33,2.07-2.21,1.22-3.25,2.1,1.82,1.32-2.5,5.5,1.06,5.2l-1.7,3.09c-1.52-.26-.09-3.67-2-4.53l2.14-1.49c-2-1.81-3.27,4.6-6.56,3.33-1.19.74-.69.83-3.65,1.37L169-66.35a3.33,3.33,0,0,1-3-.65,7.16,7.16,0,0,1-1.83,1.35,1.37,1.37,0,0,1,.26-1.19c-1.67-.41-1.59.14-1.44.91-.06.79-.79,1.23-1.5,1.73l.06-1.15c-.3.47-.64,1-.42,1.42a2.33,2.33,0,0,0-.68.76,5.5,5.5,0,0,0,3.16.67c-3.14,1.16-4.82,3-8.25,3.14-.36-.59,0-1.93-.32-1.79-1.31.54-1.72,2.34-1,3.08a6.48,6.48,0,0,1-.54.53,2,2,0,0,0-1.83-.3,1.26,1.26,0,0,0-1,.14c.84,1.73-1.86,2.55-1.76,3.56a6,6,0,0,0,1.78-1.18c-.08,1.63.06,3.33-1.27,3,.86-2.14-3-.23-.87-2.46-3.25-.58.18,2-2.18,2.69l-1.78.15c-.7-1.2,1.47-2,.87-2.15l-.71.75c.16-1.41,3.69-3.19,4.61-5.79l-4.31,2.24C141.37-52,134.17-49,132-43.62l.14-.16a2.75,2.75,0,0,0,.42.83l-.4-.13-.15,1.4c-1.74-.31-3.62.77-5.74,1.06,1.46,0,1.46,0,2.21.71.69,1.2.92,1.76-.77,2.38-.64-.74.23-1.35-1.27-1.21.82,0,.8.86.27,1.41-1.17.08-2.53.92-3.18.18.18-.47.69-.42,1-.49.18-.46-2,.4-1.47-1l-1.22,1.25c-1.33,0-.28-1.39-.93-1.56-1.89,2.23-1.64,4.85-3.31,6.92a14.1,14.1,0,0,0-1.21-1.68c-2,.69-2,4.4-3.67,5.9-.14-.71-4.45,3.6-4.09,2.95-2.35-.33-5.59,2.27-12.16,4.55l.06,2.75-2.33-.13c-6.44,3-9.76,7.27-14.59,11.69-1.55,1.32-2-.49-3.15-.4-3.76,2.47-3,5.08-6.13,8,0-.88-.39-3-1.93-1.95.14.71.61,1.63-.57,2l0-.88C66.4.63,66.18,2,64.14,3a17.2,17.2,0,0,0-6,9.6c-2.89,1.86-1.24-2.09-2.08-2.07,2.47-.81,1.1-1.31,1-2.22-.62,1.25-1.62,2.47-3.16,1.63-1.37,1.13-2.06,1.55-2.79,3.44.36-.95,1.53-.74,1.32.32-1.53.44-12.21,10.63-13.32,9-6.52,5.33-6.28,3.12-13.48,8.58-.57,1.71,1.18-.38,1,.68-.92,2.37-1.84.51-2.59,2.39L23.91,33c-2.23,1.44-3.19,4.68-4.61,7-.45-1.22-2.34.45-1.11-1.38-.84.87-.85-1.62-1.2-.54,0,.08-1.22,1.92-1.17,2l1.12.72c.27.43-1.34,1.23-1,1.39-1.52-.14-3.37-.27-4,.18-1.12-.8.58-1.71,1.43-2.31-1.27-1.78-3.71,1-3.77-1.44-1.56,1.61,1,.68.41,2.1l-1.86.8,1.67-.33c-.89,1.48-.28,3.1-2.79,3.45l-.45,3c-1.28-1.2-1.52.73-2.7,1.11L3.8,47.38a4.55,4.55,0,0,1-3,1.17c-.27-1.69,1.34-.55.73-1.88l-1.67.61c.62.76.25,2,1.6,1.72-.1,2.35.17,4-3.08,6.25-2.48-.24.6-2.28-1-3.12C-6.44,54-3.95,58.46-6,59.73-8.87,61-7.74,62.1-10.15,64c.06-1.47-2.5.33-3.64-.17l.23-1.64c-.45.7-1.24.95-1.65.52.36,1.2-2.59,3.35-3.72,5l1.13.79c-1.05,1.33-2.37,3.34-4,4.13-1.84,1.88-.62,2.43-1.32,4.74-1.66-.25-2.44-1.41-3.06-2.74,1,.1,1.69-.92,2.87-1.29,1.94-2.84,2.25-6.53,5.3-8-.87-3.32-1.55,1.62-3.55,1.71a.32.32,0,0,1,0-.39.91.91,0,0,1-.38.16c.7-1,1.93-2.55,1.16-4-1.39,1.43.86,3.31-2,3.73-.9,1.77-3.69.72-4.71,1.21-.22,1.64,1.36,3.65-1.36,5l-.08-2.16c-2.75,2,.38,3-2.19,4.78,1-.5.26,2,2,.78-.23,1.35-1.94,2.85-3.63,3.46-.18.48.3.53.63,1,2.29-.17,1.62-2.71,4-2.24l-.17-2.27c1.84-.51,3,.59,2.59,1.81.35-.36.53-.82,1-.77,2.09,2.06-2.34.45-1.27,2.72l.86-.89c1.63,1.13-1.28,3-2.63,3.85-2,.39-3.54,1.12-4.51.14l1.57-1.89c-1.69-.1-2.07,2.33-3.24,3.13a1.19,1.19,0,0,0-.58-.1.75.75,0,0,1,.32.23,1.38,1.38,0,0,1-1,0c-1,.68-2,2.41-3.16,2.76l.89.86-.32-.62c.94-.64,2.65-1,2.53.24-1.51,2.18-3.42.68-4.57.21-.72-1.79,2-1.47,2.65-2.74-1.8-1-2.21,1.4-5.1,2-.45-2.19,2.47-1.8,1.75-3.59-1.93,1-1.46,2.45-3.58,3.38-.38-.89,1.32-2.26.44-3.11l-1.52.41c2.75-2.18-2.1-1.57-.2-3.59-1.56.12-.4,2.35-2.7,2.46,1,.37,3.18.74,2.27,2.4l-2,.74c-1.3-.26.31-2.91-1.26-2.78l-1.24,1.78c.44.43,1.43.07,1.46,1.08-1.38.22-.11,3-.69,4.52-.94.63-1.73,1.07-2.51.77-1.15,3.08-4.1,5.18-5.13,8.06.68-2-1.37-1.55-2.81-1.61,1.49-1.43.3-2.9-.58-3.76-.88.9-.31,2.9.62,3-2.19.65-.34,1.88-2.63,2-1.37.2-.71-1.8-1.48-2.11-1.88,1.29,1,2.15-1.3,3.27-.06-.27.07-.47-.31-.62a2.46,2.46,0,0,0-1.54,2.93c-2.71-1.07-3,2.58-4.34.56-2.17,2.41,1.22.73,1.24,1.76-.37,1.6-2.89,2.38-3.74,2.54.61-.51.77-1.46,1.63-1.63l-1.61-.88c-4,1.46.36,4.43-3.66,5.61,1-1.86-.27-1.37-.23-2.87-.21.68-2.94,2.12-.66,2a16.62,16.62,0,0,1-3.25,1.49c-.63,1.27-1.45,2.46-1.37,3.75A9.35,9.35,0,0,1-88,116.33c-2.67,3.47-7.14,4.24-10,7.91l.34-.12c-3,1.84,2.64.79-.3,2.91-.91-1.87-2.62.22-4.25.09-4.25,1.85-5.23,5.74-9.41,7.13a1,1,0,0,1,.25-1.41c-2.92,1.37-4.7,3.19-7,4.79l-.06-.27c-4.69,1.43-6.73,5.41-10.18,8.58.13-.42-.27-1.07-.21-1.46-2.19,1.05-5.41,3.07-5.55,5.5-3.53.12-1.11,1.58-5.23,2.22-.4-.16.07-.47.21-.68-1.85.53-2.72,1.45-4.32,2.33-2.35,3.36-1.47,6-5.66,8.11-2-2,1.83-2.21.5-4-.42.93-.7,1.84-2.13,2.08-.08-1.29-.3-.62-.53-1.72-1.24,0-1.3,4.57-1.45,4.35.3.44.76.47,1.44-.13.22,2-3.54,2.8-4.89,4.66.61-.4,2.79-1.34,2.93.19-2.78,1.32-1.88,4-2.85,6.08-3,.67.14-3-1.5-4.21-.82-.27-2.7-.82-2.25-2.09-2.25,1.16-2.63,3.5-4.12,5.14l-.31-.45c-2.32,2-3.45,5.83-6.22,6.51l1.5-.33c-.2.56-1.55,1.36-1.53,2.74-.43-.65-2-.34-2.4-.89.27,2.9-4.54,5.29-4,8.22-1.12-.08-1.35-1.38-1.57-2,1.72-1,2.62-.91,2.7-2.42-1.28,1-2.71,1.12-2.93.46-.16,2.37-2.79,5.22-2.29,7.12-1.53,0-2.75.29-3.37-1.13-3.39,3.69,4.94,2.16.42,5.48-3,.39.74-3-2.41-1.31l.37-.58c-4.52-1.5.34,3.22-2.06,4.84-1.66-1.41.65-2.37-1.91-2.37-1.78,2-.7,5.12-3.26,6.16l-.21-1c-1.25,1.14-4.16,2.75-5.4,3.88-.33-.27-.1-.37.09-.65-3,1.23-.35,1.61-3.34,2l.08,1.23c1.49-.19,4.14-.87,4.67-2.77-.53,1.9,3.75.58,4.25,2.45l-.2-.75c5.37-.1,10-3,15-5.33,1.34-3.7,5.17-2.75,7.14-6.08-1.13-2.26.23-.79,2.4-3-1.12,1.23,1,1.59,2.09,1.23a4.14,4.14,0,0,1,1-2.1c1.05.28,5.46-.51,5.55-2.67,2-.52.14.88.15,1.52,1.43.53.61-1.69,1.65-1.4a.57.57,0,0,1,.06.44c2.27-1.81,4.07-2.33,6.7-3.89-1.36-2,1.8-2.48,2.31-3.95.16.86,2-.31,2.92-.46l.15-2.36c.3-2.15,2.48-.49,3.61-2.37l-.68,0c.75-1.47,4.88-2.71,6.91-2.58,6.27-9.21-26,43.9-17.75,39.32l60.47-35.3c-.31.56-.65,1.13-1,1.63l-2.61-.4c.39.87-1.7,1.14-.91,2.16-2.35.65.51-2.3.11-3.18-2.81,1-.51,3-3.91,3.09v-1.49c-.78.47-1.82,2.09-2.28,1.68.27.34.53-.06,1-.39,1.13,2.37-2.26,3.9-.36,5.81l1.11-.61c-1.23,1.55-1.22,3.78-3,3.92-1.44,0-.46-1.9-.35-2.84-1.56.94.61,3.18-1.29,4.26,1.18-.34,1.59.55,1.46,1.49,1.11-.61,3.51-1.74,2.46-2.36l-.52.07c-.33-.62.06-1.22.12-1.69,1.37-1,1.38.48,2,.68,2.54-1.34-1.44-2.24.7-3.71l.58.21c.59-1.28,2.08-2.5,1.35-4,2,.69,2-2.29,3.58-2.21,2.5,2.85-3.72,2.41-3.64,4.92,1.56-.19.48,1.89.54,2.91l2.47-3.85c.59.21,2.76,1,2.54-.6l-.32.14c1.1-1.35-.21-2.3,1.29-2.77.4.13.4.88.46,1.15,1.27-.51.44-1.3.86-2.09l.13-.1c1.17-.39.34,1.66,1.48,1.33.38-2.09,2.22-1.2,3.27-2.09-.83-.62-.35-1.84.07-2.95l1.9-1.47A1.53,1.53,0,0,0-84,175l-2.15,1.49c2,1.85,3.33-4.62,6.55-3.29,1.19-.73.69-.82,3.62-1.34l-1.82-1.61a3.19,3.19,0,0,1,2.9.69A7.1,7.1,0,0,1-73,169.56a1.51,1.51,0,0,1-.28,1.2c1.63.43,1.58-.14,1.43-.9.08-.81.8-1.24,1.51-1.73l-.08,1.16c.3-.47.66-1,.45-1.43a2.5,2.5,0,0,0,.68-.77,5.31,5.31,0,0,0-3.11-.72c3.13-1.14,4.82-3,8.22-3.07.34.6-.05,1.95.28,1.82,1.31-.54,1.76-2.36,1-3.11a4.15,4.15,0,0,1,.55-.52,1.93,1.93,0,0,0,1.8.33,1.23,1.23,0,0,0,1-.13c-.8-1.76,1.89-2.56,1.81-3.57a5.76,5.76,0,0,0-1.78,1.17c.11-1.65,0-3.37,1.32-3.07-.91,2.16,3,.27.8,2.5,3.2.63-.14-2,2.21-2.7l1.76-.13c.67,1.22-1.49,2-.9,2.17l.71-.74c-.19,1.42-3.7,3.16-4.67,5.8L-54,160.9c3.83-4.86,11-7.8,13.26-13.2l-.15.15a2.3,2.3,0,0,0-.4-.84l.41.13.18-1.42c1.71.34,3.59-.73,5.69-1-1.45,0-1.45,0-2.17-.74-.66-1.23-.88-1.79.81-2.4.62.76-.25,1.36,1.25,1.23-.82,0-.78-.88-.25-1.42,1.15-.07,2.53-.91,3.15-.15-.19.47-.69.42-1,.48-.21.48,2-.37,1.42,1.05l1.22-1.25c1.31,0,.25,1.41.89,1.6,1.91-2.23,1.72-4.88,3.41-7a13.76,13.76,0,0,0,1.17,1.71c2-.67,2-4.43,3.73-5.92.12.72-.72,1-1.09,1.68,6.13-3.48,10.75-6.83,17.3-9.06v-2.79l2.3.17c6.42-2.95,9.79-7.23,14.65-11.64,1.56-1.32,1.94.52,3.11.44,3.77-2.45,3.1-5.1,6.22-8-.05.89.32,3,1.86,2-.13-.72-.56-1.66.61-2l0,.89c1.47.17,1.72-1.19,3.75-2.15a17.62,17.62,0,0,0,6.15-9.63c2.9-1.85,1.19,2.12,2,2.12-2.45.78-1.12,1.31-1.06,2.23C35,94.9,36,93.69,37.54,94.56c1.37-1.13,2.07-1.55,2.82-3.45-.38,1-1.52.72-1.29-.34,1.51-.43,12.28-10.61,13.34-8.9,6.55-5.31,6.27-3.08,13.5-8.51.6-1.72-1.18.37-1-.7,1-2.38,1.83-.49,2.62-2.39l.08,1.3c2.22-1.44,3.24-4.7,4.68-7,.42,1.24,2.32-.43,1.06,1.42.88-.91,5.51,2.6,5.6,1.12l-4.31-3.26c-.26-.45,1.34-1.24,1-1.4,1.51.15,3.33.32,3.93-.14,1.1.82-.6,1.72-1.46,2.32,1.22,1.81,3.69-1,3.7,1.51,1.58-1.61-.94-.71-.37-2.13l1.85-.78-1.65.31c.91-1.49.33-3.13,2.83-3.45l.49-3c1.25,1.23,1.51-.72,2.7-1.09l.08,1.31a4.42,4.42,0,0,1,3-1.15c.23,1.72-1.35.54-.76,1.89l1.68-.59c-.61-.77-.22-2-1.55-1.77.15-2.36-.09-4.08,3.16-6.28,2.46.27-.63,2.31,1,3.17,3.72-1.85,1.35-6.39,3.4-7.64,2.86-1.26,1.78-2.38,4.2-4.29-.1,1.49,2.48-.31,3.6.22l-.26,1.65c.46-.7,1.24-.94,1.64-.51-.32-1.2,2.63-3.35,3.78-5l-1.1-.81c1.07-1.33,2.41-3.35,4-4.12,1.86-1.9.66-2.46,1.41-4.78,1.62.28,2.38,1.45,3,2.81-1-.12-1.69.89-2.87,1.26-2,2.85-2.35,6.57-5.4,8,.8,3.37,1.57-1.62,3.55-1.68a.32.32,0,0,1,0,.38,1,1,0,0,1,.38-.16c-.72,1-2,2.56-1.22,4,1.4-1.44-.79-3.36,2-3.74.92-1.78,3.66-.69,4.68-1.16.24-1.66-1.27-3.72,1.43-5.09l0,2.18c2.75-2-.32-3,2.24-4.8-1,.49-.21-2-1.92-.82.25-1.36,2-2.85,3.66-3.45.18-.48-.3-.54-.61-1.06-2.28.14-1.65,2.72-4,2.22l.12,2.3c-1.84.49-2.93-.63-2.53-1.87-.35.36-.54.82-1,.78-2-2.11,2.33-.44,1.31-2.74l-.87.9c-1.58-1.17,1.32-3,2.68-3.85,2-.37,3.52-1.1,4.45-.1l-1.6,1.91c1.69.11,2.11-2.34,3.28-3.14a1,1,0,0,0,.57.11.7.7,0,0,1-.32-.24,1.36,1.36,0,0,1,1,0c1-.68,2-2.41,3.19-2.75l-.86-.88.29.63c-.94.64-2.63,1-2.51-.27,1.54-2.18,3.39-.64,4.53-.15.67,1.82-2,1.46-2.68,2.74,1.76,1,2.22-1.4,5.09-2,.39,2.22-2.48,1.79-1.82,3.61,1.92-1,1.5-2.45,3.61-3.37.34.91-1.36,2.27-.51,3.14l1.51-.39c-2.76,2.18,2,1.62.14,3.63,1.56-.11.45-2.37,2.72-2.46-.95-.39-3.13-.79-2.19-2.46l2-.72c1.27.28-.36,2.94,1.18,2.83l1.26-1.79c-.42-.44-1.41-.08-1.42-1.11,1.38-.2.18-3,.78-4.56.94-.64,1.74-1.07,2.49-.75C145,10.06,147.9,8,149,5.07c-.71,2,1.32,1.59,2.74,1.67-1.51,1.43-.36,2.93.49,3.81.89-.9.36-2.93-.54-3.06,2.17-.63.37-1.9,2.63-2,1.37-.19.67,1.83,1.44,2.15,1.88-1.28-.91-2.19,1.34-3.3,0,.28-.08.47.28.64A2.53,2.53,0,0,0,159,2.06c2.64,1.12,3.05-2.57,4.29-.52,2.2-2.41-1.18-.75-1.19-1.79.4-1.62,2.9-2.37,3.75-2.52-.6.51-.79,1.46-1.63,1.62l1.57.91c3.95-1.43-.26-4.48,3.73-5.63-1.07,1.86.24,1.38.17,2.9.23-.69,3-2.11.7-2a16.62,16.62,0,0,1,3.24-1.47c.64-1.27,1.49-2.46,1.42-3.77a9.07,9.07,0,0,1,4.91-1c2.71-3.49,7.15-4.21,10-7.88l-.33.11c3-1.83-2.6-.83.36-2.94.86,1.91,2.6-.19,4.21,0,4.23-1.81,5.29-5.74,9.44-7.09a1,1,0,0,1-.28,1.43c2.93-1.35,4.7-3.16,7-4.75l.06.26c4.66-1.38,6.75-5.39,10.23-8.55-.16.43.24,1.1.16,1.49,2.19-1,5.41-3,5.6-5.49,3.48-.07,1.12-1.59,5.22-2.19.39.16-.08.48-.22.68,1.83-.51,2.72-1.43,4.32-2.3,2.39-3.37,1.57-6,5.76-8.13,1.89,2.06-1.86,2.22-.59,4,.44-.93.73-1.85,2.16-2.09,0,1.31.29.64.49,1.75,1.22,0,1.37-4.6,1.52-4.38-.29-.46-.73-.49-1.42.11-.17-2,3.56-2.79,4.93-4.65-.62.4-2.79,1.32-2.9-.23,2.77-1.31,1.93-4,2.94-6.11,3-.64-.21,3,1.4,4.27.81.29,2.64.87,2.18,2.15,2.25-1.14,2.67-3.51,4.18-5.15l.28.47c2.35-2,3.53-5.86,6.29-6.51l-1.49.31c.21-.56,1.55-1.35,1.55-2.74.42.66,2,.37,2.36.93-.2-3,4.59-5.3,4.16-8.27,1.11.09,1.31,1.41,1.51,2.09-1.72,1-2.61.89-2.72,2.42,1.29-1,2.7-1.11,2.9-.43.2-2.4,2.86-5.25,2.41-7.18,1.5,0,2.71-.25,3.31,1.19,3.42-3.69-4.84-2.24-.3-5.55,3-.36-.79,3,2.35,1.35l-.37.58c4.45,1.58-.26-3.26,2.14-4.87,1.61,1.46-.69,2.39,1.85,2.41,1.79-2,.8-5.16,3.34-6.19l.22,1c1.26-1.13,4.17-2.73,5.42-3.86.32.28.08.39-.1.66C294.54-100.45,291.92-100.87,294.87-101.21ZM163.17-65.1l0-.5a2.07,2.07,0,0,1,0,.5ZM-71.89,169l0,.51A2.85,2.85,0,0,1-71.89,169Z"/><path class="cls-6" d="M319.48-69.07l-.05-1.25c-1.48.18-4.11.82-4.67,2.74.56-1.92-3.69-.62-4.16-2.54l.19.77c-5.31,0-9.94,3-15,5.2-1.38,3.72-5.16,2.72-7.17,6.06,1.07,2.29-.24.79-2.44,3,1.14-1.22-1-1.61-2.05-1.26a4.28,4.28,0,0,1-1,2.11c-1-.3-5.42.44-5.55,2.63-2,.5-.13-.89-.11-1.54-1.41-.55-.63,1.71-1.67,1.4a.56.56,0,0,1-.05-.45c-2.27,1.79-4.07,2.31-6.69,3.85,1.29,2.08-1.83,2.49-2.37,4-.13-.88-1.93.29-2.9.43l-.2,2.39c-.35,2.17-2.46.47-3.61,2.35l.67.05c-.78,1.48-4.89,2.68-6.88,2.52-8.33,12.05-19,10.69-30.11,20.43-.32,1.16,1.33.56,1.38,1.87-.05.07-.12.13-.17.19.2.08.05.27.43.43a5.32,5.32,0,0,1,1.6-1.91c-.65,1.27.16,2.9-1.69,3.42,0-.28.09-.48.37-.87-1.26.74-.79,1.47-2,1.74-1.32.48-.71.72-1.33.2l-3.94,1.7C218-6.47,214.71-6.58,214-6.33c-.62-1.55,1.91-2,1.77-3.89l-1.94,0,.72,1.07-1.94,1-.05-.27c.1.55.19,1.11-.51,1.07a2.17,2.17,0,0,1-.45-.4l-.76,1.42c-.11-1.58,12.87-9.95,12.1-11.3-3.86,2-5.32-1.33-8.34-.07l-30.08-.07a7.11,7.11,0,0,0,.33-1.72l-.4-.13-.29,1.51-1.86-1.75a6.16,6.16,0,0,0,.27-.62c2.27.26,7-1.59,7.84.6,2.48-1.62-1.61-.52-.92-2l.32-.13a4.53,4.53,0,0,1-3.1-.05c-.95-.8.91-2.62,1.77-2.82l.65,1.66c1.79-2.08-.3-3.74,0-6.08,2.17-.76,2.16,1.18,3.5,2.1l1.55-1.68.83,1c1-1.14.48-2.27,2.44-3.1-.42,1.82,3.22-.89,2.62,1.59,1.18-.34-.14-2.46,1.42-1.48-.24-1.53-1.25.07-2,.09-1.63-1.26,1.4-2.22,2.16-3.43.75.72,0,1.47,1.76,1A1.29,1.29,0,0,1,205-34.89c-.82-1,1.29-1.28,2.06-1.76-1,.42-2.76.57-2.93-.7.31-.87.7-1.48,2.26-2.42L205-39.5c.07-2.4,3-.49,4.31-2.24-.23,1.14-.69,1.48-.72,2.68a32,32,0,0,1,2.27-4.37l2.66.37c-.42-.86,1.69-1.15.88-2.15,2.36-.67-.48,2.28-.05,3.15,2.82-1,.46-3,3.89-3.12l0,1.47c.78-.47,1.8-2.09,2.27-1.68-.28-.33-.53.07-1,.4-1.19-2.32,2.22-3.88.25-5.75l-1.11.61c1.21-1.53,1.16-3.74,2.94-3.9,1.45,0,.5,1.87.4,2.81,1.56-1-.68-3.14,1.22-4.23-1.18.34-1.61-.52-1.5-1.45-1.12.61-3.52,1.76-2.44,2.35l.54-.07c.34.6,0,1.2-.1,1.67-1.36,1-1.39-.46-2-.65-2.54,1.35,1.49,2.2-.63,3.67l-.6-.19c-.57,1.27-2.05,2.49-1.29,4-2-.66-1.92,2.27-3.58,2.23-2.59-2.78,3.7-2.43,3.58-4.91-1.58.21-.52-1.86-.62-2.86l-2.41,3.83c-.6-.2-2.81-.91-2.57.63l.33-.14c-1.1,1.35.26,2.28-1.26,2.76-.4-.14-.42-.87-.49-1.14-1.31.54-.37,1.34-.88,2.15-1.3.55-.43-1.61-1.62-1.25-.33,2.07-2.21,1.22-3.25,2.1,1.82,1.32-2.5,5.5,1.06,5.2l-1.7,3.09c-1.52-.26-.09-3.67-2-4.53L202-40.5c-2-1.81-3.28,4.61-6.57,3.34-1.19.74-.69.83-3.65,1.37l1.88,1.58a3.33,3.33,0,0,1-2.95-.65,7.16,7.16,0,0,1-1.83,1.35,1.37,1.37,0,0,1,.26-1.19c-1.67-.41-1.59.14-1.44.91-.06.79-.79,1.23-1.5,1.73l.06-1.15c-.3.47-.64,1.05-.42,1.42a2.33,2.33,0,0,0-.68.76,5.5,5.5,0,0,0,3.16.67c-3.14,1.16-4.82,3.05-8.25,3.14-.36-.59,0-1.93-.32-1.8-1.31.55-1.72,2.35-1,3.09a6.48,6.48,0,0,1-.54.53,2.05,2.05,0,0,0-1.83-.31,1.32,1.32,0,0,0-1,.15c.84,1.73-1.86,2.55-1.76,3.56a6,6,0,0,0,1.78-1.18c-.08,1.63.06,3.33-1.27,3.05.86-2.14-3-.23-.87-2.46-3.25-.58.18,2-2.18,2.69l-1.78.15c-.7-1.2,1.47-1.95.87-2.15l-.71.75c.16-1.41,3.69-3.19,4.61-5.79l-4.31,2.24c-3.77,4.84-11,7.84-13.15,13.22l.14-.16a2.87,2.87,0,0,0,.42.83l-.4-.13-.15,1.4c-1.74-.31-3.62.77-5.74,1.06,1.46,0,1.46,0,2.21.71.69,1.2.92,1.76-.77,2.38-.64-.75.23-1.35-1.27-1.21.82,0,.8.86.27,1.41-1.17.08-2.53.92-3.18.18.18-.47.69-.42,1-.49.18-.46-2,.4-1.47-1l-1.22,1.25c-1.33,0-.28-1.39-.93-1.56C143.65-4.59,143.9-2,142.23.09A14.45,14.45,0,0,0,141-1.58c-2,.69-2,4.4-3.67,5.89-.13-.7-4.45,3.61-4.09,3-2.35-.33-5.59,2.27-12.16,4.55l.06,2.75-2.33-.13c-6.44,3-9.76,7.27-14.59,11.69-1.55,1.32-2-.49-3.15-.4-3.76,2.47-3,5.08-6.13,8,0-.89-.39-3-1.93-2,.14.71.61,1.63-.57,2l0-.88c-1.48-.15-1.7,1.19-3.74,2.17a17.2,17.2,0,0,0-6,9.6c-2.89,1.86-1.24-2.09-2.08-2.07,2.47-.81,1.1-1.31,1-2.22-.62,1.25-1.62,2.47-3.16,1.62-1.37,1.14-2.06,1.56-2.79,3.44.36-.94,1.53-.73,1.32.33-1.53.44-12.21,10.63-13.32,9-6.52,5.33-6.28,3.12-13.48,8.58-.57,1.71,1.18-.38,1,.68-.92,2.36-1.84.51-2.59,2.39l-.1-1.28c-2.23,1.44-3.19,4.68-4.61,7-.45-1.22-2.34.45-1.11-1.38-.84.87-.85-1.62-1.2-.54,0,.08-1.22,1.92-1.17,2l1.12.71c.27.44-1.34,1.24-1,1.4-1.52-.14-3.37-.27-4,.18-1.12-.8.58-1.71,1.43-2.31-1.27-1.78-3.71,1-3.77-1.44-1.56,1.61,1,.68.41,2.1l-1.86.8,1.67-.33c-.89,1.48-.28,3.1-2.79,3.44l-.45,3c-1.28-1.2-1.52.73-2.7,1.11l-.13-1.28a4.55,4.55,0,0,1-3,1.17c-.27-1.7,1.34-.55.73-1.88l-1.67.61c.62.76.25,2,1.6,1.72-.1,2.35.17,4-3.08,6.25-2.48-.24.6-2.29-1.05-3.12-3.73,1.88-1.24,6.33-3.28,7.6-2.88,1.28-1.75,2.37-4.16,4.29.06-1.47-2.5.33-3.64-.17l.23-1.64c-.45.7-1.24,1-1.65.52.36,1.2-2.59,3.35-3.72,5l1.13.8c-1,1.33-2.37,3.34-4,4.13-1.84,1.88-.62,2.43-1.32,4.74-1.66-.25-2.44-1.42-3.06-2.74,1,.1,1.69-.92,2.87-1.29,1.94-2.84,2.25-6.53,5.3-8-.87-3.32-1.55,1.62-3.55,1.71a.32.32,0,0,1,.05-.39.91.91,0,0,1-.38.16c.7-1,1.93-2.55,1.16-4-1.39,1.43.86,3.31-2,3.72-.9,1.78-3.68.73-4.71,1.22-.22,1.64,1.36,3.65-1.36,5l-.08-2.16c-2.75,2,.38,3-2.19,4.78,1-.5.26,2,2,.78-.23,1.35-1.94,2.85-3.63,3.46-.18.48.3.53.63,1,2.29-.17,1.62-2.71,4-2.25l-.17-2.27c1.84-.5,3,.6,2.59,1.82.35-.36.53-.82,1-.77,2.09,2-2.34.45-1.27,2.72l.86-.9c1.63,1.14-1.28,3-2.63,3.85-2,.4-3.54,1.13-4.51.15L-6,113.37c-1.69-.1-2.07,2.33-3.24,3.13a1.08,1.08,0,0,0-.58-.1.75.75,0,0,1,.32.23,1.38,1.38,0,0,1-1,0c-1,.68-2,2.41-3.16,2.76l.89.85-.32-.61c.94-.64,2.65-1,2.53.24-1.51,2.18-3.42.67-4.57.21-.72-1.79,2-1.47,2.65-2.74-1.8-1-2.21,1.4-5.1,2-.45-2.19,2.47-1.8,1.75-3.59-1.93,1-1.46,2.45-3.58,3.38-.38-.89,1.32-2.26.44-3.11l-1.52.41c2.75-2.18-2.1-1.57-.2-3.59-1.56.12-.4,2.35-2.7,2.46,1,.37,3.18.74,2.27,2.4l-2,.74c-1.3-.26.31-2.91-1.26-2.78l-1.24,1.78c.44.43,1.43.07,1.46,1.08-1.38.21-.11,3-.69,4.52-.94.63-1.73,1.07-2.51.77-1.15,3.08-4.1,5.18-5.13,8.06.68-2-1.37-1.55-2.81-1.62,1.49-1.42.3-2.89-.58-3.75-.88.9-.31,2.9.62,3-2.19.65-.34,1.88-2.63,2-1.37.21-.71-1.79-1.48-2.1-1.88,1.29,1,2.15-1.3,3.27-.06-.27.07-.47-.31-.62a2.46,2.46,0,0,0-1.54,2.93c-2.71-1.07-3,2.58-4.34.56-2.17,2.41,1.22.73,1.25,1.76-.38,1.6-2.9,2.38-3.75,2.54.61-.52.77-1.46,1.63-1.63l-1.61-.88c-4,1.46.36,4.43-3.66,5.61,1-1.86-.27-1.37-.23-2.87-.21.68-2.94,2.12-.66,2a16.62,16.62,0,0,1-3.25,1.49c-.63,1.27-1.45,2.46-1.37,3.75a9.23,9.23,0,0,1-4.94,1.07c-2.67,3.48-7.14,4.24-10,7.92l.34-.12c-3,1.84,2.64.79-.3,2.91-.91-1.88-2.62.22-4.25.09-4.25,1.85-5.23,5.74-9.41,7.13a1,1,0,0,1,.25-1.41c-2.92,1.37-4.7,3.19-7,4.79l-.06-.27c-4.69,1.42-6.73,5.41-10.18,8.58.13-.42-.27-1.07-.21-1.46-2.19,1-5.41,3.07-5.55,5.5-3.53.12-1.11,1.58-5.23,2.22-.4-.16.07-.47.21-.68-1.85.53-2.72,1.45-4.32,2.33-2.35,3.36-1.47,6-5.66,8.11-2-2,1.83-2.21.5-4-.42.93-.7,1.84-2.13,2.08-.08-1.29-.3-.63-.53-1.72-1.23,0-1.3,4.57-1.45,4.35.3.44.76.47,1.44-.13.22,2-3.54,2.8-4.89,4.66.61-.4,2.79-1.34,2.93.19-2.78,1.32-1.88,4-2.85,6.08-3,.67.14-3-1.5-4.21-.82-.28-2.7-.82-2.25-2.09-2.25,1.16-2.62,3.5-4.12,5.14l-.3-.46c-2.33,2-3.46,5.84-6.23,6.52l1.5-.33c-.2.56-1.55,1.36-1.53,2.74-.43-.65-2-.35-2.4-.89.27,2.9-4.54,5.29-4,8.22-1.12-.08-1.35-1.39-1.57-2.05,1.72-1,2.62-.91,2.7-2.42-1.28,1-2.7,1.12-2.93.46-.16,2.37-2.79,5.22-2.29,7.12-1.53,0-2.75.29-3.37-1.13-3.39,3.69,4.94,2.16.42,5.48-3,.39.74-3-2.41-1.32l.37-.57c-4.52-1.51.34,3.22-2.06,4.84-1.66-1.41.65-2.37-1.91-2.37-1.78,2-.7,5.12-3.26,6.16l-.21-1c-1.25,1.14-4.16,2.75-5.4,3.88-.33-.27-.1-.37.09-.65-3,1.23-.35,1.61-3.34,2l.08,1.23c1.49-.19,4.14-.87,4.67-2.77-.53,1.9,3.75.58,4.25,2.45l-.2-.75c5.37-.1,10-3,15-5.33,1.34-3.7,5.17-2.75,7.14-6.08-1.13-2.26.23-.79,2.4-3-1.12,1.23,1.05,1.59,2.09,1.23a4.14,4.14,0,0,1,1-2.1c1.05.28,5.46-.51,5.55-2.68,2-.51.14.89.15,1.53,1.43.53.61-1.69,1.65-1.4a.57.57,0,0,1,.06.44c2.27-1.81,4.07-2.33,6.7-3.89-1.36-2,1.8-2.48,2.31-3.95.16.86,2-.31,2.92-.46l.15-2.36c.3-2.15,2.48-.49,3.61-2.37l-.68,0c.75-1.47,4.88-2.71,6.91-2.58,6.27-9.21-26,43.9-17.75,39.32l60.47-35.3c-.31.56-.65,1.13-1,1.63l-2.61-.41c.39.88-1.7,1.15-.91,2.17-2.35.65.51-2.3.11-3.18-2.81,1-.51,3-3.91,3.09V211.6c-.78.47-1.82,2.09-2.28,1.68.27.34.53-.06,1-.4,1.13,2.38-2.26,3.91-.36,5.82l1.11-.61c-1.23,1.55-1.22,3.78-3,3.92-1.44,0-.46-1.9-.35-2.84-1.56.94.61,3.18-1.29,4.26,1.18-.34,1.59.54,1.46,1.49,1.11-.61,3.51-1.74,2.46-2.36l-.52.07c-.33-.62.06-1.22.12-1.69,1.37-1,1.38.48,2,.68,2.54-1.34-1.44-2.24.7-3.71l.58.21c.59-1.28,2.08-2.5,1.35-4,2,.69,2-2.29,3.58-2.21,2.5,2.85-3.72,2.41-3.64,4.92,1.56-.19.48,1.89.54,2.91l2.47-3.85c.59.21,2.76.95,2.54-.6l-.32.14c1.1-1.35-.21-2.3,1.29-2.77.4.13.4.88.46,1.15,1.27-.51.44-1.3.86-2.09l.13-.1c1.17-.39.34,1.66,1.48,1.33.38-2.09,2.22-1.2,3.27-2.09-.83-.62-.35-1.84.07-3l1.9-1.47a1.53,1.53,0,0,0,.68.65l-2.15,1.49c2,1.85,3.33-4.62,6.55-3.29,1.19-.73.69-.82,3.62-1.34l-1.82-1.62a3.22,3.22,0,0,1,2.9.7,6.87,6.87,0,0,1,1.84-1.34,1.51,1.51,0,0,1-.28,1.2c1.63.43,1.58-.14,1.43-.9.08-.81.8-1.24,1.51-1.74l-.08,1.17c.3-.47.66-1.05.45-1.43a2.5,2.5,0,0,0,.68-.77,5.31,5.31,0,0,0-3.11-.72c3.14-1.14,4.82-3,8.22-3.07.34.6,0,1.95.28,1.82,1.31-.54,1.76-2.36,1-3.11a4.15,4.15,0,0,1,.55-.52,1.93,1.93,0,0,0,1.8.33,1.23,1.23,0,0,0,1-.13c-.8-1.76,1.89-2.56,1.81-3.57a5.76,5.76,0,0,0-1.78,1.17c.11-1.65,0-3.37,1.32-3.07-.91,2.16,3,.27.8,2.5,3.2.63-.14-2,2.21-2.7l1.76-.13c.67,1.22-1.49,2-.9,2.17l.71-.75c-.19,1.43-3.7,3.17-4.67,5.81l4.31-2.22c3.83-4.86,11-7.8,13.26-13.2-.06,0-.1.1-.15.15a2.3,2.3,0,0,0-.4-.84l.41.13.18-1.42c1.71.34,3.6-.73,5.69-1-1.45,0-1.45,0-2.17-.74-.66-1.23-.88-1.79.81-2.4.62.76-.25,1.36,1.25,1.23-.82,0-.78-.88-.25-1.42,1.15-.07,2.53-.91,3.15-.15-.19.47-.69.42-1,.48-.21.48,2-.37,1.42,1L-6,173.66c1.31.05.25,1.41.89,1.6,1.91-2.23,1.72-4.88,3.41-6.95A13.76,13.76,0,0,0-.5,170c2-.67,2-4.43,3.73-5.92.12.72-.72,1-1.09,1.68,6.13-3.48,10.75-6.83,17.3-9.07v-2.78l2.3.17c6.42-2.95,9.79-7.23,14.65-11.64,1.56-1.32,1.94.52,3.11.44,3.77-2.45,3.1-5.1,6.22-8,0,.89.32,3,1.86,2-.13-.72-.56-1.66.61-2l0,.89c1.47.17,1.72-1.19,3.75-2.15A17.66,17.66,0,0,0,58,124c2.9-1.85,1.19,2.12,2,2.12-2.45.78-1.12,1.31-1.06,2.23.64-1.27,1.65-2.49,3.16-1.61,1.37-1.13,2.07-1.55,2.83-3.45-.39,1-1.53.72-1.3-.34C65.19,122.48,76,112.3,77,114c6.55-5.31,6.27-3.08,13.5-8.51.6-1.72-1.18.37-1-.7,1-2.38,1.83-.49,2.62-2.39l.08,1.3c2.23-1.44,3.24-4.7,4.68-7,.42,1.24,2.32-.43,1.06,1.42.88-.91,5.51,2.6,5.6,1.12L99.3,96c-.26-.44,1.34-1.23,1-1.4,1.51.16,3.33.33,3.93-.13,1.1.82-.6,1.72-1.46,2.32,1.22,1.81,3.69-1,3.7,1.51,1.58-1.61-.94-.71-.37-2.13l1.85-.78-1.65.3c.91-1.48.33-3.12,2.83-3.44l.49-3c1.25,1.23,1.51-.72,2.7-1.09l.08,1.31a4.42,4.42,0,0,1,3-1.15c.23,1.72-1.35.54-.76,1.89l1.68-.59c-.61-.77-.22-2-1.55-1.77.15-2.36-.09-4.08,3.16-6.28,2.46.27-.63,2.31,1,3.17,3.72-1.85,1.35-6.39,3.4-7.64,2.86-1.26,1.78-2.38,4.2-4.29-.1,1.48,2.48-.31,3.6.22l-.26,1.65c.46-.7,1.24-.94,1.64-.51-.32-1.2,2.63-3.35,3.78-5l-1.1-.81c1.07-1.33,2.41-3.35,4-4.13,1.86-1.89.66-2.45,1.41-4.78,1.62.29,2.38,1.46,3,2.82-1-.12-1.69.89-2.87,1.26-2,2.85-2.35,6.57-5.4,8,.8,3.38,1.57-1.61,3.55-1.67a.32.32,0,0,1-.05.38,1,1,0,0,1,.38-.16c-.72,1-2,2.56-1.22,4,1.4-1.44-.79-3.37,2-3.74.92-1.78,3.66-.69,4.68-1.16.24-1.66-1.27-3.72,1.43-5.09l0,2.18c2.75-2-.32-3,2.24-4.8-1,.49-.21-2-1.92-.82.25-1.36,2-2.85,3.66-3.45.18-.48-.3-.54-.61-1.06-2.28.14-1.65,2.72-4,2.22l.12,2.3c-1.84.49-2.93-.63-2.53-1.87-.35.35-.53.82-1,.78-2-2.12,2.33-.44,1.31-2.74l-.87.9c-1.58-1.17,1.32-3,2.68-3.86,2-.36,3.52-1.09,4.45-.09l-1.6,1.91c1.69.11,2.11-2.35,3.28-3.14a1,1,0,0,0,.57.11.7.7,0,0,1-.32-.24,1.31,1.31,0,0,1,1,0c1-.68,2-2.41,3.19-2.75l-.86-.88.29.63c-.94.64-2.63,1-2.51-.27,1.54-2.18,3.39-.64,4.53-.15.67,1.82-2,1.46-2.68,2.74,1.76,1,2.22-1.4,5.09-2,.39,2.22-2.48,1.78-1.82,3.61,1.92-1,1.5-2.45,3.61-3.37.34.91-1.36,2.27-.51,3.14l1.51-.39c-2.76,2.18,2,1.62.14,3.63,1.56-.11.44-2.37,2.72-2.46-1-.39-3.13-.79-2.19-2.46l2-.72c1.27.28-.36,2.94,1.18,2.83l1.27-1.79c-.43-.44-1.42-.08-1.43-1.11,1.38-.2.18-3,.78-4.56.94-.64,1.74-1.07,2.49-.75,1.21-3.1,4.16-5.19,5.24-8.09-.71,2,1.32,1.59,2.74,1.67-1.51,1.43-.36,2.93.49,3.81.89-.9.36-2.93-.54-3.06,2.17-.63.37-1.9,2.63-2,1.37-.19.67,1.83,1.44,2.15,1.88-1.28-.91-2.19,1.34-3.3.05.28-.08.47.28.64a2.53,2.53,0,0,0,1.59-2.94c2.64,1.12,3.05-2.57,4.29-.52,2.2-2.41-1.18-.75-1.19-1.79.4-1.62,2.9-2.37,3.75-2.53-.6.52-.79,1.47-1.63,1.63l1.57.91c4-1.44-.26-4.49,3.73-5.63-1.07,1.86.24,1.38.17,2.9.23-.69,2.95-2.11.7-2a16,16,0,0,1,3.24-1.47c.64-1.27,1.49-2.46,1.42-3.77a9.07,9.07,0,0,1,4.91-1c2.71-3.49,7.15-4.21,10-7.88l-.33.11c3-1.83-2.6-.83.37-2.94.85,1.91,2.59-.2,4.2,0C223,8.31,224,4.39,228.19,3a1,1,0,0,1-.28,1.43c2.93-1.35,4.7-3.16,7.05-4.76L235,0c4.66-1.38,6.75-5.39,10.23-8.55-.16.43.24,1.1.16,1.49,2.19-1,5.41-3,5.6-5.49,3.48-.07,1.13-1.59,5.22-2.19.39.16-.07.48-.22.68,1.83-.51,2.72-1.43,4.32-2.3,2.39-3.37,1.57-6,5.76-8.13,1.89,2.06-1.86,2.22-.58,4,.43-.93.72-1.85,2.15-2.09,0,1.31.29.64.49,1.75,1.22,0,1.37-4.6,1.52-4.38-.29-.46-.73-.49-1.42.11-.17-2,3.56-2.79,4.93-4.65-.62.4-2.78,1.32-2.9-.23,2.77-1.31,1.93-4,2.94-6.11,3-.64-.21,3,1.4,4.27.8.29,2.64.86,2.18,2.15,2.25-1.14,2.66-3.52,4.18-5.15l.28.47c2.34-2,3.52-5.86,6.28-6.51l-1.48.31c.2-.56,1.55-1.35,1.56-2.74.41.66,2,.37,2.35.92-.2-2.94,4.59-5.29,4.16-8.27,1.11.1,1.31,1.42,1.51,2.1-1.72,1-2.61.89-2.72,2.42,1.28-1,2.7-1.11,2.9-.43.2-2.4,2.86-5.25,2.4-7.18,1.51,0,2.72-.25,3.32,1.19,3.42-3.69-4.84-2.24-.3-5.55,3-.36-.79,3,2.36,1.35l-.38.58c4.45,1.58-.26-3.26,2.14-4.87,1.61,1.46-.7,2.39,1.85,2.41,1.79-2,.8-5.16,3.34-6.19l.22,1c1.26-1.13,4.17-2.73,5.42-3.86.32.28.08.39-.1.66C319.15-68.31,316.53-68.73,319.48-69.07ZM187.78-33l0-.5a2.07,2.07,0,0,1,0,.5ZM-47.28,201.09l0,.51A2.85,2.85,0,0,1-47.28,201.09Z"/><path class="cls-7" d="M332.86-25.74,332.81-27c-1.48.18-4.1.82-4.67,2.74.57-1.92-3.69-.62-4.15-2.53l.19.76c-5.32,0-9.94,3-15,5.2C307.81-17.1,304-18.1,302-14.76c1.07,2.3-.25.79-2.45,3,1.14-1.22-1-1.61-2-1.26a4.3,4.3,0,0,1-1,2.11c-1-.3-5.42.44-5.54,2.63-2,.5-.13-.89-.11-1.54-1.41-.55-.64,1.71-1.67,1.4a.56.56,0,0,1,0-.45C286.88-7,285.09-6.52,282.46-5c1.29,2.08-1.83,2.49-2.36,4-.14-.88-1.93.29-2.91.43L277,1.81c-.36,2.17-2.46.47-3.62,2.35l.67,0c-.78,1.48-4.88,2.68-6.87,2.52-8.33,12.05-19.05,10.69-30.11,20.43-.32,1.16,1.32.56,1.38,1.87l-.18.19c.2.08,0,.27.43.43a5.42,5.42,0,0,1,1.6-1.91c-.65,1.27.17,2.9-1.69,3.42,0-.28.1-.48.38-.87-1.26.74-.79,1.47-2,1.74-1.33.48-.72.72-1.34.2l-3.94,1.7c-.35,2.93-3.66,2.82-4.32,3.07-.63-1.55,1.91-2,1.76-3.89l-1.93,0,.71,1.07-1.94,1-.05-.27c.1.55.2,1.11-.51,1.07a2,2,0,0,1-.44-.4L224.26,37c-.1-1.59,12.88-10,12.11-11.31-3.86,2-5.33-1.33-8.35-.07L198,25.51a8.25,8.25,0,0,0,.33-1.72l-.4-.13-.3,1.51-1.86-1.75c.11-.22.2-.43.28-.62,2.26.26,7-1.59,7.84.6,2.47-1.62-1.61-.51-.93-2l.33-.13a4.56,4.56,0,0,1-3.11-.05c-.94-.8.92-2.62,1.77-2.82l.65,1.66c1.79-2.08-.3-3.74,0-6.08,2.16-.76,2.15,1.18,3.5,2.1l1.55-1.68.82,1c1-1.14.48-2.27,2.44-3.1-.42,1.82,3.22-.89,2.63,1.59,1.18-.34-.14-2.46,1.42-1.48-.25-1.53-1.25.07-2,.09-1.62-1.26,1.4-2.22,2.17-3.43.74.72,0,1.47,1.76,1a1.28,1.28,0,0,1,1.53-1.68c-.82-1,1.3-1.28,2.07-1.76-1,.42-2.77.57-2.93-.7.3-.87.69-1.48,2.25-2.42l-1.38.27c.06-2.4,3-.49,4.31-2.24-.23,1.14-.7,1.48-.73,2.68A33.35,33.35,0,0,1,224.21-.1l2.66.37c-.43-.86,1.69-1.15.87-2.15,2.36-.67-.47,2.28-.05,3.15,2.82-1,.46-3,3.9-3.12l0,1.47c.77-.47,1.8-2.09,2.26-1.68-.27-.33-.53.07-1,.4-1.2-2.32,2.21-3.88.25-5.75L232-6.8c1.21-1.53,1.16-3.74,2.94-3.9,1.46,0,.51,1.87.41,2.81,1.56-1-.68-3.14,1.21-4.23-1.18.34-1.6-.52-1.49-1.45-1.12.61-3.53,1.76-2.44,2.35l.53-.07c.34.6,0,1.2-.09,1.67-1.37,1-1.4-.46-2-.65-2.54,1.35,1.5,2.2-.63,3.67l-.6-.19c-.56,1.27-2.05,2.49-1.28,4-2-.66-1.92,2.27-3.58,2.23-2.59-2.78,3.69-2.43,3.58-4.91-1.59.21-.53-1.86-.62-2.86l-2.41,3.83c-.6-.2-2.82-.91-2.57.63l.32-.14c-1.1,1.35.26,2.28-1.26,2.76-.4-.14-.42-.87-.49-1.14-1.31.54-.37,1.34-.87,2.15-1.31.55-.44-1.61-1.62-1.25-.34,2.07-2.22,1.22-3.26,2.1,1.82,1.32-2.5,5.5,1.07,5.2l-1.7,3.09c-1.53-.26-.1-3.67-2-4.53l2.15-1.5c-2-1.81-3.28,4.61-6.57,3.34-1.19.74-.68.83-3.64,1.37L207,9.12a3.36,3.36,0,0,1-3-.65,7,7,0,0,1-1.83,1.35,1.43,1.43,0,0,1,.26-1.19c-1.66-.41-1.58.14-1.43.91-.06.79-.8,1.23-1.5,1.73l.05-1.15c-.29.47-.64,1.05-.42,1.42a2.45,2.45,0,0,0-.68.76,5.53,5.53,0,0,0,3.16.67c-3.14,1.16-4.82,3-8.25,3.14-.35-.59,0-1.93-.31-1.79-1.31.54-1.73,2.34-1,3.08a5.21,5.21,0,0,1-.55.53,2,2,0,0,0-1.83-.31,1.3,1.3,0,0,0-1,.15c.84,1.73-1.86,2.55-1.77,3.56a5.75,5.75,0,0,0,1.78-1.18c-.08,1.63.06,3.33-1.27,3.05.87-2.14-3-.23-.87-2.46-3.25-.58.19,2-2.17,2.69l-1.79.15c-.69-1.2,1.48-1.95.88-2.15l-.72.75c.17-1.41,3.69-3.19,4.61-5.79l-4.3,2.24c-3.78,4.84-11,7.84-13.16,13.22l.15-.16a2.4,2.4,0,0,0,.42.83l-.4-.13-.16,1.4c-1.74-.31-3.62.77-5.73,1.06,1.46,0,1.46,0,2.2.71.7,1.2.93,1.76-.76,2.38-.64-.75.22-1.35-1.28-1.21.83,0,.8.86.28,1.41-1.18.08-2.54.92-3.19.18.19-.47.69-.42,1-.49.19-.46-2,.4-1.47-1l-1.21,1.25c-1.33,0-.28-1.39-.93-1.56-1.9,2.23-1.64,4.85-3.31,6.92a13.47,13.47,0,0,0-1.22-1.68c-2,.69-2,4.4-3.66,5.89-.14-.7-4.45,3.61-4.1,3-2.35-.33-5.58,2.27-12.16,4.55l.06,2.75-2.32-.13c-6.44,3-9.76,7.27-14.6,11.69-1.55,1.32-2-.49-3.15-.4-3.76,2.47-3,5.08-6.12,8,0-.89-.39-3-1.93-1.95.14.71.61,1.63-.58,2l0-.88c-1.49-.15-1.7,1.19-3.74,2.17a17.14,17.14,0,0,0-6,9.6C93.21,89.88,94.86,85.93,94,86c2.46-.81,1.09-1.31,1-2.22-.62,1.25-1.61,2.47-3.16,1.62-1.37,1.14-2.06,1.56-2.78,3.45.36-1,1.53-.74,1.31.32-1.52.44-12.21,10.63-13.31,9-6.53,5.33-6.28,3.12-13.48,8.58-.57,1.71,1.18-.38,1,.68-.93,2.36-1.85.51-2.59,2.39l-.11-1.28c-2.22,1.44-3.18,4.68-4.61,7-.44-1.22-2.34.45-1.1-1.38-.84.87-.85-1.62-1.21-.54,0,.08-1.21,1.92-1.16,2l1.12.71c.27.44-1.34,1.24-1,1.4-1.53-.14-3.37-.27-4,.18-1.12-.8.58-1.71,1.43-2.31-1.26-1.78-3.7,1-3.77-1.44-1.56,1.61,1,.68.41,2.1l-1.86.8,1.68-.33c-.89,1.48-.29,3.1-2.8,3.44l-.45,3c-1.28-1.2-1.52.73-2.7,1.11l-.12-1.28a4.58,4.58,0,0,1-3,1.17c-.26-1.7,1.35-.55.74-1.88l-1.68.61c.63.76.26,2,1.6,1.72-.1,2.35.17,4-3.07,6.25-2.49-.24.59-2.29-1.06-3.12-3.72,1.88-1.23,6.33-3.27,7.6-2.88,1.28-1.75,2.37-4.16,4.29.06-1.47-2.51.33-3.65-.17l.23-1.64c-.44.7-1.23.95-1.64.52.35,1.2-2.59,3.35-3.73,5l1.14.79c-1.06,1.33-2.38,3.34-4,4.13-1.83,1.88-.62,2.43-1.32,4.74-1.65-.25-2.44-1.42-3.06-2.74,1,.1,1.69-.92,2.88-1.29,1.94-2.84,2.24-6.53,5.3-8-.87-3.32-1.56,1.62-3.56,1.71a.33.33,0,0,1,.05-.39.86.86,0,0,1-.38.16c.7-1,1.93-2.55,1.16-4-1.38,1.43.86,3.31-2,3.72-.9,1.78-3.68.73-4.71,1.22-.21,1.64,1.37,3.65-1.36,5.05l-.08-2.16c-2.74,2,.38,3-2.18,4.78,1-.5.25,2,2,.78-.22,1.35-1.93,2.85-3.63,3.46-.18.48.31.53.63,1.05,2.3-.17,1.63-2.71,4-2.25l-.17-2.26c1.85-.51,3,.59,2.6,1.81.34-.36.52-.82,1-.77,2.08,2-2.34.45-1.27,2.72l.85-.9c1.63,1.14-1.27,3-2.63,3.85-2,.4-3.53,1.13-4.51.15l1.57-1.89c-1.69-.1-2.07,2.33-3.24,3.13a1.07,1.07,0,0,0-.58-.1.73.73,0,0,1,.33.23,1.38,1.38,0,0,1-1,0c-1,.68-2,2.41-3.17,2.76l.89.85L.3,163c.94-.64,2.65-1,2.53.24-1.52,2.18-3.42.67-4.58.21-.71-1.79,2-1.47,2.65-2.74-1.79-1-2.21,1.4-5.1,2-.44-2.19,2.47-1.8,1.76-3.59-1.93,1-1.47,2.45-3.59,3.38-.37-.89,1.33-2.26.45-3.11l-1.53.41c2.76-2.18-2.09-1.57-.19-3.59-1.57.12-.41,2.35-2.7,2.46,1,.37,3.17.74,2.26,2.4l-2,.74c-1.3-.26.31-2.91-1.26-2.78l-1.24,1.78c.43.43,1.43.07,1.45,1.08-1.38.22-.1,3-.68,4.52-.94.63-1.74,1.07-2.51.77-1.16,3.08-4.1,5.18-5.14,8.06.68-2-1.36-1.55-2.81-1.62,1.5-1.42.31-2.89-.57-3.75-.89.9-.31,2.9.61,3-2.18.65-.33,1.88-2.62,2-1.38.21-.71-1.79-1.49-2.1-1.87,1.28,1,2.15-1.3,3.27-.06-.27.07-.47-.31-.62a2.47,2.47,0,0,0-1.54,2.93c-2.7-1.07-3,2.58-4.33.56-2.17,2.41,1.22.73,1.24,1.76-.38,1.6-2.89,2.38-3.74,2.54.6-.52.77-1.46,1.63-1.63l-1.61-.88c-4,1.46.35,4.43-3.67,5.61,1-1.86-.27-1.37-.22-2.87-.22.68-3,2.12-.67,2A16.84,16.84,0,0,1-43.74,187c-.64,1.27-1.46,2.46-1.37,3.75a9.26,9.26,0,0,1-5,1.07c-2.66,3.48-7.14,4.24-9.94,7.92l.33-.12c-3,1.84,2.65.79-.3,2.91-.9-1.88-2.62.22-4.25.09-4.24,1.85-5.23,5.74-9.4,7.13a1,1,0,0,1,.25-1.41c-2.93,1.37-4.7,3.19-7,4.79l-.06-.27c-4.69,1.42-6.72,5.41-10.18,8.58.14-.42-.27-1.07-.2-1.46-2.19,1.05-5.41,3.07-5.56,5.5-3.53.12-1.1,1.58-5.23,2.22-.4-.16.07-.47.22-.68-1.85.53-2.73,1.45-4.32,2.33-2.36,3.36-1.48,6-5.67,8.11-2-2,1.83-2.21.51-4-.43.93-.7,1.84-2.14,2.08-.07-1.29-.3-.62-.52-1.72-1.24,0-1.3,4.57-1.45,4.35.3.44.75.47,1.43-.13.22,1.95-3.54,2.8-4.89,4.66.62-.4,2.79-1.34,2.93.19-2.77,1.32-1.87,4-2.85,6.08-3,.67.14-3-1.5-4.21-.82-.27-2.69-.82-2.25-2.09-2.25,1.16-2.62,3.5-4.12,5.14l-.3-.46c-2.33,2-3.45,5.84-6.23,6.52l1.5-.33c-.2.56-1.55,1.36-1.53,2.73-.43-.64-2-.34-2.39-.88.26,2.9-4.55,5.29-4,8.22-1.12-.08-1.36-1.39-1.57-2.05,1.71-1,2.62-.91,2.69-2.42-1.28,1-2.7,1.12-2.93.46-.15,2.37-2.79,5.22-2.28,7.12-1.53,0-2.75.29-3.38-1.13-3.39,3.69,4.94,2.16.42,5.48-3,.39.75-3-2.41-1.32l.38-.57c-4.53-1.51.34,3.22-2.06,4.84-1.67-1.41.64-2.37-1.92-2.37-1.77,2-.7,5.12-3.25,6.16l-.21-1c-1.26,1.14-4.17,2.76-5.4,3.89-.33-.27-.1-.37.08-.65-3,1.23-.35,1.61-3.33,2l.07,1.23c1.49-.19,4.15-.87,4.68-2.77-.53,1.9,3.74.57,4.25,2.46l-.21-.76c5.37-.1,10-3,15-5.33,1.33-3.7,5.17-2.75,7.13-6.08-1.13-2.26.23-.79,2.41-3-1.13,1.23,1,1.59,2.09,1.23a4,4,0,0,1,1-2.1c1,.28,5.47-.51,5.55-2.67,2-.52.15.88.15,1.52,1.43.53.61-1.69,1.65-1.4a.55.55,0,0,1,.07.44c2.26-1.81,4.07-2.33,6.69-3.89-1.35-2,1.8-2.48,2.32-3.95.16.86,1.94-.31,2.92-.46l.15-2.36c.3-2.15,2.47-.49,3.61-2.37l-.69,0c.76-1.47,4.88-2.71,6.91-2.58,6.28-9.21-26,43.9-17.75,39.32l60.47-35.3c-.31.56-.64,1.13-1,1.63l-2.62-.41c.4.88-1.69,1.15-.91,2.17-2.34.65.52-2.3.12-3.18-2.82,1-.52,3-3.91,3.09v-1.49c-.79.47-1.82,2.09-2.28,1.68.27.34.52-.06,1-.4,1.12,2.38-2.27,3.91-.37,5.82l1.11-.61c-1.23,1.55-1.22,3.78-3,3.92-1.44,0-.47-1.9-.36-2.84-1.56.94.62,3.18-1.28,4.26,1.18-.34,1.58.54,1.45,1.49,1.11-.61,3.52-1.74,2.46-2.36L-66,266c-.33-.62,0-1.22.11-1.69,1.37-1,1.38.48,2,.68,2.53-1.34-1.45-2.24.69-3.71l.59.21c.58-1.28,2.07-2.5,1.34-4,2,.69,1.95-2.29,3.58-2.21,2.5,2.85-3.71,2.41-3.64,4.92,1.57-.19.48,1.89.55,2.91l2.46-3.84c.6.2,2.76.94,2.55-.61l-.33.14c1.11-1.35-.21-2.3,1.3-2.77.4.13.4.88.46,1.15,1.26-.51.43-1.3.86-2.09l.13-.1c1.16-.39.33,1.66,1.48,1.33.37-2.1,2.21-1.2,3.26-2.09-.82-.62-.34-1.84.08-2.95l1.9-1.47a1.51,1.51,0,0,0,.67.65l-2.15,1.49c2,1.85,3.34-4.62,6.55-3.29,1.2-.73.69-.82,3.63-1.34l-1.83-1.62a3.22,3.22,0,0,1,2.91.7A6.68,6.68,0,0,1-35,245a1.47,1.47,0,0,1-.28,1.2c1.64.43,1.58-.14,1.43-.91.09-.8.81-1.23,1.52-1.73l-.08,1.17c.29-.47.66-1,.44-1.43a2.54,2.54,0,0,0,.69-.77,5.36,5.36,0,0,0-3.11-.72c3.13-1.14,4.82-3,8.21-3.07.35.6-.05,1.95.29,1.82,1.3-.54,1.75-2.36,1-3.11a3.61,3.61,0,0,1,.54-.52,2,2,0,0,0,1.81.33,1.25,1.25,0,0,0,1-.13c-.79-1.76,1.89-2.56,1.82-3.57a5.92,5.92,0,0,0-1.79,1.17c.11-1.65,0-3.37,1.32-3.07-.9,2.16,2.95.27.81,2.5,3.19.63-.15-2,2.21-2.7l1.76-.13c.67,1.22-1.49,2-.91,2.17l.72-.75c-.19,1.43-3.71,3.17-4.68,5.81l4.31-2.22c3.84-4.86,11-7.8,13.26-13.2l-.15.15a2.39,2.39,0,0,0-.39-.84l.4.13.18-1.42c1.71.34,3.6-.73,5.69-1-1.45,0-1.45,0-2.16-.74-.67-1.23-.88-1.79.81-2.4.61.76-.25,1.36,1.24,1.23-.82,0-.77-.88-.25-1.42,1.16-.07,2.54-.91,3.15-.15-.19.47-.69.42-1,.48-.2.48,2-.37,1.42,1.05L7.41,217c1.31,0,.26,1.41.9,1.6,1.9-2.23,1.71-4.88,3.4-7a13.76,13.76,0,0,0,1.17,1.71c2-.67,2-4.43,3.73-5.92.13.72-.71,1-1.09,1.68,6.14-3.48,10.76-6.83,17.31-9.07v-2.78l2.29.17c6.43-3,9.8-7.23,14.66-11.64,1.56-1.32,1.94.52,3.11.44,3.76-2.45,3.09-5.1,6.21-8,0,.89.32,3,1.86,2-.12-.72-.56-1.66.62-2l0,.89c1.46.17,1.71-1.19,3.74-2.15a17.6,17.6,0,0,0,6.15-9.63c2.9-1.85,1.19,2.12,2,2.12-2.46.78-1.12,1.31-1.06,2.23.64-1.27,1.65-2.49,3.16-1.61,1.37-1.13,2.07-1.55,2.82-3.45-.39,1-1.52.72-1.3-.34,1.52-.43,12.29-10.61,13.34-8.9,6.56-5.31,6.28-3.08,13.5-8.51.6-1.72-1.17.37-1-.7,1-2.38,1.84-.49,2.62-2.39l.08,1.3c2.23-1.44,3.25-4.7,4.69-7,.41,1.24,2.32-.43,1.06,1.42.88-.91,5.51,2.6,5.59,1.12l-4.31-3.27c-.25-.44,1.35-1.23,1-1.4,1.51.16,3.32.33,3.93-.13,1.1.82-.6,1.72-1.46,2.32,1.22,1.81,3.68-1,3.7,1.51,1.57-1.61-.94-.71-.37-2.13l1.85-.78-1.66.3c.91-1.48.33-3.12,2.83-3.44l.5-3c1.24,1.23,1.51-.72,2.69-1.09l.09,1.3a4.42,4.42,0,0,1,3-1.14c.22,1.72-1.35.54-.76,1.89l1.67-.59c-.61-.77-.21-2-1.55-1.77.15-2.36-.09-4.08,3.16-6.28,2.46.27-.62,2.31,1,3.17,3.72-1.85,1.34-6.39,3.39-7.64,2.87-1.26,1.78-2.38,4.2-4.29-.09,1.48,2.48-.31,3.6.22l-.25,1.65c.45-.7,1.23-.94,1.64-.51-.33-1.2,2.63-3.35,3.78-5l-1.1-.81c1.06-1.33,2.41-3.35,4-4.13,1.85-1.89.66-2.45,1.4-4.77,1.63.27,2.39,1.45,3,2.81-1-.12-1.69.89-2.87,1.26-2,2.85-2.35,6.57-5.4,8,.79,3.38,1.57-1.61,3.55-1.67a.33.33,0,0,1-.05.38,1,1,0,0,1,.37-.16c-.71,1-1.95,2.56-1.22,4,1.4-1.44-.79-3.37,2-3.74.92-1.78,3.66-.69,4.68-1.16.25-1.66-1.27-3.72,1.44-5.09l0,2.18c2.75-2-.32-3,2.25-4.8-1,.49-.22-2-1.93-.82.25-1.36,2-2.85,3.66-3.45.19-.48-.29-.54-.6-1.06-2.29.14-1.66,2.72-4,2.22L158,104c-1.83.49-2.93-.63-2.53-1.87-.35.36-.53.82-1,.78-2-2.12,2.33-.44,1.32-2.74l-.87.9c-1.58-1.17,1.32-3,2.68-3.86,2-.36,3.51-1.09,4.45-.09L160.45,99c1.68.11,2.1-2.35,3.27-3.14a1,1,0,0,0,.58.11.65.65,0,0,1-.32-.24,1.31,1.31,0,0,1,1,0c1-.68,2-2.41,3.18-2.75l-.86-.88.3.63c-.94.64-2.64,1-2.51-.27,1.54-2.18,3.39-.64,4.52-.15.67,1.82-2,1.46-2.67,2.74,1.76,1,2.21-1.4,5.08-2,.39,2.22-2.48,1.78-1.81,3.61,1.92-1,1.49-2.45,3.6-3.37.35.91-1.35,2.27-.5,3.14L174.8,96c-2.77,2.18,2,1.62.13,3.63,1.56-.11.45-2.37,2.72-2.46-1-.39-3.12-.79-2.18-2.46l2-.72c1.28.28-.36,2.94,1.19,2.83l1.26-1.79c-.42-.44-1.42-.08-1.42-1.11,1.37-.2.17-3,.77-4.56.94-.64,1.74-1.07,2.49-.75,1.22-3.1,4.16-5.19,5.24-8.09-.7,2,1.32,1.59,2.74,1.67-1.51,1.43-.35,2.93.5,3.81.88-.9.36-2.93-.54-3.06,2.16-.63.36-1.9,2.63-2,1.36-.19.66,1.83,1.43,2.15,1.89-1.28-.91-2.19,1.35-3.3,0,.28-.09.47.28.64a2.53,2.53,0,0,0,1.58-2.94c2.65,1.12,3.05-2.57,4.3-.52,2.19-2.41-1.19-.75-1.2-1.79.41-1.62,2.91-2.37,3.76-2.53-.61.52-.79,1.47-1.64,1.63l1.57.91c4-1.44-.26-4.49,3.74-5.63-1.07,1.86.24,1.38.16,2.9.23-.69,3-2.11.7-2A16,16,0,0,1,211.57,69c.65-1.27,1.5-2.46,1.43-3.77a9.05,9.05,0,0,1,4.91-1c2.71-3.49,7.14-4.21,10-7.88l-.33.11c3-1.83-2.61-.83.36-2.94.86,1.91,2.59-.19,4.21,0,4.23-1.81,5.29-5.74,9.43-7.09a1,1,0,0,1-.27,1.43c2.92-1.35,4.69-3.16,7-4.76l.06.27c4.67-1.38,6.76-5.39,10.23-8.55-.15.43.24,1.1.17,1.49,2.18-1,5.41-3,5.6-5.49,3.48-.07,1.12-1.59,5.22-2.19.38.16-.08.48-.23.68,1.84-.51,2.73-1.43,4.32-2.3,2.39-3.37,1.57-6,5.76-8.13,1.89,2.06-1.85,2.22-.58,4,.43-.93.73-1.85,2.16-2.09.05,1.31.28.64.48,1.75,1.23,0,1.38-4.6,1.52-4.38-.28-.46-.72-.49-1.41.11-.18-2,3.56-2.79,4.92-4.65-.61.4-2.78,1.32-2.89-.23,2.77-1.31,1.93-4,2.93-6.11,3-.64-.21,3.05,1.4,4.27.81.29,2.65.86,2.18,2.15,2.25-1.14,2.67-3.52,4.18-5.15l.29.47c2.34-2,3.52-5.86,6.28-6.51l-1.49.31C299.65,2.23,301,1.44,301,0c.41.67,2,.38,2.35.93-.19-2.94,4.59-5.29,4.16-8.27,1.11.1,1.31,1.42,1.51,2.1-1.72,1-2.61.89-2.72,2.42,1.29-1,2.7-1.11,2.91-.43.19-2.4,2.85-5.25,2.4-7.18,1.51,0,2.72-.25,3.32,1.19,3.42-3.69-4.85-2.24-.31-5.55,3-.36-.79,3.05,2.36,1.35l-.37.58c4.44,1.58-.27-3.26,2.13-4.87,1.61,1.46-.69,2.39,1.85,2.41,1.79-2,.8-5.16,3.34-6.19l.22,1c1.26-1.13,4.17-2.73,5.42-3.86.33.28.09.39-.1.66C332.53-25,329.92-25.4,332.86-25.74ZM201.17,10.37l0-.5a2.07,2.07,0,0,1,0,.5ZM-33.9,244.42l0,.51A4.24,4.24,0,0,1-33.9,244.42Z"/><path class="cls-8" d="M-129.12,309.34l.06,1.24c1.48-.2,4.1-.87,4.64-2.8-.54,1.93,3.69.58,4.19,2.48l-.2-.76c5.31-.11,9.89-3.09,14.9-5.41,1.34-3.74,5.13-2.79,7.09-6.15-1.1-2.28.23-.8,2.41-3.08-1.13,1.24,1,1.6,2.06,1.23A4.32,4.32,0,0,1-93,294c1,.29,5.41-.52,5.51-2.71,2-.52.14.9.13,1.54,1.42.53.61-1.71,1.65-1.42a.54.54,0,0,1,.06.45c2.25-1.83,4-2.37,6.64-3.94-1.32-2.07,1.79-2.51,2.31-4,.15.88,1.93-.32,2.9-.47l.16-2.4c.33-2.18,2.45-.5,3.59-2.39l-.67-.05c.75-1.49,4.84-2.74,6.83-2.61C-55.72,263.81-45,265-34.06,255.13c.31-1.16-1.33-.54-1.41-1.85l.18-.19c-.2-.07-.05-.27-.44-.42a5.25,5.25,0,0,1-1.57,1.92c.63-1.27-.2-2.9,1.64-3.43,0,.27-.09.47-.36.87,1.25-.76.77-1.48,1.94-1.77,1.31-.49.7-.73,1.32-.22l3.92-1.75c.31-2.94,3.62-2.87,4.29-3.13.64,1.54-1.89,2.05-1.71,3.91l1.93,0-.73-1.06,1.93-1,.05.27c-.11-.55-.21-1.1.5-1.08a2,2,0,0,1,.44.4l.75-1.44c.13,1.58-12.73,10.14-12,11.47,3.83-2.06,5.35,1.26,8.35,0l30.07-.35a7.64,7.64,0,0,0-.3,1.73l.4.12.27-1.51,1.88,1.73c-.1.22-.19.43-.26.62-2.27-.23-7,1.68-7.85-.5-2.45,1.66,1.62.5,1,2l-.32.14a4.55,4.55,0,0,1,3.11,0c1,.79-.89,2.64-1.74,2.85l-.67-1.65c-1.76,2.1.35,3.73.12,6.08-2.16.79-2.17-1.16-3.53-2.06l-1.53,1.71-.84-1c-.95,1.15-.44,2.28-2.39,3.13.39-1.83-3.21.94-2.65-1.55-1.18.36.17,2.46-1.4,1.5.27,1.53,1.25-.09,2-.12,1.65,1.24-1.36,2.24-2.11,3.46-.76-.71-.06-1.47-1.78-1a1.28,1.28,0,0,1-1.51,1.69c.83,1-1.28,1.3-2,1.79,1-.43,2.76-.61,2.94.66-.29.88-.68,1.49-2.22,2.46l1.38-.3c0,2.41-3,.53-4.28,2.31.21-1.15.68-1.5.69-2.69a33,33,0,0,1-2.22,4.39l-2.66-.33c.43.86-1.68,1.17-.85,2.16-2.35.71.44-2.29,0-3.15-2.8,1.08-.42,3-3.85,3.17l-.06-1.47c-.77.48-1.77,2.12-2.25,1.72.28.32.54-.08,1-.42,1.23,2.3-2.15,3.91-.17,5.75l1.11-.63c-1.19,1.56-1.11,3.77-2.88,3.95-1.46,0-.54-1.87-.45-2.8-1.55,1,.73,3.12-1.16,4.24,1.18-.36,1.62.5,1.52,1.43,1.11-.63,3.5-1.81,2.41-2.38l-.54.08c-.35-.6,0-1.21.07-1.68,1.35-1,1.41.44,2,.63,2.52-1.39-1.53-2.18.58-3.68l.6.18c.55-1.28,2-2.52,1.23-4,2,.63,1.89-2.31,3.55-2.29,2.63,2.75-3.66,2.48-3.51,5,1.58-.23.55,1.85.65,2.86l2.37-3.86c.6.18,2.82.86,2.56-.67l-.33.14c1.08-1.37-.29-2.27,1.22-2.77.41.13.44.86.51,1.13,1.3-.56.35-1.35.85-2.17,1.29-.56.45,1.61,1.63,1.23.31-2.07,2.2-1.24,3.23-2.14-1.84-1.29,2.42-5.53-1.14-5.19l1.66-3.1c1.53.23.15,3.66,2,4.5L-12,279.16c2.06,1.78,3.22-4.65,6.52-3.42,1.18-.76.67-.85,3.63-1.43l-1.9-1.55a3.33,3.33,0,0,1,3,.61A6.76,6.76,0,0,1,1,272a1.39,1.39,0,0,1-.24,1.19c1.67.39,1.58-.17,1.42-.93.05-.79.78-1.24,1.47-1.75l0,1.15c.29-.47.62-1.06.4-1.42a2.33,2.33,0,0,0,.66-.78,5.51,5.51,0,0,0-3.16-.62c3.12-1.21,4.78-3.12,8.2-3.26.37.59,0,1.93.34,1.8,1.3-.56,1.7-2.38.93-3.1a4.55,4.55,0,0,1,.54-.54,2,2,0,0,0,1.83.28,1.29,1.29,0,0,0,1-.16c-.87-1.72,1.82-2.58,1.71-3.58a5.87,5.87,0,0,0-1.76,1.2c.06-1.63-.11-3.33,1.23-3.06-.84,2.15,3,.19.9,2.45,3.26.53-.21-2,2.14-2.73l1.78-.17c.71,1.19-1.45,2-.84,2.16l.7-.76c-.15,1.42-3.65,3.24-4.53,5.86l4.27-2.3c3.71-4.9,10.88-8,13-13.4-.06.05-.1.11-.15.16a2.51,2.51,0,0,0-.43-.83l.4.13.14-1.41c1.74.29,3.61-.81,5.72-1.13-1.46,0-1.46,0-2.21-.68-.71-1.19-1-1.75.73-2.39.65.73-.21,1.35,1.29,1.19-.82,0-.81-.85-.29-1.4,1.17-.1,2.52-1,3.18-.23-.18.47-.69.43-1,.5-.18.47,2-.42,1.49,1L43,243.17c1.34,0,.3,1.39,1,1.55,1.86-2.26,1.57-4.88,3.21-7a13.73,13.73,0,0,0,1.24,1.65c2-.71,1.89-4.43,3.58-5.94.15.7,4.4-3.67,4.06-3,2.36.29,5.55-2.34,12.1-4.72L68,223l2.32.1c6.4-3.08,9.67-7.4,14.44-11.88,1.53-1.35,2,.46,3.15.35,3.73-2.52,3-5.12,6-8.09,0,.88.43,3,2,1.92-.14-.7-.63-1.62.55-2l0,.89c1.49.13,1.68-1.22,3.71-2.22a17.27,17.27,0,0,0,5.9-9.68c2.87-1.91,1.27,2.06,2.11,2-2.46.84-1.08,1.33-1,2.24.61-1.26,1.58-2.5,3.14-1.67,1.35-1.16,2-1.59,2.74-3.48-.35,1-1.52.75-1.33-.31,1.52-.46,12.07-10.79,13.2-9.14,6.45-5.42,6.23-3.2,13.36-8.76.55-1.72-1.17.4-1-.67.89-2.37,1.84-.53,2.56-2.42l.12,1.28c2.2-1.48,3.12-4.72,4.51-7.05.47,1.21,2.34-.49,1.13,1.36.82-.88.87,1.61,1.21.53,0-.09,1.19-1.94,1.14-2l-1.13-.7c-.28-.43,1.32-1.26,1-1.41,1.53.12,3.37.23,4-.24,1.13.79-.56,1.72-1.4,2.33,1.29,1.76,3.69-1.05,3.79,1.39,1.54-1.63-1-.66-.43-2.09l1.84-.83-1.67.35c.87-1.48.24-3.1,2.75-3.48l.41-3c1.3,1.18,1.51-.75,2.68-1.14l.15,1.28a4.5,4.5,0,0,1,3-1.21c.29,1.68-1.33.56-.7,1.88l1.66-.63c-.63-.75-.28-2-1.62-1.7.07-2.35-.23-4,3-6.29,2.48.2-.56,2.29,1.09,3.1,3.71-1.93,1.15-6.34,3.18-7.64,2.86-1.32,1.71-2.39,4.1-4.34,0,1.46,2.5-.37,3.64.11l-.2,1.65c.43-.71,1.22-1,1.64-.55-.37-1.19,2.54-3.38,3.65-5.07l-1.14-.78c1-1.34,2.32-3.37,3.94-4.18,1.81-1.91.59-2.45,1.26-4.76,1.66.23,2.46,1.38,3.1,2.7-1-.09-1.68.94-2.86,1.32-1.9,2.88-2.16,6.57-5.19,8.07.91,3.31,1.53-1.63,3.53-1.75a.33.33,0,0,1,0,.39,1,1,0,0,1,.37-.17c-.68,1-1.89,2.58-1.1,4,1.36-1.45-.91-3.3,1.93-3.75.87-1.79,3.67-.77,4.69-1.28.19-1.64-1.41-3.63,1.29-5.07l.11,2.16c2.72-2-.42-3,2.12-4.81-1,.51-.28-2-2-.76.21-1.35,1.9-2.87,3.59-3.51.17-.47-.32-.52-.65-1-2.29.19-1.59,2.73-4,2.3l.2,2.26c-1.83.53-3-.55-2.62-1.78-.34.37-.51.83-1,.79-2.12-2,2.33-.48,1.23-2.74l-.85.91c-1.64-1.12,1.24-3,2.58-3.89,2-.42,3.52-1.17,4.51-.21l-1.55,1.92c1.7.07,2-2.36,3.2-3.18a1.08,1.08,0,0,0,.58.09.74.74,0,0,1-.33-.22,1.38,1.38,0,0,1,1-.06c1-.69,1.94-2.43,3.13-2.8l-.9-.84.33.61c-.94.65-2.64,1-2.54-.2,1.49-2.2,3.41-.73,4.57-.28.74,1.78-2,1.5-2.61,2.78,1.81.93,2.19-1.43,5.07-2.1.48,2.18-2.44,1.83-1.7,3.61,1.91-1,1.43-2.47,3.54-3.43.38.89-1.3,2.28-.41,3.12l1.52-.44c-2.72,2.23,2.12,1.55.25,3.6,1.56-.15.37-2.36,2.66-2.5-1-.36-3.18-.69-2.29-2.37l2-.76c1.3.23-.27,2.91,1.3,2.75l1.21-1.79c-.44-.42-1.43,0-1.47-1.06,1.38-.23.07-3,.62-4.53.94-.65,1.73-1.1,2.5-.8,1.12-3.1,4-5.24,5-8.14-.65,2,1.39,1.54,2.83,1.58-1.47,1.45-.26,2.91.63,3.75.87-.92.27-2.91-.66-3,2.18-.69.31-1.89,2.6-2,1.37-.23.73,1.79,1.51,2.09,1.86-1.32-1-2.14,1.26-3.3.06.28-.07.47.32.62a2.47,2.47,0,0,0,1.5-2.95c2.71,1,3-2.63,4.32-.62,2.14-2.44-1.23-.71-1.26-1.74.35-1.61,2.86-2.42,3.71-2.59-.6.52-.75,1.47-1.61,1.65l1.62.86c3.95-1.52-.42-4.43,3.59-5.66-1,1.87.29,1.36.26,2.86.21-.68,2.91-2.16.64-2a16.3,16.3,0,0,1,3.22-1.53c.62-1.28,1.43-2.48,1.32-3.76a9.25,9.25,0,0,1,4.93-1.15c2.62-3.51,7.08-4.34,9.84-8l-.33.12c3-1.88-2.66-.75.25-2.91.93,1.86,2.62-.26,4.25-.15,4.22-1.91,5.15-5.81,9.31-7.26a1,1,0,0,1-.23,1.42c2.9-1.41,4.65-3.26,7-4.88l.07.26c4.67-1.49,6.65-5.5,10.06-8.72-.13.43.29,1.07.23,1.46,2.17-1.08,5.37-3.14,5.48-5.57,3.53-.17,1.08-1.6,5.2-2.3.39.16-.07.48-.21.68,1.84-.55,2.71-1.48,4.29-2.38,2.31-3.4,1.39-6,5.55-8.19,2,2-1.8,2.24-.45,4,.41-.93.68-1.85,2.11-2.11.09,1.29.31.62.55,1.71,1.23,0,1.24-4.58,1.39-4.37-.31-.44-.76-.46-1.44.16-.24-2,3.5-2.85,4.83-4.73-.61.4-2.77,1.37-2.93-.15,2.75-1.37,1.82-4,2.76-6.12,3-.71-.1,3,1.56,4.19.83.26,2.71.78,2.28,2.05,2.23-1.18,2.57-3.53,4.05-5.19l.31.45c2.3-2,3.37-5.88,6.14-6.6l-1.5.35c.19-.56,1.53-1.38,1.49-2.76.44.65,2,.32,2.41.86-.31-2.9,4.47-5.36,3.93-8.27,1.12.06,1.37,1.36,1.6,2-1.71,1-2.61,1-2.66,2.46,1.26-1,2.68-1.16,2.92-.5.12-2.38,2.72-5.26,2.18-7.15,1.54,0,2.75-.33,3.4,1.09,3.33-3.74-5-2.1-.5-5.48,3-.43-.71,3,2.42,1.28l-.36.58c4.54,1.44-.39-3.21,2-4.87,1.68,1.39-.61,2.38,1.95,2.34,1.75-2,.63-5.12,3.17-6.2l.22,1c1.24-1.15,4.13-2.81,5.35-4,.34.27.11.38-.08.66,3-1.27.33-1.62,3.31-2l-.09-1.23c-1.49.21-4.13.93-4.63,2.84.5-1.91-3.76-.53-4.29-2.4l.22.75c-5.37.17-9.95,3.18-15,5.54-1.29,3.72-5.14,2.82-7,6.17,1.15,2.24-.23.8-2.37,3.06,1.11-1.24-1.07-1.57-2.1-1.19a4.21,4.21,0,0,1-.95,2.11c-1.05-.27-5.46.58-5.52,2.75-2,.54-.15-.88-.16-1.53-1.44-.5-.59,1.7-1.64,1.43a.6.6,0,0,1-.07-.44c-2.24,1.84-4,2.39-6.64,4,1.38,2-1.76,2.5-2.26,4-.17-.86-1.94.34-2.91.5l-.12,2.37c-.27,2.14-2.47.52-3.58,2.41l.69,0c-.74,1.49,62.64-27.21,46.24-37.38-6.15,9.3-27.7-4.19-35.91.5l-60,36.12c.31-.57.63-1.14.95-1.65l2.62.38c-.41-.87,1.68-1.17.88-2.18,2.33-.68-.49,2.31-.07,3.18,2.8-1,.47-3,3.86-3.14l0,1.48c.78-.48,1.79-2.11,2.26-1.71-.28-.33-.53.08-1,.42-1.16-2.36,2.21-3.94.28-5.82l-1.1.62c1.2-1.56,1.17-3.8,2.93-4,1.44,0,.49,1.89.39,2.84,1.55-1-.65-3.18,1.23-4.28-1.18.35-1.59-.53-1.47-1.47-1.11.62-3.49,1.79-2.43,2.39l.51-.07c.34.61,0,1.22-.09,1.69-1.36,1-1.39-.46-2-.66-2.52,1.38,1.47,2.22-.65,3.72l-.59-.2c-.56,1.29-2,2.53-1.29,4-2-.66-1.92,2.31-3.54,2.26-2.55-2.82,3.67-2.46,3.56-5-1.56.21-.5-1.88-.58-2.9L258.15,19c-.6-.19-2.77-.91-2.54.64l.33-.14c-1.09,1.36.24,2.3-1.26,2.79-.4-.13-.41-.88-.47-1.15-1.27.53-.42,1.31-.84,2.1l-.13.1c-1.16.41-.36-1.65-1.49-1.3-.35,2.1-2.2,1.23-3.24,2.13.83.61.37,1.83,0,2.95l-1.87,1.49a1.65,1.65,0,0,0-.69-.64L248,26.5c-2-1.83-3.27,4.67-6.51,3.38-1.18.75-.68.83-3.6,1.38l1.84,1.6a3.22,3.22,0,0,1-2.91-.66A7,7,0,0,1,235,33.57a1.48,1.48,0,0,1,.27-1.2c-1.64-.42-1.58.15-1.42.92-.07.81-.79,1.25-1.49,1.75l.07-1.16c-.29.47-.65,1-.43,1.43a2.43,2.43,0,0,0-.68.78,5.37,5.37,0,0,0,3.12.67c-3.11,1.18-4.77,3.09-8.17,3.19-.35-.6,0-2-.31-1.82-1.29.55-1.72,2.38-1,3.12a3.74,3.74,0,0,1-.53.53,2,2,0,0,0-1.81-.3,1.24,1.24,0,0,0-1,.14c.82,1.75-1.85,2.59-1.76,3.6a5.84,5.84,0,0,0,1.77-1.2c-.09,1.65,0,3.37-1.28,3.08.88-2.17-2.95-.23-.84-2.48-3.21-.59.17,2-2.17,2.73l-1.76.15c-.69-1.21,1.46-2,.88-2.18l-.71.75c.17-1.42,3.66-3.21,4.59-5.86l-4.27,2.28c-3.77,4.91-10.9,7.94-13.08,13.38l.14-.16a2.61,2.61,0,0,0,.41.84l-.4-.13L203,57.84c-1.72-.31-3.59.78-5.68,1.08,1.45,0,1.45,0,2.17.71.68,1.22.91,1.79-.77,2.42-.63-.76.23-1.37-1.27-1.22.82,0,.79.87.27,1.42-1.15.08-2.52.94-3.15.19.19-.48.69-.43,1-.49.2-.48-2,.39-1.43-1L193,62.18c-1.31,0-.27-1.41-.91-1.58-1.88,2.25-1.65,4.9-3.31,7a15.19,15.19,0,0,0-1.2-1.69c-2,.69-1.95,4.46-3.65,6-.13-.71.7-1,1.07-1.68-6.08,3.56-10.66,7-17.18,9.29l0,2.79-2.3-.14c-6.38,3-9.69,7.36-14.49,11.84-1.54,1.34-2-.49-3.12-.4-3.73,2.51-3,5.15-6.1,8.11,0-.89-.37-3-1.89-2,.13.72.58,1.65-.59,2l0-.89c-1.47-.15-1.7,1.22-3.71,2.2a17.6,17.6,0,0,0-6,9.72c-2.88,1.88-1.22-2.11-2-2.1,2.45-.81,1.1-1.33,1-2.24-.62,1.27-1.61,2.5-3.13,1.64-1.36,1.16-2.05,1.59-2.78,3.5.37-1,1.51-.75,1.3.32-1.51.45-12.14,10.77-13.22,9.08-6.48,5.4-6.23,3.17-13.38,8.7-.57,1.72,1.17-.39,1,.68-.93,2.39-1.83.51-2.59,2.43l-.09-1.3c-2.21,1.47-3.18,4.74-4.59,7.07-.43-1.24-2.31.46-1.08-1.4-.87.92-5.55-2.53-5.61-1l4.36,3.21c.26.44-1.34,1.26-1,1.41-1.51-.14-3.33-.27-3.93.19-1.11-.8.58-1.73,1.43-2.34-1.24-1.8-3.67,1-3.72-1.45-1.55,1.62,1,.68.4,2.12l-1.84.8,1.65-.33c-.89,1.5-.29,3.13-2.78,3.49l-.46,3c-1.26-1.21-1.5.74-2.68,1.13l-.1-1.3a4.44,4.44,0,0,1-3,1.18c-.25-1.71,1.34-.56.73-1.9l-1.67.62c.62.76.24,2,1.58,1.74-.12,2.37.14,4.08-3.08,6.33-2.46-.24.6-2.32-1-3.16-3.7,1.9-1.26,6.41-3.3,7.69-2.84,1.29-1.74,2.4-4.14,4.34.08-1.48-2.47.34-3.6-.17l.23-1.65c-.44.7-1.22,1-1.63.53.34,1.2-2.59,3.39-3.71,5.08l1.11.8c-1.05,1.34-2.37,3.38-4,4.18-1.82,1.91-.62,2.46-1.33,4.8-1.63-.26-2.41-1.43-3-2.78,1,.11,1.68-.92,2.86-1.29,1.92-2.89,2.25-6.61,5.29-8.11-.85-3.36-1.55,1.64-3.53,1.73a.35.35,0,0,1,0-.39.84.84,0,0,1-.37.17c.7-1,1.92-2.58,1.17-4-1.39,1.45.83,3.35-2,3.77-.9,1.79-3.65.73-4.66,1.22-.23,1.66,1.32,3.7-1.37,5.11l-.07-2.18c-2.73,2,.35,3-2.19,4.83,1-.5.25,2,1.94.79-.23,1.36-1.93,2.88-3.61,3.5-.18.48.3.54.62,1.05,2.28-.17,1.62-2.74,4-2.27l-.15-2.3c1.83-.51,2.94.59,2.56,1.83.34-.35.52-.83,1-.79,2,2.09-2.32.47-1.27,2.75l.85-.9c1.6,1.14-1.27,3-2.62,3.89-2,.39-3.5,1.14-4.45.15l1.57-1.92c-1.68-.1-2.07,2.37-3.23,3.17a1,1,0,0,0-.58-.09.71.71,0,0,1,.33.23,1.36,1.36,0,0,1-1,0c-1,.7-2,2.44-3.15,2.8l.87.86-.3-.62c.93-.65,2.62-1,2.51.23-1.5,2.21-3.38.69-4.52.22-.69-1.82,2-1.49,2.64-2.78-1.78-1-2.2,1.43-5.06,2.06-.42-2.21,2.46-1.82,1.77-3.63-1.91,1-1.47,2.47-3.56,3.41-.36-.9,1.32-2.29.46-3.14l-1.51.41c2.74-2.22-2.06-1.6-.18-3.63-1.56.14-.41,2.38-2.69,2.5,1,.38,3.14.74,2.22,2.43l-2,.74c-1.28-.26.32-2.94-1.23-2.81l-1.23,1.81c.42.43,1.42.06,1.43,1.09-1.37.21-.13,3-.71,4.57-.93.65-1.72,1.09-2.48.78-1.17,3.12-4.08,5.25-5.12,8.16.67-2-1.35-1.57-2.77-1.63,1.49-1.45.31-2.93-.55-3.81-.87.92-.32,3,.59,3.06-2.16.66-.35,1.9-2.61,2-1.36.21-.69-1.82-1.46-2.13-1.87,1.3.94,2.17-1.3,3.31,0-.28.08-.47-.29-.63a2.52,2.52,0,0,0-1.54,3c-2.66-1.08-3,2.61-4.29.58-2.16,2.44,1.19.73,1.22,1.77-.39,1.62-2.87,2.41-3.72,2.58.6-.52.77-1.47,1.61-1.65l-1.58-.89c-3.94,1.49.32,4.48-3.66,5.69,1-1.89-.26-1.39-.21-2.9-.22.69-2.92,2.15-.67,2a16,16,0,0,1-3.22,1.5c-.62,1.28-1.46,2.49-1.37,3.79a9.07,9.07,0,0,1-4.9,1.1c-2.66,3.52-7.08,4.3-9.88,8l.33-.12c-3,1.87,2.62.8-.32,2.95-.88-1.9-2.59.23-4.21.1-4.2,1.87-5.21,5.81-9.34,7.21a1,1,0,0,1,.26-1.43c-2.9,1.39-4.65,3.23-7,4.85l-.06-.26c-4.65,1.44-6.68,5.48-10.11,8.69.14-.44-.26-1.1-.19-1.49-2.17,1.07-5.36,3.12-5.52,5.57-3.48.12-1.11,1.6-5.2,2.25-.38-.15.08-.47.22-.68-1.83.54-2.7,1.47-4.28,2.36-2.35,3.4-1.49,6-5.66,8.21-1.91-2,1.83-2.24.53-4-.42.93-.7,1.85-2.13,2.11-.06-1.31-.29-.64-.51-1.74-1.22,0-1.31,4.62-1.46,4.4.3.45.74.48,1.42-.13.2,2-3.52,2.84-4.86,4.71.61-.4,2.76-1.35,2.9.19-2.76,1.35-1.88,4-2.86,6.16-3,.67.17-3.05-1.46-4.26-.81-.27-2.65-.82-2.2-2.11-2.24,1.17-2.62,3.55-4.11,5.21l-.29-.47c-2.32,2-3.45,5.9-6.2,6.6l1.49-.34c-.2.57-1.54,1.37-1.53,2.77-.42-.66-2-.35-2.36-.9.24,2.94-4.52,5.36-4,8.33-1.11-.08-1.32-1.4-1.54-2.08,1.71-1,2.6-.92,2.69-2.45-1.27,1-2.68,1.14-2.9.47-.16,2.4-2.78,5.28-2.3,7.2-1.51,0-2.72.3-3.33-1.14-3.37,3.73,4.87,2.18.38,5.55-3,.4.74-3.06-2.38-1.33l.37-.57c-4.47-1.52.31,3.25-2.07,4.89-1.63-1.43.66-2.4-1.89-2.38-1.76,2-.73,5.17-3.25,6.23l-.24-1c-1.24,1.16-4.13,2.8-5.36,3.94-.33-.28-.09-.38.09-.67C-128.8,308.57-126.18,309-129.12,309.34ZM2.07,271.43l.05.5a2.07,2.07,0,0,1-.05-.5ZM233.92,34.19l0-.51C233.9,33.84,233.91,34,233.92,34.19Z"/><path class="cls-9" d="M452.15-19.22l0-1.24c-1.48.18-4.11.82-4.67,2.73.56-1.91-3.69-.62-4.15-2.53l.18.76c-5.31,0-9.93,3-15,5.2-1.39,3.73-5.17,2.72-7.17,6.06,1.06,2.3-.25.8-2.45,3,1.14-1.22-1-1.61-2.05-1.26a4.28,4.28,0,0,1-1,2.11c-1-.3-5.42.45-5.55,2.64-2,.49-.12-.9-.11-1.55-1.41-.54-.63,1.71-1.66,1.4a.54.54,0,0,1-.06-.45c-2.27,1.8-4.06,2.31-6.69,3.86,1.29,2.08-1.83,2.48-2.37,4-.13-.88-1.93.29-2.9.43l-.2,2.4c-.35,2.17-2.45.46-3.61,2.34l.67.05c-.78,1.48-4.88,2.68-6.87,2.52-8.33,12.05-19.05,10.69-30.12,20.44-.31,1.15,1.33.55,1.39,1.87l-.18.18c.2.08.05.28.43.43a5.31,5.31,0,0,1,1.6-1.9c-.65,1.26.16,2.9-1.69,3.41,0-.28.1-.47.37-.87-1.25.74-.79,1.47-1.95,1.74-1.33.48-.72.72-1.34.2L351,40.45c-.35,2.94-3.66,2.82-4.33,3.07-.62-1.55,1.92-2,1.77-3.89l-1.93,0,.71,1.07-1.94,1-.05-.27c.1.55.2,1.11-.51,1.07a1.81,1.81,0,0,1-.44-.4l-.77,1.43c-.11-1.58,12.87-10,12.1-11.31-3.85,2-5.32-1.33-8.34-.07L317.24,32a8.55,8.55,0,0,0,.33-1.72l-.41-.14-.29,1.51L315,29.94c.11-.22.2-.43.28-.62,2.26.26,7-1.58,7.83.61,2.48-1.63-1.6-.52-.92-2l.32-.13a4.47,4.47,0,0,1-3.1,0c-.94-.8.92-2.63,1.77-2.83l.65,1.66c1.79-2.07-.3-3.73,0-6.08,2.17-.76,2.16,1.19,3.51,2.1l1.55-1.68.82,1c1-1.15.48-2.28,2.44-3.11-.42,1.83,3.22-.89,2.63,1.59,1.18-.34-.15-2.46,1.41-1.48-.24-1.53-1.25.08-2,.09-1.62-1.26,1.4-2.22,2.17-3.43.74.72,0,1.47,1.75,1.05A1.28,1.28,0,0,1,337.63,15c-.82-1,1.3-1.29,2.07-1.76-1,.41-2.77.56-2.94-.7.31-.88.7-1.49,2.26-2.43l-1.38.28c.06-2.41,3-.5,4.31-2.25-.24,1.14-.7,1.48-.73,2.68a31.63,31.63,0,0,1,2.28-4.37l2.66.37c-.43-.86,1.68-1.15.87-2.15,2.36-.67-.47,2.29,0,3.15,2.82-1,.46-3,3.89-3.11l.05,1.46c.77-.47,1.79-2.08,2.26-1.68-.27-.33-.53.07-1,.41-1.2-2.33,2.21-3.89.25-5.76l-1.12.62c1.21-1.54,1.16-3.75,2.94-3.9,1.46,0,.51,1.87.41,2.8,1.55-.95-.69-3.14,1.21-4.23-1.18.35-1.61-.52-1.5-1.45-1.11.61-3.52,1.76-2.44,2.35l.54-.07c.34.6,0,1.2-.09,1.67-1.37,1-1.4-.46-2-.65-2.54,1.36,1.5,2.2-.63,3.68l-.6-.2c-.56,1.28-2.05,2.5-1.28,4C345.87,3,346,6,344.29,5.92,341.7,3.14,348,3.49,347.87,1c-1.58.21-.52-1.86-.61-2.86L344.84,2c-.6-.2-2.81-.91-2.57.63l.33-.14c-1.1,1.36.26,2.28-1.26,2.76-.4-.14-.42-.87-.49-1.13-1.31.54-.37,1.34-.88,2.14-1.3.55-.43-1.6-1.62-1.25-.33,2.07-2.21,1.22-3.25,2.1,1.82,1.32-2.5,5.5,1.06,5.2l-1.7,3.09c-1.52-.26-.09-3.67-2-4.53l2.15-1.49c-2-1.81-3.28,4.6-6.57,3.33-1.19.74-.68.83-3.65,1.38l1.89,1.57a3.31,3.31,0,0,1-3-.65,6.77,6.77,0,0,1-1.83,1.35,1.4,1.4,0,0,1,.26-1.19c-1.67-.41-1.58.14-1.43.91-.07.79-.8,1.23-1.51,1.73l.06-1.15c-.3.47-.64,1.05-.42,1.42a2.45,2.45,0,0,0-.68.76,5.5,5.5,0,0,0,3.16.67c-3.14,1.16-4.82,3.05-8.25,3.14-.36-.59,0-1.93-.31-1.79-1.31.54-1.73,2.35-1,3.08a3.77,3.77,0,0,1-.54.53,2,2,0,0,0-1.83-.3,1.26,1.26,0,0,0-1,.14c.85,1.73-1.85,2.55-1.76,3.56a5.75,5.75,0,0,0,1.78-1.18c-.08,1.63.06,3.33-1.27,3,.86-2.14-3-.23-.87-2.46-3.25-.58.18,2-2.18,2.69L302,30.1c-.69-1.2,1.48-2,.87-2.15l-.71.75c.16-1.41,3.69-3.18,4.61-5.79l-4.3,2.24c-3.78,4.85-11,7.84-13.16,13.22l.14-.16a2.63,2.63,0,0,0,.43.83l-.4-.13-.16,1.41c-1.74-.32-3.62.76-5.73,1,1.46,0,1.46,0,2.2.71.69,1.2.92,1.76-.77,2.38-.63-.74.23-1.35-1.27-1.21.82,0,.8.86.27,1.41-1.17.08-2.53.92-3.18.18.18-.47.69-.42,1-.48.19-.47-2,.39-1.47-1l-1.21,1.25c-1.34,0-.29-1.39-.94-1.56-1.89,2.23-1.64,4.85-3.31,6.92a12.88,12.88,0,0,0-1.21-1.68c-2,.69-1.95,4.41-3.66,5.9-.14-.71-4.46,3.61-4.1,2.95-2.35-.32-5.59,2.27-12.16,4.55l.06,2.75-2.32-.13c-6.44,3-9.77,7.27-14.6,11.69-1.55,1.32-2-.49-3.15-.4-3.76,2.47-3,5.08-6.13,8,0-.88-.38-3-1.92-1.94.14.7.6,1.62-.58,2l0-.88c-1.49-.15-1.71,1.19-3.74,2.17a17.18,17.18,0,0,0-6,9.6c-2.9,1.87-1.25-2.09-2.09-2.07,2.47-.81,1.1-1.31,1-2.22-.62,1.25-1.61,2.47-3.16,1.63-1.37,1.13-2.06,1.56-2.79,3.44.37-.95,1.53-.73,1.32.32-1.52.44-12.21,10.64-13.31,9-6.53,5.33-6.28,3.12-13.49,8.58-.57,1.71,1.18-.38,1,.68-.93,2.37-1.85.51-2.6,2.4l-.1-1.29c-2.22,1.44-3.19,4.68-4.61,7-.45-1.22-2.34.45-1.11-1.38-.83.87-.85-1.62-1.2-.54,0,.08-1.22,1.92-1.17,1.95l1.13.72c.26.43-1.34,1.23-1,1.39-1.53-.14-3.38-.27-4,.18-1.12-.79.58-1.71,1.43-2.3-1.26-1.79-3.71,1-3.77-1.45-1.56,1.61,1,.68.41,2.1l-1.86.8,1.67-.33c-.89,1.48-.28,3.1-2.79,3.45l-.45,3c-1.28-1.19-1.52.73-2.7,1.11l-.12-1.28a4.6,4.6,0,0,1-3.05,1.17c-.26-1.69,1.35-.55.74-1.88l-1.68.61c.62.76.25,2,1.6,1.72-.1,2.35.17,4-3.07,6.25-2.49-.24.59-2.28-1.06-3.12-3.73,1.88-1.23,6.33-3.28,7.6-2.87,1.28-1.74,2.37-4.15,4.29.06-1.47-2.51.34-3.65-.17l.23-1.64c-.45.7-1.23,1-1.65.52.36,1.2-2.59,3.35-3.72,5l1.13.79c-1,1.33-2.37,3.34-4,4.13-1.84,1.88-.62,2.44-1.32,4.74-1.66-.25-2.44-1.41-3.06-2.74,1,.1,1.69-.91,2.88-1.29,1.93-2.84,2.24-6.53,5.3-8-.87-3.32-1.56,1.62-3.56,1.71a.32.32,0,0,1,.05-.39.86.86,0,0,1-.38.16c.7-1,1.93-2.54,1.16-4-1.38,1.43.86,3.32-2,3.73-.9,1.77-3.68.72-4.71,1.21-.22,1.64,1.36,3.65-1.36,5l-.08-2.16c-2.74,2,.38,3-2.19,4.78,1-.5.26,2,2,.78-.22,1.35-1.94,2.85-3.63,3.47-.18.47.31.52.63,1,2.3-.17,1.63-2.71,4-2.24l-.17-2.27c1.85-.51,3,.59,2.6,1.81.34-.36.52-.82,1-.77,2.09,2.06-2.34.45-1.27,2.72l.86-.89c1.63,1.13-1.27,3-2.63,3.85-2,.39-3.54,1.12-4.51.15l1.57-1.9c-1.69-.1-2.07,2.33-3.24,3.13a1.18,1.18,0,0,0-.58-.09.65.65,0,0,1,.33.22,1.39,1.39,0,0,1-1,0c-1,.69-2,2.41-3.17,2.76l.89.86-.32-.62c.94-.63,2.65-1,2.54.24-1.52,2.18-3.43.68-4.58.21-.72-1.79,2-1.46,2.65-2.74-1.8-1-2.21,1.4-5.1,2-.44-2.19,2.47-1.79,1.76-3.58-1.94,1-1.47,2.44-3.59,3.37-.37-.89,1.33-2.26.45-3.11l-1.53.42c2.76-2.19-2.1-1.58-.2-3.6-1.56.13-.4,2.35-2.69,2.46,1,.37,3.17.74,2.26,2.4l-2,.74c-1.29-.26.31-2.91-1.26-2.78l-1.24,1.78c.44.43,1.44.07,1.46,1.08-1.38.22-.11,3-.68,4.52-.94.64-1.74,1.07-2.51.77-1.16,3.08-4.1,5.19-5.14,8.07.68-2-1.37-1.56-2.81-1.62,1.49-1.43.3-2.9-.57-3.76-.89.91-.31,2.91.61,3-2.18.66-.34,1.88-2.63,2-1.37.2-.71-1.8-1.48-2.11-1.88,1.29,1,2.15-1.3,3.27-.06-.27.07-.46-.31-.62a2.46,2.46,0,0,0-1.54,2.93c-2.7-1.07-3,2.59-4.33.56-2.17,2.42,1.21.73,1.24,1.76-.38,1.6-2.9,2.38-3.75,2.54.61-.51.77-1.46,1.63-1.63l-1.6-.88c-4,1.47.35,4.43-3.67,5.61,1-1.86-.27-1.37-.23-2.87-.21.68-2.94,2.13-.66,2a16.52,16.52,0,0,1-3.25,1.48c-.63,1.27-1.45,2.46-1.37,3.75a9.25,9.25,0,0,1-4.94,1.08c-2.67,3.47-7.14,4.24-10,7.92l.34-.13c-3,1.84,2.64.79-.3,2.91-.9-1.87-2.62.23-4.25.1-4.25,1.84-5.23,5.73-9.41,7.12a1,1,0,0,1,.25-1.41c-2.92,1.37-4.69,3.19-7,4.79l-.06-.27c-4.69,1.43-6.72,5.41-10.18,8.58.14-.42-.27-1.07-.21-1.46-2.18,1.05-5.41,3.07-5.55,5.5-3.53.12-1.11,1.58-5.23,2.22-.4-.16.07-.47.21-.68-1.84.54-2.72,1.45-4.31,2.33-2.36,3.36-1.48,6-5.67,8.11-2-2,1.83-2.21.5-4-.42.93-.7,1.84-2.13,2.09-.07-1.3-.3-.63-.53-1.73-1.23,0-1.3,4.57-1.45,4.35.31.44.76.47,1.44-.13.22,2-3.54,2.8-4.89,4.66.62-.39,2.79-1.34,2.93.19-2.77,1.33-1.88,4-2.85,6.08-3,.67.14-3-1.5-4.21-.82-.27-2.69-.82-2.25-2.09-2.25,1.16-2.62,3.5-4.12,5.14l-.3-.45c-2.33,2-3.45,5.83-6.23,6.51l1.5-.33c-.2.56-1.55,1.36-1.53,2.74-.43-.65-2-.34-2.39-.89.26,2.9-4.55,5.3-4,8.22-1.12-.08-1.36-1.38-1.58-2.05,1.72-1,2.63-.9,2.7-2.42-1.28,1-2.7,1.12-2.93.46-.15,2.38-2.79,5.22-2.29,7.12-1.53,0-2.75.29-3.37-1.13-3.39,3.69,4.94,2.16.42,5.48-3,.39.75-3-2.41-1.31l.37-.58c-4.52-1.5.35,3.22-2.05,4.84-1.67-1.41.64-2.37-1.92-2.37-1.78,2-.7,5.12-3.25,6.16l-.21-1c-1.26,1.14-4.17,2.76-5.41,3.88-.32-.27-.1-.37.09-.65-3,1.23-.35,1.61-3.33,2l.07,1.23c1.49-.19,4.15-.87,4.67-2.77-.52,1.9,3.75.58,4.25,2.46l-.2-.76c5.37-.09,10-3,15-5.33,1.34-3.7,5.18-2.75,7.14-6.07-1.13-2.26.23-.8,2.41-3-1.13,1.22,1,1.58,2.09,1.22a4,4,0,0,1,1-2.1c1,.28,5.47-.51,5.55-2.67,2-.51.15.88.15,1.52,1.43.53.61-1.69,1.65-1.4a.55.55,0,0,1,.07.44c2.26-1.81,4.06-2.33,6.69-3.89-1.35-2,1.8-2.48,2.32-3.95.15.87,1.94-.31,2.92-.46l.14-2.36c.3-2.15,2.48-.49,3.61-2.37l-.68,0c.76-1.47,4.88-2.71,6.91-2.58,6.27-9.2-26,43.9-17.75,39.33l60.47-35.31c-.31.57-.65,1.14-1,1.64l-2.61-.41c.4.87-1.7,1.14-.91,2.16-2.35.65.52-2.3.11-3.18-2.81,1-.51,3-3.91,3.09v-1.48c-.79.47-1.83,2.08-2.29,1.68.27.34.53-.07,1-.4,1.13,2.37-2.26,3.9-.36,5.81l1.11-.61c-1.23,1.55-1.22,3.78-3,3.92-1.43,0-.46-1.9-.35-2.84-1.56.94.61,3.18-1.28,4.26,1.17-.34,1.58.55,1.45,1.49,1.11-.61,3.51-1.74,2.46-2.36l-.52.07c-.32-.62.06-1.22.12-1.69,1.37-1,1.38.48,2,.68,2.54-1.34-1.44-2.24.7-3.71l.58.21c.59-1.28,2.08-2.5,1.35-4,2,.69,2-2.29,3.58-2.21,2.5,2.85-3.71,2.41-3.64,4.92,1.57-.19.48,1.89.55,2.91L61,265.76c.6.2,2.76.94,2.55-.61l-.33.14c1.1-1.35-.21-2.3,1.29-2.77.41.13.41.88.46,1.15,1.27-.51.44-1.3.86-2.08l.13-.1c1.17-.4.34,1.65,1.49,1.32.37-2.09,2.21-1.2,3.26-2.09-.82-.62-.35-1.83.08-3l1.89-1.47a1.53,1.53,0,0,0,.68.65l-2.15,1.49c2,1.85,3.34-4.62,6.55-3.29,1.2-.73.69-.82,3.63-1.34l-1.83-1.61a3.25,3.25,0,0,1,2.91.69,7.12,7.12,0,0,1,1.83-1.34,1.46,1.46,0,0,1-.28,1.2c1.64.43,1.58-.14,1.43-.9.09-.81.8-1.24,1.51-1.73l-.08,1.16c.3-.47.66-1.05.45-1.43a2.67,2.67,0,0,0,.69-.77,5.36,5.36,0,0,0-3.11-.72c3.13-1.13,4.81-3,8.21-3.07.34.6,0,2,.29,1.82,1.3-.53,1.75-2.36,1-3.11a4.15,4.15,0,0,1,.55-.52,1.94,1.94,0,0,0,1.8.33,1.23,1.23,0,0,0,1-.13c-.8-1.76,1.89-2.56,1.81-3.57a5.88,5.88,0,0,0-1.78,1.17c.11-1.65,0-3.37,1.32-3.07-.91,2.16,3,.28.81,2.5,3.19.63-.15-2,2.21-2.7l1.76-.13c.67,1.22-1.5,2-.91,2.17l.72-.74c-.19,1.42-3.71,3.16-4.68,5.8l4.31-2.22c3.83-4.86,11-7.8,13.26-13.2-.06.05-.1.11-.15.15A2.39,2.39,0,0,0,116,229l.4.14.18-1.43c1.71.34,3.6-.73,5.69-1-1.45,0-1.45,0-2.17-.74-.66-1.22-.87-1.79.81-2.4.62.76-.25,1.37,1.25,1.23-.82,0-.77-.88-.25-1.42,1.16-.07,2.53-.91,3.15-.15-.19.48-.69.43-1,.48-.21.48,2-.36,1.42,1l1.22-1.25c1.31.06.25,1.42.89,1.6,1.91-2.23,1.72-4.88,3.41-7a13.76,13.76,0,0,0,1.17,1.71c2-.66,2-4.43,3.73-5.92.12.72-.71,1-1.09,1.68,6.13-3.48,10.76-6.83,17.31-9.06v-2.79l2.29.17c6.43-2.95,9.79-7.22,14.66-11.64,1.55-1.31,1.93.52,3.11.44,3.76-2.45,3.09-5.1,6.21-8,0,.89.32,3,1.86,2-.12-.72-.56-1.66.61-2l0,.89c1.46.17,1.71-1.19,3.74-2.15a17.62,17.62,0,0,0,6.15-9.63c2.9-1.85,1.19,2.12,2,2.12-2.45.78-1.11,1.31-1.05,2.23.64-1.26,1.64-2.48,3.15-1.6,1.37-1.14,2.07-1.56,2.83-3.46-.39,1-1.53.73-1.3-.34,1.51-.43,12.29-10.61,13.34-8.9,6.56-5.31,6.28-3.08,13.5-8.51.6-1.72-1.17.37-.95-.7,1-2.38,1.84-.48,2.62-2.39l.08,1.3c2.23-1.44,3.25-4.7,4.68-7,.42,1.23,2.32-.44,1.06,1.41.89-.91,5.51,2.6,5.6,1.12L232,145.83c-.26-.45,1.35-1.24,1-1.4,1.5.16,3.32.32,3.92-.14,1.11.82-.6,1.72-1.45,2.32,1.21,1.82,3.68-1,3.69,1.51,1.58-1.61-.94-.7-.36-2.13l1.84-.78-1.65.31c.91-1.48.33-3.13,2.83-3.45l.49-3c1.25,1.23,1.52-.72,2.7-1.09l.09,1.31a4.38,4.38,0,0,1,3-1.15c.23,1.72-1.35.54-.76,1.9l1.68-.6c-.61-.77-.21-2-1.55-1.77.15-2.36-.09-4.08,3.16-6.28,2.46.27-.63,2.31,1,3.17,3.72-1.85,1.35-6.39,3.4-7.64,2.87-1.26,1.78-2.38,4.2-4.29-.09,1.49,2.48-.3,3.6.22l-.26,1.65c.46-.7,1.24-.94,1.65-.5-.33-1.21,2.63-3.36,3.78-5l-1.11-.81c1.07-1.33,2.42-3.35,4-4.12,1.85-1.89.65-2.46,1.4-4.78,1.63.28,2.39,1.45,3,2.81-1-.12-1.7.9-2.87,1.26-2,2.85-2.35,6.57-5.41,8,.8,3.37,1.57-1.62,3.55-1.68a.35.35,0,0,1,0,.39.84.84,0,0,1,.37-.17c-.71,1-1.95,2.56-1.22,4,1.4-1.44-.79-3.36,2-3.74.92-1.78,3.66-.69,4.68-1.16.25-1.66-1.27-3.72,1.43-5.09l.05,2.18c2.75-2-.32-3,2.25-4.8-1,.49-.22-2-1.93-.81.25-1.37,2-2.86,3.66-3.46.19-.48-.29-.54-.6-1.06-2.29.14-1.66,2.72-4,2.22l.12,2.3c-1.84.49-2.93-.63-2.53-1.87-.35.36-.53.83-1,.78-2-2.11,2.33-.44,1.31-2.73l-.86.89c-1.58-1.17,1.31-3,2.67-3.85,2-.37,3.52-1.1,4.46-.09l-1.6,1.9c1.68.11,2.1-2.34,3.27-3.14a1,1,0,0,0,.58.11.79.79,0,0,1-.33-.23,1.33,1.33,0,0,1,1,0c1-.68,2-2.41,3.18-2.75l-.86-.88.29.63c-.94.64-2.63,1-2.5-.27,1.53-2.18,3.39-.63,4.52-.15.67,1.82-2,1.46-2.68,2.74,1.76,1,2.22-1.39,5.09-2,.39,2.22-2.48,1.79-1.81,3.61,1.92-1,1.49-2.45,3.6-3.37.34.91-1.35,2.27-.5,3.14l1.51-.39c-2.77,2.18,2,1.62.13,3.63,1.56-.11.45-2.37,2.72-2.46-.95-.39-3.12-.78-2.18-2.46l2-.71c1.28.27-.36,2.93,1.19,2.82l1.26-1.79c-.42-.44-1.42-.08-1.42-1.11,1.37-.2.17-3,.77-4.56.94-.64,1.74-1.07,2.49-.75,1.21-3.1,4.16-5.19,5.24-8.09-.7,2,1.32,1.59,2.74,1.67-1.51,1.43-.35,2.93.49,3.81.89-.9.37-2.93-.54-3.06,2.17-.63.37-1.9,2.64-2,1.36-.19.66,1.83,1.43,2.15,1.89-1.28-.91-2.19,1.35-3.29,0,.27-.09.47.28.63a2.53,2.53,0,0,0,1.58-2.94c2.64,1.12,3-2.57,4.29-.52,2.2-2.41-1.18-.75-1.19-1.78.41-1.63,2.9-2.38,3.76-2.53-.61.51-.8,1.46-1.64,1.62l1.57.91c4-1.43-.26-4.48,3.74-5.63-1.08,1.86.23,1.39.16,2.9.23-.69,2.95-2.11.7-2a16.62,16.62,0,0,1,3.24-1.47c.65-1.27,1.5-2.46,1.43-3.76a9,9,0,0,1,4.9-1c2.71-3.49,7.15-4.21,10-7.88l-.32.11c3-1.83-2.61-.83.36-2.93.85,1.9,2.59-.2,4.2-.05,4.24-1.81,5.29-5.74,9.44-7.09a1,1,0,0,1-.27,1.43c2.92-1.35,4.69-3.16,7-4.75l.06.26c4.67-1.38,6.75-5.39,10.23-8.55-.15.43.24,1.1.17,1.49,2.18-1,5.4-3,5.59-5.49,3.48-.07,1.13-1.59,5.23-2.19.38.16-.08.48-.23.68,1.84-.51,2.73-1.43,4.32-2.3,2.39-3.37,1.57-6,5.76-8.13,1.89,2.06-1.86,2.22-.58,4,.43-.93.73-1.85,2.15-2.09.06,1.31.29.64.49,1.75,1.23,0,1.37-4.6,1.52-4.38-.28-.45-.73-.48-1.41.11-.18-2,3.55-2.79,4.92-4.64-.61.39-2.78,1.31-2.9-.24,2.77-1.31,1.93-4,2.94-6.11,3-.63-.21,3.05,1.4,4.28.81.28,2.64.86,2.18,2.14,2.25-1.14,2.67-3.51,4.18-5.15l.28.47c2.35-2,3.53-5.86,6.29-6.51l-1.49.31c.21-.56,1.55-1.35,1.56-2.74.41.66,2,.37,2.35.93-.2-2.94,4.59-5.3,4.16-8.27,1.11.09,1.31,1.41,1.51,2.09-1.72,1-2.61.89-2.72,2.42,1.29-1,2.7-1.11,2.91-.43.19-2.4,2.85-5.25,2.4-7.18,1.51,0,2.72-.25,3.31,1.19,3.42-3.68-4.84-2.24-.3-5.55,3-.36-.79,3.05,2.36,1.36l-.38.57c4.45,1.58-.26-3.26,2.14-4.87,1.61,1.46-.69,2.4,1.85,2.42,1.79-2,.8-5.17,3.34-6.2l.22,1c1.26-1.13,4.17-2.73,5.42-3.86.33.28.09.39-.1.67C451.82-18.46,449.2-18.88,452.15-19.22ZM320.45,16.9l0-.51a1.71,1.71,0,0,1,0,.51ZM85.39,251l0,.5A4.07,4.07,0,0,1,85.39,251Z"/><path class="cls-10" d="M488.56.73l-.05-1.08c-1.3.16-3.6.72-4.08,2.39.48-1.67-3.25-.54-3.67-2.19l.17.66c-4.67,0-8.71,2.59-13.12,4.55-1.2,3.23-4.53,2.37-6.27,5.27,1,2-.2.69-2.13,2.64,1-1.06-.89-1.39-1.8-1.08a3.68,3.68,0,0,1-.87,1.83c-.91-.26-4.76.4-4.85,2.3-1.77.43-.12-.78-.12-1.34-1.24-.47-.54,1.48-1.45,1.22a.44.44,0,0,1,0-.39c-2,1.56-3.57,2-5.86,3.36,1.14,1.8-1.59,2.16-2.06,3.45-.12-.77-1.69.25-2.54.37l-.16,2.08c-.3,1.89-2.16.41-3.16,2.05l.58,0c-.67,1.28-4.27,2.34-6,2.2-7.24,10.47-16.67,9.32-26.32,17.8-.28,1,1.17.48,1.22,1.62l-.15.16c.17.06,0,.24.38.37a4.62,4.62,0,0,1,1.39-1.66c-.56,1.1.16,2.52-1.46,3,0-.24.08-.41.32-.76-1.1.65-.68,1.28-1.71,1.52-1.16.42-.62.62-1.17.18l-3.45,1.48c-.29,2.55-3.2,2.46-3.78,2.67-.56-1.34,1.67-1.75,1.52-3.37l-1.69,0,.63.93-1.7.87,0-.23c.09.47.17,1-.44.92a1.51,1.51,0,0,1-.4-.34l-.66,1.23c-.1-1.37,11.25-8.66,10.56-9.83-3.38,1.75-4.68-1.14-7.33,0l-26.42,0a6.46,6.46,0,0,0,.28-1.49l-.35-.12L370,45.24l-1.64-1.51c.09-.2.17-.38.23-.54,2,.22,6.18-1.4,6.89.5,2.17-1.41-1.41-.44-.82-1.72l.28-.12a4.06,4.06,0,0,1-2.73,0c-.83-.69.79-2.28,1.54-2.45l.58,1.44c1.57-1.81-.28-3.24-.06-5.28,1.89-.66,1.9,1,3.08,1.82l1.35-1.47.74.86c.84-1,.4-2,2.12-2.69-.36,1.58,2.82-.79,2.31,1.36,1-.3-.13-2.13,1.24-1.28-.22-1.33-1.1.07-1.75.08-1.43-1.09,1.22-1.93,1.88-3,.66.63,0,1.28,1.55.91a1.12,1.12,0,0,1,1.34-1.46c-.72-.86,1.13-1.12,1.81-1.53-.86.36-2.43.5-2.58-.6.26-.76.6-1.29,2-2.11l-1.21.24c0-2.08,2.6-.43,3.77-2-.2,1-.6,1.29-.62,2.33a29.14,29.14,0,0,1,2-3.79l2.34.31c-.38-.74,1.48-1,.75-1.86,2.08-.6-.4,2,0,2.72,2.47-.9.39-2.61,3.4-2.71l.05,1.27c.68-.4,1.57-1.81,2-1.46-.24-.29-.47.06-.86.35-1.07-2,1.92-3.37.18-5l-1,.53c1.06-1.34,1-3.25,2.56-3.39,1.28,0,.46,1.62.38,2.43,1.36-.82-.62-2.72,1-3.67-1,.3-1.42-.44-1.33-1.25-1,.53-3.08,1.53-2.12,2l.46-.06c.31.52,0,1-.07,1.45-1.19.88-1.23-.4-1.76-.56-2.23,1.18,1.33,1.9-.53,3.19l-.53-.17c-.49,1.11-1.79,2.17-1.1,3.44-1.77-.57-1.68,2-3.14,1.94-2.29-2.41,3.23-2.11,3.12-4.27-1.39.19-.48-1.61-.56-2.48l-2.1,3.33c-.53-.17-2.48-.78-2.25.55l.28-.11c-1,1.17.24,2-1.09,2.39-.35-.12-.37-.76-.44-1-1.14.47-.31,1.16-.75,1.86-1.14.48-.39-1.39-1.43-1.08-.28,1.8-1.94,1.06-2.85,1.83,1.61,1.14-2.16,4.78,1,4.51l-1.47,2.68c-1.35-.22-.11-3.18-1.77-3.92l1.88-1.3c-1.8-1.57-2.85,4-5.75,2.9-1,.65-.6.73-3.19,1.21l1.66,1.36a2.94,2.94,0,0,1-2.6-.56,6,6,0,0,1-1.6,1.18,1.22,1.22,0,0,1,.22-1c-1.47-.35-1.39.13-1.25.79-.05.69-.7,1.08-1.31,1.51l0-1c-.26.4-.56.9-.36,1.22a2.07,2.07,0,0,0-.59.67,5,5,0,0,0,2.78.57c-2.75,1-4.22,2.66-7.23,2.75-.32-.51,0-1.68-.29-1.56a1.8,1.8,0,0,0-.83,2.68,4.86,4.86,0,0,1-.48.46,1.8,1.8,0,0,0-1.6-.26,1.14,1.14,0,0,0-.88.13c.75,1.5-1.62,2.22-1.53,3.09a5.08,5.08,0,0,0,1.56-1c-.06,1.41.07,2.89-1.1,2.65.75-1.86-2.63-.19-.77-2.13-2.87-.49.17,1.73-1.9,2.34l-1.57.13c-.62-1,1.28-1.7.76-1.86l-.63.65c.14-1.23,3.23-2.77,4-5l-3.77,2c-3.29,4.21-9.6,6.83-11.48,11.49L346,51a2.33,2.33,0,0,0,.38.72l-.36-.12-.12,1.22c-1.53-.26-3.18.68-5,.93,1.29,0,1.29,0,1.95.61.61,1,.82,1.53-.66,2.07-.57-.65.19-1.17-1.13-1,.72,0,.71.74.25,1.21-1,.07-2.22.81-2.8.17.16-.41.61-.37.9-.42.16-.41-1.76.34-1.3-.88L337,56.53c-1.17,0-.26-1.21-.83-1.35-1.65,1.94-1.41,4.21-2.86,6a12.08,12.08,0,0,0-1.08-1.45c-1.78.61-1.69,3.83-3.18,5.12-.13-.6-3.89,3.15-3.58,2.57-2.07-.27-4.9,2-10.66,4l.07,2.38-2-.1c-5.64,2.61-8.53,6.32-12.75,10.17-1.35,1.15-1.73-.42-2.77-.34-3.29,2.15-2.62,4.42-5.33,7,0-.77-.36-2.59-1.7-1.69.12.61.54,1.41-.5,1.74l0-.76c-1.31-.13-1.49,1-3.28,1.89a14.79,14.79,0,0,0-5.23,8.34c-2.54,1.63-1.11-1.81-1.84-1.79,2.16-.7.95-1.14.88-1.93-.54,1.09-1.4,2.15-2.76,1.42a6,6,0,0,0-2.43,3c.31-.82,1.34-.64,1.16.28-1.34.39-10.66,9.25-11.64,7.81-5.7,4.64-5.5,2.72-11.79,7.47-.49,1.48,1-.33.86.59-.8,2.05-1.62.44-2.27,2.08l-.1-1.11c-1.94,1.25-2.77,4.06-4,6.07-.4-1-2.06.4-1-1.19-.73.75-.76-1.4-1.06-.47,0,.07-1.06,1.67-1,1.7l1,.61c.24.38-1.16,1.08-.85,1.22-1.34-.12-3-.23-3.49.16-1-.68.5-1.48,1.24-2-1.12-1.54-3.25.88-3.32-1.24-1.36,1.4.86.58.37,1.82l-1.62.7,1.47-.29c-.78,1.28-.23,2.68-2.44,3l-.37,2.6c-1.14-1-1.33.63-2.37,1l-.12-1.11a4,4,0,0,1-2.66,1c-.25-1.47,1.17-.48.63-1.63l-1.47.53c.55.66.24,1.72,1.42,1.49-.08,2,.17,3.49-2.66,5.43-2.19-.2.5-2-1-2.7-3.26,1.64-1,5.49-2.83,6.59-2.52,1.12-1.52,2.06-3.63,3.73,0-1.27-2.2.3-3.2-.13l.19-1.43c-.39.61-1.08.83-1.44.46.32,1-2.26,2.91-3.24,4.37l1,.68c-.92,1.16-2.07,2.9-3.49,3.59-1.6,1.64-.53,2.12-1.14,4.12a3.57,3.57,0,0,1-2.7-2.37c.87.08,1.48-.8,2.52-1.12,1.68-2.48,1.93-5.67,4.61-7-.79-2.88-1.36,1.4-3.12,1.48a.27.27,0,0,1,0-.33.75.75,0,0,1-.33.14c.61-.87,1.68-2.22,1-3.48-1.2,1.25.78,2.88-1.71,3.24-.78,1.54-3.23.64-4.13,1.06-.18,1.43,1.22,3.17-1.16,4.39l-.09-1.87c-2.4,1.73.35,2.58-1.89,4.15.9-.44.24,1.72,1.73.67-.19,1.17-1.68,2.47-3.17,3-.15.41.28.46.56.91,2-.15,1.42-2.36,3.5-2l-.17-2c1.62-.44,2.62.51,2.3,1.57.3-.31.45-.71.89-.67,1.85,1.77-2.05.39-1.1,2.36l.75-.78c1.44,1-1.1,2.6-2.29,3.35-1.76.34-3.1,1-3.95.14l1.36-1.65c-1.49-.08-1.8,2-2.82,2.73a1.06,1.06,0,0,0-.52-.09.61.61,0,0,1,.29.2,1.22,1.22,0,0,1-.87,0c-.9.59-1.72,2.09-2.76,2.4l.78.74-.28-.54c.82-.55,2.33-.85,2.23.2-1.32,1.9-3,.6-4,.2-.64-1.55,1.75-1.28,2.31-2.38-1.58-.83-1.93,1.22-4.47,1.77-.4-1.9,2.16-1.56,1.52-3.11-1.69.87-1.27,2.12-3.13,2.94-.33-.78,1.16-2,.38-2.7l-1.34.36c2.41-1.91-1.85-1.36-.2-3.12-1.37.11-.33,2-2.35,2.14.86.32,2.79.63,2,2.08l-1.74.64c-1.14-.21.26-2.52-1.12-2.4l-1.08,1.55c.39.37,1.26.05,1.29.93-1.21.19-.08,2.58-.57,3.92-.83.55-1.53.93-2.2.67-1,2.68-3.58,4.51-4.47,7,.59-1.74-1.21-1.35-2.48-1.4,1.31-1.24.25-2.51-.52-3.25-.77.78-.26,2.52.55,2.61-1.91.57-.28,1.63-2.29,1.73-1.21.19-.63-1.55-1.32-1.82-1.64,1.12.86,1.86-1.12,2.84-.05-.24.06-.4-.27-.53a2.12,2.12,0,0,0-1.34,2.54c-2.38-.92-2.65,2.25-3.8.5-1.89,2.1,1.07.63,1.1,1.52-.32,1.39-2.53,2.07-3.28,2.21.53-.45.67-1.27,1.43-1.42l-1.42-.76c-3.48,1.29.34,3.84-3.19,4.88.91-1.61-.24-1.19-.21-2.49-.19.59-2.57,1.85-.57,1.75a14.94,14.94,0,0,1-2.85,1.3c-.54,1.1-1.26,2.13-1.18,3.25a8.19,8.19,0,0,1-4.33.95c-2.32,3-6.25,3.69-8.69,6.89l.29-.11c-2.63,1.61,2.33.68-.24,2.52-.81-1.62-2.3.21-3.74.1-3.71,1.61-4.55,5-8.21,6.21a.85.85,0,0,1,.21-1.23c-2.56,1.19-4.11,2.78-6.15,4.17l-.06-.23c-4.11,1.25-5.87,4.71-8.88,7.47.11-.37-.25-.93-.2-1.27-1.91.92-4.73,2.68-4.84,4.78-3.1.12-1,1.38-4.58,1.94-.35-.13,0-.41.18-.58-1.62.46-2.38,1.26-3.78,2-2,2.92-1.26,5.19-4.93,7-1.73-1.73,1.6-1.92.42-3.45-.36.81-.6,1.6-1.86,1.81-.07-1.12-.27-.54-.47-1.49-1.09,0-1.12,4-1.25,3.77.27.39.67.41,1.26-.11.21,1.69-3.09,2.43-4.26,4,.53-.34,2.44-1.17,2.57.16-2.43,1.16-1.62,3.46-2.47,5.28-2.63.59.11-2.61-1.34-3.65-.72-.23-2.37-.7-2-1.8-2,1-2.29,3-3.6,4.47l-.26-.4c-2,1.75-3,5.07-5.43,5.67l1.31-.29c-.17.48-1.35,1.18-1.33,2.37-.38-.56-1.78-.29-2.1-.76.25,2.51-4,4.6-3.5,7.14-1-.07-1.2-1.2-1.4-1.77,1.51-.84,2.3-.8,2.36-2.11-1.12.87-2.37,1-2.57.41-.12,2.06-2.42,4.53-2,6.18-1.34,0-2.41.26-3-1-2.95,3.21,4.35,1.86.41,4.76-2.62.34.63-2.63-2.13-1.14l.32-.49c-4-1.3.33,2.79-1.77,4.2-1.47-1.23.55-2.06-1.7-2.05-1.55,1.73-.59,4.44-2.82,5.35l-.19-.89c-1.1,1-3.64,2.4-4.72,3.38-.29-.23-.09-.32.07-.56-2.64,1.07-.3,1.4-2.92,1.74l.07,1.06c1.31-.16,3.64-.76,4.09-2.41-.45,1.65,3.3.49,3.75,2.12l-.18-.66c4.71-.1,8.76-2.66,13.18-4.66,1.15-3.21,4.53-2.4,6.23-5.29-1-1.95.2-.68,2.09-2.63-1,1.07.93,1.37,1.85,1.05a3.56,3.56,0,0,1,.84-1.82c.92.24,4.8-.45,4.86-2.33,1.78-.45.13.77.14,1.32,1.26.46.52-1.46,1.44-1.22a.49.49,0,0,1,.06.39c2-1.58,3.56-2,5.86-3.4-1.2-1.76,1.56-2.15,2-3.43.14.75,1.7-.27,2.56-.4l.12-2.05c.25-1.86,2.17-.43,3.15-2.07l-.6,0c.66-1.28,4.27-2.36,6.06-2.25,5.45-8-22.59,38.13-15.35,34.14l52.9-30.77c-.27.48-.56,1-.84,1.41l-2.3-.34c.35.75-1.48,1-.79,1.88-2,.57.44-2,.09-2.76-2.47.88-.44,2.63-3.42,2.69l0-1.29c-.68.41-1.58,1.81-2,1.46.24.3.46-.06.86-.35,1,2.06-2,3.4-.28,5l1-.52c-1.07,1.34-1.05,3.28-2.6,3.4-1.27,0-.42-1.64-.33-2.46-1.37.82.56,2.76-1.1,3.69,1-.29,1.39.48,1.28,1.29,1-.52,3.08-1.52,2.15-2l-.45,0c-.29-.53,0-1.06.09-1.46,1.2-.88,1.21.41,1.74.58,2.22-1.17-1.29-1.93.59-3.21l.51.18c.51-1.12,1.81-2.18,1.16-3.47,1.73.59,1.7-2,3.13-1.93,2.21,2.47-3.25,2.1-3.17,4.28,1.38-.17.43,1.64.5,2.52l2.14-3.34c.52.18,2.43.82,2.23-.53l-.28.12c1-1.17-.2-2,1.12-2.4.35.11.36.76.41,1,1.11-.45.37-1.14.74-1.82l.11-.08c1-.35.31,1.43,1.31,1.14.32-1.82,1.94-1.05,2.86-1.82-.73-.53-.32-1.59.05-2.56l1.65-1.27a1.48,1.48,0,0,0,.6.56l-1.88,1.29c1.76,1.6,2.91-4,5.74-2.87,1-.64.6-.71,3.17-1.17l-1.61-1.4a2.9,2.9,0,0,1,2.56.6,6,6,0,0,1,1.6-1.17,1.27,1.27,0,0,1-.24,1c1.44.37,1.39-.12,1.25-.78.07-.71.7-1.08,1.32-1.51l-.06,1c.26-.41.57-.91.38-1.24a2.13,2.13,0,0,0,.6-.67,4.66,4.66,0,0,0-2.74-.61c2.75-1,4.22-2.64,7.2-2.69.3.52,0,1.69.26,1.57a1.85,1.85,0,0,0,.89-2.69,2.7,2.7,0,0,1,.47-.45,1.76,1.76,0,0,0,1.59.28,1.08,1.08,0,0,0,.86-.12c-.71-1.52,1.65-2.22,1.58-3.1a4.87,4.87,0,0,0-1.56,1c.08-1.43,0-2.92,1.13-2.66-.78,1.87,2.6.23.73,2.16,2.81.54-.14-1.75,1.92-2.35l1.55-.11c.59,1.05-1.3,1.7-.78,1.88l.62-.65c-.16,1.24-3.23,2.76-4.07,5l3.77-1.93c3.34-4.22,9.62-6.79,11.57-11.48l-.13.13a2.1,2.1,0,0,0-.35-.73l.35.12.15-1.23c1.51.29,3.16-.65,5-.89-1.27,0-1.27,0-1.9-.64-.59-1.06-.79-1.55.69-2.08.55.66-.21,1.19,1.11,1.06-.73,0-.69-.76-.23-1.23,1-.06,2.22-.79,2.76-.13-.16.41-.6.37-.88.42-.18.41,1.74-.33,1.25.9l1.07-1.08c1.15,0,.23,1.22.79,1.38,1.66-1.94,1.48-4.24,2.95-6a12,12,0,0,0,1,1.48c1.76-.58,1.74-3.84,3.24-5.14.11.62-.62.88-.95,1.46,5.37-3,9.41-5.95,15.15-7.91l0-2.41,2,.14c5.63-2.57,8.56-6.29,12.8-10.13,1.36-1.15,1.71.44,2.74.37,3.29-2.14,2.68-4.43,5.41-7,0,.78.3,2.62,1.64,1.74-.11-.62-.5-1.44.53-1.76l0,.77c1.29.14,1.5-1,3.28-1.88a15.17,15.17,0,0,0,5.34-8.37c2.54-1.61,1.06,1.84,1.78,1.84-2.15.68-1,1.14-.91,1.93.55-1.09,1.43-2.15,2.76-1.39a6.12,6.12,0,0,0,2.46-3c-.33.84-1.33.64-1.14-.29,1.33-.37,10.72-9.23,11.66-7.75,5.73-4.62,5.5-2.69,11.81-7.42.51-1.49-1,.32-.84-.6.83-2.07,1.61-.43,2.29-2.08l.08,1.12c1.94-1.25,2.82-4.07,4.07-6.08.37,1.07,2-.38.94,1.22.77-.79,4.85,2.24,4.92,1l-3.81-2.82c-.23-.38,1.18-1.08.87-1.22,1.32.14,2.92.27,3.45-.12,1,.7-.52,1.49-1.27,2,1.08,1.57,3.23-.85,3.26,1.3,1.37-1.4-.83-.61-.34-1.85l1.62-.68-1.45.27c.79-1.28.27-2.71,2.46-3l.42-2.62c1.1,1.06,1.33-.63,2.36-.95l.09,1.13a3.86,3.86,0,0,1,2.65-1c.21,1.49-1.18.47-.66,1.64l1.47-.52c-.54-.66-.2-1.74-1.37-1.53.11-2.05-.1-3.54,2.74-5.45,2.16.22-.54,2,.87,2.75,3.26-1.62,1.15-5.55,2.94-6.64,2.51-1.1,1.55-2.07,3.66-3.73-.07,1.29,2.18-.27,3.16.18l-.21,1.43c.39-.61,1.08-.82,1.44-.44-.3-1.05,2.29-2.92,3.29-4.38l-1-.7c.93-1.16,2.09-2.91,3.51-3.58,1.62-1.65.56-2.13,1.2-4.15A3.5,3.5,0,0,1,334,115c-.85-.1-1.48.78-2.52,1.1-1.71,2.48-2,5.7-4.69,7,.72,2.92,1.37-1.4,3.11-1.46a.29.29,0,0,1,0,.33.89.89,0,0,1,.33-.14c-.63.88-1.71,2.22-1.05,3.5,1.22-1.25-.72-2.92,1.76-3.25.79-1.55,3.21-.61,4.1-1,.21-1.44-1.14-3.22,1.23-4.42l.05,1.9c2.41-1.73-.29-2.62,1.95-4.17-.89.42-.2-1.75-1.7-.71.21-1.18,1.71-2.48,3.19-3,.17-.42-.26-.47-.53-.92-2,.13-1.44,2.36-3.5,1.94l.12,2c-1.61.43-2.58-.54-2.23-1.61-.31.31-.47.71-.91.67-1.79-1.82,2-.38,1.13-2.37l-.75.78c-1.4-1,1.14-2.62,2.33-3.35,1.74-.32,3.08-1,3.91-.09l-1.4,1.65c1.48.1,1.84-2,2.86-2.72a1,1,0,0,0,.51.09.55.55,0,0,1-.28-.21,1.19,1.19,0,0,1,.86,0c.9-.59,1.73-2.09,2.78-2.39l-.76-.76.26.54c-.82.56-2.31.84-2.21-.22,1.34-1.9,3-.57,4-.15.6,1.58-1.77,1.28-2.34,2.38,1.55.86,1.94-1.21,4.46-1.73.35,1.92-2.17,1.55-1.57,3.13,1.68-.86,1.29-2.13,3.14-2.93.31.79-1.17,2-.43,2.72l1.33-.34c-2.42,1.9,1.8,1.4.14,3.15,1.37-.11.38-2.06,2.37-2.14-.83-.34-2.75-.68-1.93-2.13l1.73-.63c1.13.24-.3,2.55,1.06,2.45l1.1-1.55c-.38-.38-1.25-.07-1.26-1,1.21-.18.14-2.62.65-4,.82-.55,1.53-.93,2.19-.65,1-2.7,3.62-4.52,4.55-7-.61,1.76,1.17,1.38,2.42,1.45-1.32,1.24-.29,2.54.46,3.3.77-.78.29-2.55-.5-2.65,1.9-.55.31-1.65,2.3-1.73,1.2-.17.59,1.59,1.27,1.86,1.65-1.11-.81-1.89,1.17-2.86,0,.24-.07.41.25.55a2.18,2.18,0,0,0,1.37-2.55c2.33,1,2.66-2.24,3.77-.46,1.91-2.1-1.05-.65-1.06-1.55.35-1.41,2.54-2.06,3.28-2.2-.53.44-.68,1.27-1.43,1.41l1.39.79c3.47-1.26-.26-3.89,3.25-4.9-.94,1.62.21,1.2.16,2.51.2-.59,2.58-1.83.6-1.76a14.49,14.49,0,0,1,2.84-1.27c.56-1.11,1.3-2.15,1.23-3.28a8,8,0,0,1,4.3-.9c2.36-3,6.25-3.66,8.73-6.86l-.29.1c2.63-1.59-2.29-.71.3-2.55.77,1.65,2.28-.18,3.7,0,3.7-1.58,4.61-5,8.24-6.17a.87.87,0,0,1-.23,1.24c2.56-1.18,4.11-2.75,6.16-4.14l.05.23c4.09-1.21,5.9-4.69,8.94-7.44-.13.37.21,1,.15,1.29,1.91-.91,4.73-2.66,4.88-4.78,3.07-.07,1-1.38,4.58-1.91.34.14-.07.41-.19.59,1.61-.45,2.38-1.25,3.77-2,2.09-2.93,1.35-5.24,5-7.07,1.67,1.78-1.62,1.93-.49,3.49.38-.81.63-1.6,1.88-1.81.05,1.13.26.55.44,1.51,1.08,0,1.18-4,1.31-3.8-.26-.39-.65-.42-1.24.1-.17-1.72,3.1-2.43,4.29-4-.54.34-2.43,1.14-2.54-.19,2.42-1.15,1.67-3.48,2.54-5.31,2.62-.56-.17,2.64,1.26,3.7.71.25,2.32.74,1.92,1.85,2-1,2.32-3,3.64-4.47l.26.4c2-1.74,3.05-5.08,5.48-5.66l-1.31.28c.18-.49,1.36-1.18,1.35-2.39.37.57,1.76.32,2.07.8-.19-2.55,4-4.6,3.61-7.18,1,.08,1.16,1.23,1.34,1.81-1.51.83-2.29.78-2.38,2.11,1.13-.87,2.37-1,2.55-.38.16-2.09,2.48-4.56,2.07-6.23,1.32,0,2.38-.23,2.92,1,3-3.21-4.27-1.93-.3-4.82,2.6-.31-.68,2.65,2.08,1.17l-.33.5c3.92,1.36-.25-2.82,1.85-4.22,1.42,1.25-.59,2.07,1.64,2.08,1.56-1.72.67-4.48,2.9-5.37l.2.83c1.09-1,3.64-2.39,4.73-3.37.29.25.08.34-.08.58C488.28,1.39,486,1,488.56.73ZM373.1,32.4l0-.44a3.13,3.13,0,0,1,0,.44ZM168.05,236l0,.44A3.15,3.15,0,0,1,168.05,236Z"/></g></g></svg>