<svg id="Layer_1" data-name="Layer 1" xmlns="http://www.w3.org/2000/svg" xmlns:xlink="http://www.w3.org/1999/xlink" viewBox="0 0 2097.91 686.47"><defs><style>.cls-1{fill:url(#linear-gradient);}.cls-2{fill:url(#linear-gradient-2);}</style><linearGradient id="linear-gradient" x1="1919.45" y1="-467.23" x2="-447.06" y2="430.26" gradientUnits="userSpaceOnUse"><stop offset="0" stop-color="#04c6e0"/><stop offset="0.29" stop-color="#6f46f9"/><stop offset="0.67" stop-color="#b949d3"/><stop offset="0.99" stop-color="#ff8b85"/></linearGradient><linearGradient id="linear-gradient-2" x1="2232.11" y1="357.2" x2="-134.4" y2="1254.69" xlink:href="#linear-gradient"/></defs><path class="cls-1" d="M-119.9,602.72c.38-4.2,1.43-6.78,3.13-7.66,2.75-1.43,7.49,1.32,12.07,4,4.08,2.37,7.94,4.6,11.1,4.4l1-.06.09-1c.86-9.31,7.11-15,13.72-21,6.85-6.22,13.92-12.64,15.58-23.5a3.43,3.43,0,0,1-.36,2.38l0,0,2,1.24,0,0L-55,550.92l4.47,5.15.87-.68c8.22-6.45,12.21-15.22,16.07-23.69,3.32-7.3,6.48-14.24,12.11-19.19l-2.39,26.33,9-9.67.74,3,1.45-1.33c5.09-4.68,6.68-12.32,8.37-20.41,2.6-12.42,5.28-25.27,21-28.78l3.76,8,11.05-9.33c-.18,1.79-1.95,3.63-4.56,6.12-3.91,3.74-8.78,8.4-4,14.66L24.48,503l.57-2.38c2.38-10,12.87-17.13,22.12-23.43,5.84-4,11-7.52,13.14-11.25,1.72,2.84,3.76,4.58,6.2,5.31,5.47,1.63,11.64-2.26,18.17-6.38,9.58-6.05,18.65-11.76,26.37-2.29-4,4.4-5.34,7-4.58,8.87.86,2.13,3.79,2.26,7.49,2.44,6,.28,10.66.84,11.73,5.29l.51,2.1,1.48-1.58a46.74,46.74,0,0,1,9.42-7.24c5.86-3.75,11.39-7.28,12.89-15.56,2.51-7.82,0-11.49-2.48-13.18-4.59-3.1-12.49-1.76-17.43.51,7.81-17.76,23.07-29.8,40.58-43.62l6.36-5c22.74-.7,45.13-11.16,66.79-21.28,12.48-5.83,24.29-11.35,36.11-15.11a19.44,19.44,0,0,1-.33,2.74,21.74,21.74,0,0,0,.06,9.36l.28,1.14,1.14-.29c9.53-2.41,13.05-8.23,16.78-14.4,2.61-4.3,5.3-8.75,10.33-12.24,3.69,5.14,9.19,8,16.38,8.54,17.94,1.31,41.81-12.7,48.89-20.8,4.17-4.07,1.65-7.35-.19-9.74s-2.73-3.76-1.28-5.77l15.18,19.76.89-1.42c.4-.63,1-1.47,1.68-2.43,3.21-4.52,8.29-11.66,7.57-17.93l1.25.72,0-2c.07-5.15,4.17-8.1,8.14-11,3.5-2.52,6.8-4.9,7.31-8.68.31-2.3-.52-4.84-2.52-7.7,17-3.72,36.52-16.9,52.72-30.13a34.15,34.15,0,0,0-2.6,7.74c-1.39,5.81-2.5,10.46-15.58,15.77a7.67,7.67,0,0,0-.2-1c-.18-.77-.24-1.11.11-1.66l.88-1.37-1.58-.39c-4-1-6.55-.78-8.11.68-2.13,2-1.51,5.49-.91,8.89.41,2.26.86,4.82.11,5.78-.09.11-.36.46-1.3.52l-8.66.58,8.51,1.73c12.11,2.46,21.35-3.41,30.29-9.09,7.59-4.83,15.44-9.82,25.32-10.14l.54,0,24.19-30.44c7,12.9,19.8,17.19,26.72,19.1a15.23,15.23,0,0,0,2.26,2.19l.45.36.56-.14c1.4-.35,2.85-.71,2.86-1.95s-1.06-1.52-3.91-2.28l-.86-.23c-4.71-6.52,1.14-15,8.69-24.6,1.65-2.09,3.1-3.92,4.13-5.51,23-4.33,46.27-25.62,70.94-48.15,20.07-18.32,40.79-37.24,61.47-46.49-1.13,2.26-1.88,4.72-1.35,6.94l.37,1.52,1.35-.78c26.18-15.1,47.88-26,68.87-36.63,33-16.67,61.59-31.07,97.37-56.59,7-.64,9.35,5.78,11.93,14.88a48.51,48.51,0,0,0,2.42,7.21l.65,1.38,1.16-1c7.43-6.27,9.53-15,11.56-23.4,2.68-11.11,5.22-21.62,20.27-24.79,18.72,13.41,31.05,1,42-10,7-7,13.39-13.48,20.89-13.72h.89c3.69.12,7.66,1.75,12.11,5.52L980.91,9V-.47H-122.23V602.62Z"/><path class="cls-2" d="M2223.51,687.64V36.85l-1.29.29c-45.74,10.25-74.25,26.52-90.11,38.36-17.26,12.88-23.58,23.21-23.84,23.65l-2.7,4.48,4.23-3.08c6.24-4.55,12.52-.18,19.16,4.44,6.44,4.48,13.09,9.1,18.92,3.38,17.57,4.52,27.1,17.91,35.52,29.74a119.3,119.3,0,0,0,9.45,12.19,34.65,34.65,0,0,1-5.74,5.76c-3.54,3.06-6.88,5.95-6.77,9.36.07,1.92,1.21,3.69,3.49,5.4l.42.32,4.05-1.13c.36,3.47.12,12.64-6.72,16.71-5.52-.84-9.27-2.8-12.9-4.7-5.42-2.83-11-5.77-22.18-4.82l-.46,0-.28.36c-8.45,10.63-18.85,11.35-29.85,12.13-7.18.5-14.58,1-22,4.16l.54-.94-.94-.52c-4.78-2.61-8.26-3.39-11-2.44-3.19,1.11-4.59,4.45-5.94,7.67-2.32,5.54-4.52,10.78-14.88,8l1.25-2.06-2.07.17c-4.53.38-16.27,2.68-24.43,8.49l4.61-7.89-2.63.84c-75.06,24-140,68.77-181.9,102.82a7.47,7.47,0,0,0-.21-1.41l-.43-1.66-1.29,1.13a28.08,28.08,0,0,1-3.35,2.32c-2.94,1.85-6,3.76-6.49,6.78-.3,1.76.33,3.57,1.9,5.54l.15.18.2.11a11.42,11.42,0,0,0,1.11.5c-6.72,6.3-12.07,16.46-12.64,24.5a15.72,15.72,0,0,0,1.33,8,5.81,5.81,0,0,0-3.5.07c-2.38.87-3.36,3.44-4.23,5.7-.73,1.9-1.42,3.69-2.69,4.16-1,.34-2.34,0-4.15-1l-.22-.12h-.25a5,5,0,0,1-1.26-.16,15.44,15.44,0,0,1,1.78-2.18c2.16-2.38,5.13-5.65,3.48-8.94l-.12-.25-.24-.15c-3.39-2.26-6.5-3.05-9.49-2.41-5.63,1.19-9.45,7.17-13.15,13-2.93,4.59-5.71,8.94-9,10.22,0-1.88.91-4.34,1.81-6.73,1.51-4,3.07-8.15,1.13-11.22-1.32-2.09-4.06-3.28-8.35-3.64l-1.22-.1.07,1.22c1.32,21.84-15.27,34.82-32.84,48.56-15,11.73-30.46,23.84-34.76,42.14l-9.92-5.4-.52.88C1700,453.4,1683,461.87,1665,470.84c-9.9,4.94-20.14,10-29.53,16.59l-36.67,8L1596,485.07l-2.07.42c1.06,7.59-.94,13.46-6.28,18.47-4.86,4.55-11.79,7.81-19.13,11.25-10,4.7-20.33,9.56-26.31,18.23l-.06,0c-23,13.53-57.67,33.86-81.14,20.47,6.4-6.3,8.46-5.15,11.27-3.58s6.53,3.64,14.68-1.78l.72-.48-9.25-22.52-.3,4.57c-.2,3-.88,4.81-2,5.44-1.87,1-5.46-.93-8.62-2.67s-5.91-3.23-8.26-3l-.9.08-.06.91c-.46,6.69-4.86,10.89-9.53,15.33-4.51,4.3-9.15,8.73-10.64,15.65l-1.51-.9h0v0l-4.45,7.54-3.27-3.6-.78.64c-5.89,4.86-8.65,11.32-11.31,17.56-2.2,5.15-4.29,10.06-8,13.7l1.28-19.23-6.53,7.35-.59-2.12-1.28,1.24c-3.66,3.53-4.69,9.14-5.78,15.07-1.65,9-3.35,18.2-14.41,21.05l-2.91-5.81-7.57,6.71c.37-1.07,1.48-2.25,3-3.78,2.68-2.69,6.36-6.39,2.64-11l-1.4-1.73-.46,2.17c-1.54,7.21-9,12.56-15.56,17.27-4,2.9-7.64,5.48-9.23,8.16a8,8,0,0,0-4.52-3.54c-4.09-1.11-8.54,1.85-13.25,5-6.72,4.47-13.07,8.7-18.7,2.3,2.83-3.29,3.7-5.17,3.08-6.6-.72-1.65-3-1.7-5.67-1.76-4.26-.1-7.59-.41-8.41-3.48l-.5-1.9-1.31,1.47a33.86,33.86,0,0,1-6.67,5.39c-4.22,2.84-8.21,5.53-9.17,11.64-1.72,5.84.2,8.53,2.12,9.75,3.24,2.07,8.62,1.3,12.34-.39-5.42,12.69-16.13,21.57-28.4,31.75l-4.75,3.95-2.22,1.87Z"/></svg>