<?xml version="1.0" encoding="utf-8"?>
<!-- Generator: Adobe Illustrator 25.3.1, SVG Export Plug-In . SVG Version: 6.00 Build 0)  -->
<svg version="1.1" id="Icons" xmlns="http://www.w3.org/2000/svg" xmlns:xlink="http://www.w3.org/1999/xlink" x="0px" y="0px"
	 viewBox="0 0 24 24" style="enable-background:new 0 0 24 24;" xml:space="preserve">
<path id="playlog_logo" d="M12,0C5.4,0,0,5.4,0,12c0,0.6,0,11.9,0,11.9S0.1,24,0.2,24c0,0,0.1,0,0.1-0.1c3.1-3.1,6-1.4,6-1.4l0,0
	C8,23.5,9.9,24,12,24c6.6,0,12-5.4,12-12S18.6,0,12,0z M12,18c-3.3,0-6-2.7-6-6s2.7-6,6-6s6,2.7,6,6S15.3,18,12,18z"/>
</svg>
