<svg id="Layer_1" data-name="Layer 1" xmlns="http://www.w3.org/2000/svg" xmlns:xlink="http://www.w3.org/1999/xlink" viewBox="0 0 2097.91 686.47"><defs><style>.cls-1{fill:url(#linear-gradient);}.cls-2{fill:url(#linear-gradient-2);}</style><linearGradient id="linear-gradient" x1="1043.3" y1="1028.74" x2="2285.28" y2="281.8" gradientUnits="userSpaceOnUse"><stop offset="0" stop-color="#04ead6"/><stop offset="0.29" stop-color="#2794f1"/><stop offset="0.9" stop-color="#6f3dfc"/></linearGradient><linearGradient id="linear-gradient-2" x1="-65.31" y1="369.8" x2="1021.04" y2="-283.54" gradientUnits="userSpaceOnUse"><stop offset="0" stop-color="#04ead6"/><stop offset="0.29" stop-color="#2794f1"/><stop offset="0.67" stop-color="#6f3dfc"/></linearGradient></defs><path class="cls-1" d="M2167.59,84.45c-.37,4.2-1.43,6.78-3.12,7.66-2.76,1.43-7.5-1.32-12.07-4-4.09-2.37-7.94-4.61-11.11-4.4l-1,.06-.09,1c-.86,9.31-7.1,15-13.72,21-6.85,6.22-13.92,12.64-15.58,23.5a3.43,3.43,0,0,1,.36-2.38l0,0-2-1.24,0,.05-6.58,10.57-4.46-5.15-.88.68c-8.22,6.45-12.21,15.22-16.07,23.69-3.32,7.3-6.48,14.24-12.11,19.19l2.39-26.33-9,9.67-.75-3-1.45,1.33c-5.09,4.68-6.68,12.32-8.37,20.41-2.6,12.42-5.28,25.27-21,28.78l-3.76-8-11,9.33c.17-1.79,2-3.63,4.55-6.12,3.91-3.74,8.79-8.4,4-14.66l-1.49-1.94-.57,2.38c-2.38,10-12.87,17.13-22.12,23.43-5.84,4-11,7.52-13.14,11.25-1.72-2.84-3.76-4.58-6.19-5.31-5.47-1.63-11.65,2.26-18.18,6.38-9.58,6.05-18.64,11.76-26.37,2.29,4-4.4,5.34-7,4.58-8.87-.86-2.13-3.79-2.26-7.49-2.44-6-.28-10.65-.84-11.73-5.29l-.51-2.1-1.48,1.58a47,47,0,0,1-9.41,7.24c-5.86,3.75-11.4,7.28-12.9,15.56-2.51,7.82,0,11.49,2.48,13.18,4.59,3.1,12.49,1.76,17.44-.51-7.81,17.76-23.07,29.8-40.59,43.62l-6.36,5c-22.73.7-45.13,11.16-66.78,21.28-12.48,5.83-24.3,11.35-36.11,15.11a19.28,19.28,0,0,1,.32-2.74,21.59,21.59,0,0,0-.06-9.36l-.28-1.14-1.13.29c-9.54,2.41-13.06,8.23-16.79,14.4-2.61,4.3-5.3,8.75-10.32,12.24-3.7-5.14-9.2-8-16.38-8.54-18-1.31-41.82,12.7-48.9,20.8-4.17,4.07-1.65,7.35.2,9.74s2.73,3.76,1.27,5.77l-15.18-19.76-.89,1.42c-.4.63-1,1.47-1.67,2.43-3.22,4.52-8.3,11.66-7.57,17.93l-1.26-.72,0,2c-.06,5.15-4.17,8.1-8.13,11-3.5,2.52-6.81,4.9-7.32,8.68-.31,2.3.52,4.84,2.52,7.7-17,3.72-36.51,16.9-52.71,30.13a34.58,34.58,0,0,0,2.59-7.74c1.39-5.81,2.51-10.46,15.59-15.77a7.76,7.76,0,0,0,.19,1c.19.77.25,1.11-.11,1.66l-.88,1.37,1.58.39c4,1,6.55.78,8.12-.68,2.12-2,1.5-5.49.9-8.89-.4-2.26-.86-4.82-.11-5.78.09-.11.36-.46,1.3-.52l8.67-.58-8.52-1.73c-12.1-2.46-21.35,3.41-30.28,9.09-7.6,4.83-15.45,9.82-25.33,10.14l-.54,0-24.19,30.44c-6.94-12.9-19.8-17.19-26.72-19.1a14.32,14.32,0,0,0-2.26-2.19L1503,421l-.56.14c-1.4.35-2.84.71-2.85,1.95s1.05,1.52,3.9,2.28l.86.23c4.71,6.52-1.14,15-8.69,24.6-1.65,2.09-3.09,3.92-4.13,5.51-23,4.33-46.26,25.62-70.94,48.15-20.07,18.32-40.79,37.24-61.46,46.49,1.12-2.26,1.88-4.72,1.34-6.94l-.37-1.52-1.35.78c-26.18,15.1-47.88,26-68.87,36.63-33,16.67-61.59,31.07-97.37,56.59-7,.64-9.35-5.78-11.93-14.88a48.51,48.51,0,0,0-2.42-7.21l-.65-1.38-1.16,1c-7.42,6.27-9.52,15-11.56,23.4-2.68,11.11-5.21,21.62-20.27,24.79-18.71-13.41-31-1-42,10-7,7-13.39,13.48-20.89,13.72h-.89c-3.68-.12-7.65-1.75-12.1-5.52l-1.93-1.63v9.49H2169.92V84.55Z"/><path class="cls-2" d="M-5-.47V650.32l1.29-.29c45.73-10.25,74.24-26.52,90.1-38.36C103.64,598.79,110,588.46,110.21,588l2.7-4.48-4.23,3.08c-6.23,4.55-12.51.18-19.16-4.44-6.44-4.48-13.08-9.1-18.92-3.38C53,574.28,43.51,560.89,35.08,549.06a117.9,117.9,0,0,0-9.45-12.19,35,35,0,0,1,5.74-5.76c3.54-3.06,6.88-6,6.77-9.36-.07-1.92-1.21-3.69-3.49-5.4l-.41-.32-4.06,1.13c-.36-3.47-.12-12.64,6.73-16.71,5.52.84,9.26,2.8,12.89,4.7,5.42,2.83,11,5.77,22.18,4.82l.46,0,.28-.36c8.45-10.63,18.85-11.35,29.86-12.13,7.18-.5,14.57-1,22-4.16l-.54.94.95.52c4.77,2.61,8.26,3.39,11,2.44,3.19-1.11,4.59-4.45,5.94-7.67,2.33-5.54,4.53-10.78,14.88-8l-1.25,2.06,2.08-.17c4.52-.38,16.27-2.68,24.43-8.49l-4.62,7.89L180,482c75.07-24,140-68.77,181.9-102.82a8.49,8.49,0,0,0,.21,1.41l.43,1.66,1.3-1.13a27.12,27.12,0,0,1,3.34-2.32c2.94-1.85,6-3.76,6.49-6.78.3-1.76-.32-3.57-1.9-5.54l-.15-.18-.2-.11a10.44,10.44,0,0,0-1.11-.5c6.72-6.3,12.07-16.46,12.65-24.5a15.72,15.72,0,0,0-1.34-8,5.85,5.85,0,0,0,3.51-.07c2.38-.87,3.36-3.44,4.22-5.7.73-1.9,1.42-3.69,2.7-4.16.94-.34,2.34,0,4.14,1l.22.12h.26a5,5,0,0,1,1.25.16,16,16,0,0,1-1.77,2.18c-2.17,2.38-5.14,5.65-3.49,8.94l.13.25.23.15c3.4,2.26,6.5,3.05,9.5,2.41,5.63-1.19,9.45-7.17,13.14-12.95,2.93-4.59,5.71-8.94,9-10.22,0,1.88-.92,4.34-1.82,6.73-1.51,4-3.07,8.15-1.13,11.22,1.33,2.09,4.06,3.28,8.36,3.64l1.21.1-.07-1.22c-1.32-21.84,15.27-34.82,32.84-48.56,15-11.73,30.46-23.84,34.76-42.14l9.92,5.4.52-.88c9.29-15.75,26.27-24.22,44.26-33.19,9.9-4.94,20.13-10,29.52-16.59l36.68-8,2.77,10.34,2.07-.42c-1.06-7.59.94-13.46,6.29-18.47,4.85-4.55,11.79-7.81,19.12-11.25,10-4.7,20.33-9.56,26.32-18.23l0,0c23.05-13.53,57.68-33.86,81.14-20.47-6.39,6.3-8.46,5.15-11.27,3.58s-6.53-3.64-14.67,1.78l-.72.48L740,161.59l.3-4.57c.2-3,.88-4.81,2-5.44,1.87-1,5.46.93,8.63,2.67s5.9,3.23,8.25,3l.91-.08.06-.91c.45-6.69,4.86-10.89,9.52-15.33s9.15-8.73,10.65-15.65l1.51.9h0l0,0,4.44-7.54,3.28,3.6.77-.64c5.9-4.86,8.65-11.32,11.31-17.56,2.2-5.15,4.29-10.06,8-13.7l-1.27,19.23L815,102.2l.58,2.12,1.28-1.24c3.66-3.53,4.69-9.14,5.78-15.07,1.65-9,3.35-18.2,14.41-21.05L840,72.77l7.57-6.71a12.56,12.56,0,0,1-3,3.78c-2.69,2.69-6.37,6.39-2.64,11l1.39,1.73.47-2.17c1.53-7.21,9-12.56,15.55-17.27,4-2.9,7.64-5.48,9.23-8.16A8.1,8.1,0,0,0,873,58.5c4.1,1.11,8.55-1.85,13.26-5,6.71-4.47,13.07-8.7,18.69-2.3-2.83,3.29-3.7,5.17-3.08,6.6.72,1.65,3,1.7,5.67,1.76,4.26.1,7.59.41,8.41,3.48l.51,1.9,1.3-1.47a34.15,34.15,0,0,1,6.67-5.39c4.23-2.84,8.22-5.53,9.17-11.64,1.72-5.84-.2-8.53-2.12-9.76-3.23-2.06-8.62-1.29-12.33.4,5.41-12.69,16.12-21.57,28.39-31.75l4.75-3.95,2.23-1.87Z"/></svg>