<?xml version="1.0" encoding="utf-8"?>
<!-- Generator: Adobe Illustrator 25.0.0, SVG Export Plug-In . SVG Version: 6.00 Build 0)  -->
<svg version="1.1" id="Layer_1" xmlns="http://www.w3.org/2000/svg" xmlns:xlink="http://www.w3.org/1999/xlink" x="0px" y="0px"
	 viewBox="0 0 2097.9 686.5" style="enable-background:new 0 0 2097.9 686.5;" xml:space="preserve">
<style type="text/css">
	.st0{fill:url(#SVGID_1_);}
	.st1{fill:url(#SVGID_2_);}
</style>
<linearGradient id="SVGID_1_" gradientUnits="userSpaceOnUse" x1="670.643" y1="-566.8649" x2="1912.6229" y2="180.075" gradientTransform="matrix(1 0 0 -1 0 686)">
	<stop  offset="0" style="stop-color:#9126FA"/>
	<stop  offset="0.51" style="stop-color:#D91BDB"/>
	<stop  offset="1" style="stop-color:#FF9681"/>
</linearGradient>
<path class="st0" d="M2167.6,84.4c-0.4,4.2-1.4,6.8-3.1,7.7c-2.8,1.4-7.5-1.3-12.1-4c-4.1-2.4-7.9-4.6-11.1-4.4l-1,0.1l-0.1,1
	c-0.9,9.3-7.1,15-13.7,21c-6.9,6.2-13.9,12.6-15.6,23.5c-0.2-0.8,0-1.7,0.4-2.4l0,0l-2-1.2v0.1l-6.6,10.6l-4.5-5.1l-0.9,0.7
	c-8.2,6.4-12.2,15.2-16.1,23.7c-3.3,7.3-6.5,14.2-12.1,19.2l2.4-26.3l-9,9.7l-0.8-3l-1.4,1.3c-5.1,4.7-6.7,12.3-8.4,20.4
	c-2.6,12.4-5.3,25.3-21,28.8l-3.8-8l-11,9.3c0.2-1.8,2-3.6,4.6-6.1c3.9-3.7,8.8-8.4,4-14.7l-1.5-1.9l-0.6,2.4
	c-2.4,10-12.9,17.1-22.1,23.4c-5.8,4-11,7.5-13.1,11.2c-1.7-2.8-3.8-4.6-6.2-5.3c-5.5-1.6-11.7,2.3-18.2,6.4
	c-9.6,6.1-18.6,11.8-26.4,2.3c4-4.4,5.3-7,4.6-8.9c-0.9-2.1-3.8-2.3-7.5-2.4c-6-0.3-10.7-0.8-11.7-5.3l-0.5-2.1l-1.5,1.6
	c-2.8,2.8-6,5.2-9.4,7.2c-5.9,3.8-11.4,7.3-12.9,15.6c-2.5,7.8,0,11.5,2.5,13.2c4.6,3.1,12.5,1.8,17.4-0.5
	c-7.8,17.8-23.1,29.8-40.6,43.6l-6.4,5c-22.7,0.7-45.1,11.2-66.8,21.3c-12.5,5.8-24.3,11.4-36.1,15.1c0-0.9,0.1-1.8,0.3-2.7
	c0.7-3.1,0.6-6.3-0.1-9.4l-0.3-1.1l-1.1,0.3c-9.5,2.4-13.1,8.2-16.8,14.4c-2.6,4.3-5.3,8.8-10.3,12.2c-3.7-5.1-9.2-8-16.4-8.5
	c-18-1.3-41.8,12.7-48.9,20.8c-4.2,4.1-1.7,7.4,0.2,9.7s2.7,3.8,1.3,5.8l-15.2-19.8l-0.9,1.4c-0.4,0.6-1,1.5-1.7,2.4
	c-3.2,4.5-8.3,11.7-7.6,17.9l-1.3-0.7v2c-0.1,5.1-4.2,8.1-8.1,11c-3.5,2.5-6.8,4.9-7.3,8.7c-0.3,2.3,0.5,4.8,2.5,7.7
	c-17,3.7-36.5,16.9-52.7,30.1c1.2-2.5,2-5.1,2.6-7.7c1.4-5.8,2.5-10.5,15.6-15.8c0,0.3,0.1,0.7,0.2,1c0.2,0.8,0.2,1.1-0.1,1.7
	l-0.9,1.4l1.6,0.4c4,1,6.6,0.8,8.1-0.7c2.1-2,1.5-5.5,0.9-8.9c-0.4-2.3-0.9-4.8-0.1-5.8c0.1-0.1,0.4-0.5,1.3-0.5l8.7-0.6l-8.5-1.7
	c-12.1-2.5-21.3,3.4-30.3,9.1c-7.6,4.8-15.4,9.8-25.3,10.1h-0.5l-24.2,30.4c-6.9-12.9-19.8-17.2-26.7-19.1c-0.7-0.8-1.4-1.5-2.3-2.2
	l-0.6-0.3l-0.6,0.1c-1.4,0.4-2.8,0.7-2.8,2s1.1,1.5,3.9,2.3l0.9,0.2c4.7,6.5-1.1,15-8.7,24.6c-1.7,2.1-3.1,3.9-4.1,5.5
	c-23,4.3-46.3,25.6-70.9,48.1c-20.1,18.3-40.8,37.2-61.5,46.5c1.1-2.3,1.9-4.7,1.3-6.9l-0.4-1.5l-1.3,0.8
	c-26.2,15.1-47.9,26-68.9,36.6c-33,16.7-61.6,31.1-97.4,56.6c-7,0.6-9.3-5.8-11.9-14.9c-0.6-2.5-1.4-4.9-2.4-7.2l-0.7-1.4l-1.2,1
	c-7.4,6.3-9.5,15-11.6,23.4c-2.7,11.1-5.2,21.6-20.3,24.8c-18.7-13.4-31-1-42,10c-7,7-13.4,13.5-20.9,13.7h-0.9
	c-3.7-0.1-7.7-1.8-12.1-5.5l-1.9-1.6v9.5h1103.2V84.6L2167.6,84.4z"/>
<linearGradient id="SVGID_2_" gradientUnits="userSpaceOnUse" x1="103.1029" y1="417.9059" x2="1191.1505" y2="1072.2769" gradientTransform="matrix(1 0 0 -1 0 686)">
	<stop  offset="0" style="stop-color:#9126FA"/>
	<stop  offset="0.29" style="stop-color:#DC1ED8"/>
	<stop  offset="0.67" style="stop-color:#FF9681"/>
</linearGradient>
<path class="st1" d="M-6-2v654.3l1.3-0.3c45.7-10.3,74.2-26.7,90.1-38.6c17.2-12.9,23.6-23.3,23.8-23.8l2.7-4.5l-4.2,3.1
	c-6.2,4.6-12.5,0.2-19.2-4.5c-6.4-4.5-13.1-9.1-18.9-3.4c-17.6-4.5-27.1-18-35.5-29.9c-2.9-4.3-6-8.4-9.5-12.3
	c1.7-2.1,3.6-4.1,5.7-5.8c3.5-3.1,6.9-6,6.8-9.4c-0.1-1.9-1.2-3.7-3.5-5.4l-0.4-0.3l-4.1,1.1c-0.4-3.5-0.1-12.7,6.7-16.8
	c5.5,0.8,9.3,2.8,12.9,4.7c5.4,2.8,11,5.8,22.2,4.8h0.5l0.3-0.4c8.4-10.7,18.8-11.4,29.9-12.2c7.2-0.5,14.6-1,22-4.2l-0.5,0.9
	l0.9,0.5c4.8,2.6,8.3,3.4,11,2.5c3.2-1.1,4.6-4.5,5.9-7.7c2.3-5.6,4.5-10.8,14.9-8l-1.2,2.1l2.1-0.2c4.5-0.4,16.3-2.7,24.4-8.5
	l-4.6,7.9l2.5-0.8C254.1,459,319,414,360.9,379.7c0,0.5,0.1,1,0.2,1.4l0.4,1.7l1.3-1.1c1.1-0.9,2.2-1.6,3.3-2.3
	c2.9-1.9,6-3.8,6.5-6.8c0.3-1.8-0.3-3.6-1.9-5.6l-0.1-0.2l-0.2-0.1c-0.4-0.2-0.7-0.4-1.1-0.5c6.7-6.3,12.1-16.5,12.6-24.6
	c0.3-2.8-0.2-5.5-1.3-8c1.1,0.3,2.4,0.3,3.5-0.1c2.4-0.9,3.4-3.5,4.2-5.7c0.7-1.9,1.4-3.7,2.7-4.2c0.9-0.3,2.3,0,4.1,1l0.2,0.1h0.3
	c0.4,0,0.8,0.1,1.2,0.2c-0.5,0.8-1.1,1.5-1.8,2.2c-2.2,2.4-5.1,5.7-3.5,9l0.1,0.3l0.2,0.2c3.4,2.3,6.5,3.1,9.5,2.4
	c5.6-1.2,9.5-7.2,13.1-13c2.9-4.6,5.7-9,9-10.3c0,1.9-0.9,4.4-1.8,6.8c-1.5,4-3.1,8.2-1.1,11.3c1.3,2.1,4.1,3.3,8.4,3.7l1.2,0.1
	l-0.1-1.2c-1.3-22,15.3-35,32.8-48.8c15-11.8,30.5-24,34.8-42.4l9.9,5.4l0.5-0.9c9.3-15.8,26.3-24.4,44.3-33.4
	c9.9-5,20.1-10.1,29.5-16.7l36.7-8l2.8,10.4l2.1-0.4c-1.1-7.6,0.9-13.5,6.3-18.6c4.8-4.6,11.8-7.9,19.1-11.3
	c10-4.7,20.3-9.6,26.3-18.3l0,0c23-13.6,57.7-34,81.1-20.6c-6.4,6.3-8.5,5.2-11.3,3.6s-6.5-3.7-14.7,1.8l-0.7,0.5L739,161l0.3-4.6
	c0.2-3,0.9-4.8,2-5.5c1.9-1,5.5,0.9,8.6,2.7s5.9,3.2,8.2,3l0.9-0.1l0.1-0.9c0.5-6.7,4.9-10.9,9.5-15.4s9.2-8.8,10.7-15.7l1.5,0.9
	l0,0l0,0l4.4-7.6l3.3,3.6l0.8-0.6c5.9-4.9,8.7-11.4,11.3-17.7c2.2-5.2,4.3-10.1,8-13.8l-1.3,19.3l6.6-7.4l0.6,2.1l1.3-1.2
	c3.7-3.5,4.7-9.2,5.8-15.2c1.7-9,3.3-18.3,14.4-21.2l2.9,5.8l7.6-6.7c-0.7,1.4-1.8,2.7-3,3.8c-2.7,2.7-6.4,6.4-2.6,11.1l1.4,1.7
	l0.5-2.2c1.5-7.2,9-12.6,15.5-17.4c4-2.9,7.6-5.5,9.2-8.2c1,1.7,2.6,2.9,4.4,3.5c4.1,1.1,8.5-1.9,13.3-5c6.7-4.5,13.1-8.7,18.7-2.3
	c-2.8,3.3-3.7,5.2-3.1,6.6c0.7,1.7,3,1.7,5.7,1.8c4.3,0.1,7.6,0.4,8.4,3.5l0.5,1.9l1.3-1.5c2-2.1,4.2-3.9,6.7-5.4
	c4.2-2.9,8.2-5.6,9.2-11.7c1.7-5.9-0.2-8.6-2.1-9.8c-3.2-2.1-8.6-1.3-12.3,0.4c5.4-12.8,16.1-21.7,28.4-31.9l4.8-4l2.2-1.9L-6-2z"/>
</svg>
