<svg id="Layer_1" data-name="Layer 1" xmlns="http://www.w3.org/2000/svg" viewBox="0 0 2097.91 686.47"><defs><style>.cls-1,.cls-2{fill:#202020;stroke:#202020;stroke-miterlimit:10;}.cls-1{stroke-width:2.67px;}.cls-2{stroke-width:2.77px;}</style></defs><path class="cls-1" d="M1182.21,683.1c34.65,29.35,46.73-50.13,87.26-20.39,31.84-6.26,18-39,37.56-55.5,4,8.55,4.71,27.56,18.1,26C1392,585.47,1438,571.11,1515.36,526.48c.87,3.57-1.93,8.16-3.34,10.4,53.64-21.4,106.43-101.08,155.29-109.76,5.65-9.14,26.57-27.89,12-39.44-11.08,2.77,21.64.18,33.71,25.76l28.56-35.95c25.27-.82,38.55-27.05,63.28-22-9.66.64,7.54,22.88-11.26,18.19,1.45-2.26-.84-3.55.56-5.9-32.36,12.22-10.44,21.85-35.1,41.51,21-18.79,50.7-41.67,75.15-46-14-17.34,13.57-16.8,13.77-32.15l2.29,1.32c-4-8.53,6.66-20.76,9.54-25.36L1877,329.39c8-7.79-8.59-11.21-.63-18.9,10.67-12.28,57.51-37.76,73.29-13.1,15.34-9.71,13.24-26.35,31.68-31,1.76,7.17-1.08,11.69-.16,15.26,38.29-11.72,78.3-41,119.27-42,24.58-19.65,46.43-34.8,55.93-60.14-6.51,5.47-31,9.84-24.21-11,2.48-14,15.84-15.49,25.18-25.48,3.46,14.31,35-1.4,16.29,18.6,19.28,25.83,47-29,60-.45,1.29-11.24,36.35-21.61,41.38-42.67,8.59,11.18-13.62,16.89-9.55,25.42l13-11,4,8.49c31.9-6.24,20.81-43.5,35.23-56.78l.91,3.61,9.33-10-2.66,29.33c16.68-11.94,16.53-36.74,34.66-51l5.45,6.3,8.51-13.67a5.53,5.53,0,0,0,1.67,7.24c1.33-27.08,31.7-31.09,33.86-54.51,9.63-.62,29.2,23.11,31.32-.41V689.72H1182.21Z"/><path class="cls-2" d="M-385.32.86h1249c-20,16.79-37.82,29.81-45.19,51,5.29-4.67,25.5-8.8,20.31,8.62C837,72.2,826,73.68,818.44,82.15c-3.16-11.8-29,1.87-13.89-15.1-16.52-21-38.38,25-49.77,1.58-.84,9.35-29.73,18.67-33.47,36.24-7.36-9.1,11-14.29,7.4-21.28L718.14,93l-3.5-7c-26.34,5.82-16.39,36.52-28.09,47.83l-.82-3-7.55,8.49,1.62-24.4c-13.6,10.25-13,30.82-27.73,43l-4.65-5.12-6.79,11.51a4.58,4.58,0,0,0-1.53-6c-.56,22.49-25.68,26.44-27,45.92-8,.7-24.69-18.59-26,1l-9.39-22.85c20.83-13.86,16.1,11.42,35.37-8.43-31.5-19.78-78.17,7.75-109.32,26-18.74,27.65-73.37,25.58-68,63.9l-4-14.78-49.49,10.76c-34.48,24.15-77.91,33.19-97.07,65.65l-13.41-7.29C260.37,370.56,178.75,384,182.06,439c-21.72-1.8-3.64-19.73-6-28.61-14.1,2.45-19.77,42.31-41.7,27.75-3.5-7,13.95-15.14,4-15.5-15.36-8.44-6.26,19.28-23.56,9.85,11.17,11.18-1.52,37.11-15.12,47.29,3-.81,3-.81,5,.18,7.32,9.15-4.88,12.6-10.2,17.24,0,0-.75-2.92.33-4.87-68.42,56-152.61,108.5-240.12,136.45l10.07-17.22c-7.88,13.35-31.14,18.37-39.1,19l1.16-1.9c-32.19-10.08-14.21,32.65-43,16.89l2.19-3.85c-25.79,13.71-52.62-1-72.21,23.59-24.07,2-27.26-9.85-46-12.51-11.41,6.34-10.38,22.06-9.64,25l6.13-1.71c12.3,9.26-7.09,16.34-12.7,25.9,15.8,16.26,27.62,48,61,56.16,14-15.08,32.36,22.79,50.15,9.81,0,0-32.79,54.57-148,80.41Z"/></svg>