<?xml version="1.0" encoding="utf-8"?>
<!-- Generator: Adobe Illustrator 25.3.1, SVG Export Plug-In . SVG Version: 6.00 Build 0)  -->
<svg version="1.1" id="Icons" xmlns="http://www.w3.org/2000/svg" xmlns:xlink="http://www.w3.org/1999/xlink" x="0px" y="0px"
	 viewBox="0 0 24 24" style="enable-background:new 0 0 24 24;" xml:space="preserve">
<path id="plus" d="M9.3,24C8.6,24,8,23.4,8,22.7V16H1.3C0.6,16,0,15.4,0,14.7V9.3C0,8.6,0.6,8,1.3,8H8V1.3C8,0.6,8.6,0,9.3,0h5.3
	C15.4,0,16,0.6,16,1.3V8h6.7C23.4,8,24,8.6,24,9.3v5.3c0,0.7-0.6,1.3-1.3,1.3H16v6.7c0,0.7-0.6,1.3-1.3,1.3H9.3V24z"/>
</svg>
