<?xml version="1.0" encoding="utf-8"?>
<!-- Generator: Adobe Illustrator 25.0.0, SVG Export Plug-In . SVG Version: 6.00 Build 0)  -->
<svg version="1.1" id="Layer_1" xmlns="http://www.w3.org/2000/svg" xmlns:xlink="http://www.w3.org/1999/xlink" x="0px" y="0px"
	 viewBox="0 0 3754 1124" style="enable-background:new 0 0 3754 1124;" xml:space="preserve">
<style type="text/css">
	.st0{fill:#4C57FF;}
	.st1{fill:#CE16E4;}
</style>
<path class="st0" d="M5534.1-441.3l-0.4-11c-13.1,1.6-36.2,7.2-41.2,24.2c5-16.9-32.5-5.5-36.6-22.4l1.7,6.8
	c-46.8,0.3-87.6,26.1-132,45.8c-12.2,32.8-45.6,24-63.2,53.4c9.4,20.3-2.1,7-21.6,26.8c10.1-10.8-8.9-14.2-18-11.1
	c-0.9,7.7-4.8,13.1-8.9,18.6c-9.1-2.7-47.8,3.9-48.9,23.2c-17.8,4.4-1.1-7.9-1-13.6c-12.4-4.8-5.6,15-14.7,12.3c0,0-1.3-2-0.4-4
	c-20,15.8-35.9,20.4-59,34c11.4,18.3-16.1,21.9-20.9,35c-1.2-7.8-17,2.5-25.6,3.8l-1.7,21.1c-3.1,19.1-21.6,4.1-31.9,20.7l5.9,0.4
	c-6.8,13-43,23.6-60.6,22.2C4881.5-48.8,4787-60.8,4689.5,25.1c-2.8,10.1,11.7,4.9,12.2,16.5c-0.5,0.6-1.1,1.1-1.5,1.6
	c1.7,0.7,0.4,2.4,3.8,3.8c3.8-5.2,7-13,14.1-16.8c-5.7,11.2,1.5,25.6-14.9,30.1c-0.4-2.4,0.8-4.2,3.3-7.7c-11.1,6.6-7,13-17.3,15.4
	c-11.7,4.2-6.3,6.3-11.7,1.8l-34.8,15c-3.1,25.9-32.3,24.9-38.1,27c-5.5-13.6,16.9-17.8,15.6-34.3l-17-0.4l6.3,9.5l-17.1,8.7
	l-0.5-2.4c0.9,4.9,1.7,9.7-4.5,9.4c-1.5-0.7-3.9-3.6-3.9-3.6l-6.8,12.6c-0.9-13.9,113.5-87.8,106.7-99.6
	c-34,17.7-46.9-11.8-73.6-0.7l-265.1-0.6c1.3-3.7,2.1-7.7,2.9-15.1l-3.5-1.2l-2.6,13.3L4325-7.9c1-2,1.8-3.8,2.4-5.4
	c19.9,2.3,62.1-14,69.1,5.3c21.8-14.3-14.2-4.6-8.1-17.6l2.9-1.2c-8.7,3.6-18.5,2.5-27.4-0.4c-8.3-7.1,8.1-23.1,15.6-24.9l5.7,14.6
	c15.8-18.3-2.6-33-0.3-53.6c19.1-6.7,19,10.4,30.9,18.5l13.7-14.8l7.3,8.8c8.5-10.1,4.2-20.1,21.5-27.3c-3.7,16.1,28.4-7.9,23.1,14
	c10.4-3-1.2-21.7,12.5-13c-2.1-13.5-11,0.6-17.6,0.7c-14.3-11.1,12.3-19.6,19.1-30.2c6.6,6.4,0.3,13,15.5,9.3
	c-2-7,1.8-16.5,13.5-14.7c-7.2-8.8,11.4-11.3,18.2-15.5c-8.6,3.6-24.4,5-25.9-6.2c2.7-7.7,6.2-13.1,19.9-21.4l-12.2,2.5
	c0.6-21.2,26.1-4.4,38-19.8c-2,10-6.2,13.1-6.4,23.6c3.8-9.4,12.2-26,20.1-38.5l23.4,3.2c-3.7-7.6,14.9-10.1,7.7-18.9
	c20.8-6-4.2,20.1-0.4,27.7c24.9-9.1,4.1-26.6,34.3-27.4l0.3,12.9c6.8-4.1,15.9-18.4,20-14.8c-2.4-2.9-4.7,0.6-8.7,3.6
	c-10.6-20.5,19.5-34.3,2.2-50.7l-9.8,5.4c10.7-13.6,10.2-33.1,25.9-34.4c12.9-0.1,4.5,16.5,3.6,24.7c13.7-8.3-6-27.6,10.7-37.2
	c-10.4,3-14.2-4.6-13.2-12.8c-9.8,5.4-31,15.5-21.5,20.7l4.7-0.6c3,5.3-0.3,10.6-0.8,14.7c-12,9-12.3-4-17.7-5.8
	c-22.4,12,13.2,19.4-5.5,32.4l-5.3-1.7c-5,11.3-18.1,22-11.3,34.9c-17.7-5.8-16.9,20.1-31.6,19.7c-22.8-24.5,32.6-21.4,31.6-43.3
	c-14,1.8-4.6-16.4-5.4-25.2l-21.3,33.8c-5.3-1.7-24.8-8-22.7,5.6l2.9-1.2c-9.7,11.9,2.3,20-11.1,24.3c-3.5-1.2-3.7-7.7-4.3-10
	c-11.5,4.8-3.2,11.8-7.7,18.9c-11.5,4.8-3.8-14.2-14.3-11c-2.9,18.2-19.5,10.7-28.7,18.5c16.1,11.6-22,48.5,9.4,45.9l-15,27.2
	c-13.5-2.3-0.9-32.3-17.4-39.9l18.9-13.2c-18-16-28.9,40.6-57.9,29.4c-10.5,6.5-6,7.3-32.1,12.1l16.6,13.9
	c-12.7,3.4-23.2-3.1-26.1-5.7c-4.8,5.2-10.3,8.7-16.1,11.9c-0.6-3.5-0.5-7,2.3-10.5c-14.7-3.6-14,1.3-12.7,8
	c-0.5,7-7,10.9-13.2,15.3l0.5-10.1c-2.6,4.1-5.6,9.2-3.7,12.5c-2.5,1.9-4.6,4.1-6,6.7c3.9,1.6,15.8,8.1,27.8,5.9
	c-27.7,10.2-42.5,26.9-72.7,27.7c-3.1-5.2,0.1-17-2.8-15.8c-11.5,4.8-15.2,20.7-8.6,27.2c-1.8,2.1-3.3,3.5-4.8,4.7
	c-5.1-2.7-11-5.3-16.1-2.7c-2.3-0.7-5.1-0.7-8.8,1.2c7.4,15.3-16.4,22.5-15.6,31.4c5.4-1.9,10.7-6,15.7-10.4
	c-0.7,14.3,0.5,29.3-11.2,26.9c7.7-18.9-26.4-2-7.6-21.7c-28.7-5.1,1.6,17.7-19.2,23.8L4210-6.5c-6.1-10.6,13-17.2,7.7-18.9
	l-6.3,6.6c1.4-12.4,32.5-28.1,40.6-51l-37.9,19.7c-33.3,42.7-96.8,69.2-116,116.5c0.5-0.5,0.9-0.9,1.3-1.4c0.1,1.4,1.3,3.4,3.7,7.3
	l-3.5-1.2l-1.4,12.4c-15.3-2.8-31.9,6.8-50.6,9.3c12.9-0.2,12.9-0.2,19.4,6.3c6.1,10.6,8.2,15.5-6.8,21c-5.6-6.6,2-11.9-11.2-10.6
	c7.3-0.1,7.1,7.6,2.4,12.4c-10.3,0.7-22.3,8.2-28.1,1.6c1.6-4.1,6.1-3.7,9-4.3c1.7-4.1-17.7,3.5-12.9-8.9l-10.7,11
	c-11.7-0.3-2.5-12.3-8.2-13.8c-16.7,19.7-14.5,42.8-29.2,61c-2-4.2-14.1-19.2-10.7-14.8c-17.9,6.1-17.2,38.8-32.3,52
	c-1.2-6.2-39.2,31.8-36.1,26c-20.7-2.8-49.2,20-107.2,40.2l0.5,24.3l-20.5-1.2c-56.8,26.4-86.1,64.1-128.7,103
	c-13.7,11.7-17.4-4.3-27.8-3.5c-33.1,21.8-26.7,44.8-54,70.7c0.3-7.8-3.4-26.3-17-17.2c1.2,6.2,5.4,14.3-5.1,17.7l0.3-7.8
	c-13.1-1.3-15,10.6-33,19.1c-27.2,20.7-44.4,50.9-53.1,84.6c-25.5,16.5-11-18.4-18.4-18.2c21.8-7.1,9.7-11.5,9.1-19.6
	c-5.5,11-14.2,21.8-27.9,14.3c-12.1,10-18.1,13.7-24.6,30.3c3.2-8.3,13.5-6.4,11.6,2.9c-13.4,3.9-107.7,93.7-117.4,79
	c-57.5,47-55.4,27.5-118.9,75.6c-5,15.1,10.4-3.3,8.6,6c-8.2,20.8-16.3,4.4-22.9,21.1l-0.9-11.3c-19.6,12.7-28.1,41.2-40.6,61.6
	c-3.9-10.7-20.6,4-9.8-12.2c-7.4,7.7-7.5-14.3-10.6-4.8c-0.3,0.8-10.7,16.9-10.2,17.2l9.9,6.3c2.4,3.8-11.8,10.9-8.6,12.3
	c-13.5-1.2-29.7-2.4-35,1.6c-9.9-7,5.1-15.1,12.6-20.3c-11.1-15.7-32.7,8.8-33.2-12.7c-13.8,14.2,8.5,6,3.6,18.5l-16.4,7l14.8-2.9
	c-7.9,13-2.5,27.3-24.6,30.4l-4,26.4c-11.3-10.6-13.4,6.4-23.8,9.7l-1.1-11.3c-10.5,8.4-16.5,9.5-26.8,10.3
	c-2.3-14.9,11.9-4.8,6.5-16.5l-14.8,5.4c5.5,6.7,2.2,17.5,14.1,15.2c-0.9,20.7,1.5,35.5-27.1,55.1c-21.9-2.1,5.2-20.2-9.3-27.5
	c-32.9,16.6-10.9,55.8-28.9,67c-25.4,11.3-15.4,20.9-36.7,37.8c0.5-12.9-22.1,3-32.1-1.5l2-14.5c-3.9,6.2-10.9,8.4-14.5,4.6
	c3.1,10.5-22.8,29.5-32.8,44.3l10,7c-9.3,11.7-20.9,29.4-35.3,36.4c-16.2,16.6-5.5,21.5-11.6,41.8c-14.6-2.2-21.5-12.5-27-24.2
	c8.7,0.9,14.9-8,25.4-11.3c17.1-25.1,19.8-57.6,46.7-70.5c-7.7-29.3-13.7,14.2-31.4,15c-0.8-1.5-0.2-2.6,0.4-3.4
	c-1.1,0.7-2,1.3-3.3,1.4c6.1-8.8,17-22.5,10.2-35.3c-12.2,12.6,7.6,29.2-17.4,32.9c-7.9,15.6-32.5,6.3-41.5,10.7
	c-1.9,14.5,12.1,32.2-12,44.6l-0.7-19c-24.2,17.5,3.4,26.2-19.2,42.1c9-4.4,2.3,17.5,17.3,6.9c-2,11.9-17.1,25.1-32,30.5
	c-1.6,4.2,2.7,4.7,5.6,9.2c20.3-1.5,14.3-23.9,35.2-19.8l-1.5-20c16.3-4.4,26.2,5.2,22.9,16c3-3.2,4.6-7.2,9.1-6.8
	c18.4,18.1-20.6,4-11.2,24l7.6-7.9c14.3,10-11.2,26.4-23.2,33.9c-17.7,3.5-31.2,9.9-39.7,1.3l13.8-16.7
	c-14.9-0.9-18.3,20.6-28.6,27.6c-1.7-0.8-3.4-1-5.1-0.8c1.2,0.4,2.2,1.1,2.9,2c-2.5,1.1-5.3,1.4-8.7,0.4c-9.1,6-17.4,21.3-27.9,24.3
	l7.8,7.5l-2.8-5.4c8.3-5.6,23.4-8.6,22.3,2.1c-13.4,19.2-30.2,5.9-40.4,1.9c-6.3-15.8,17.7-12.9,23.4-24.1
	c-15.8-8.5-19.5,12.3-45,17.9c-3.9-19.3,21.8-15.8,15.5-31.6c-17,8.8-12.9,21.6-31.6,29.8c-3.3-7.9,11.7-20,3.9-27.4l-13.4,3.6
	c24.3-19.3-18.5-13.9-1.8-31.7c-13.8,1.1-3.6,20.8-23.8,21.7c8.6,3.3,28,6.5,19.9,21.2l-17.5,6.5c-11.4-2.2,2.7-25.6-11.1-24.4
	l-10.9,15.7c3.9,3.8,12.6,0.6,12.9,9.5c-12.2,1.9-0.9,26.2-6,39.8c-8.3,5.6-15.3,9.5-22.1,6.8c-10.2,27.2-36.2,45.7-45.3,71.1
	c6-17.7-12.1-13.7-24.8-14.3c13.2-12.6,2.7-25.6-5.1-33.1c-7.8,8-2.7,25.6,5.4,26.6c-19.2,5.8-2.9,16.6-23.1,17.6
	c-12.1,1.8-6.3-15.9-13.1-18.6c-16.5,11.4,8.5,19-11.5,28.9c-0.5-2.4,0.6-4.1-2.7-5.5c-11.6,4.2-16.8,17.9-13.6,25.8
	c-23.8-9.4-26.8,22.8-38.2,5c-19.1,21.3,10.7,6.4,10.9,15.5c-3.3,14.2-25.5,21-33,22.4c5.3-4.5,6.8-12.8,14.4-14.4l-14.2-7.8
	c-35,12.9,3.1,39.1-32.3,49.5c9.2-16.4-2.4-12.1-2-25.3c-1.9,6-25.9,18.7-5.8,17.7c-11.1,6.7-19.8,9.9-28.6,13.1
	c-5.6,11.2-12.8,21.7-12.1,33c-15.4,9.5-32.6,9.3-43.6,9.5c-23.5,30.7-63,37.4-87.7,69.8l2.9-1.1c-26.5,16.2,23.3,7-2.6,25.6
	c-8-16.5-23.1,2-37.5,0.9c-37.4,16.3-46.1,50.6-82.9,62.8c-2.2-3-3.2-7.9,2.2-12.5c-25.8,12.1-41.4,28.1-62,42.2l-0.5-2.3
	c-41.4,12.6-59.3,47.7-89.7,75.6c1.2-3.7-2.4-9.5-1.8-12.9c-19.3,9.3-47.7,27.1-49,48.5c-31.1,1-9.7,13.9-46.1,19.6
	c-3.5-1.4,0.6-4.2,1.9-6c-16.3,4.7-24,12.7-38.1,20.5c-20.8,29.6-13,52.7-50,71.5c-17.2-17.7,16.1-19.5,4.5-35.1
	c-3.8,8.2-6.2,16.2-18.8,18.4c-0.7-11.4-2.6-5.5-4.6-15.2c-10.9,0.1-11.5,40.3-12.8,38.3c2.7,3.9,6.7,4.2,12.7-1.2
	c1.9,17.3-31.2,24.7-43.1,41.1c5.4-3.5,24.6-11.8,25.8,1.7c-24.4,11.7-16.5,35.1-25.1,53.6c-26.5,5.9,1.3-26.5-13.2-37.1
	c-7.2-2.4-23.8-7.2-19.8-18.4c-19.9,10.2-23.2,30.9-36.4,45.3l-2.7-4c-20.5,17.7-30.4,51.4-54.9,57.5l13.2-2.9
	c-1.8,4.9-13.7,12-13.5,24.1c-3.8-5.7-17.9-3-21.1-7.8c2.3,25.6-40.1,46.7-35.6,72.5c-9.9-0.7-11.9-12.2-13.9-18.1
	c15.1-8.5,23.1-8,23.8-21.3c-11.3,8.8-23.8,9.9-25.8,4c-1.3,20.9-24.6,46.1-20.1,62.8c-13.5,0-24.2,2.6-29.8-10
	c-29.9,32.5,43.6,19,3.7,48.3c-26.3,3.4,6.5-26.7-21.3-11.6l3.3-5c-39.9-13.3,3,28.4-18.2,42.7c-14.7-12.5,5.7-20.9-16.9-20.9
	c-15.7,17.5-6.2,45.1-28.7,54.3l-1.9-9.1c-11,10.1-36.7,24.3-47.6,34.3c-2.9-2.4-0.9-3.3,0.8-5.8c-26.5,10.8-3.1,14.2-29.4,17.6
	l0.7,10.8c13.1-1.7,36.6-7.6,41.2-24.4c-4.7,16.8,33,5.1,37.5,21.6l-1.8-6.6c47.4-0.9,88.1-26.8,132.6-47
	c11.8-32.6,45.6-24.2,62.9-53.6c-9.9-19.9,2.1-7,21.2-26.7c-9.9,10.8,9.2,13.9,18.4,10.8c0.7-7.5,4.6-13.1,8.6-18.5
	c9.2,2.5,48.2-4.5,49-23.6c17.8-4.5,1.3,7.8,1.3,13.5c12.6,4.7,5.4-14.9,14.6-12.4c0,0,1.3,2,0.6,3.9c20-15.9,35.8-20.6,59-34.3
	c-11.9-17.9,15.9-21.8,20.4-34.8c1.4,7.6,17.1-2.7,25.7-4l1.3-20.9c2.7-18.9,21.8-4.3,31.8-20.9l-6-0.3c6.7-13,43-23.9,60.9-22.7
	c55.3-81.2-229.4,387-156.5,346.6l533.1-311.2c-2.7,5-5.7,10-8.5,14.4l-23.1-3.6c3.5,7.7-14.9,10.1-8,19.1
	c-20.7,5.8,4.6-20.3,1-28.1c-24.8,8.9-4.5,26.8-34.5,27.3l-0.1-13.1c-6.9,4.2-16.1,18.4-20.1,14.8c2.4,3,4.7-0.6,8.6-3.5
	c9.9,20.9-20,34.5-3.2,51.2l9.8-5.3c-10.8,13.6-10.8,33.3-26.3,34.5c-12.7-0.1-4.1-16.7-3.1-25c-13.8,8.3,5.4,28.1-11.3,37.5
	c10.4-2.9,13.9,4.8,12.8,13.1c9.8-5.3,31-15.3,21.7-20.7l-4.6,0.5c-2.9-5.4,0.5-10.7,1-14.9c12.1-8.9,12.1,4.2,17.4,6
	c22.4-11.8-12.7-19.8,6.2-32.7l5.1,1.8c5.2-11.3,18.3-22,11.9-35.2c17.3,6.1,17.2-20.1,31.5-19.5c22.1,25.1-32.7,21.2-32.1,43.4
	c13.8-1.7,4.2,16.7,4.8,25.7l21.7-33.9c5.2,1.8,24.3,8.4,22.4-5.3l-2.9,1.2c9.7-11.9-1.8-20.3,11.4-24.4c3.5,1.2,3.6,7.8,4.1,10.2
	c11.2-4.6,3.8-11.5,7.6-18.4l1.1-0.9c10.3-3.5,3,14.6,13.1,11.7c3.3-18.4,19.5-10.6,28.8-18.4c-7.3-5.5-3.1-16.2,0.7-26l16.7-12.9
	c1.3,2.4,3.2,4.4,5.9,5.7l-19,13.1c17.5,16.3,29.4-40.8,57.8-29c10.5-6.5,6.1-7.3,31.9-11.8l-16.1-14.2c12.7-3.4,22.8,3.4,25.6,6.1
	c4.9-5.2,10.4-8.6,16.2-11.8c0.5,3.5,0.2,7.2-2.5,10.6c14.4,3.8,13.9-1.2,12.6-7.9c0.8-7.1,7.1-10.9,13.4-15.2l-0.7,10.2
	c2.6-4.1,5.8-9.2,3.9-12.6c2.5-1.9,4.5-4,6.1-6.8c-3.9-1.7-15.4-8.5-27.4-6.4c27.6-10,42.5-26.6,72.4-27.1c3,5.3-0.4,17.3,2.5,16.1
	c11.5-4.7,15.5-20.8,9.1-27.4c1.8-2.1,3.4-3.5,4.8-4.6c5.1,2.8,10.7,5.6,15.9,2.9c2.2,0.7,5,0.8,8.7-1.1c-7-15.6,16.6-22.6,16-31.5
	c-5.4,1.8-10.7,5.9-15.7,10.3c1-14.5,0.1-29.7,11.6-27c-8,19,26,2.4,7.1,22c28.2,5.5-1.3-17.8,19.5-23.8l15.5-1.1
	c5.9,10.7-13.2,17.3-8,19.1l6.3-6.5c-1.7,12.6-32.7,27.9-41.2,51.1l38-19.6c33.8-42.8,97-68.7,116.9-116.4c-0.5,0.5-0.9,0.9-1.3,1.4
	c0-1.4-1.2-3.4-3.5-7.4l3.5,1.2l1.6-12.5c15.1,3,31.7-6.4,50.2-8.8c-12.8,0.1-12.8,0.1-19.1-6.5c-5.8-10.8-7.7-15.8,7.1-21.2
	c5.4,6.7-2.2,12,11,10.8c-7.2,0.1-6.8-7.8-2.2-12.5c10.2-0.6,22.3-8,27.8-1.3c-1.7,4.2-6.1,3.7-8.9,4.2c-1.8,4.2,17.5-3.2,12.5,9.2
	l10.8-11c11.6,0.5,2.3,12.4,7.9,14.1c16.8-19.7,15.1-43.1,30-61.3c1.9,4.2,13.5,19.7,10.3,15.1c17.8-5.9,17.8-39.1,32.9-52.2
	c1.1,6.3-6.3,8.9-9.6,14.8c54.1-30.7,94.8-60.2,152.6-79.9v-24.6l20.2,1.5c56.7-26,86.4-63.7,129.2-102.6
	c13.7-11.6,17.1,4.6,27.4,3.9c33.2-21.6,27.3-45,54.8-70.8c-0.4,7.9,2.8,26.6,16.4,17.7c-1.1-6.3-4.9-14.6,5.4-17.9l-0.4,7.8
	c12.9,1.5,15.1-10.5,33-19c27.3-20.6,44.9-50.9,54.2-84.9c25.6-16.3,10.5,18.7,17.8,18.7c-21.6,6.9-9.8,11.6-9.3,19.7
	c5.6-11.1,14.5-21.9,27.8-14.1c12.1-10,18.3-13.7,24.9-30.4c-3.4,8.4-13.4,6.4-11.4-3.1c13.4-3.7,108.3-93.5,117.6-78.4
	c57.8-46.8,55.3-27.2,119-75c5.3-15.1-10.4,3.2-8.4-6.2c8.5-21,16.2-4.3,23.1-21.1l0.7,11.4c19.6-12.7,28.6-41.4,41.3-61.7
	c3.7,10.9,20.5-3.8,9.4,12.5c7.8-8,48.6,22.9,49.3,9.9l-38-28.8c-2.2-3.9,11.9-10.9,8.8-12.3c13.3,1.4,29.3,2.8,34.6-1.2
	c9.7,7.2-5.3,15.1-12.9,20.4c10.7,16,32.5-8.5,32.6,13.3c13.9-14.2-8.3-6.2-3.2-18.8l16.3-6.9l-14.6,2.7c8-13.1,2.9-27.6,24.9-30.4
	l4.4-26.6c11,10.8,13.3-6.3,23.8-9.6l0.8,11.5c10.6-8.4,16.4-9.5,26.7-10.1c2,15.1-11.9,4.7-6.7,16.7l14.8-5.2
	c-5.4-6.8-1.9-17.7-13.6-15.6c1.3-20.9-0.8-36,27.9-55.4c21.7,2.4-5.5,20.3,8.6,28c32.8-16.4,11.9-56.3,30-67.4
	c25.2-11.1,15.7-21,37-37.8c-0.8,13.1,21.9-2.7,31.7,1.9l-2.2,14.6c4-6.2,10.9-8.3,14.5-4.5c-2.9-10.6,23.2-29.6,33.3-44.4l-9.7-7.2
	c9.4-11.7,21.3-29.5,35.6-36.3c16.4-16.7,5.8-21.6,12.4-42.1c14.4,2.5,21,12.8,26.2,24.8c-8.6-1.1-14.9,7.9-25.3,11.1
	c-17.3,25.2-20.7,58-47.6,70.8c7,29.7,13.8-14.2,31.3-14.8c0.7,1.5,0.2,2.6-0.4,3.4c1-0.7,2-1.3,3.3-1.4
	c-6.3,8.9-17.2,22.5-10.8,35.5c12.4-12.7-7-29.7,17.9-33c8.1-15.7,32.3-6,41.2-10.2c2.2-14.6-11.2-32.8,12.7-44.9l0.4,19.3
	c24.2-17.4-2.8-26.6,19.8-42.3c-9,4.3-1.9-17.8-17-7.2c2.2-12,17.3-25.2,32.3-30.5c1.7-4.2-2.6-4.8-5.3-9.3
	c-20.1,1.2-14.6,24-35.2,19.6l1.1,20.3c-16.2,4.3-25.8-5.6-22.3-16.5c-3.1,3.1-4.7,7.2-9.1,6.8c-17.8-18.6,20.5-3.8,11.6-24.1
	l-7.6,7.9c-13.9-10.3,11.6-26.6,23.6-34c17.5-3.2,31-9.7,39.3-0.8l-14.1,16.8c14.8,1,18.5-20.6,28.9-27.6c1.6,0.8,3.4,1.1,5.1,0.9
	c-1.1-0.5-2.1-1.1-2.8-2.1c2.5-1.1,5.3-1.3,8.6-0.2c9.2-6,17.5-21.2,28.1-24.2l-7.6-7.8l2.6,5.6c-8.3,5.6-23.2,8.4-22.1-2.4
	c13.6-19.2,29.9-5.6,39.9-1.4c5.9,16.1-17.8,12.9-23.6,24.1c15.5,8.7,19.5-12.3,44.8-17.5c3.4,19.6-21.9,15.7-16,31.8
	c16.9-8.7,13.2-21.6,31.8-29.7c3,8.1-12,20-4.5,27.7l13.3-3.5c-24.4,19.3,18,14.3,1.2,32.1c13.7-1,4-20.9,24-21.7
	c-8.4-3.5-27.6-6.9-19.3-21.7l17.4-6.3c11.3,2.4-3.2,25.9,10.5,24.9l11.1-15.7c-3.7-3.9-12.5-0.7-12.5-9.8
	c12.1-1.8,1.5-26.6,6.8-40.2c8.3-5.6,15.4-9.4,22-6.6c10.7-27.4,36.6-45.8,46.2-71.4c-6.2,17.8,11.6,14,24.2,14.8
	c-13.3,12.6-3.1,25.8,4.3,33.6c7.8-8,3.2-25.9-4.8-27c19.1-5.5,3.2-16.7,23.2-17.5c12-1.7,5.9,16.2,12.6,19
	c16.6-11.3-8-19.3,11.9-29c0.4,2.4-0.8,4.1,2.5,5.6c11.6-4.2,17-17.8,13.9-25.9c23.3,9.8,26.9-22.7,37.9-4.6
	c19.4-21.3-10.5-6.6-10.5-15.8c3.6-14.3,25.6-20.9,33.1-22.3c-5.4,4.5-7,12.9-14.4,14.3l13.9,8c34.9-12.6-2.3-39.5,32.9-49.7
	c-9.5,16.5,2.1,12.2,1.4,25.6c2-6.1,26-18.6,6.2-17.9c11.1-6.7,19.8-9.8,28.6-12.9c5.7-11.2,13.2-21.8,12.6-33.2
	c15.4-9.4,32.4-9,43.3-9c23.9-30.8,63-37.1,88.1-69.5l-2.9,1c26.5-16.1-23-7.3,3.2-25.9c7.5,16.8,22.8-1.8,37.1-0.4
	c37.3-16,46.6-50.6,83.2-62.5c2.1,3.2,2.9,8.1-2.4,12.6c25.8-11.9,41.4-27.9,62.1-41.9l0.5,2.3c41.1-12.2,59.5-47.5,90.2-75.4
	c-1.3,3.8,2.1,9.7,1.5,13.1c19.3-9.1,47.7-26.8,49.4-48.4c30.7-0.6,9.9-14,46.1-19.2c3.4,1.4-0.7,4.2-2,6
	c16.2-4.5,24-12.6,38.1-20.3c21.1-29.7,13.9-53.2,50.8-71.7c16.6,18.1-16.4,19.5-5.1,35.5c3.8-8.2,6.4-16.3,19-18.4
	c0.4,11.5,2.5,5.6,4.3,15.4c10.8,0,12.1-40.6,13.4-38.6c-2.5-4-6.4-4.3-12.5,1c-1.6-17.5,31.4-24.6,43.4-41
	c-5.4,3.5-24.5,11.6-25.5-2c24.4-11.5,17-35.3,25.9-53.9c26.3-5.6-1.9,26.9,12.4,37.7c7.1,2.5,23.3,7.6,19.2,18.9
	c19.9-10.1,23.5-31,36.8-45.4l2.5,4.1c20.6-17.7,31-51.6,55.4-57.4l-13.1,2.8c1.8-4.9,13.7-11.9,13.8-24.2
	c3.6,5.8,17.6,3.3,20.7,8.2c-1.7-25.9,40.5-46.7,36.7-72.9c9.8,0.8,11.5,12.5,13.3,18.5c-15.2,8.4-23,7.8-24,21.3
	c11.3-8.8,23.8-9.7,25.6-3.8c1.7-21.2,25.2-46.3,21.2-63.3c13.3,0.2,24-2.3,29.2,10.4c30.1-32.5-42.7-19.8-2.7-49
	c26.1-3.1-7,26.9,20.8,12l-3.3,5c39.2,13.9-2.3-28.7,18.8-42.9c14.2,12.9-6.1,21.1,16.3,21.3c15.8-17.5,7.1-45.6,29.5-54.6l1.9,8.5
	c11.1-10,36.7-24.1,47.8-34.1c2.8,2.5,0.7,3.4-0.9,5.9C5531.1-434.6,5508.1-438.3,5534.1-441.3z M4373-122.9l-0.4-4.4
	C4372.9-125.9,4373.1-124.4,4373-122.9C4373.1-123,4373.1-123,4373-122.9z M2300.6,1940.5l0.3,4.5
	C2300.7,1943.5,2300.6,1942,2300.6,1940.5z"/>
<path class="st1" d="M6032.3-520.3l-0.4-9.5c-11.5,1.4-31.8,6.4-36,21.1c4.2-14.7-28.6-4.7-32.3-19.3l1.5,5.9
	c-41.1,0.4-76.8,22.8-115.7,40.1c-10.6,28.5-39.9,20.9-55.2,46.5c8.4,17.5-1.8,6.1-18.8,23.3c8.8-9.4-7.9-12.3-15.9-9.6
	c-0.7,6.6-4.1,11.4-7.7,16.1c-8-2.3-41.9,3.5-42.8,20.3c-15.6,3.8-1.1-6.8-1-11.8c-10.9-4.1-4.8,13.1-12.8,10.7c0,0-1.1-1.7-0.4-3.5
	c-17.5,13.8-31.4,17.8-51.6,29.7c10.1,15.9-14,19-18.1,30.4c-1.1-6.7-14.9,2.2-22.4,3.3l-1.4,18.3c-2.6,16.6-19,3.6-27.9,18l5.2,0.4
	c-5.9,11.3-37.6,20.6-53.1,19.4c-63.9,92.3-146.9,82.1-232.1,156.9c-2.4,8.8,10.3,4.2,10.8,14.3c-0.5,0.5-0.9,1-1.4,1.4
	c1.5,0.6,0.4,2.1,3.3,3.3c3.3-4.6,6.1-11.3,12.3-14.6c-5,9.7,1.4,22.2-12.9,26.1c-0.4-2.1,0.7-3.6,2.8-6.7
	c-9.7,5.7-6.1,11.3-15.1,13.4c-10.2,3.7-5.5,5.5-10.3,1.6l-30.4,13.1c-2.6,22.4-28.2,21.6-33.3,23.5c-4.9-11.8,14.7-15.5,13.5-29.7
	l-15-0.3l5.6,8.2l-15,7.6l-0.4-2c0.8,4.2,1.6,8.4-3.9,8.2c-1.3-0.6-3.5-3.1-3.5-3.1l-5.9,10.9c-0.9-12.1,99.2-76.4,93.1-86.7
	c-29.8,15.4-41.3-10.1-64.6-0.4l-232.9,0.2c1.1-3.2,1.8-6.7,2.4-13.1l-3.1-1l-2.2,11.6l-14.5-13.4c0.8-1.7,1.5-3.3,2.1-4.7
	c17.5,1.9,54.4-12.3,60.7,4.4c19.1-12.5-12.5-3.9-7.3-15.2l2.5-1c-7.6,3.1-16.3,2.2-24.1-0.3c-7.3-6.1,7-20.1,13.6-21.6l5.1,12.7
	c13.8-15.9-2.5-28.6-0.6-46.5c16.8-5.9,16.8,9,27.2,16l11.9-12.9l6.5,7.6c7.4-8.8,3.6-17.4,18.7-23.8c-3.1,13.9,24.9-6.9,20.4,12.1
	c9.1-2.6-1.2-18.8,10.9-11.3c-2-11.7-9.7,0.6-15.4,0.7c-12.6-9.6,10.7-17,16.6-26.3c5.8,5.5,0.3,11.3,13.7,8
	c-1.8-6.1,1.5-14.3,11.8-12.8c-6.4-7.6,10-9.9,15.9-13.5c-7.6,3.2-21.4,4.4-22.8-5.3c2.3-6.7,5.3-11.4,17.3-18.6l-10.7,2.2
	c0.4-18.4,22.9-3.9,33.2-17.3c-1.7,8.7-5.3,11.4-5.5,20.5c3.3-8.2,10.6-22.6,17.4-33.4l20.6,2.8c-3.3-6.6,13-8.8,6.6-16.4
	c18.2-5.2-3.5,17.5-0.2,24c21.8-8,3.4-23,30-23.9l0.4,11.2c6-3.6,13.8-16,17.5-12.9c-2.1-2.5-4.1,0.6-7.6,3.1
	c-9.4-17.7,16.9-29.8,1.6-44l-8.6,4.7c9.3-11.8,8.8-28.7,22.5-29.9c11.3-0.1,4,14.3,3.3,21.4c12-7.3-5.5-23.9,9.2-32.3
	c-9.1,2.6-12.5-3.9-11.7-11.1c-8.6,4.7-27.2,13.6-18.8,18l4.1-0.6c2.7,4.6-0.2,9.2-0.6,12.8c-10.5,7.8-10.9-3.5-15.6-4.9
	c-19.6,10.4,11.7,16.8-4.6,28.1l-4.6-1.5c-4.3,9.8-15.8,19.1-9.8,30.3c-15.5-5-14.7,17.4-27.6,17.2c-20.2-21.2,28.5-18.6,27.5-37.6
	c-12.3,1.6-4.1-14.2-4.9-21.9l-18.5,29.3c-4.7-1.5-21.8-6.8-19.9,4.9l2.5-1c-8.4,10.4,2.1,17.4-9.6,21.1c-3.1-1-3.3-6.6-3.9-8.6
	c-10.1,4.2-2.8,10.3-6.6,16.4c-10.1,4.2-3.5-12.3-12.6-9.5c-2.5,15.8-17.1,9.3-25.1,16.1c14.2,10-19,42.1,8.5,39.7l-13,23.6
	c-11.8-1.9-0.9-28-15.5-34.6l16.5-11.5c-15.9-13.8-25.1,35.3-50.7,25.6c-9.2,5.7-5.3,6.4-28.2,10.6l14.6,12
	c-11.2,3-20.4-2.6-22.9-4.9c-4.2,4.5-9,7.5-14.1,10.3c-0.5-3-0.5-6.1,2-9.1c-12.9-3.1-12.3,1.2-11.1,7c-0.4,6.1-6.1,9.5-11.5,13.3
	l0.4-8.8c-2.3,3.6-4.9,8-3.2,10.8c-2.2,1.7-4,3.6-5.2,5.9c3.4,1.4,13.9,7,24.5,5.1c-24.2,8.9-37.2,23.4-63.7,24.2
	c-2.8-4.5,0-14.8-2.5-13.7c-10.1,4.2-13.2,18-7.4,23.6c-1.6,1.8-2.9,3-4.2,4.1c-4.5-2.3-9.7-4.5-14.2-2.3c-2-0.6-4.5-0.6-7.7,1.1
	c6.6,13.2-14.2,19.6-13.5,27.3c4.8-1.7,9.4-5.2,13.7-9c-0.5,12.4,0.6,25.4-9.7,23.3c6.6-16.4-23.2-1.7-6.8-18.8
	c-25.2-4.3,1.5,15.3-16.7,20.7l-13.8,1.2c-5.4-9.2,11.3-15,6.6-16.4l-5.5,5.7c1.2-10.8,28.4-24.4,35.4-44.4l-33.2,17.2
	c-29,37.1-84.6,60.2-101.2,101.4c0.5-0.4,0.8-0.8,1.1-1.2c0.1,1.2,1.1,2.9,3.3,6.3l-3.1-1l-1.1,10.8c-13.5-2.3-28,5.9-44.3,8.2
	c11.3-0.2,11.3-0.2,17.1,5.4c5.4,9.2,7.3,13.4-5.8,18.2c-5-5.7,1.7-10.3-10-9.2c6.4-0.1,6.3,6.6,2.2,10.7
	c-9.1,0.6-19.6,7.1-24.6,1.5c1.4-3.6,5.3-3.2,7.9-3.7c1.4-3.5-15.5,3.1-11.4-7.7l-9.3,9.6c-10.3-0.2-2.3-10.7-7.3-11.9
	c-14.5,17.1-12.4,37.1-25.2,53C4661.6,9,4651-4,4653.9-0.1c-15.7,5.3-14.8,33.7-28,45.1c-1.1-5.4-34.3,27.7-31.6,22.7
	c-18.2-2.4-43.1,17.5-93.9,35.1l0.6,21l-18-1c-49.7,23-75.2,55.8-112.4,89.7c-12,10.2-15.3-3.7-24.4-3c-29,19-23.1,38.9-47,61.4
	c0.2-6.8-3.2-22.8-15-14.8c1.1,5.4,4.8,12.4-4.4,15.4l0.2-6.8c-11.5-1.1-13.1,9.2-28.9,16.7c-23.8,18-38.7,44.3-46.2,73.5
	c-22.3,14.4-9.8-15.9-16.2-15.7c19.1-6.2,8.4-10,7.8-17c-4.8,9.6-12.4,18.9-24.4,12.5c-10.5,8.7-15.8,12-21.4,26.4
	c2.8-7.2,11.8-5.6,10.2,2.5c-11.8,3.4-94,81.6-102.6,68.8c-50.3,40.9-48.5,24-104,65.9c-4.3,13.1,9.1-2.9,7.6,5.2
	c-7.1,18.1-14.3,3.9-20,18.3l-0.9-9.8c-17.1,11.1-24.4,35.8-35.3,53.5c-3.5-9.3-18.1,3.5-8.7-10.5c-6.4,6.7-6.7-12.3-9.4-4.1
	c-0.2,0.7-9.3,14.7-8.9,15l8.7,5.4c2.1,3.3-10.3,9.5-7.5,10.7c-11.8-1-26.1-2-30.8,1.5c-8.8-6.1,4.4-13.1,10.9-17.7
	c-9.9-13.6-28.6,7.8-29.3-11c-12,12.3,7.5,5.2,3.3,16.1l-14.4,6.1l13-2.5c-6.8,11.3-2,23.7-21.5,26.4l-3.3,22.9
	c-10-9.1-11.7,5.6-20.8,8.5l-1-9.8c-9.2,7.3-14.4,8.3-23.5,9c-2.2-12.9,10.4-4.2,5.6-14.4l-12.9,4.7c4.9,5.8,2.1,15.2,12.5,13.1
	c-0.7,17.9,1.5,30.8-23.5,47.9c-19.3-1.8,4.5-17.5-8.3-23.8c-28.8,14.4-9.2,48.4-25,58.1c-22.2,9.9-13.4,18.1-32,32.9
	c0.4-11.2-19.4,2.6-28.2-1.2l1.7-12.5c-3.4,5.4-9.5,7.3-12.7,4c2.8,9.1-19.9,25.6-28.6,38.5l8.8,6c-8.1,10.2-18.2,25.6-30.8,31.6
	c-14.1,14.5-4.7,18.6-10,36.3c-12.8-1.9-19-10.7-23.9-20.9c7.7,0.7,13.1-7,22.2-9.9c14.8-21.8,17-50,40.6-61.3
	c-6.9-25.4-12,12.4-27.5,13.1c-0.7-1.3-0.2-2.3,0.4-3c-0.9,0.6-1.8,1.1-2.9,1.3c5.3-7.7,14.8-19.5,8.7-30.6
	c-10.6,11,6.9,25.3-15.1,28.5c-6.9,13.6-28.5,5.6-36.4,9.4c-1.6,12.6,10.8,27.9-10.2,38.7l-0.8-16.5c-21.1,15.3,3.1,22.7-16.7,36.6
	c7.9-3.8,2.1,15.2,15.3,6c-1.7,10.3-14.8,21.8-27.9,26.5c-1.3,3.6,2.4,4,4.9,8c17.8-1.3,12.4-20.7,30.8-17.2l-1.4-17.3
	c14.3-3.9,23,4.4,20.2,13.8c2.7-2.8,4-6.3,7.9-5.9c16.3,15.7-18.1,3.5-9.7,20.8l6.6-6.9c12.7,8.6-9.7,22.9-20.2,29.5
	c-15.5,3.1-27.3,8.7-34.9,1.2l12.1-14.5c-13.1-0.7-15.9,17.9-24.9,24c-1.5-0.7-3-0.9-4.5-0.7c1.1,0.4,1.9,0.9,2.5,1.7
	c-2.2,0.9-4.7,1.2-7.7,0.3c-8,5.2-15.1,18.5-24.4,21.2l6.9,6.5l-2.5-4.7c7.2-4.9,20.5-7.5,19.6,1.8c-11.6,16.7-26.5,5.2-35.4,1.7
	c-5.6-13.7,15.5-11.3,20.4-21c-14-7.3-17,10.7-39.4,15.6c-3.5-16.7,19.1-13.8,13.4-27.5c-14.9,7.7-11.2,18.7-27.6,25.9
	c-2.9-6.8,10.1-17.3,3.3-23.8l-11.8,3.2c21.2-16.8-16.3-12-1.7-27.5c-12.1,1-3,18-20.8,18.9c7.6,2.8,24.6,5.6,17.6,18.3l-15.3,5.6
	c-10.1-1.9,2.2-22.2-9.9-21.2l-9.5,13.6c3.4,3.3,11.1,0.5,11.4,8.2c-10.7,1.7-0.7,22.8-5.1,34.6c-7.2,4.9-13.4,8.2-19.4,5.9
	c-8.8,23.6-31.5,39.7-39.3,61.8c5.1-15.4-10.7-11.9-21.9-12.3c11.5-11,2.2-22.2-4.7-28.7c-6.8,7-2.2,22.2,4.9,23
	c-16.9,5.1-2.5,14.4-20.2,15.3c-10.7,1.6-5.6-13.7-11.6-16.1c-14.5,9.9,7.6,16.4-9.9,25.1c-0.5-2.1,0.6-3.6-2.4-4.7
	c-10.2,3.7-14.7,15.5-11.8,22.4c-21-8.1-23.4,19.9-33.5,4.4c-16.7,18.5,9.5,5.5,9.7,13.4c-2.9,12.3-22.3,18.3-28.9,19.5
	c4.7-3.9,5.9-11.2,12.6-12.5l-12.5-6.7c-30.6,11.3,3,33.9-28.1,43c8-14.2-2.2-10.5-1.9-21.9c-1.6,5.2-22.7,16.3-5,15.4
	c-9.7,5.8-17.4,8.7-25.1,11.4c-4.9,9.7-11.1,18.8-10.4,28.7c-13.5,8.3-28.6,8.2-38.2,8.4c-20.5,26.7-55.1,32.6-76.6,60.8l2.6-0.9
	c-23.2,14.2,20.5,6-2.2,22.2c-7.1-14.3-20.3,1.8-32.9,0.8c-32.8,14.2-40.2,44-72.4,54.7c-2-2.6-2.8-6.9,1.8-10.8
	c-22.6,10.5-36.2,24.5-54.2,36.8l-0.5-2c-36.2,11-51.8,41.5-78.4,65.8c1-3.2-2.2-8.2-1.7-11.2c-16.9,8.1-41.7,23.6-42.7,42.2
	c-27.3,1-8.5,12.1-40.4,17.1c-3.1-1.2,0.5-3.6,1.6-5.2c-14.3,4.1-21,11.1-33.3,17.9c-18.1,25.8-11.1,45.8-43.4,62.1
	c-15.3-15.3,14.1-17,3.7-30.4c-3.2,7.1-5.3,14.1-16.4,16c-0.6-9.9-2.4-4.8-4.2-13.2c-9.6,0.1-9.8,34.9-11,33.3
	c2.4,3.4,5.9,3.6,11.1-1c1.8,15-27.2,21.5-37.6,35.7c4.7-3,21.5-10.3,22.7,1.4c-21.4,10.2-14.3,30.5-21.7,46.6
	c-23.2,5.2,0.9-23-11.8-32.2c-6.4-2.1-20.9-6.2-17.5-15.9c-17.4,8.9-20.1,26.8-31.7,39.4l-2.4-3.5c-17.9,15.4-26.4,44.7-47.9,50
	l11.6-2.6c-1.5,4.3-11.9,10.4-11.7,21c-3.3-4.9-15.8-2.6-18.6-6.7c2.2,22.2-34.9,40.6-30.8,62.9c-8.7-0.6-10.6-10.5-12.3-15.6
	c13.2-7.4,20.3-7,20.7-18.6c-9.8,7.7-20.8,8.6-22.7,3.6c-1.1,18.2-21.3,40-17.3,54.5c-11.9,0-21.3,2.3-26.2-8.6
	c-26,28.3,38.4,16.4,3.6,41.9c-23.1,3,5.6-23.2-18.7-10l2.9-4.4c-35.1-11.4,2.8,24.6-15.7,37c-13-10.8,4.9-18.2-14.9-18.1
	c-13.7,15.2-5.2,39.1-24.9,47.2l-1.7-7.9c-9.7,8.8-32.1,21.2-41.6,29.8c-2.5-2.1-0.8-2.9,0.6-5c-23.2,9.5-2.6,12.3-25.7,15.4
	l0.6,9.4c11.5-1.5,32.1-6.7,36-21.3c-4,14.6,29.1,4.3,33.1,18.7l-1.6-5.8c41.6-0.9,77.2-23.5,116.2-41.1
	c10.1-28.3,39.9-21.1,54.9-46.6c-8.8-17.2,1.8-6.1,18.5-23.2c-8.7,9.4,8.2,12.1,16.2,9.3c0.5-6.5,4-11.4,7.4-16.1
	c8.1,2.1,42.3-4,42.9-20.6c15.6-4,1.2,6.8,1.2,11.7c11.1,4,4.6-12.9,12.7-10.8c0,0,1.1,1.7,0.5,3.4c17.4-13.9,31.4-18,51.6-29.9
	c-10.6-15.5,13.8-19,17.7-30.3c1.3,6.6,15-2.4,22.6-3.5l1-18.1c2.2-16.4,19.1-3.8,27.8-18.2l-5.3-0.3c5.8-11.3,37.7-20.8,53.4-19.9
	c48.1-70.6-199.1,336.2-135.3,301l466.4-271.3c-2.4,4.3-4.9,8.7-7.4,12.5l-20.3-3.1c3.1,6.7-13.1,8.8-6.9,16.6
	c-18.1,5,3.9-17.6,0.7-24.3c-21.7,7.8-3.8,23.3-30.1,23.8l-0.1-11.4c-6.1,3.6-14,16-17.6,12.9c2.1,2.6,4.1-0.5,7.6-3.1
	c8.9,18.1-17.3,29.9-2.5,44.4l8.6-4.7c-9.4,11.8-9.2,28.9-22.9,30c-11.1,0-3.7-14.5-2.9-21.7c-12,7.2,4.9,24.3-9.7,32.6
	c9.1-2.6,12.3,4.2,11.3,11.3c8.6-4.6,27.1-13.4,18.9-18l-4,0.5c-2.6-4.7,0.4-9.3,0.8-12.9c10.5-7.8,10.7,3.6,15.3,5.2
	c19.6-10.3-11.3-17.1,5.2-28.4l4.5,1.6c4.5-9.8,15.9-19.2,10.2-30.6c15.3,5.2,15-17.5,27.6-17c19.6,21.7-28.6,18.5-27.9,37.7
	c12.1-1.5,3.8,14.5,4.4,22.2l18.9-29.5c4.6,1.6,21.4,7.2,19.7-4.7l-2.5,1c8.5-10.3-1.7-17.6,9.9-21.2c3.1,1,3.2,6.7,3.6,8.8
	c9.8-4,3.3-10,6.5-16l1-0.8c9-3,2.7,12.7,11.5,10.1c2.8-16,17.1-9.2,25.2-16c-6.4-4.7-2.8-14,0.4-22.6l14.6-11.2
	c1.2,2,2.9,3.8,5.3,5l-16.6,11.4c15.5,14.1,25.6-35.4,50.6-25.3c9.2-5.6,5.3-6.3,28-10.3l-14.2-12.3c11.1-2.9,20.1,2.9,22.5,5.2
	c4.2-4.6,9-7.5,14.1-10.3c0.4,3,0.2,6.2-2.1,9.2c12.7,3.3,12.2-1.1,11-6.9c0.6-6.2,6.2-9.5,11.6-13.3l-0.5,8.9
	c2.3-3.6,5.1-8,3.4-10.9c2.2-1.7,3.9-3.5,5.3-5.9c-3.4-1.5-13.6-7.3-24.1-5.4c24.2-8.8,37.1-23.2,63.5-23.7c2.7,4.6-0.3,15,2.3,13.9
	c10.1-4.1,13.5-18.1,7.8-23.8c1.6-1.8,3-3.1,4.2-4c4.5,2.4,9.4,4.8,14,2.5c1.9,0.6,4.4,0.7,7.6-1c-6.3-13.5,14.5-19.6,13.9-27.4
	c-4.7,1.6-9.3,5.1-13.8,9c0.8-12.6-0.1-25.7,10-23.5c-6.9,16.5,22.9,2,6.4,19.1c24.8,4.7-1.2-15.4,17-20.7l13.6-1
	c5.2,9.3-11.5,15-6.9,16.6l5.5-5.7c-1.4,10.9-28.5,24.3-35.9,44.4l33.2-17.1c29.4-37.2,84.8-59.9,102-101.2
	c-0.4,0.4-0.8,0.8-1.1,1.2c0-1.2-1-2.9-3.1-6.4l3.1,1l1.3-10.9c13.3,2.6,27.8-5.7,44-7.8c-11.2,0.1-11.2,0.1-16.8-5.6
	c-5.2-9.4-6.9-13.7,6.1-18.4c4.8,5.8-1.9,10.4,9.7,9.4c-6.4,0.1-6-6.7-2-10.9c8.9-0.5,19.6-7,24.4-1.2c-1.5,3.6-5.3,3.2-7.8,3.7
	c-1.6,3.6,15.4-2.9,11,8l9.4-9.5c10.1,0.4,2.1,10.8,7,12.2c14.6-17.1,13-37.4,26-53.2c1.7,3.7,12,17,9.2,13
	c15.6-5.1,15.3-33.9,28.6-45.3c1,5.5-5.5,7.7-8.4,12.8c47.3-26.8,82.9-52.4,133.5-69.7l-0.1-21.3l17.8,1.2
	c49.6-22.7,75.5-55.5,112.9-89.3c12-10.1,15,3.9,24.1,3.3c29-18.8,23.7-39.1,47.7-61.5c-0.3,6.8,2.6,23.1,14.5,15.3
	c-1-5.4-4.4-12.7,4.6-15.5l-0.3,6.8c11.4,1.3,13.2-9.2,28.9-16.5c23.8-17.9,39.2-44.3,47.1-73.8c22.3-14.2,9.3,16.2,15.7,16.2
	c-18.9,6-8.6,10.1-8.1,17.1c4.9-9.7,12.6-19,24.4-12.3c10.6-8.7,16-11.9,21.7-26.5c-2.9,7.3-11.8,5.6-10.1-2.6
	c11.7-3.3,94.6-81.4,102.8-68.3c50.5-40.7,48.4-23.7,104.1-65.4c4.5-13.1-9.1,2.8-7.4-5.3c7.3-18.2,14.2-3.8,20.2-18.3l0.7,9.9
	c17.2-11,24.9-36,35.9-53.7c3.3,9.5,17.9-3.4,8.3,10.8c6.8-7,42.8,19.7,43.4,8.4l-33.6-24.8c-2-3.4,10.4-9.5,7.7-10.7
	c11.7,1.2,25.8,2.4,30.4-1.1c8.6,6.2-4.5,13.1-11.2,17.7c9.5,13.9,28.5-7.5,28.7,11.4c12.1-12.3-7.3-5.3-3-16.3l14.3-6l-12.8,2.4
	c7-11.3,2.4-23.9,21.7-26.4l3.7-23.1c9.7,9.4,11.7-5.5,20.8-8.4l0.7,10c9.3-7.3,14.4-8.2,23.4-8.8c1.9,13.1-10.4,4.1-5.8,14.5
	l12.9-4.6c-4.8-5.9-1.8-15.4-12.1-13.5c1-18.1-0.9-31.2,24.1-48.1c19.1,2-4.7,17.6,7.7,24.2c28.7-14.3,10.1-48.9,25.9-58.5
	c22.1-9.7,13.6-18.2,32.3-32.9c-0.6,11.3,19.2-2.4,27.9,1.6l-1.9,12.7c3.5-5.4,9.5-7.3,12.7-3.9c-2.6-9.2,20.2-25.7,29-38.5
	l-8.6-6.2c8.2-10.2,18.5-25.7,31-31.6c14.3-14.5,5-18.8,10.6-36.6c12.6,2.1,18.6,11.1,23.1,21.4c-7.5-0.9-13.1,6.9-22.2,9.7
	c-15.1,21.9-17.8,50.3-41.4,61.5c6.3,25.7,12.1-12.4,27.4-12.9c0.6,1.3,0.2,2.3-0.4,3c0.9-0.6,1.8-1.1,2.9-1.3
	c-5.5,7.7-15,19.6-9.2,30.8c10.8-11-6.3-25.7,15.5-28.7c7-13.6,28.3-5.3,36.2-9c1.9-12.7-10-28.4,10.9-39l0.5,16.7
	c21.2-15.2-2.6-23,17.2-36.8c-7.9,3.7-1.8-15.4-15-6.2c1.9-10.4,15.1-21.9,28.2-26.5c1.4-3.7-2.3-4.1-4.7-8.1
	c-17.7,1.1-12.7,20.8-30.8,17.1l1,17.6c-14.2,3.8-22.7-4.8-19.7-14.2c-2.7,2.7-4.1,6.3-8,5.9c-15.7-16.1,18-3.4,10-20.9l-6.7,6.9
	c-12.3-8.9,10.1-23.1,20.5-29.5c15.4-2.9,27.2-8.5,34.5-0.8l-12.3,14.6c13,0.8,16.2-18,25.2-24c1.5,0.7,3,0.9,4.5,0.8
	c-1-0.4-1.9-0.9-2.5-1.8c2.2-0.9,4.6-1.1,7.6-0.2c8-5.2,15.3-18.5,24.5-21.1l-6.7-6.7l2.3,4.8c-7.2,4.9-20.4,7.3-19.4-2
	c11.8-16.7,26.2-5,35-1.3c5.3,13.9-15.6,11.2-20.6,21c13.7,7.5,17.1-10.7,39.3-15.3c3.1,17-19.1,13.7-13.8,27.6
	c14.8-7.6,11.5-18.8,27.7-25.8c2.7,7-10.4,17.4-3.8,24l11.7-3c-21.3,16.8,15.9,12.4,1.2,27.8c12.1-0.9,3.4-18.2,21-18.9
	c-7.4-3-24.3-5.9-17.1-18.8l15.2-5.5c9.9,2.1-2.6,22.5,9.3,21.5l9.7-13.7c-3.3-3.3-11-0.6-11.1-8.4c10.6-1.6,1.2-23.1,5.7-34.9
	c7.2-4.9,13.4-8.2,19.3-5.7c9.2-23.8,31.9-39.8,40.1-62c-5.3,15.5,10.3,12.1,21.3,12.7c-11.6,10.9-2.6,22.4,4,29.1
	c6.8-6.9,2.6-22.5-4.3-23.4c16.7-4.9,2.8-14.5,20.3-15.2c10.6-1.5,5.2,14,11.2,16.4c14.5-9.8-7.2-16.7,10.2-25.2
	c0.4,2.1-0.6,3.6,2.2,4.8c10.2-3.6,14.8-15.5,12.1-22.5c20.5,8.5,23.5-19.8,33.2-4.1c16.9-18.5-9.2-5.7-9.4-13.6
	c3.1-12.4,22.4-18.2,28.9-19.4c-4.7,3.9-6,11.2-12.6,12.4l12.2,6.9c30.5-11.1-2.3-34.3,28.6-43.1c-8.2,14.3,1.9,10.6,1.4,22.2
	c1.8-5.3,22.8-16.2,5.3-15.5c9.8-5.8,17.4-8.6,25-11.3c4.9-9.7,11.5-18.9,10.9-28.8c13.4-8.2,28.4-7.9,37.9-8
	c20.8-26.7,55.1-32.3,76.9-60.5l-2.5,0.9c23.2-14-20.2-6.3,2.6-22.5c6.7,14.5,20.1-1.6,32.6-0.4c32.7-14,40.6-44,72.7-54.4
	c1.8,2.7,2.6,7-2,10.9c22.6-10.4,36.2-24.3,54.3-36.5l0.5,2c36-10.7,52-41.3,78.7-65.6c-1.1,3.3,1.9,8.4,1.4,11.4
	c16.9-8,41.7-23.4,43.1-42.1c27-0.6,8.6-12.1,40.3-16.8c3,1.2-0.6,3.6-1.7,5.2c14.2-4,21-11,33.3-17.7
	c18.4-25.8,11.9-46.1,44.2-62.3c14.7,15.7-14.3,17-4.3,30.8c3.3-7.1,5.6-14.1,16.6-16c0.5,10,2.2,4.9,3.9,13.4
	c9.5,0,10.4-35.2,11.5-33.5c-2.2-3.5-5.7-3.7-11,0.9c-1.5-15.2,27.4-21.4,37.9-35.6c-4.7,3-21.5,10.1-22.4-1.7
	c21.4-10.1,14.7-30.7,22.4-46.8c23.1-4.9-1.5,23.3,11.1,32.6c6.3,2.2,20.5,6.5,17,16.3c17.4-8.8,20.5-26.9,32.1-39.5l2.2,3.6
	c18-15.4,27-44.8,48.3-49.9l-11.5,2.5c1.6-4.3,12-10.4,11.9-21c3.2,5,15.5,2.8,18.3,7c-1.7-22.5,35.3-40.6,31.8-63.3
	c8.6,0.7,10.2,10.8,11.8,16c-13.3,7.3-20.2,6.9-20.9,18.6c9.9-7.6,20.8-8.5,22.5-3.3c1.4-18.4,21.8-40.2,18.2-54.9
	c11.7,0.1,21-2,25.8,9c26.3-28.2-37.7-17-2.7-42.4c22.9-2.8-5.9,23.3,18.3,10.3l-2.9,4.4c34.5,12-2.2-24.9,16.3-37.3
	c12.5,11.1-5.2,18.3,14.5,18.4c13.8-15.2,5.9-39.5,25.5-47.4l1.8,7.4c9.7-8.7,32.1-21,41.8-29.7c2.5,2.2,0.7,2.9-0.8,5.1
	C6029.8-514.5,6009.5-517.6,6032.3-520.3z M5014.4-241.1l-0.4-3.9C5014.3-243.7,5014.5-242.4,5014.4-241.1
	C5014.5-241.1,5014.5-241.1,5014.4-241.1z M3206.6,1553.7l0.3,3.9C3206.7,1556.3,3206.6,1555,3206.6,1553.7z"/>
</svg>
