<?xml version="1.0" encoding="utf-8"?>
<!-- Generator: Adobe Illustrator 25.3.1, SVG Export Plug-In . SVG Version: 6.00 Build 0)  -->
<svg version="1.1" id="Icons" xmlns="http://www.w3.org/2000/svg" xmlns:xlink="http://www.w3.org/1999/xlink" x="0px" y="0px"
	 viewBox="0 0 24 24" style="enable-background:new 0 0 24 24;" xml:space="preserve">
<path id="user_settings" d="M0,13.1C0,7,4.9,2.2,10.9,2.2c-0.7,1.2-1.1,2.6-1.1,4c0,0.8,0.1,1.6,0.4,2.4C9.6,8.1,9,7.5,8.4,6.9
	C7.2,9.7,5,11.9,2.1,13c0,0.1,0,0.1,0,0.2c0,4.8,3.9,8.7,8.7,8.7c4.4,0,8.1-3.3,8.6-7.6c0.8-0.1,1.5-0.4,2.2-0.8
	c-0.2,5.9-5,10.6-10.9,10.6C4.9,24,0,19.1,0,13.1z M12.8,14.2c0-0.8,0.6-1.4,1.4-1.4c0.8,0,1.4,0.6,1.4,1.4c0,0.8-0.6,1.4-1.4,1.4
	C13.4,15.5,12.8,14.9,12.8,14.2z M6.3,14.2c0-0.8,0.6-1.4,1.4-1.4s1.4,0.6,1.4,1.4l0,0c0,0.8-0.6,1.4-1.4,1.4l0,0
	C6.9,15.5,6.3,14.9,6.3,14.2L6.3,14.2z M16.9,12.3c-0.3,0-0.6-0.2-0.6-0.5l-0.2-1.4c-0.3-0.1-0.5-0.3-0.7-0.4L14,10.5
	c-0.3,0.1-0.6,0-0.8-0.3l-1.2-2c0-0.2,0-0.6,0.3-0.7l1.1-0.9c0-0.1,0-0.3,0-0.4s0-0.3,0-0.4l-1.1-0.9C12,4.7,12,4.4,12.1,4.1l1.2-2
	c0.2-0.3,0.5-0.4,0.8-0.3l1.3,0.6c0.2-0.2,0.5-0.3,0.7-0.4l0.2-1.4c0-0.3,0.3-0.5,0.6-0.5h2.3c0.3,0,0.6,0.2,0.6,0.5L20,2
	c0.3,0.1,0.5,0.3,0.7,0.4L22,1.8c0.3-0.1,0.6,0,0.8,0.3l1.2,2c0.2,0.3,0.1,0.6-0.2,0.8l-1.1,0.9c0,0.1,0,0.3,0,0.4s0,0.3,0,0.4
	l1.1,0.9C24,7.6,24.1,8,23.9,8.3l-1.1,2c-0.2,0.3-0.5,0.4-0.8,0.3L20.7,10c-0.2,0.2-0.5,0.3-0.7,0.4l-0.2,1.4c0,0.3-0.3,0.5-0.6,0.5
	C19.2,12.3,16.9,12.3,16.9,12.3z M15.9,6.2c0,1.2,1,2.2,2.2,2.2s2.2-1,2.2-2.2C20.2,5,19.2,4,18,4S15.9,5,15.9,6.2L15.9,6.2z"/>
</svg>
