<?xml version="1.0" encoding="UTF-8" standalone="no"?>
<svg
   width="206"
   height="41.000301"
   viewBox="0 0 206 41.000301"
   fill="none"
   version="1.1"
   id="svg18"
   xmlns="http://www.w3.org/2000/svg"
   xmlns:svg="http://www.w3.org/2000/svg">
  <defs
     id="defs22" />
  <path
     d="m 20.3785,30.695 c -5.6182,0 -10.1893,-4.5667 -10.1893,-10.2247 0,-5.6378 4.551,-10.2247 10.1893,-10.2247 5.6383,0 10.1892,4.5667 10.1892,10.2247 -0.0201,5.658 -4.571,10.2247 -10.1892,10.2247 z m 0,-30.6539844 C 9.12199,0.0410156 0,9.19479 0,20.4703 v 20.1868 c 0,0.1414 0.120821,0.2627 0.261779,0.2627 0.080547,0 0.140958,-0.0404 0.201369,-0.0809 C 5.79941,35.6255 10.6121,38.4343 10.6121,38.4343 13.5118,40.0307 16.8344,40.94 20.3785,40.94 31.635,40.94 40.757,31.7862 40.757,20.4905 40.7369,9.19479 31.6149,0.0410156 20.3785,0.0410156 Z"
     fill="#212121"
     id="path2" />
  <path
     d="m 55.2152,19.7028 c 0,-0.0404 0,-0.0607 0,-0.1011 0.0604,-4.3849 3.4635,-8.305 7.8735,-8.305 4.7523,0 8.1755,4.1626 8.1755,8.5071 0,4.5466 -3.4232,8.3657 -7.9943,8.3657 -4.6315,0 -8.0547,-3.8191 -8.0547,-8.4667 z m 20.4993,0.0808 c 0,-0.0404 0,-0.0808 0,-0.1212 0,-1.7378 -0.3625,-3.415 -1.0069,-4.9103 C 72.996,10.5692 69.2707,7.6796 64.5788,7.27546 64.1559,7.23505 63.7129,7.21484 63.29,7.21484 c -3.2219,0 -6.1618,1.23263 -8.3568,3.25336 -2.4768,2.2632 -4.0475,5.5367 -4.0475,9.1537 v 21.3184 c 2.4567,0 4.4503,-2.0005 4.4503,-4.4657 v -7.2341 -1.0104 h 0.0805 c 1.0472,1.758 2.8595,2.9907 5.0544,3.5969 1.027,0.2829 2.1345,0.4445 3.2823,0.4445 6.8063,0 11.9814,-5.4963 11.9814,-12.1848 -0.0201,-0.1212 -0.0201,-0.2223 -0.0201,-0.3031 z"
     fill="#212121"
     id="path4" />
  <path
     d="M 80.2051,32.2706 V 4.46575 C 80.2051,2.00049 82.1986,0 84.6553,0 v 27.8048 c 0,2.4653 -1.9935,4.4658 -4.4502,4.4658 z"
     fill="#212121"
     id="path6" />
  <path
     d="m 109.867,19.7823 c 0,4.5062 -3.645,8.3657 -8.256,8.3657 -4.4506,0 -8.0752,-3.8999 -8.0752,-8.3657 0,-4.688 3.6448,-8.5071 8.0752,-8.5071 4.913,0.0202 8.256,3.8797 8.256,8.5071 z m 4.349,-0.3031 c -0.161,-6.8097 -5.719,-12.28584 -12.545,-12.28584 -0.362,0 -0.705,0.02021 -1.067,0.04041 -6.5446,0.42435 -11.5386,5.61753 -11.5386,12.89203 0,6.8704 5.6384,12.104 12.5656,12.104 3.383,0 6.363,-1.4549 8.034,-4.2839 h 0.081 c 0,2.041 1.651,3.6979 3.685,3.6979 h 0.765 v -4.8901 -2.344 z"
     fill="#212121"
     id="path8" />
  <path
     d="m 121.143,40.7976 3.806,-9.76 -9.464,-23.29864 c 2.879,0 5.457,1.77821 6.484,4.48594 l 5.276,13.9631 5.417,-13.9833 c 1.047,-2.70773 3.644,-4.48595 6.524,-4.48595 L 127.205,36.837 c -1.088,2.6067 -3.263,3.9606 -6.062,3.9606 z"
     fill="#212121"
     id="path10" />
  <path
     d="M 143.092,32.2706 V 4.46575 C 143.092,2.00049 145.086,0 147.543,0 v 27.8048 c 0,2.4653 -1.994,4.4658 -4.451,4.4658 z"
     fill="#212121"
     id="path12" />
  <path
     d="m 164.619,11.2967 c -4.45,0 -8.297,3.7787 -8.297,8.4061 0,4.5061 3.726,8.4465 8.216,8.4465 4.672,0 8.478,-3.6979 8.478,-8.5072 -0.02,-4.6071 -3.746,-8.3454 -8.397,-8.3454 z m -0.141,20.9344 c -6.665,0 -12.626,-5.6984 -12.626,-12.4071 0,-7.2543 5.679,-12.60916 12.968,-12.60916 6.545,0 12.707,5.15276 12.626,12.71016 -0.081,6.345 -5.397,12.3061 -12.968,12.3061 z"
     fill="#212121"
     id="path14" />
  <path
     d="m 185.078,19.7425 c 0,-4.6274 3.725,-8.4465 8.135,-8.4465 4.108,0 8.337,2.8694 8.337,8.4465 0,3.8595 -3.122,8.4061 -8.297,8.4061 -4.41,0.0202 -8.175,-3.8393 -8.175,-8.4061 z m 16.472,-9.4367 c -1.269,-1.09114 -2.759,-1.91963 -4.39,-2.44501 -1.229,-0.40414 -2.537,-0.62641 -3.826,-0.62641 -7.149,0 -12.707,5.53672 -12.707,12.71022 0,6.446 5.86,12.3262 12.667,12.3262 3.383,0 6.322,-1.2528 8.175,-3.7382 h 0.081 c 0,5.4558 -2.86,8.4061 -8.297,8.4061 -1.047,0 -2.013,-0.1415 -2.899,-0.4446 -1.913,-0.6264 -3.907,0.7073 -3.907,2.728 1.933,1.1518 4.209,1.7782 6.766,1.7782 8.035,0 12.787,-4.7689 12.787,-12.488 V 19.985 c 0,-3.8798 -1.732,-7.3554 -4.45,-9.6792 z"
     fill="#212121"
     id="path16" />
</svg>
