<svg xmlns="http://www.w3.org/2000/svg" xmlns:xlink="http://www.w3.org/1999/xlink" width="1920" height="1080" viewBox="0 0 1920 1080">
  <defs>
    <linearGradient id="linear-gradient" x1="0.225" y1="-0.192" x2="-0.114" y2="1.357" gradientUnits="objectBoundingBox">
      <stop offset="0" stop-color="#ffc17c"/>
      <stop offset="0.124" stop-color="#ffbe7d"/>
      <stop offset="0.271" stop-color="#ff798d"/>
      <stop offset="0.449" stop-color="#ce16e4"/>
      <stop offset="0.766" stop-color="#4c57ff"/>
      <stop offset="1" stop-color="#00f3d3"/>
    </linearGradient>
    <linearGradient id="linear-gradient-2" x1="0.353" y1="1.275" x2="0.404" y2="0.432" gradientUnits="objectBoundingBox">
      <stop offset="0" stop-color="#ffc17c"/>
      <stop offset="0.055" stop-color="#ffbe7d"/>
      <stop offset="0.104" stop-color="#ffb37f"/>
      <stop offset="0.149" stop-color="#ffa184"/>
      <stop offset="0.194" stop-color="#ff888a"/>
      <stop offset="0.214" stop-color="#ff798d"/>
      <stop offset="0.459" stop-color="#ce16e4"/>
      <stop offset="0.68" stop-color="#4c57ff"/>
      <stop offset="1" stop-color="#00f3d3"/>
    </linearGradient>
    <linearGradient id="linear-gradient-3" x1="0.812" y1="0.191" x2="0.163" y2="0.763" gradientUnits="objectBoundingBox">
      <stop offset="0" stop-color="#ffc17c"/>
      <stop offset="0.055" stop-color="#ffbd7c"/>
      <stop offset="0.135" stop-color="#ffb27f"/>
      <stop offset="0.228" stop-color="#ffa083"/>
      <stop offset="0.373" stop-color="#e860b0"/>
      <stop offset="0.468" stop-color="#ce16e4"/>
      <stop offset="0.725" stop-color="#4c57ff"/>
      <stop offset="1" stop-color="#00f3d3"/>
    </linearGradient>
    <clipPath id="clip-Desktop_bg">
      <rect width="1920" height="1080"/>
    </clipPath>
  </defs>
  <g id="Desktop_bg" data-name="Desktop bg" clip-path="url(#clip-Desktop_bg)">
    <rect width="1920" height="1080" fill="#fff"/>
    <g id="Component_2_1" data-name="Component 2 – 1" transform="translate(-936.092 -1537.144)">
      <g id="Group_15" data-name="Group 15" transform="translate(1121.692 1452.544)">
        <path id="Path_179" data-name="Path 179" d="M1398.9,1122.5l-140.047,591.8L-405.4,1354.4l139.942-591.8Z" transform="translate(0)" fill="url(#linear-gradient)"/>
      </g>
      <g id="Group_6" data-name="Group 6" transform="translate(935.691 1506.744)">
        <path id="Path_101" data-name="Path 101" d="M124-336.7l296.2-753.9L2447.6-294,2151.4,460Z" transform="translate(-101.846 350.262) rotate(-9)" fill="url(#linear-gradient-2)"/>
      </g>
      <path id="Path_517" data-name="Path 517" d="M2171.695-45.561l-9.341-16.395c-15.25-3.164-39.994-4.494-32.616,18.388-7.379-22.882-45.593-21.78-64.314-48.326l7.526,10.654c-59.006-19.177-89.836,1.712-130.034,12.341,10.925,43.3-38.345,16.259-36.977,52.283,28.214,33.855,2.967,9.478-5.687,30.488,4.01-11.7-22.6-24.666-31.749-23.935,5.085,10.934,4.471,17.379,3.748,23.735-13.589-7.7-57.238-14.219-43.1,13.749-18.968-1.032-7.8-12.1-12.248-20.534-19.539-12.337,5.046,19.827-8.6,12.078,0,0-3.208-3.522-3.809-6.024-12.593,15-28.932,15.053-47.225,25.434,29.17,31.79-2.736,25.571,1.71,42.875-7.732-11.954-19.477-3.425-29.3-5.156l14.834,30.4c11.53,26.912-24.125-3.069-23.647,17.173l7.834,3.128c1.859,16.343-35.354,16.79-58.775,7.356-7.359,125.941-136.464,68.676-190.645,154.572,4.582,13.762,18.708,12.176,28.669,29.391-.217.632-.431,1.226-.643,1.789,2.714,1.778,2.521,3.773,7.8,7.206.551-6.135-1.583-16.149,4.3-18.8,1.712,14.038,22.383,38.331,5.445,38.105-2.44-3.756-2.313-5.8-2.03-9.948-8.739,5.09,1.653,16.26-9.506,15.453-11.37,1.3-2.878,6.728-13.442-2.279l-31.91,7.5c16.885,36.822-20.813,23.19-26.5,23.866-17.914-22.385,6.965-19.256-7.893-44l-21.839-7.717,15.635,16.618-14.589,5.661-2.516-3.68c5.07,7.522,10.061,15.054,1.91,12.04-2.475-1.676-7.3-4.769-7.805-6.858l1.533,15.687c-12.4-20.969-11.345,1.318-29.444-19.05-28.742,11.893-11.132,44.874-35.875,50.084L1031.295,122.7c-1.39-4.956-3.539-10.457-8.511-21.177l-5.421-3.207,7.461,18.587L991.666,87.2c-.382-2.479-.789-4.833-1.281-6.975,26.988,11.639,67.2,5.291,91.607,36.77,16.054-11.918-21.643-12.705-24.413-29.342l2.7-.521c-8.068,1.63-21.436-4.065-34.948-12.011-16.2-13.887-8.378-30.687-.281-30.193l19,24.011c5.232-20.445-29.888-49.761-43.558-79.194,18.746-1.889,32.471,23.391,53.954,40.285l5.318-16.172L1076,29.88c2.643-11.306-10.882-27.889,5.119-31.365,8.311,22.126,29.552.26,40.5,30.317,10.776-.054-19.036-32.575,5.312-14.01-13.6-20.852-13.429-3.651-21.572-6.284-27.046-22.324-.175-23.677-.23-36.569,13.407,12.15,10.868,19.295,27,20.1-8.195-11.188-10.959-23.531,5.241-16.125-16.209-16,5.307-11.912,10.573-15.284-8,1.76-26.818-2.891-37.692-19.923-2.75-10.212-2.774-16.7,7.949-23.218l-13.455-1.509c-16.339-31.059,29.523,4.479,32.12-13.3,5.471,13.969,2.79,16.686,10.914,32.176-2.776-12.35-5.526-33.285-5.6-48.336l32.233,14.661c-10.8-12.8,10.7-8.725-5.512-24.722,21.539-.076,10.918,27.923,21.747,40.743,24.1-2.988-16.3-37.527,21.32-26.074l10.862,19.249c5.347-3.253,5.258-20.49,13.375-13.552-5.442-5.37-5.415-1.047-8.087,1.66-29.829-34.7-2.931-42.409-38.049-73.882L1182-171.528c2.558-15.57-13.712-44.514,5.044-39.918,16.136,5.227,18.949,26.2,24.457,37.975,10.668-6.511-29.854-43.3-16.458-50.43-10.745.095-21.643-12.705-27.054-24.46-8.059,3.817-26.747,9.945-10.518,21.643l5.377,1.045c8.128,9.093,8.137,15.527,10.891,21.436-8.042,8.15-18.888-11.148-26.989-15.917-18.7,8.308,32.4,34.155,19.084,45.514l-8.089-4.783c2.766,14.525-5.153,24.906,13.8,46.833-27.032-15.954-5.267,22.565-24.046,15.787-48.659-45.783,24.035-17.941,5.017-50.634-16.166-3.111-19.032-26.145-27.171-39.556l.286,40.861c-8.106-4.764-37.765-22.155-24.135-1.33l2.685-.536c-2.647,13.475,19.01,30.517,5.56,31.166-5.416-3.191-10.861-12.837-13.547-16.559-10.769,2.213,5.46,16.076,5.51,24.7-10.684,2.3-16.279-22.491-26.925-22.275,10.931,25.674-16.108,7.643-21.438,15.28,29.736,23.857,11.191,62.312,48.829,71.618l2.949,33.863c-18.865-8.966-27.145-48.09-54.162-66.183l13.3-11.518c-35.605-31.06-3.858,47.808-49.513,19.1-8.028,5.234-1.708,8.245-30.882,4.379l32.133,27.439c-13.344-.242-31.783-14.251-37.561-19.361C976.57-70.6,972.4-67.895,967.6-65.6c-3.5-5.3-6.217-10.617-5.5-14.495C940.6-91.574,945.413-84,952.573-73.539c4.929,10.119-.071,13.171-4.387,17l-7.5-14.691c.038,4.977.239,11.237,5.371,16.851a9.27,9.27,0,0,0-2.153,7.467C950.2-42.868,970.371-28.3,983.93-26.506,957.15-22.97,951.895-4.667,914.287-16.087c-8.183-9.037-13.614-25.12-16.309-24.555-10.769,2.213-2.593,24.215,10.993,36.456A12.055,12.055,0,0,1,906.677.646C898-5.466,888.521-11.808,884.16-10.015c-3.418-1.973-6.946-3.141-10.113-1.875,21.656,25.67-2.568,26.375,5.59,39.765,5.358-.516,8.716-4.31,11.514-8.767,10.7,20.894,24.245,43.5,7.471,34.93-5.536-24.646-34.981-14.063-27.127-35.221-40.335-19.481,16.314,26.7-5.14,27.037l-18.839-4.683c-16.257-18.162,2.588-19.949-5.534-24.729l-2.646,7.041C831.169,5.772,857.916-4.245,849.663-34.8L817.537-21.516c-7.7,49.075-66.743,61.508-52.841,123.329a6.022,6.022,0,0,0,.544-1.507c1.262,2.083,4.292,5.477,10.532,12.314l-5.413-3.174,8.295,17.7c-21.609-10.5-47.878-24.417-56.448-7.4,14.961,16.224,18.151,6.022,31.654,18.276,16.264,18.206,20.741,25.362,6.3,27.187-12.365-12.029-7.108-16.761-22.8-20.388,9.1,2.855,4.933,11.5,2.988,16.594-12.489-3.272-11.625,5.357-24.086-6.746-1.248-5.42,4.669-2.959,7.92-2.588-1.2-5.375-19.611-2.329-23.5-18.6l-4.644,11.763c-15.069-5.33-13.039-19.209-21.552-23.812-5.212,22.045,16.143,57.043,12.212,77.771-5.961-7.039-33.319-34.3-25.477-26.3-17.734,1.427,9.576,50.054,1.031,63.163-6.552-9.632-24.024,30.5-24.711,23.3-28.5-12.869-46.146,8.9-103.227,14.381L554.5,309.739,527.659,299.4c-50.549,15.165-57.287,58.442-79.752,98.121-7.866,11.506-25.457-13.562-37.939-16.812-24.329,18.259,2.363,54.926-11.435,81.594-5.886-11.363-25.465-40.126-35.3-32.493,6.533,9.682,18.285,23.389,7.78,23.975l-5.882-11.369c-17.662-7.425-6.993,34.261-22.762,39.425-16.208,10.134-28.806-2.438-12.706,43.563-19.049,13.574-18.611,2.338-27.806-.589,21.765-1.353,6.709-33.714-4.324-25.09,1.948,14.006-.462,26.234-23.743,9.48-7.186,9.738-11.9,12.7-6.646,34.514,6.518,10.221,11.818-3.891,17.024,9.1-13.9.048-60.685,93.207-84.883,67.383-34.927,45.248-47.878,17.394-89.417,61.791,5.776,20.1,10.492-.574,15.678,12.456,6.448,27.3-17.044-.279-11.952,21.506L103.3,698.891c-14.51,10.606-12.791,56.232-12.791,56.232-.218-10.99-19.445,6.391-15.81,19.119.288,1.008-.228,10.7,4.913,14.119C61.6,780.9,40.13,772.37,36.624,776.044c-18.23-14.512-7.954,31.11-4.056,47.539L8.05,801.129c-18.9,4.578.465,24.852-8.938,39.889l-4.09,16.789c-6.569,8.035-17.475,5.157-29.98,1.9-22.6,14.719,14.556,65.5-9.693,48.528-28.189,10.692,18.464,19.2,4.659,28.09-22.937,6.064,4.065,10.478-9.125,26.572-9.709-18.828-4-.966-20.319-11.731L-84.475,960.3c.022,7.481-6.669-.35-27.032-1.1-11.033,9.577-15.145,16.175-15.872,33.793L-106.534,1024c-2.326,13.393-5.329,18.213-17.9,22.428-7.044,17.78-23.5-17.257-15.012,10.178-20.21-9.416,13.168,40.907-3.157,21.292-12.866-12.905-10.1-41.22.458-41.7,1.376-29.91-15.3-62.623,8.333-70.487-33.288-46.385-5.864,15.255-27.536,9.023-2.171-2.592-2.4-3.912-2.213-4.887a3.448,3.448,0,0,1-3.067.772c.68-10.516,3.421-26.031-15.526-47.761-5.236,13.543,33.211,46.334,4.4,41.145,2.579,19.779-35.974-4.235-43.962-1.7,9.249,20.6,41.141,52.564,20.817,60.744l-16.257-28.412c-16.442,15.724,25.379,40.041,9.575,54.031,7.869-2.638,17.011,26.843,27.5,17.421,7.12,16.748-1.376,29.909-15.9,31.643,1.335,5.5-21.531,12.748-14.3,20.653,24.49,6.377,20.161-.613,13.109,13.109s17.89,40.906-6.377,20.209c-8.536-12.673-18.714,16.7-20.593,2.577-26.86-19.119,3.808,8.8-23.992,6.295-20.486-30.149,14.833-14.266-5.89-40.2-14.389,5.881,1.053,26.37-15.973,30.694-10.438-13-1.25-24.519-17.067-38.778l-14.044-.3c15.174-18.326-34.549-28.264-27.771-47.547-16.561-4.09,12.191,29.141-12.635,22.067,13.5,8.469,40.644,21.332,42.249,39.591l-16.917,2.169c-16.23-8.131-17.229-36.67-33.763-40.709l-1.207,18.551c7.905,7.133,16.454,6.113,23.921,19.419-13.878-2.29,19.918,38.366,24.437,56.261-5.953,4.823-11.776,7.572-22.527.745,8.962,35.8-8.911,52.344-.011,85.977-6.752-23.617-26.279-25.266-42.8-31.431,6.558-13.039-17.174-36.605-33.112-50.983-3.387,8.537,17.235,36.665,28.209,41.494-19.665.434,9.66,23.227-15.091,16.229-13.884-2.4-20.664-26.041-31.566-32.906-11.8,9.792,26,31.49,8.756,37.755-2.533-3.776-2.445-5.808-7.775-9.229-11.3,1.422-6.864,19.319,3.57,32.318-37.691-23.831-15.5,22.393-44.312-8.665-7.1,23.379,18.744,13.972,26.267,27.393,7.151,19.5-15.329,20.325-23.7,19.244,3.081-4.452-1.72-16.079,6.576-15.122l-24.146-17.418c-33.838,4.423,35.416,58.93-1.01,59.5-1.518-20.312-12.736-18.821-22.843-38.131,2.406,8.033-17.779,16.717,6.9,23.76-8.63,5.212-17.138,6.331-25.687,7.352,1.958,14.116,1.149,26.534,11.3,43.641-11.768,7.594-33.747.122-47.464-4.243-5.054,35.408-49.533,28.806-54.706,66.248l2.838-.339c-20.4,12.895,35.14,20.072,17.242,36.708-23.38-27.659-27.587-6.682-46.725-14.475-34.2,8.324-17.6,55.371-54.231,57.973-5.214-5.46-10.363-13.05-7.264-17.489-22.867,7.02-29.658,24.172-44.362,36.342l-2.567-3.691c-42.154,1.151-36.564,45.508-52.545,74.015-1.437-5.008-10.639-15.026-12.668-19.806-16.937,5.583-38.5,19.962-22.933,50.988-38.5-11.506-1.087,16.466-42.6,9.566-5.489-3.459-2.536-5.887-2.376-7.993-16.839.127-20.151,8.739-31.64,14.339-2.368,35.042,26.032,72.316-5.609,84.541-36-33.308,4.7-22.066-22.575-49.942,1.855,10.485,5.219,21.313-9.043,19.2-10.043-17.09-7.815-9.268-18.069-24.342-13.725-4.406,17.922,54.577,14.706,51.22,6.5,6.91,11.721,8.925,15.039,3.62,16.375,26.3-19.568,23.361-21.445,42.552,4.019-2.873,21.576-7.042,34.037,13.317-21.491,7.026,7.339,44.849,11.36,68.555-28.779-2.4-19.724-38.643-46.613-60.289-11.088-6.586-35.837-20.565-39.918-35.51-16.909,6.684-4.392,35.865-9.5,51.668l-6.594-7.081c-11.706,17.56,2.972,63.108-23.144,61.773l14.383,1.233c1.738,6.5-7.605,11.956,2.434,29.955-9.388-10-25.067-11.937-33.013-20.4,23.52,38.731-13.051,52.081,13.359,92.056-13.095-5.146-24.9-23.017-32.09-32.476,12.358-6.18,22.772-2.132,12.914-21.514-7.137,8.241-22.165,4.608-29.382-4.863,15.205,30.315,6.02,57.666,25.078,84.167-17.062-5.667-28.581-6.38-45.7-27.183-11.585,35.462,70.428,46.328,43.67,72.879-30.55-6.017-13.252-36.644-36.209-26l.063-6.085c-61.144-36.293,26.617,43.137,11.362,55.322-28.595-24.58-9.622-28.469-38.175-37.859-5.7,19.3,28.472,63.942,7.443,68.115l-9.413-13.2c-5.849,10.185-26.813,20.484-32.624,30.622-5.647-4.82-3.74-5.252-3.675-8.218-24.823,4.9,7.526,19.71-22.981,13.651l9.517,16.293c15.283,3,40.041,4.061,32.415-18.739,7.627,22.8,45.827,21.285,64.834,47.626l-7.641-10.571c59.21,18.537,89.812-2.685,129.894-13.748-11.393-43.179,38.166-16.673,36.409-52.68-28.579-33.547-3.069-9.445,5.355-30.548-3.882,11.747,22.871,24.42,32.006,23.59-5.2-10.878-4.659-17.33-4-23.693,13.67,7.554,57.388,13.6,42.945-14.215,18.977.827,7.934,12.016,12.468,20.4,19.672,12.125-5.259-19.772,8.474-12.171,0,0,3.246,3.488,3.874,5.982,12.429-15.133,28.766-15.365,46.947-25.943-29.513-31.474,2.459-25.6-2.175-42.855,7.861,11.871,19.513,3.215,29.357,4.839l-15.162-30.237c-11.821-26.786,24.157,2.807,23.459-17.428l-7.867-3.044c-2.036-16.321,35.17-17.172,58.693-7.991,4.6-96.634,81.95-86.314,141.783-115.245l363.1,325.3c.516,6.186.817,12.278.785,17.622l-32.073-15.009c10.664,12.911-10.791,8.609,5.244,24.781-21.538-.157-10.615-28.04-21.3-40.977-24.135,2.728,15.9,37.7-21.6,25.843l-10.654-19.366c-5.381,3.2-5.478,20.432-13.52,13.407,5.384,5.429,5.4,1.1,8.1-1.573,29.452,35.018,2.472,42.438,37.248,74.289l8.117-3.746c-2.727,15.542,13.229,44.66-5.476,39.862-16.079-5.4-18.664-26.4-24.045-38.238-10.738,6.4,29.384,43.621,15.912,50.606,10.744.022,21.5,12.939,26.787,24.751,8.1-3.729,26.853-9.656,10.752-21.529l-5.366-1.1c-8.028-9.18-7.968-15.615-10.657-21.553,8.13-8.062,18.765,11.351,26.815,16.208,18.791-8.106-32.029-34.5-18.591-45.718l8.037,4.869c-2.609-14.553,5.422-24.848-13.29-46.979,26.857,16.246,5.511-22.506,24.214-15.526,48.161,46.307-24.227,17.68-5.564,50.577,16.131,3.286,18.748,26.349,26.74,39.847l.157-40.861c8.054,4.852,37.523,22.561,24.119,1.592l-2.69.507c2.792-13.446-18.679-30.721-5.224-31.225,5.381,3.25,10.722,12.954,13.367,16.705,10.495-2.039-4.41-15.363-5.2-24.031l.745-.831c10.19-.857,15.515,22.763,25.9,22.665-10.653-25.79,16.19-7.469,21.6-15.046-13.561-11.124-16.869-25.225-20.144-38.157l10.791-12.045a66.623,66.623,0,0,0,12.163,10.932L-104.28,2158.8c35.267,31.443,4.375-47.764,49.717-18.562,8.083-5.147,1.8-8.227,30.927-4.045l-31.834-27.785c13.34.387,31.626,14.594,37.349,19.767,1.926-5.724,6.124-8.383,10.954-10.623,3.442,5.342,6.1,10.684,5.341,14.554,21.37,11.709,16.64,4.088,9.594-6.456-4.818-10.171.213-13.17,4.571-16.953l7.343,14.771c.017-4.978-.117-11.239-5.188-16.908a9.273,9.273,0,0,0,2.233-7.444c-6.25-4.111-26.265-18.894-39.805-20.836,26.818-3.247,32.27-21.492,69.753-9.666,8.083,9.125,13.341,25.266,16.042,24.729,10.793-2.1,2.856-24.186-10.6-36.573a12.039,12.039,0,0,1,2.345-4.806c8.607,6.206,18.02,12.649,22.4,10.9,3.4,2.01,6.911,3.217,10.093,1.985-21.378-25.9,2.853-26.345-5.16-39.823-5.363.457-8.762,4.216-11.608,8.642-10.473-21.008-23.772-43.757-7.093-35.009,5.27,24.705,34.827,14.441,26.744,35.512,40.121,19.916-16.024-26.879,5.432-26.98l18.787,4.886c16.06,18.338-2.8,19.921,5.266,24.788l2.722-7.011c7.975,17.8-18.879,27.524-10.957,58.165l32.268-12.933c8.232-48.989,67.4-60.783,54.173-122.75a5.963,5.963,0,0,0-.56,1.5c-1.24-2.1-4.233-5.523-10.4-12.428l5.378,3.232-8.1-17.791c21.495,10.737,34.911,3.8,56.364,8.012-16.054-5.255-16.054-5.255-29.424-17.654-16.068-18.38-22.5-26.547-8.037-28.217,12.234,12.161,6.926,16.837,22.574,20.633-9.065-2.954-14.879-14.33-12.88-19.4,12.453,3.407,21.753-2.458,34.082,9.779,1.19,5.433,18.456,11.244,30.04-44.211,5.885,7.1,32.946,34.661,25.191,26.574,17.749-1.235-9.033-50.155-.347-63.17,6.447,9.7,14.07-23.978,45.153-22.2,65.531,16.276,26.048-9.234,83.185-14.1L409.965,1746.7l26.728,10.627c50.71-14.617,57.917-57.819,80.81-97.252,7.991-11.419,25.309,13.837,37.755,17.222,24.525-18-1.769-54.948,12.316-81.465,5.764,11.426,25.03,40.4,34.951,32.872-6.427-9.753-18.03-23.585-7.52-24.057l5.759,11.431c17.581,7.616,10.621-9.168,26.446-14.162,17.931-18.926,15.81-56.385.208-102.556,19.2-13.367,16.247,17.042,39.346,34.047,7.291-9.66,38.09,4.306,33.077-17.565,2.518,11-11.86,3.762-16.924-9.283,13.9.1,61.69-92.545,85.606-66.461,35.415-44.868,48.065-16.875,90.082-60.82-5.559-20.165-10.5.46-15.543-12.625-6.152-27.365,17.04.463,12.184-21.375l10.1,17.175c14.624-10.448,7.8-35.449,7.8-35.449s28.1-9.658,23-13.133c17.934,7.654,33.169-24.209,36.714-27.845,18.072,14.709,5.489,20.154.182,24.72,26.462,28.172,34.152.975,51.914,33.281,6.169-15.06-15.457-12.56-19.177-29.03l15.106-3.336-16.3-2.1c-.406-15.911-18.455-39.428,7.069-34.37l-15.859-37.45c22.572,20.585,11.785-3.778,22.307-4.2l10.248,17.248c6.654-7.963,13.181-7.065,25.65-3.672,14.744,23.138-11.19,2,4.921,21.793l14.392-1.6c-12.218-12.246-16.635-26.961-29.764-28.651-15.183-30.273-29.972-53.367-9.357-70.064,29.3,12.6,9.347,27.644,33.411,44.876,28.3-10.385-30.3-78.141-16.4-86.884,23-5.816,2.972-24.351,16.336-40.3,9.5,18.932,25.458,5.1,41.665,16.044l8.893,20.584c.059-7.48,7.066-7.7,14.662-.555-12.245-16.926,5.52-33.883,6.437-51.493l-18.125-14.736c2.471-13.366.658-13.685,13.279-17.763,7.236-17.7,28.407-12.726,20.216-40.252,20.107,9.634.922-9.957,17.033,9.834-11.7-5.1-12.478,5.441-23.038,5.8-1.7,29.892,20.491,76.851-3.222,84.459,32.784,46.743,6.028-15.192,27.631-8.725,2.144,2.616,2.357,3.939,2.161,4.91a3.447,3.447,0,0,1,3.074-.739c-.793,10.508-3.7,25.992,15.009,47.926,5.382-13.485-32.707-46.691-3.953-41.19-2.365-19.806,35.926,4.624,43.941,2.175-9.025-20.7-40.569-53.007-20.158-60.966L1189,1070.186c16.611-15.544-24.944-40.313-8.99-54.132-7.9,2.553-16.72-27.026-27.313-17.717-6.939-16.824,1.7-29.893,16.237-31.469-1.275-5.519-7.105-8.053-14.252-16.036-24.42-6.641.789,29.218-11.1,44.491-17.03-.453-31.2-21.5-13.826-58.881,18.026-15.817,35.886,3.009,38.768-2.229-6.005,4.76,4.994-58.672,21.063-48.272,20.407,26.188-12.121,11.581-10.394,25.725,26.651,19.409,14.8-9.881,42.568-7.071,20.159,30.368-14.987,14.1,5.455,40.257,14.451-5.724-.768-26.379,16.3-30.518,10.3,13.115.985,24.531,16.648,38.96l14.039.451c-15.372,18.161,34.241,28.635,27.254,47.844,16.516,4.27-11.875-29.27,12.873-21.929-13.409-8.616-40.411-21.77-41.818-40.046l16.939-1.986c16.142,8.306,16.833,36.854,33.321,41.072l1.407-18.537c-7.827-7.218-16.386-6.291-23.709-19.677,13.852,2.44-19.5-38.579-23.827-56.522,6-4.759,11.856-7.444,22.533-.5-8.574-35.9,9.476-52.245.941-85.972,6.495,23.688,26,25.548,42.458,31.892-6.7,12.968,16.777,36.789,32.559,51.339,3.479-8.5-16.837-36.85-27.759-41.8,19.669-.222-9.407-23.33,15.267-16.065,13.856,2.554,20.38,26.263,31.208,33.246,11.9-9.664-25.657-31.769-8.347-37.848,2.492,3.8,2.382,5.835,7.674,9.312,11.314-1.3,7.072-19.244-3.22-32.354,37.431,24.237,15.743-22.225,44.214,9.143,7.357-23.3-18.592-14.174-25.968-27.675-6.94-19.572,15.549-20.159,23.907-18.985-3.129,4.418,1.546,16.1-6.739,15.048l23.956,17.679c33.884-4.057-34.776-59.309,1.654-59.488,1.3,20.326,12.532,18.957,22.429,38.376-2.32-8.058,17.959-16.523-6.639-23.834,8.686-5.117,17.207-6.146,25.765-7.073-1.8-14.136-.862-26.545-10.822-43.76,11.848-7.467,33.745.244,47.414,4.756,5.436-35.351,49.842-28.267,55.42-65.651l-2.842.308c20.534-12.672-34.92-20.451-16.844-36.892,23.079,27.911,27.514,6.979,46.565,14.98,34.287-7.954,18.2-55.178,54.856-57.383,5.155,5.516,10.222,13.161,7.075,17.567,22.941-6.773,29.917-23.851,44.751-35.861l2.528,3.718c42.164-.695,37.055-45.109,53.343-73.441,1.383,5.022,10.475,15.14,12.453,19.941,17-5.4,38.714-19.544,23.484-50.736,38.37,11.921,1.265-16.453,42.7-9.1,5.453,3.518,2.473,5.914,2.29,8.018,16.84.055,20.245-8.52,31.794-14,2.746-35.014-25.247-72.593,6.523-84.475,35.637,33.7-4.934,22.014,22.033,50.183-1.741-10.5-4.989-21.368,9.25-19.1,9.857,17.2,7.715,9.352,17.8,24.536,13.676,4.556-17.33-54.767-14.151-51.375-6.422-6.98-11.624-9.051-15-3.783-16.089-26.476,19.82-23.149,21.9-42.317-4.05,2.83-21.651,6.809-33.892-13.684,21.566-6.793-6.852-44.927-10.618-68.673,28.752,2.714,19.305,38.855,45.959,60.79,11.017,6.706,35.612,20.951,39.531,35.94,16.98-6.5,4.78-35.816,10.063-51.562l6.518,7.152c11.895-17.434-2.289-63.138,23.81-61.519l-14.369-1.389c-1.667-6.513,7.735-11.872-2.11-29.979,9.279,10.1,24.936,12.207,32.79,20.754-23.1-38.982,13.614-51.937-12.361-92.195,13.038,5.287,24.649,23.286,31.736,32.822-12.424,6.045-22.794,1.886-13.146,21.372,7.227-8.163,22.213-4.368,29.328,5.181-14.876-30.477-5.395-57.728-24.165-84.432,17,5.851,28.509,6.689,45.4,27.676,11.968-35.334-69.923-47.087-42.879-73.347,30.482,6.346,12.855,36.785,35.925,26.388l-.128,6.083c60.747,36.953-26.149-43.423-10.764-55.442,28.326,24.888,9.314,28.572,37.763,38.27,5.911-19.237-27.778-64.247-6.7-68.191l9.269,13.3c5.958-10.121,27.032-20.192,32.953-30.266,5.594,4.881,3.684,5.292,3.586,8.257C2173.441-36.785,2141.254-51.95,2171.695-45.561ZM959.818-62.082l-4.028-6.7c1.443,2.192,2.887,4.495,4.09,6.639ZM.648,2114.113l3.955,6.746c-1.42-2.208-2.839-4.526-4.019-6.683Z" transform="translate(2584.103 1152.785) rotate(60)" fill="url(#linear-gradient-3)"/>
    </g>
  </g>
</svg>
