<svg xmlns="http://www.w3.org/2000/svg" xmlns:xlink="http://www.w3.org/1999/xlink" width="1125" height="2436" viewBox="0 0 1125 2436">
  <defs>
    <linearGradient id="linear-gradient" x1="2.15" y1="0.529" x2="0.52" y2="0.803" gradientUnits="objectBoundingBox">
      <stop offset="0" stop-color="#ffc17c"/>
      <stop offset="0.055" stop-color="#ffbd7c"/>
      <stop offset="0.104" stop-color="#ffb27f"/>
      <stop offset="0.15" stop-color="#ffa083"/>
      <stop offset="0.194" stop-color="#ff8789"/>
      <stop offset="0.214" stop-color="#ff798d"/>
      <stop offset="0.459" stop-color="#ce16e4"/>
      <stop offset="0.68" stop-color="#4c57ff"/>
      <stop offset="1" stop-color="#00f3d3"/>
    </linearGradient>
    <linearGradient id="linear-gradient-2" x1="0.335" y1="0.375" x2="1.44" y2="0.902" gradientUnits="objectBoundingBox">
      <stop offset="0" stop-color="#ffc17c"/>
      <stop offset="0.055" stop-color="#ffbd7c"/>
      <stop offset="0.105" stop-color="#ffb27f"/>
      <stop offset="0.169" stop-color="#ffa083"/>
      <stop offset="0.256" stop-color="#ff8789"/>
      <stop offset="0.322" stop-color="#ff798d"/>
      <stop offset="0.582" stop-color="#ce16e4"/>
      <stop offset="0.791" stop-color="#4c57ff"/>
      <stop offset="1" stop-color="#00f3d3"/>
    </linearGradient>
    <linearGradient id="linear-gradient-3" x1="0.63" y1="0.296" x2="0.178" y2="0.816" gradientUnits="objectBoundingBox">
      <stop offset="0" stop-color="#ffc17c"/>
      <stop offset="0.055" stop-color="#ffbd7c"/>
      <stop offset="0.135" stop-color="#ffb27f"/>
      <stop offset="0.228" stop-color="#ffa083"/>
      <stop offset="0.373" stop-color="#e860b0"/>
      <stop offset="0.468" stop-color="#ce16e4"/>
      <stop offset="0.725" stop-color="#4c57ff"/>
      <stop offset="1" stop-color="#00f3d3"/>
    </linearGradient>
    <clipPath id="clip-Mobile_bg">
      <rect width="1125" height="2436"/>
    </clipPath>
  </defs>
  <g id="Mobile_bg" data-name="Mobile bg" clip-path="url(#clip-Mobile_bg)">
    <rect width="1125" height="2436" fill="#fff"/>
    <g id="Component_3_1" data-name="Component 3 – 1" transform="translate(-928.734 -1212.72)">
      <rect id="Rectangle_1" data-name="Rectangle 1" width="1019.885" height="2742.387" transform="translate(3411.557 1895.236) rotate(118)" fill="url(#linear-gradient)"/>
      <rect id="Rectangle_2" data-name="Rectangle 2" width="1019.885" height="2742.387" transform="matrix(-0.469, 0.883, -0.883, -0.469, 2992.33, 3718.193)" fill="url(#linear-gradient-2)"/>
      <path id="Path_517" data-name="Path 517" d="M4558.953,98.552l-15.979-28.045c-26.087-5.412-68.416-7.687-55.794,31.454-12.622-39.142-77.992-37.258-110.017-82.667l12.875,18.226C4289.1,4.715,4236.364,40.449,4167.6,58.63c18.688,74.068-65.592,27.813-63.253,89.436,48.263,57.913,5.075,16.213-9.727,52.153,6.859-20.021-38.668-42.194-54.311-40.944,8.7,18.7,7.648,29.729,6.411,40.6-23.245-13.175-97.911-24.323-73.72,23.52-32.446-1.766-13.347-20.7-20.951-35.126-33.424-21.1,8.631,33.917-14.718,20.661,0,0-5.488-6.025-6.516-10.3-21.542,25.654-49.491,25.75-80.784,43.508,49.9,54.381-4.68,43.742,2.925,73.343-13.226-20.449-33.318-5.859-50.126-8.82l25.375,52c19.724,46.037-41.27-5.25-40.451,29.376l13.4,5.351c3.181,27.957-60.478,28.721-100.542,12.584-12.589,215.437-233.437,117.479-326.12,264.413,7.839,23.542,32,20.828,49.042,50.276-.372,1.082-.738,2.1-1.1,3.06,4.642,3.041,4.313,6.455,13.35,12.326.943-10.494-2.708-27.625,7.354-32.167,2.929,24.014,38.289,65.569,9.315,65.184-4.175-6.425-3.956-9.928-3.473-17.018-14.948,8.706,2.827,27.814-16.262,26.434-19.449,2.23-4.923,11.508-22.994-3.9l-54.586,12.828c28.884,62.989-35.6,39.668-45.329,40.826-30.644-38.292,11.914-32.94-13.5-75.26l-37.358-13.2,26.746,28.428-24.956,9.684-4.3-6.3c8.674,12.867,17.21,25.751,3.268,20.6-4.233-2.866-12.48-8.158-13.351-11.732l2.623,26.835c-21.217-35.87-19.407,2.255-50.367-32.588-49.166,20.344-19.043,76.763-61.367,85.675L2608.168,386.387c-2.378-8.478-6.054-17.888-14.559-36.226l-9.274-5.486,12.763,31.8-56.719-50.815c-.654-4.241-1.349-8.268-2.19-11.931,46.165,19.91,114.945,9.051,156.7,62.9,27.461-20.388-37.024-21.734-41.761-50.192l4.619-.892c-13.8,2.788-36.668-6.953-59.782-20.546-27.718-23.756-14.332-52.493-.481-51.649l32.5,41.074c8.95-34.973-51.127-85.122-74.511-135.47,32.067-3.231,55.545,40.013,92.295,68.912l9.1-27.665,27.77,27.407c4.521-19.34-18.615-47.706,8.757-53.653,14.218,37.849,50.552.445,69.28,51.861,18.433-.093-32.563-55.723,9.087-23.966-23.27-35.67-22.971-6.246-36.9-10.749-46.264-38.187-.3-40.5-.393-62.555,22.935,20.784,18.59,33.006,46.194,34.384-14.018-19.139-18.746-40.253,8.966-27.583-27.728-27.363,9.078-20.377,18.085-26.146-13.678,3.011-45.875-4.945-64.476-34.08-4.7-17.469-4.745-28.57,13.6-39.717l-23.017-2.582c-27.949-53.13,50.5,7.662,54.946-22.745,9.359,23.9,4.771,28.544,18.669,55.04-4.748-21.127-9.453-56.938-9.576-82.684L2853,7.506c-18.479-21.888,18.3-14.925-9.428-42.29,36.844-.131,18.677,47.766,37.2,69.7,41.231-5.112-27.891-64.195,36.47-44.6l18.581,32.928c9.147-5.565,8.994-35.05,22.878-23.182-9.309-9.186-9.263-1.791-13.834,2.84-51.026-59.353-5.015-72.546-65.088-126.383l-13.815,6.558c4.376-26.635-23.455-76.146,8.628-68.284,27.6,8.941,32.415,44.815,41.836,64.96,18.25-11.137-51.068-74.071-28.154-86.266-18.38.162-37.023-21.734-46.279-41.841-13.785,6.529-45.753,17.012-17.993,37.024l9.2,1.788c13.9,15.554,13.919,26.561,18.63,36.668-13.756,13.941-32.309-19.07-46.167-27.228-31.993,14.211,55.425,58.426,32.646,77.857l-13.838-8.181c4.732,24.847-8.814,42.6,23.6,80.114-46.242-27.291-9.01,38.6-41.134,27.006-83.237-78.316,41.115-30.69,8.582-86.615-27.654-5.323-32.557-44.724-46.479-67.665l.489,69.9c-13.867-8.15-64.6-37.9-41.285-2.275l4.593-.917c-4.528,23.051,32.519,52.2,9.511,53.314-9.264-5.459-18.579-21.959-23.173-28.327-18.423,3.786,9.34,27.5,9.425,42.26-18.276,3.931-27.847-38.473-46.059-38.1,18.7,43.919-27.554,13.074-36.673,26.138C2696.74-14.8,2665.018,50.984,2729.4,66.9l5.045,57.927c-32.271-15.337-46.435-82.263-92.65-113.214l22.757-19.7c-60.907-53.131-6.6,81.782-84.7,32.671-13.732,8.953-2.922,14.1-52.827,7.491L2582,79.013c-22.826-.414-54.369-24.378-64.253-33.119-3.187,9.826-10.319,14.453-18.54,18.373-5.988-9.073-10.635-18.161-9.406-24.8-36.769-19.631-28.54-6.683-16.292,11.219,8.431,17.311-.121,22.531-7.505,29.083l-12.832-25.13c.064,8.513.409,19.223,9.187,28.825-2.684,3.1-4.247,7.007-3.682,12.773,10.768,6.917,45.279,31.833,68.473,34.906-45.812,6.049-54.8,37.359-119.132,17.823-14-15.458-23.289-42.97-27.9-42-18.422,3.786-4.436,41.423,18.8,62.363a20.621,20.621,0,0,1-3.923,8.264c-14.839-10.456-31.058-21.3-38.519-18.238-5.847-3.374-11.882-5.373-17.3-3.208,37.045,43.912-4.394,45.117,9.561,68.023,9.166-.882,14.91-7.373,19.7-15,18.3,35.742,41.474,74.407,12.781,59.753-9.471-42.161-59.839-24.056-46.4-60.249-69-33.324,27.907,45.68-8.792,46.25l-32.227-8.011c-27.809-31.069,4.427-34.126-9.466-42.3l-4.525,12.045c-13.972-30.3,31.781-47.431,17.664-99.695l-54.955,22.72c-13.175,83.949-114.171,105.217-90.391,210.968a10.3,10.3,0,0,0,.931-2.577c2.159,3.563,7.341,9.368,18.017,21.064l-9.26-5.429L2176,393.993c-36.965-17.968-81.9-41.768-96.561-12.661,25.592,27.753,31.049,10.3,54.148,31.262,27.822,31.143,35.48,43.384,10.778,46.507-21.152-20.576-12.159-28.671-38.993-34.876,15.559,4.884,8.438,19.678,5.112,28.386-21.364-5.6-19.886,9.164-41.2-11.54-2.135-9.271,7.988-5.062,13.548-4.426-2.058-9.2-33.547-3.984-40.192-31.819l-7.944,20.122c-25.778-9.118-22.3-32.858-36.868-40.733-8.916,37.711,27.615,97.578,20.891,133.036-10.2-12.041-57-58.679-43.582-44.988-30.336,2.44,16.381,85.623,1.764,108.047-11.208-16.477-41.1,52.172-42.271,39.859-48.744-22.013-78.937,15.221-176.582,24.6l34.516,61.564-45.917-17.683c-86.469,25.941-98,99.971-136.426,167.847-13.456,19.682-43.547-23.2-64.9-28.759-41.618,31.234,4.042,93.957-19.561,139.575-10.069-19.438-43.56-68.64-60.391-55.583,11.175,16.562,31.278,40.01,13.309,41.011l-10.062-19.447c-30.214-12.7-11.962,58.606-38.937,67.442-27.726,17.336-49.277-4.17-21.734,74.52-32.586,23.219-31.837,4-47.566-1.007,37.231-2.315,11.477-57.671-7.4-42.919,3.332,23.959-.791,44.876-40.615,16.216-12.293,16.658-20.348,21.721-11.368,59.041,11.149,17.484,20.216-6.656,29.121,15.565-23.775.082-103.808,159.441-145.2,115.266-59.746,77.4-81.9,29.755-152.958,105.7,9.881,34.388,17.947-.981,26.819,21.308,11.03,46.694-29.155-.478-20.446,36.788l-17.6-29.191c-24.822,18.142-21.881,96.191-21.881,96.191-.372-18.8-33.263,10.932-27.045,32.705.492,1.724-.39,18.3,8.4,24.152-30.817-12.761-67.545-27.355-73.542-21.07-31.185-24.825-13.606,53.217-6.939,81.32l-41.941-38.41c-32.324,7.831.8,42.513-15.29,68.235l-7,28.719c-11.236,13.744-29.894,8.822-51.285,3.25-38.656,25.179,24.9,112.045-16.582,83.013-48.221,18.29,31.584,32.836,7.97,48.05-39.236,10.373,6.954,17.923-15.61,45.454-16.608-32.207-6.834-1.652-34.758-20.068l-25.722,15.624c.038,12.8-11.409-.6-46.242-1.878-18.874,16.383-25.908,27.669-27.15,57.808l35.657,53.043c-3.98,22.91-9.116,31.156-30.628,38.366-12.049,30.415-40.2-29.52-25.68,17.411-34.571-16.107,22.526,69.977-5.4,36.421-22.01-22.076-17.274-70.512.783-71.325,2.354-51.164-26.166-107.124,14.254-120.576-56.943-79.348-10.03,26.1-47.1,15.435-3.714-4.434-4.1-6.692-3.785-8.359a5.9,5.9,0,0,1-5.247,1.321c1.164-17.988,5.852-44.529-26.559-81.7-8.956,23.166,56.811,79.26,7.522,70.384,4.412,33.834-61.537-7.244-75.2-2.906,15.821,35.243,70.376,89.917,35.61,103.91l-27.81-48.6c-28.125,26.9,43.414,68.5,16.38,92.427,13.461-4.513,29.1,45.918,47.046,29.8,12.18,28.649-2.354,51.163-27.191,54.128,2.283,9.416-36.831,21.807-24.457,35.33,41.893,10.908,34.489-1.048,22.425,22.424s30.6,69.975-10.909,34.571c-14.6-21.678-32.012,28.569-35.228,4.408-45.947-32.706,6.515,15.061-41.041,10.768-35.044-51.573,25.374-24.4-10.076-68.76-24.614,10.06,1.8,45.109-27.324,52.505-17.856-22.243-16.64,47.058-43.7,22.665l-41.31-30.1c-28.045,2.481-8.244,31.621-5.5,62.855l-38.29,25.654c-34.6,13.744,55.459,33.631-39.075,66.072,11.219-22.3-27.16-24.493-8.387-16.233-33.64.743,16.524,39.733-25.816,27.761-23.749-4.114-9.524-2.423-39.019,8.294-4.334-6.459-4.183-9.936-13.3-15.787-19.329,2.433-11.741,33.047,6.107,55.284-64.475-40.767-26.518,38.306-75.8-14.823-12.152,39.992,32.064,23.9,44.933,46.859,12.233,33.349-26.223,34.769-40.543,32.918,5.271-7.615-2.942-27.506,11.249-25.867l-41.305-29.8c-57.883,7.566,60.583,100.807-1.728,101.786-2.6-34.745-21.787-32.195-39.076-65.228,4.117,13.741-30.413,28.6,11.8,40.645-14.763,8.915-29.317,10.831-43.941,12.576,3.349,24.147,1.965,45.39,19.322,74.653-20.13,12.991-57.727.209-81.192-7.258-8.645,60.569-84.732,49.276-93.581,113.324l4.855-.58c-34.888,22.057,60.111,34.336,29.5,62.793-39.994-47.315-47.191-11.43-79.928-24.762-58.5,14.239-30.11,94.719-92.768,99.169-8.918-9.34-17.727-22.323-12.426-29.916-39.116,12.008-50.733,41.349-75.885,62.167l-4.392-6.313c-72.11,1.969-62.547,77.847-89.884,126.611-2.458-8.567-18.2-25.7-21.671-33.881-28.973,9.551-65.858,34.148-39.229,87.221-65.854-19.682-1.859,28.167-72.871,16.364-9.39-5.917-4.338-10.071-4.064-13.673-28.8.216-34.47,14.949-54.124,24.529-4.05,59.943,44.53,123.705-9.595,144.618-61.58-56.977,8.033-37.747-38.617-85.431,3.173,17.936,8.928,36.459-15.469,32.847-17.18-29.234-13.369-15.855-30.909-41.64-23.479-7.538,30.657,93.359,25.157,87.617,11.112,11.82,20.05,15.267,25.726,6.192,28.011,44.988-33.473,39.963-36.684,72.79,6.875-4.915,36.909-12.047,58.224,22.779-36.762,12.019,12.554,76.72,19.433,117.271-49.23-4.112-33.74-66.1-79.738-103.132-18.968-11.267-61.3-35.179-68.285-60.744-28.924,11.433-7.513,61.352-16.258,88.384l-11.28-12.114c-20.025,30.039,5.083,107.955-39.59,105.67l24.6,2.109c2.973,11.112-13.01,20.452,4.164,51.241-16.059-17.114-42.879-20.419-56.472-34.893,40.234,66.253-22.325,89.09,22.853,157.472-22.4-8.8-42.595-39.374-54.894-55.554,21.139-10.571,38.955-3.648,22.091-36.8-12.209,14.1-37.915,7.883-50.262-8.319,26.011,51.858,10.3,98.644,42.9,143.977-29.187-9.694-48.891-10.915-78.175-46.5-19.818,60.661,120.476,79.249,74.7,124.668-52.259-10.292-22.669-62.684-61.94-44.472l.109-10.409c-104.594-62.083,45.531,73.791,19.437,94.634-48.914-42.048-16.46-48.7-65.3-64.762-9.752,33.014,48.7,109.381,12.732,116.519l-16.1-22.577c-10,17.423-45.867,35.04-55.807,52.382-9.66-8.246-6.4-8.985-6.287-14.057-42.463,8.373,12.875,33.717-39.312,23.351l16.281,27.871c26.144,5.131,68.495,6.947,55.449-32.056,13.046,39,78.392,36.411,110.906,81.469l-13.071-18.083c101.286,31.71,153.634-4.592,222.2-23.518-19.488-73.862,65.288-28.521,62.281-90.115-48.887-57.386-5.25-16.156,9.161-52.255-6.64,20.1,39.123,41.772,54.751,40.354-8.9-18.608-7.969-29.645-6.849-40.529,23.385,12.922,98.17,23.261,73.462-24.317,32.462,1.414,13.571,20.556,21.328,34.9,33.651,20.741-9-33.822,14.5-20.82,0,0,5.552,5.966,6.628,10.233,21.262-25.886,49.208-26.285,80.309-44.38-50.485-53.84,4.206-43.792-3.72-73.309,13.447,20.306,33.379,5.5,50.219,8.277l-25.937-51.724c-20.221-45.822,41.324,4.8,40.129-29.813l-13.458-5.206c-3.483-27.92,60.163-29.374,100.4-13.671,7.865-165.3,140.185-147.649,242.536-197.139L530.89,3847.261c.882,10.582,1.4,21,1.343,30.145l-54.864-25.675c18.241,22.086-18.46,14.727,8.971,42.39-36.843-.269-18.158-47.966-36.443-70.1-41.285,4.666,27.2,64.494-36.951,44.206L394.72,3835.1c-9.2,5.466-9.371,34.951-23.127,22.934,9.21,9.286,9.244,1.89,13.864-2.691,50.381,59.9,4.228,72.6,63.717,127.08l13.886-6.408c-4.665,26.587,22.63,76.4-9.367,68.188-27.5-9.239-31.928-45.164-41.132-65.412-18.369,10.94,50.265,74.619,27.22,86.568,18.38.038,36.785,22.133,45.823,42.34,13.856-6.379,45.934-16.517,18.392-36.828l-9.18-1.886c-13.733-15.7-13.63-26.71-18.23-36.868,13.908-13.792,32.1,19.418,45.87,27.726,32.145-13.866-54.79-59.023-31.8-78.206l13.748,8.329c-4.462-24.9,9.275-42.505-22.734-80.364,45.942,27.79,9.427-38.5,41.422-26.56,82.386,79.213-41.444,30.243-9.518,86.519,27.594,5.621,32.071,45.073,45.742,68.163l.269-69.9c13.777,8.3,64.187,38.594,41.258,2.723l-4.6.867c4.775-23-31.953-52.551-8.936-53.414,9.2,5.56,18.34,22.16,22.866,28.576,17.952-3.487-7.544-26.28-8.9-41.108l1.275-1.421c17.432-1.466,26.54,38.938,44.305,38.771-18.223-44.117,27.695-12.777,36.953-25.738-23.2-19.028-28.857-43.151-34.459-65.272l18.46-20.6a113.979,113.979,0,0,0,20.806,18.7l-22.97,19.455c60.328,53.787,7.485-81.706,85.046-31.752,13.828-8.805,3.074-14.073,52.9-6.92l-54.455-47.529c22.82.663,54.1,24.965,63.89,33.813,3.294-9.791,10.475-14.34,18.738-18.172,5.889,9.137,10.436,18.276,9.137,24.9,36.555,20.03,28.465,6.992,16.411-11.042-8.242-17.4.365-22.528,7.82-29l12.56,25.268c.028-8.514-.2-19.226-8.875-28.923,2.717-3.069,4.321-6.96,3.819-12.733-10.691-7.031-44.93-32.32-68.091-35.643,45.875-5.553,55.2-36.764,119.32-16.534,13.828,15.609,22.822,43.22,27.441,42.3,18.463-3.587,4.885-41.373-18.127-62.563a20.6,20.6,0,0,1,4.011-8.221c14.724,10.615,30.825,21.638,38.319,18.653,5.812,3.439,11.823,5.5,17.265,3.4-36.569-44.31,4.881-45.066-8.828-68.122-9.173.781-14.988,7.211-19.856,14.783-17.916-35.937-40.665-74.852-12.133-59.888,9.015,42.261,59.575,24.7,45.749,60.748,68.632,34.069-27.411-45.98,9.293-46.153l32.137,8.359c27.473,31.37-4.794,34.076,9.008,42.4l4.656-11.993c13.642,30.446-32.294,47.083-18.743,99.5l55.2-22.124c14.082-83.8,115.3-103.976,92.669-209.979a10.2,10.2,0,0,0-.958,2.569c-2.121-3.588-7.241-9.448-17.789-21.259l9.2,5.529-13.861-30.434c36.769,18.368,59.72,6.5,96.418,13.705-27.462-8.99-27.462-8.99-50.332-30.2-27.485-31.442-38.483-45.412-13.747-48.268,20.927,20.8,11.848,28.8,38.615,35.3-15.507-5.052-25.452-24.512-22.032-33.184,21.3,5.829,37.211-4.2,58.3,16.729,2.036,9.294,31.571,19.234,51.387-75.627,10.067,12.151,50.005,17.049,36.739,3.214,30.361-2.113-9.1-43.553,5.758-65.816,11.029,16.6,24.068-41.017,77.24-37.969,112.1,27.843,44.558-15.8,142.3-24.118l-33.847-61.934,45.72,18.178c86.746-25,99.074-98.906,138.236-166.361,13.669-19.534,43.295,23.669,64.585,29.461,41.953-30.783-3.026-93.995,21.068-139.355,9.861,19.545,42.817,69.106,59.787,56.232-10.994-16.683-30.842-40.344-12.864-41.153l9.851,19.555c30.073,13.028,18.169-15.683,45.239-24.226,30.673-32.376,27.045-96.452.355-175.434,32.836-22.866,27.793,29.151,67.306,58.241,12.472-16.524,65.157,7.366,56.581-30.048,4.307,18.816-20.287,6.436-28.951-15.88,23.775.177,105.529-158.309,146.439-113.688,60.581-76.752,82.22-28.866,154.094-104.039-9.51-34.494-17.958.786-26.588-21.6-10.524-46.81,29.149.792,20.842-36.564l17.279,29.38c25.016-17.872,13.346-60.641,13.346-60.641s48.068-16.521,39.337-22.465c30.678,13.093,56.739-41.412,62.8-47.632,30.915,25.161,9.391,34.477.312,42.287,45.266,48.192,58.421,1.668,88.806,56.93,10.552-25.762-26.441-21.485-32.8-49.66l25.841-5.706-27.877-3.588c-.7-27.219-31.569-67.447,12.092-58.794l-27.128-64.062c38.612,35.214,20.159-6.462,38.159-7.187l17.531,29.5c11.382-13.621,22.548-12.085,43.877-6.281,25.221,39.581-19.142,3.427,8.417,37.28l24.618-2.739c-20.9-20.949-28.455-46.12-50.916-49.012-25.972-51.785-51.271-91.29-16.006-119.853,50.115,21.559,15.99,47.288,57.154,76.766,48.415-17.764-51.83-133.669-28.05-148.626,39.344-9.948,5.084-41.656,27.945-68.941,16.257,32.385,43.549,8.73,71.272,27.446l15.213,35.211c.1-12.795,12.087-13.166,25.081-.95-20.947-28.954,9.442-57.96,11.011-88.084l-31-25.207c4.227-22.865,1.126-23.41,22.715-30.386,12.377-30.282,48.593-21.77,34.582-68.855,34.395,16.48,1.577-17.032,29.136,16.822-20.009-8.732-21.344,9.307-39.409,9.926-2.907,51.135,35.052,131.463-5.512,144.476,56.082,79.959,10.312-25.987,47.266-14.925,3.667,4.475,4.032,6.738,3.7,8.4a5.894,5.894,0,0,1,5.259-1.264c-1.356,17.975-6.333,44.462,25.675,81.983,9.206-23.067-55.949-79.87-6.761-70.461-4.046-33.88,61.456,7.909,75.165,3.72-15.437-35.413-69.4-90.675-34.483-104.289l27.283,48.9c28.415-26.59-42.67-68.96-15.378-92.6-13.51,4.367-28.6-46.23-46.722-30.306-11.87-28.78,2.907-51.135,27.775-53.831-2.181-9.441-12.155-13.776-24.38-27.432-41.772-11.36,1.35,49.98-18.985,76.107-29.131-.775-53.375-36.775-23.652-100.724,30.836-27.056,61.387,5.148,66.317-3.813-10.272,8.142,8.543-100.365,36.032-82.575,34.909,44.8-20.735,19.81-17.781,44.005,45.59,33.2,25.312-16.9,72.817-12.1,34.484,51.949-25.636,24.127,9.332,68.865,24.72-9.791-1.314-45.125,27.888-52.205,17.616,22.435,1.686,41.962,28.478,66.646l24.015.772c-26.3,31.066,58.573,48.983,46.621,81.842,28.253,7.3-20.313-50.07,22.021-37.511-22.938-14.738-69.127-37.241-71.534-68.5l28.976-3.4c27.613,14.208,28.794,63.044,57,70.258l2.408-31.709c-13.389-12.348-28.031-10.761-40.557-33.66,23.7,4.173-33.36-65.994-40.758-96.687,10.271-8.14,20.281-12.733,38.546-.859-14.667-61.41,16.21-89.37,1.61-147.065,11.111,40.521,44.483,43.7,72.629,54.554-11.46,22.183,28.7,62.932,55.7,87.822,5.951-14.54-28.8-63.036-47.485-71.5,33.646-.379-16.092-39.909,26.116-27.481,23.7,4.37,34.863,44.926,53.384,56.872,20.364-16.531-43.888-54.345-14.279-64.743,4.263,6.506,4.075,9.981,13.128,15.93,19.355-2.222,12.1-32.918-5.509-55.345,64.03,41.461,26.931-38.019,75.634,15.641,12.586-39.859-31.8-24.246-44.421-47.342-11.872-33.479,26.6-34.484,40.9-32.476-5.352,7.557,2.645,27.534-11.527,25.742l40.979,30.242c57.962-6.941-59.489-101.456,2.829-101.761,2.221,34.77,21.438,32.428,38.368,65.646-3.969-13.784,30.722-28.264-11.357-40.771,14.859-8.753,29.434-10.513,44.074-12.1-3.087-24.182-1.475-45.408-18.512-74.857,20.268-12.773,57.724.417,81.108,8.135,9.3-60.471,85.26-48.354,94.8-112.3l-4.862.527c35.126-21.677-59.735-34.984-28.814-63.108,39.48,47.744,47.066,11.939,79.655,25.625,58.652-13.606,31.134-94.388,93.838-98.16,8.818,9.436,17.485,22.513,12.1,30.05,39.243-11.586,51.177-40.8,76.552-61.344l4.324,6.36c72.127-1.189,63.387-77.164,91.25-125.63,2.365,8.592,17.918,25.9,21.3,34.112,29.074-9.236,66.224-33.432,40.172-86.79,65.637,20.392,2.164-28.144,73.042-15.575,9.328,6.018,4.229,10.117,3.917,13.716,28.807.094,34.631-14.575,54.386-23.943,4.7-59.9-43.187-124.178,11.16-144.5,60.96,57.641-8.44,37.657,37.69,85.843-2.978-17.969-8.534-36.552,15.824-32.677,16.862,29.418,13.2,16,30.457,41.972,23.395,7.793-29.645-93.685-24.207-87.883-10.986-11.939-19.885-15.483-25.659-6.47-27.522-45.29,33.9-39.6,37.47-72.388-6.928,4.841-37.037,11.647-57.976-23.408,36.891-11.62-11.721-76.852-18.162-117.474,49.183,4.643,33.023,66.465,78.618,103.989,18.846,11.471,60.918,35.84,67.622,61.479,29.047-11.118,8.177-61.267,17.215-88.2l11.149,12.235c20.347-29.822-3.917-108,40.729-105.236l-24.579-2.376c-2.852-11.142,13.231-20.309-3.609-51.282,15.873,17.285,42.656,20.881,56.091,35.5-39.514-66.684,23.289-88.844-21.146-157.71,22.3,9.044,42.166,39.834,54.289,56.146-21.251,10.34-38.992,3.227-22.488,36.56,12.363-13.963,38-7.472,50.169,8.862-25.448-52.134-9.229-98.75-41.337-144.431,29.081,10.008,48.768,11.442,77.667,47.343,20.474-60.443-119.611-80.548-73.349-125.468,52.143,10.856,21.99,62.924,61.453,45.14l-.219,10.406c103.915,63.212-44.73-74.28-18.412-94.839,48.455,42.574,15.932,48.876,64.6,65.465,10.111-32.907-47.518-109.9-11.47-116.648l15.856,22.748c10.192-17.314,46.243-34.541,56.371-51.774,9.569,8.349,6.3,9.052,6.134,14.125C4561.941,113.564,4506.882,87.622,4558.953,98.552ZM2485.9,70.291l-6.891-11.466c2.469,3.75,4.939,7.689,7,11.357ZM845.128,3792.923l6.766,11.539c-2.429-3.777-4.857-7.742-6.875-11.432Z" transform="translate(4195.59 1204.857) rotate(85)" fill="url(#linear-gradient-3)"/>
    </g>
  </g>
</svg>
