<svg xmlns="http://www.w3.org/2000/svg" width="809" height="1229.002" viewBox="0 0 809 1229.002">
  <g id="texture" transform="translate(-264 -5)" opacity="0.5">
    <g id="Group_155" data-name="Group 155" transform="translate(264 5)">
      <g id="Ellipse_6" data-name="Ellipse 6" transform="translate(106 0)" fill="none" stroke="#8e8e8e" stroke-width="1">
        <ellipse cx="325" cy="324.5" rx="325" ry="324.5" stroke="none"/>
        <ellipse cx="325" cy="324.5" rx="324.5" ry="324" fill="none"/>
      </g>
      <g id="Ellipse_7" data-name="Ellipse 7" transform="translate(85 107)" fill="none" stroke="#8e8e8e" stroke-width="1">
        <circle cx="324.5" cy="324.5" r="324.5" stroke="none"/>
        <circle cx="324.5" cy="324.5" r="324" fill="none"/>
      </g>
      <g id="Ellipse_8" data-name="Ellipse 8" transform="translate(0 30)" fill="none" stroke="#8e8e8e" stroke-width="1">
        <ellipse cx="324.5" cy="325" rx="324.5" ry="325" stroke="none"/>
        <ellipse cx="324.5" cy="325" rx="324" ry="324.5" fill="none"/>
      </g>
      <g id="Ellipse_9" data-name="Ellipse 9" transform="translate(0 154)" fill="none" stroke="#8e8e8e" stroke-width="1">
        <circle cx="324.5" cy="324.5" r="324.5" stroke="none"/>
        <circle cx="324.5" cy="324.5" r="324" fill="none"/>
      </g>
      <g id="Ellipse_10" data-name="Ellipse 10" transform="translate(144 93)" fill="none" stroke="#8e8e8e" stroke-width="1">
        <ellipse cx="325" cy="324.5" rx="325" ry="324.5" stroke="none"/>
        <ellipse cx="325" cy="324.5" rx="324.5" ry="324" fill="none"/>
      </g>
    </g>
    <g id="Group_156" data-name="Group 156" transform="translate(819.638 978.14)">
      <g id="Ellipse_6-2" data-name="Ellipse 6" transform="translate(33.362 -0.141)" fill="none" stroke="#8e8e8e" stroke-width="1">
        <circle cx="103.5" cy="103.5" r="103.5" stroke="none"/>
        <circle cx="103.5" cy="103.5" r="103" fill="none"/>
      </g>
      <g id="Ellipse_7-2" data-name="Ellipse 7" transform="translate(27.362 33.861)" fill="none" stroke="#8e8e8e" stroke-width="1">
        <ellipse cx="103.5" cy="104" rx="103.5" ry="104" stroke="none"/>
        <ellipse cx="103.5" cy="104" rx="103" ry="103.5" fill="none"/>
      </g>
      <g id="Ellipse_8-2" data-name="Ellipse 8" transform="translate(0.362 8.861)" fill="none" stroke="#8e8e8e" stroke-width="1">
        <ellipse cx="103.5" cy="104" rx="103.5" ry="104" stroke="none"/>
        <ellipse cx="103.5" cy="104" rx="103" ry="103.5" fill="none"/>
      </g>
      <g id="Ellipse_9-2" data-name="Ellipse 9" transform="translate(0.362 48.861)" fill="none" stroke="#8e8e8e" stroke-width="1">
        <circle cx="103.5" cy="103.5" r="103.5" stroke="none"/>
        <circle cx="103.5" cy="103.5" r="103" fill="none"/>
      </g>
      <g id="Ellipse_10-2" data-name="Ellipse 10" transform="translate(45.362 29.861)" fill="none" stroke="#8e8e8e" stroke-width="1">
        <ellipse cx="104" cy="103.5" rx="104" ry="103.5" stroke="none"/>
        <ellipse cx="104" cy="103.5" rx="103.5" ry="103" fill="none"/>
      </g>
    </g>
  </g>
</svg>
