<?xml version="1.0" encoding="UTF-8" standalone="no"?>
<svg
  viewBox="0 0 306.853 223.10849"
  version="1.1"
  xmlns="http://www.w3.org/2000/svg"
  xmlns:svg="http://www.w3.org/2000/svg"
>
  <g transform="translate(-96.569849,-138.43664)">
    <g>
      <path
        d="m 139.63,307 a 31.92,31.92 0 0 0 4,4.51 137.91,137.91 0 0 0 36.37,26.85 141.55,141.55 0 0 0 17.54,7.56 c 1.15,0.41 1.15,0.41 0.47,1.32 q -5.06,6.74 -10.09,13.47 a 1.76,1.76 0 0 1 -1.64,0.82 A 117.93,117.93 0 0 1 171,359.8 142.37,142.37 0 0 1 147.31,353.59 124.37,124.37 0 0 1 113.76,335.76 117.35,117.35 0 0 1 97.52,320.9 3.7,3.7 0 0 1 96.63,317.76 c 0.2,-2.43 0.38,-4.86 0.58,-7.28 q 0.53,-6.45 1.21,-12.88 c 0.45,-4.32 1,-8.63 1.57,-12.94 0.61,-4.51 1.33,-9 2.1,-13.49 q 2.76,-16.1 6.83,-31.91 a 321.72,321.72 0 0 1 14.79,-44.21 213,213 0 0 1 12.89,-26 16.57,16.57 0 0 1 5.13,-5.21 A 155.52,155.52 0 0 1 172.6,147.27 140.21,140.21 0 0 1 197,140 c 3.37,-0.68 6.79,-1.12 10.21,-1.53 a 1.16,1.16 0 0 1 1.38,0.77 c 0.79,1.71 1.64,3.39 2.52,5.05 0.36,0.68 0.39,0.95 -0.5,1.15 a 152,152 0 0 0 -14.67,4.12 131.61,131.61 0 0 0 -39.34,21.25 c -3.24,2.54 -6.36,5.21 -9.48,7.89 -0.26,0.23 -0.48,0.5 -0.72,0.74 l -0.13,0.13 c 0.09,0.12 0.16,0 0.22,0 a 3.91,3.91 0 0 0 1.43,-0.59 c 9.39,-4.75 18.83,-9.38 28.63,-13.25 a 184.85,184.85 0 0 1 31.76,-9.44 q 7.32,-1.46 14.73,-2.33 c 5.28,-0.62 10.59,-1 15.9,-1.3 3.69,-0.2 7.39,-0.24 11.07,-0.26 5.74,0 11.49,0.13 17.22,0.57 a 193,193 0 0 1 36.36,6.1 199,199 0 0 1 28.07,10.09 c 7,3.1 13.87,6.51 20.72,10 a 3,3 0 0 0 1.15,0.45 c 0.07,0.08 0.14,0.16 0.22,0 0.08,-0.16 -0.08,-0.09 -0.12,-0.13 -2.45,-2.37 -5.1,-4.53 -7.72,-6.71 a 121.79,121.79 0 0 0 -38,-21.71 190.83,190.83 0 0 0 -18.58,-5.59 c -0.73,-0.19 -0.83,-0.37 -0.48,-1 0.84,-1.6 1.7,-3.21 2.41,-4.87 a 1.59,1.59 0 0 1 1.94,-1.06 122.76,122.76 0 0 1 15.2,2.58 148.93,148.93 0 0 1 40.1,16.59 c 4.12,2.4 8.1,5 12,7.8 a 6.56,6.56 0 0 1 1.83,1.95 212.33,212.33 0 0 1 16.62,34.26 332.73,332.73 0 0 1 13.91,44.7 q 3.67,15.42 6.08,31.09 c 0.93,6 1.75,12 2.4,18.08 0.65,6.08 1.31,12.17 1.68,18.28 0.09,1.67 0.24,3.33 0.39,5 a 1.88,1.88 0 0 1 -0.5,1.51 106.38,106.38 0 0 1 -12.52,12.14 119.85,119.85 0 0 1 -22.83,14.81 139.74,139.74 0 0 1 -27.07,10 146.76,146.76 0 0 1 -18.22,3.5 77.24,77.24 0 0 1 -8.73,0.71 1.35,1.35 0 0 1 -1.23,-0.58 q -5.19,-7 -10.42,-13.88 c -0.43,-0.57 -0.41,-0.81 0.31,-1.06 A 142.05,142.05 0 0 0 331,332.08 135.54,135.54 0 0 0 348.69,318.79 124.35,124.35 0 0 0 360,307.5 a 3.48,3.48 0 0 0 0.34,-0.51 l 0.34,-0.31 0.21,-0.21 h 0.08 c 0,0 0,0 0,-0.05 l -0.08,0.1 c -0.13,0 -0.21,0.06 -0.21,0.21 a 0.36,0.36 0 0 0 -0.45,0.17 c -2.2,1.53 -4.38,3.09 -6.6,4.58 a 162.87,162.87 0 0 1 -34.59,17.74 179.25,179.25 0 0 1 -31.71,8.42 c -5.69,1 -11.42,1.67 -17.17,2.17 a 244.16,244.16 0 0 1 -28,0.74 208.11,208.11 0 0 1 -21,-1.63 183.3,183.3 0 0 1 -39.19,-9.3 162.35,162.35 0 0 1 -41.86,-22.62 2.22,2.22 0 0 0 -0.38,-0.18 0.36,0.36 0 0 0 -0.45,-0.17 c 0,-0.15 -0.08,-0.2 -0.21,-0.21 l -0.07,-0.1 c 0,0 0,0 0,0.05 h 0.07 l 0.21,0.21 z m 40.63,-43.31 c 0.09,1.42 0.06,2.67 0.21,3.92 0.94,7.48 3.95,13.89 9.78,18.79 a 21.32,21.32 0 0 0 19.5,4.79 23.12,23.12 0 0 0 14,-9.92 29.75,29.75 0 0 0 5.13,-20.27 28.41,28.41 0 0 0 -8.54,-18.33 21.76,21.76 0 0 0 -18.28,-6.39 22.47,22.47 0 0 0 -15.15,8.59 29.47,29.47 0 0 0 -6.65,18.81 z m 139.48,0.58 c -0.11,-1.53 -0.07,-2.78 -0.23,-4 a 28.35,28.35 0 0 0 -9.65,-18.66 21.4,21.4 0 0 0 -17.22,-5.33 c -6.95,0.89 -12.33,4.56 -16.3,10.25 a 29.67,29.67 0 0 0 -5.22,20.59 28.2,28.2 0 0 0 9.72,19.26 21.58,21.58 0 0 0 13.7,5.45 21.83,21.83 0 0 0 16.59,-6.63 c 5.87,-5.84 8.48,-13.04 8.61,-20.94 z"
        fill="currentColor"
      />
      <path
        d="m 139.63,307 -0.34,-0.31 v 0 a 0.36,0.36 0 0 1 0.45,0.17 z"
        fill="currentColor"
      />
      <path
        d="m 360.25,306.86 a 0.36,0.36 0 0 1 0.45,-0.17 v 0 l -0.34,0.31 a 1.47,1.47 0 0 0 -0.11,-0.14 z"
        fill="currentColor"
      />
      <path
        d="m 146.47,179.55 c -0.06,0.08 -0.13,0.16 -0.22,0 l 0.13,-0.13 z"
        fill="currentColor"
      />
      <path
        d="m 353.61,179.46 c 0,0 0.13,0.12 0.12,0.13 -0.01,0.01 -0.15,0 -0.22,0 z"
        fill="currentColor"
      />
      <path
        d="m 139.08,306.47 h -0.07 c 0,0 0,0 0,-0.05 l 0.07,0.1 z"
        fill="currentColor"
      />
      <path
         d="m 360.91,306.48 0.08,-0.1 c 0,0 0,0 0,0.05 h -0.08 z"
        fill="currentColor"
      />
      <path
        d="m 139.29,306.68 -0.21,-0.21 v 0 c 0.13,0 0.22,0.06 0.21,0.21 z"
        fill="currentColor"
      />
      <path
        d="m 360.7,306.69 c 0,-0.15 0.08,-0.2 0.21,-0.21 v 0 z"
        fill="currentColor"
      />
    </g>
  </g>
</svg>
