<?xml version="1.0" encoding="UTF-8" standalone="no"?>
<svg
  viewBox="0 0 298.67221 209.46017"
  version="1.1"
  xmlns="http://www.w3.org/2000/svg"
  xmlns:svg="http://www.w3.org/2000/svg"
>
  <g transform="translate(-100.64983,-145.26982)">
    <path
      d="m 196.44,354.73 c -8.84,-0.19 -17.69,-0.44 -26.53,-0.55 -14.95,-0.19 -29.89,-0.41 -44.83,-0.4 -12.25,0 -20,-9.28 -24.06,-18.49 -0.51,-1.18 -0.22,-2.74 -0.22,-4.12 0,-54.22 0.14,-108.43 -0.15,-162.64 -0.05,-8.36 11,-22.21 20.76,-22.45 15.69,-0.4 31.39,-0.82 47.09,-0.81 67.75,0 135.5,0.34 203.25,0.21 13.18,0 21.43,6.12 26.79,17.33 a 9.63,9.63 0 0 1 0.78,4 q 0,82.83 0,165.67 c 0,6.12 -4,10.53 -8,14.53 A 22.44,22.44 0 0 1 375,353.8 c -22.29,0.06 -44.57,0.32 -66.86,0.54 -1.5,0 -3,0.26 -4.51,0.39 z M 382.91,175.88 c -4.08,3.05 -7.13,5.29 -10.13,7.58 Q 314.92,227.76 257,272 c -8.24,6.26 -5.42,6 -13.49,-0.13 Q 182.87,226 122.42,179.73 c -1.44,-1.1 -3,-2.08 -4.86,-3.39 -0.1,1.84 -0.21,2.95 -0.21,4.07 Q 117.16,254.72 117,329 c 0,4.38 4.77,8.9 9.31,8.91 H 374 c 4.45,0 9.22,-4.64 9.21,-9 q -0.15,-72.8 -0.34,-145.59 c 0.03,-2.09 0.04,-4.19 0.04,-7.44 z m -132.82,81 123.44,-94.75 H 126.65 Z"
      fill="currentColor"
    />
  </g>
</svg>
