<?xml version="1.0" encoding="UTF-8" standalone="no"?>
<svg
  viewBox="0 0 343.78564 342.01715"
  version="1.1"
  xmlns="http://www.w3.org/2000/svg"
  xmlns:svg="http://www.w3.org/2000/svg"
>
  <g transform="translate(-78.126914,-78.967797)">
    <g>
      <path
        d="m 421.16,237.14 a 117.86,117.86 0 0 0 -1.11,-11.76 170.1,170.1 0 0 0 -26.79,-69.28 165.85,165.85 0 0 0 -35.19,-38.66 c -42,-33.22 -89.49,-45.06 -142.06,-35 -31.75,6.06 -59.45,20.73 -83,42.83 -27.23,25.5 -44.59,56.59 -51.82,93.26 a 160,160 0 0 0 -2.9,38.38 54.06,54.06 0 0 0 0.31,7.2 158.94,158.94 0 0 0 3.72,25.15 172.31,172.31 0 0 0 57.41,93.51 173.16,173.16 0 0 0 40.18,25.39 169.47,169.47 0 0 0 39.79,12.57 c 2.86,0.51 2.88,0.49 2.88,-2.32 q 0,-58.49 0,-117 c 0,-1.87 -0.35,-2.46 -2.36,-2.44 -12.66,0.11 -25.31,0 -38,0.11 -2.14,0 -2.78,-0.41 -2.77,-2.69 0.1,-13.17 0,-26.33 0,-39.5 v 0 a 24.27,24.27 0 0 0 0.07,-3.71 c -0.26,-2 0.57,-2.39 2.44,-2.38 12.73,0.08 25.45,0 38.18,0.09 1.86,0 2.48,-0.37 2.46,-2.38 -0.11,-11.48 -0.08,-23 0,-34.45 0,-6.48 0.13,-12.94 1.76,-19.32 1.39,-5.45 2.84,-10.82 5.41,-15.87 A 56.53,56.53 0 0 1 245,159.78 60.53,60.53 0 0 1 266.3,149.1 84.31,84.31 0 0 1 292,146 c 5.44,0.16 10.89,0.48 16.33,1.06 5.63,0.6 11.23,1.41 16.86,2 1.81,0.2 2.29,0.89 2.28,2.72 q -0.14,19.43 0,38.83 c 0,2.11 -0.5,2.65 -2.63,2.66 -8.77,0.05 -17.56,-0.56 -26.31,0.38 -9.67,1 -15.76,5.82 -18.1,14.09 a 31.59,31.59 0 0 0 -1.14,8.66 c 0,10.68 0,21.36 -0.05,32 0,1.87 0.36,2.45 2.36,2.44 12.87,-0.11 25.74,-0.06 38.61,-0.06 4.32,0 4.31,0 3.86,4.23 -0.06,0.58 -0.09,1.17 -0.14,1.75 -0.59,0.84 -0.26,1.84 -0.41,2.75 q -3.08,18.66 -6,37.35 c -0.24,1.57 -0.69,2.16 -2.42,2.15 -11,-0.09 -22.09,0 -33.13,-0.11 -2.22,0 -2.72,0.54 -2.71,2.73 q 0.1,58.14 0,116.28 c 0,1.1 0.23,2.26 -1.39,2.88 a 3.74,3.74 0 0 0 1,0.17 c 1.79,-0.33 3.59,-0.67 5.37,-1 A 175.3,175.3 0 0 0 336.7,399.24 181.4,181.4 0 0 0 365.76,377.81 137.65,137.65 0 0 0 378.24,365 c 3.35,-3.92 6.64,-7.87 9.76,-12 a 175.85,175.85 0 0 0 20.86,-36.44 c 3.26,-7.48 5.43,-15.34 7.6,-23.2 a 159.46,159.46 0 0 0 5.32,-36.51 v 0 c 0,-0.36 0.11,-0.72 0.12,-1.09 0.1,-6.19 -0.42,-12.4 -0.74,-18.62 z"
        fill="currentColor"
      />
    </g>
  </g>
</svg>
