<?xml version="1.0" encoding="UTF-8" standalone="no"?>
<svg
  viewBox="0 0 295.39499 294.85983"
  version="1.1"
  xmlns="http://www.w3.org/2000/svg"
  xmlns:svg="http://www.w3.org/2000/svg"
>
  <g transform="translate(-102.305,-102.55)">
    <g>
      <path
        d="m 397.7,250.07 c -0.43,20.54 -0.72,41.09 -1.35,61.62 -0.47,15.2 -3.31,30 -10.65,43.45 -11.72,21.53 -30.14,34 -53.89,39.07 -13.34,2.83 -26.92,3.11 -40.47,3.15 q -46.8,0.17 -93.6,-0.24 c -13.64,-0.13 -27.27,-1.11 -40.35,-5.58 -27.71,-9.47 -44.58,-28.78 -51.55,-57 -2.59,-10.49 -3.35,-21.21 -3.4,-31.93 q -0.27,-52.67 0,-105.32 c 0.07,-12.81 1.06,-25.62 5,-37.95 9.53,-29.57 29.87,-47.33 60,-53.55 a 154.13,154.13 0 0 1 29.47,-3 c 35,-0.34 70.05,-0.28 105.07,-0.06 13.23,0.08 26.44,1.11 39.14,5.36 29.1,9.75 46.23,30.09 52.7,59.77 2.94,13.5 2.94,27.26 3.14,41 0.2,13.74 0,27.45 0,41.18 z m -26.77,-0.3 h -0.35 c 0,-9.49 0.09,-19 0,-28.46 -0.16,-15 0,-30 -2.13,-44.83 -3.5,-24.08 -19.14,-40.79 -43.09,-44.77 a 218.24,218.24 0 0 0 -32,-2.5 q -36.94,-0.59 -73.89,-0.16 c -14.37,0.17 -28.82,0.5 -43.06,2.2 -23.75,2.84 -39.28,17.69 -44.73,41 -2.45,10.45 -2.67,21.13 -2.75,31.75 q -0.33,45.69 0,91.36 c 0.07,11 0.31,22 2.85,32.75 4.7,19.91 16.53,33.35 36.46,38.66 a 93.64,93.64 0 0 0 22.62,3.28 c 35.52,0.47 71,0.56 106.57,0.51 10.29,0 20.63,-0.4 30.74,-2.84 19.25,-4.66 32.27,-16.12 38.19,-35.22 a 90.1,90.1 0 0 0 3.58,-24.85 c 0.37,-19.28 0.65,-38.58 0.99,-57.88 z"
        fill="currentColor"
      />
      <path
        d="m 325.48,250 a 75.9,75.9 0 0 1 -76.22,75.8 c -41.64,0 -75.58,-34.18 -75.54,-76 a 75.880048,75.880048 0 0 1 151.76,0.17 z m -75.87,-49.3 c -26.89,-0.15 -49.08,21.93 -49.22,49 a 49.22,49.22 0 1 0 49.22,-49 z"
        fill="currentColor"
      />
      <path
        d="m 328.82,153.38 a 17.74,17.74 0 0 1 -0.75,35.47 17.74,17.74 0 1 1 0.75,-35.47 z"
        fill="currentColor"
      />
    </g>
  </g>
</svg>
