<?xml version="1.0" encoding="UTF-8" standalone="no"?>
<svg
  viewBox="0 0 321.78915 316.88712"
  version="1.1"
  xmlns="http://www.w3.org/2000/svg"
  xmlns:svg="http://www.w3.org/2000/svg"
>
  <g transform="translate(-89.127539,-91.536748)">
    <g>
      <path
        d="m 155.16,197 v -7.3 a 160.12,160.12 0 0 1 1.46,-22.1 83,83 0 0 1 20.14,-44.54 A 90.62,90.62 0 0 1 213.49,98 104.11,104.11 0 0 1 257,91.8 a 98.05,98.05 0 0 1 36,8.86 c 20.78,9.73 36.12,24.84 45,46.16 a 89.11,89.11 0 0 1 5.94,25 214.84,214.84 0 0 1 1.07,23 c 0,0.77 0.07,1.53 0.12,2.51 0.78,-0.11 1.39,-0.18 2,-0.29 a 33.7,33.7 0 0 1 18.66,1.23 27.28,27.28 0 0 1 17.51,26.48 c -0.17,7.78 -3.28,14.26 -8.49,19.88 -3.87,4.16 -8.53,7.26 -13.25,10.31 -2.92,1.89 -5.85,3.76 -8.76,5.68 -2.91,1.92 -3.55,3.66 -2,7 a 71.68,71.68 0 0 0 9.79,15.43 95.16,95.16 0 0 0 26.52,22.11 c 3.14,1.81 6.39,3.42 9.59,5.1 3.67,1.93 7.21,4 9.85,7.32 5.64,7 5.82,16.35 0.52,23.94 a 30.69,30.69 0 0 1 -9.66,8.87 77.57,77.57 0 0 1 -20.41,8.52 10.68,10.68 0 0 0 -8.21,7.33 c -3.2,8.72 -10,13.41 -19,14.87 -4.74,0.77 -9.61,0.76 -14.41,1.19 -4.38,0.4 -8.77,0.79 -13.12,1.42 a 45.17,45.17 0 0 0 -17,6.38 c -5.58,3.38 -11.18,6.78 -17,9.7 -14,7 -28.9,9.34 -44.46,8.44 -15.72,-0.91 -29.91,-6.18 -43.11,-14.5 -1.8,-1.14 -3.67,-2.17 -5.44,-3.35 -6.81,-4.49 -14.43,-6.61 -22.42,-7.44 -4.73,-0.49 -9.5,-0.62 -14.24,-0.91 -5.19,-0.32 -10.35,-0.73 -15.18,-2.9 a 23.15,23.15 0 0 1 -12,-12.12 c -0.46,-1 -0.88,-2.1 -1.27,-3.16 a 6.15,6.15 0 0 0 -4.12,-4 c -2.7,-0.85 -5.43,-1.64 -8.11,-2.56 a 74.32,74.32 0 0 1 -16.34,-7.67 28,28 0 0 1 -10.09,-10.76 19.13,19.13 0 0 1 5.62,-24.73 51.32,51.32 0 0 1 7.85,-4.68 113.64,113.64 0 0 0 24.66,-16.24 80.08,80.08 0 0 0 18.16,-22.64 38.22,38.22 0 0 0 2.1,-4.87 3.45,3.45 0 0 0 -1.32,-4.15 c -1.18,-0.92 -2.42,-1.75 -3.66,-2.57 -4,-2.63 -8,-5.16 -11.91,-7.86 a 39.55,39.55 0 0 1 -13.06,-14.08 c -7.94,-15.13 -0.62,-36.46 19.4,-40.26 a 35.23,35.23 0 0 1 13.95,0.25 c 0.42,0.08 0.84,0.16 1.26,0.21 0.1,0.01 0.23,-0.09 0.63,-0.25 z m 171.76,0.16 c 0,-10 -0.18,-19.9 -1.89,-29.74 a 63.32,63.32 0 0 0 -7,-20.66 70.31,70.31 0 0 0 -36.45,-31.3 c -14.54,-5.71 -29.61,-7 -45,-4.75 -15.13,2.23 -28.67,8.06 -40.1,18.3 -10.08,9 -17.11,20 -20.27,33.32 a 114.49,114.49 0 0 0 -2.79,25.14 c -0.08,6.53 0.16,13.07 0.34,19.6 0.1,3.62 0.39,7.23 0.56,10.85 0.15,3.1 -1,4.17 -4.08,3.75 A 6.62,6.62 0 0 1 169,221.36 c -1.61,-0.55 -3.21,-1.12 -4.82,-1.68 -4.42,-1.52 -8.83,-3.08 -13.28,-4.54 a 16.85,16.85 0 0 0 -6.95,-0.71 c -4.88,0.49 -8,3.3 -8.86,8.07 a 10.16,10.16 0 0 0 2.12,8 27.32,27.32 0 0 0 7.09,6.38 c 5.86,3.89 11.78,7.69 17.6,11.63 a 66.47,66.47 0 0 1 6.36,5 6.79,6.79 0 0 1 2.26,5.54 24.32,24.32 0 0 1 -0.45,3.8 56.56,56.56 0 0 1 -4.77,13.41 c -6.57,13.64 -16.19,24.79 -27.93,34.21 a 135.63,135.63 0 0 1 -25,15.68 14.7,14.7 0 0 0 -3,1.93 c -1.47,1.27 -1.61,2.61 -0.36,4.11 a 10.32,10.32 0 0 0 2.91,2.44 77.18,77.18 0 0 0 9.58,4.59 c 4.66,1.7 9.5,2.87 14.23,4.41 a 52.23,52.23 0 0 1 6.68,2.72 7.62,7.62 0 0 1 4.2,5.59 c 0.33,1.67 0.58,3.36 0.85,5 0.65,4.07 2,5.63 6,6.28 2.94,0.47 5.93,0.54 8.9,0.78 5.31,0.44 10.64,0.65 15.91,1.35 a 60.62,60.62 0 0 1 21.73,6.87 c 3.72,2.08 7.37,4.29 11,6.54 11,6.85 22.79,11.06 35.87,11.47 12.46,0.38 24.34,-1.73 35.38,-7.65 4.5,-2.42 8.9,-5 13.23,-7.75 a 66.1,66.1 0 0 1 24.35,-9.15 158.42,158.42 0 0 1 19.92,-1.68 62.91,62.91 0 0 0 8.42,-1.06 5,5 0 0 0 4.18,-4.31 c 0.34,-1.67 0.62,-3.35 0.85,-5 0.52,-3.65 2.24,-6.45 5.75,-7.82 a 86.4,86.4 0 0 1 8.65,-3 c 6.74,-1.81 13.36,-3.89 19.44,-7.39 a 19.41,19.41 0 0 0 3.61,-2.61 c 1.94,-1.83 1.81,-3.61 -0.35,-5.14 a 32.29,32.29 0 0 0 -4.25,-2.41 125.75,125.75 0 0 1 -30.41,-21 c -9.7,-9.21 -17.53,-19.74 -22.62,-32.18 a 38.9,38.9 0 0 1 -3.36,-12.49 7.65,7.65 0 0 1 2.46,-6.33 32.28,32.28 0 0 1 4.14,-3.33 c 6.42,-4.33 12.91,-8.55 19.33,-12.88 a 51.5,51.5 0 0 0 5,-3.93 14.11,14.11 0 0 0 3.85,-5.3 9.53,9.53 0 0 0 -6.5,-13.05 12.82,12.82 0 0 0 -6.33,-0.13 c -3.37,0.84 -6.71,1.83 -10,2.92 -3.29,1.09 -6.78,2.52 -10.2,3.7 a 9,9 0 0 1 -2.92,0.44 c -1.79,0 -2.54,-0.78 -2.66,-2.61 a 21.89,21.89 0 0 1 0,-2.56 q 0.57,-9.69 1.09,-19.37 z"
        fill="currentColor"
      />
      <path
        d="m 326.92,197.16 q -0.53,9.69 -1,19.36 a 21.89,21.89 0 0 0 0,2.56 c 0.12,1.83 0.87,2.61 2.66,2.61 a 9,9 0 0 0 2.92,-0.44 c 3.42,-1.18 6.77,-2.56 10.2,-3.7 3.43,-1.14 6.63,-2.08 10,-2.92 a 12.82,12.82 0 0 1 6.33,0.13 9.53,9.53 0 0 1 6.5,13.05 14.11,14.11 0 0 1 -3.85,5.3 51.5,51.5 0 0 1 -5,3.93 c -6.42,4.33 -12.91,8.55 -19.33,12.88 a 32.28,32.28 0 0 0 -4.14,3.33 7.65,7.65 0 0 0 -2.46,6.33 38.9,38.9 0 0 0 3.25,12.49 c 5.09,12.44 12.92,23 22.62,32.18 a 125.75,125.75 0 0 0 30.41,21 32.29,32.29 0 0 1 4.25,2.41 c 2.16,1.53 2.29,3.31 0.35,5.14 a 19.41,19.41 0 0 1 -3.61,2.61 c -6.08,3.5 -12.7,5.58 -19.44,7.39 a 86.4,86.4 0 0 0 -8.65,3 c -3.51,1.37 -5.23,4.17 -5.75,7.82 -0.23,1.69 -0.51,3.37 -0.85,5 a 5,5 0 0 1 -4.18,4.31 62.91,62.91 0 0 1 -8.42,1.06 158.42,158.42 0 0 0 -19.93,1.73 66.1,66.1 0 0 0 -24.35,9.15 c -4.33,2.71 -8.73,5.33 -13.23,7.75 -11,5.92 -22.92,8 -35.38,7.65 -13.08,-0.41 -24.87,-4.62 -35.87,-11.47 -3.61,-2.25 -7.26,-4.46 -11,-6.54 a 60.62,60.62 0 0 0 -21.82,-6.83 c -5.27,-0.7 -10.6,-0.91 -15.91,-1.35 -3,-0.24 -6,-0.31 -8.9,-0.78 -4.06,-0.65 -5.4,-2.21 -6,-6.28 -0.27,-1.68 -0.52,-3.37 -0.85,-5 a 7.62,7.62 0 0 0 -4.2,-5.59 52.23,52.23 0 0 0 -6.68,-2.72 c -4.73,-1.54 -9.57,-2.71 -14.23,-4.41 a 77.18,77.18 0 0 1 -9.58,-4.59 10.32,10.32 0 0 1 -2.91,-2.44 c -1.25,-1.5 -1.11,-2.84 0.36,-4.11 a 14.7,14.7 0 0 1 3,-1.93 135.63,135.63 0 0 0 25,-15.68 c 11.74,-9.42 21.36,-20.57 27.93,-34.21 a 56.56,56.56 0 0 0 4.82,-13.49 24.32,24.32 0 0 0 0.45,-3.8 6.79,6.79 0 0 0 -2.26,-5.54 66.47,66.47 0 0 0 -6.36,-5 c -5.82,-3.94 -11.74,-7.74 -17.6,-11.63 a 27.32,27.32 0 0 1 -7.09,-6.38 10.16,10.16 0 0 1 -2.12,-8 c 0.87,-4.77 4,-7.58 8.86,-8.07 a 16.85,16.85 0 0 1 6.95,0.71 c 4.45,1.46 8.86,3 13.28,4.54 1.61,0.56 3.21,1.13 4.82,1.68 a 6.62,6.62 0 0 0 1.24,0.31 c 3.06,0.42 4.23,-0.65 4.08,-3.75 -0.17,-3.62 -0.46,-7.23 -0.56,-10.85 -0.18,-6.53 -0.42,-13.07 -0.34,-19.6 a 114.49,114.49 0 0 1 2.79,-25.14 c 3.16,-13.31 10.19,-24.28 20.27,-33.32 11.43,-10.24 25,-16.07 40.1,-18.3 15.4,-2.26 30.47,-1 45,4.75 a 70.31,70.31 0 0 1 36.49,31.3 63.32,63.32 0 0 1 7,20.66 c 1.74,9.84 1.92,19.78 1.92,29.74 z"
        fill="currentColor"
      />
    </g>
  </g>
</svg>
