<?xml version="1.0" encoding="UTF-8" standalone="no"?>
<svg
  viewBox="0 0 278.92294 317.60208"
  version="1.1"
  xmlns="http://www.w3.org/2000/svg"
  xmlns:svg="http://www.w3.org/2000/svg"
>
  <g transform="translate(-110.53706,-91.2)">
    <g>
      <path
        d="m 257.25,91.2 h 51.83 c 0.68,21.85 8.4,40.72 23.94,56.09 15.54,15.37 34.51,22.87 56.44,23.33 v 51.54 c -29.59,-0.13 -56.08,-9.22 -80.24,-27.21 v 3.44 c 0.09,36.82 -0.06,73.64 0.33,110.45 C 310.08,359.91 272,400 226,407.53 175.67,415.75 125.4,383.31 113.4,334 100.66,281.65 131.55,229.71 183.98,215.4 a 101,101 0 0 1 37.93,-2.73 c 1,0.11 1.94,0.36 3,0.56 v 52.32 c -3,-0.58 -5.79,-1.26 -8.65,-1.67 -24.71,-3.47 -48.5,14 -52.44,38.45 -4.13,25.67 12.66,49.67 37.8,54.14 A 46.92,46.92 0 0 0 257.2,310 q 0.07,-106.64 0.05,-213.26 z"
        fill="currentColor"
      />
    </g>
  </g>
</svg>
