<?xml version="1.0" encoding="UTF-8" standalone="no"?>
<svg
  viewBox="0 0 291.67999 237.58633"
  version="1.1"
  xmlns="http://www.w3.org/2000/svg"
  xmlns:svg="http://www.w3.org/2000/svg"
>
  <g
    id="frame"
    transform="translate(-104.17,-131.21367)"
  >
    <g>
      <path
        d="m 200.15,368.8 h -9.91 c -0.18,-0.19 -0.42,-0.15 -0.64,-0.16 -4.91,-0.17 -9.8,-0.57 -14.68,-1.16 q -8.31,-1 -16.5,-2.84 a 169.13,169.13 0 0 1 -29.59,-9.57 170.9,170.9 0 0 1 -23.78,-12.48 c -0.3,-0.19 -0.72,-0.29 -0.88,-0.76 a 121.24,121.24 0 0 0 46.53,-3.67 117.35,117.35 0 0 0 41.51,-21.06 60.44,60.44 0 0 1 -34.38,-12.05 59.77,59.77 0 0 1 -21.27,-29.73 64.9,64.9 0 0 0 13.47,1 55.47,55.47 0 0 0 13.11,-2 60.23,60.23 0 0 1 -34.36,-21.26 c -9,-11.12 -13.22,-23.91 -13.28,-38.35 a 63,63 0 0 0 13,5.34 c 4.95,1.38 12.28,2.45 13.76,1.93 a 60.11,60.11 0 0 1 -19.68,-22.3 60.14,60.14 0 0 1 1.48,-57.39 2.69,2.69 0 0 1 0.9,0.87 173.34,173.34 0 0 0 14.87,15.79 170.33,170.33 0 0 0 73.36,40.55 168.67,168.67 0 0 0 21.95,4.22 q 5.91,0.75 11.87,1.06 c 0.64,0 0.7,0 0.58,-0.69 0,-0.11 -0.07,-0.22 -0.1,-0.33 a 61,61 0 0 1 -0.9,-19.57 58.13,58.13 0 0 1 5.41,-18.72 60.23,60.23 0 0 1 34.6,-31 59.32,59.32 0 0 1 16.16,-3.18 c 2.21,-0.13 4.42,-0.05 6.63,-0.07 a 64.84,64.84 0 0 1 15,2.77 59.88,59.88 0 0 1 24.9,15.4 1.64,1.64 0 0 0 1.74,0.56 127.63,127.63 0 0 0 13,-3.48 120.67,120.67 0 0 0 22.97,-10.27 1.33,1.33 0 0 1 1,-0.35 57.83,57.83 0 0 1 -5.93,12.84 60.17,60.17 0 0 1 -8.79,11.08 73,73 0 0 1 -10.94,8.79 117.53,117.53 0 0 0 33.51,-9.11 1.88,1.88 0 0 1 -0.49,1.05 121.21,121.21 0 0 1 -20.26,22.82 q -3.93,3.45 -8.16,6.55 a 1.26,1.26 0 0 0 -0.65,1.17 178.28,178.28 0 0 1 -0.31,18.78 c -0.4,5.35 -1,10.67 -1.93,16 a 179.54,179.54 0 0 1 -31.49,74.78 168.06,168.06 0 0 1 -24.48,27.05 160.48,160.48 0 0 1 -56,32.34 166.56,166.56 0 0 1 -23,5.87 c -5.09,0.92 -10.21,1.63 -15.36,2.1 l -5.71,0.5 c -0.48,0 -1,0 -1.44,0 z"
        fill="currentColor"
      />
      <path
        d="m 208,368.41 a 6.46,6.46 0 0 1 -2.19,0.16 2.38,2.38 0 0 0 -1.39,0.23 h -4.28 l 6.42,-0.36 c 0.49,-0.03 0.97,-0.02 1.44,-0.03 z"
        fill="currentColor"
      />
    </g>
  </g>
</svg>
