<?xml version="1.0" encoding="UTF-8" standalone="no"?>
<svg
  viewBox="0 0 340.82034 340.57541"
  version="1.1"
  xmlns="http://www.w3.org/2000/svg"
  xmlns:svg="http://www.w3.org/2000/svg"
>
  <g transform="translate(-79.589652,-79.717943)">
    <g>
      <path
        d="m 420.41,250.14 c -0.89,46.55 -16.94,87 -49.91,120.1 -32.79,32.89 -73,49.79 -119.35,50.05 -47.89,0.28 -89.32,-16.93 -123,-51.27 C 95.34,335.51 79.12,294.69 79.6,248 c 0.45,-45.06 16.64,-84.52 48.3,-116.82 34.6,-35.29 77.18,-52.64 126.57,-51.4 45.94,1.15 85.46,18.54 117.56,51.54 32.1,33 47.53,72.93 48.38,118.82 z m -290.51,9.72 h -28.15 c -1.15,0 -2.13,0.31 -1.94,1.74 0.81,6 1.33,12.09 2.54,18 a 146.87,146.87 0 0 0 11.79,35.18 162.27,162.27 0 0 0 14.48,24.22 c 1,1.41 2.07,1.6 3.49,0.77 1.12,-0.66 2.26,-1.28 3.42,-1.87 A 282,282 0 0 1 170.72,323 c 1.88,-0.65 2.16,-1.56 1.54,-3.4 -1.87,-5.47 -3.77,-11 -5.24,-16.55 -1.62,-6.17 -3,-12.42 -4.08,-18.72 -1.18,-7.05 -1.92,-14.17 -2.68,-21.27 -0.31,-2.89 -0.36,-3.19 -3.24,-3.19 z m 240.16,0 c -9.1,0 -18.21,0 -27.32,0 -1.7,0 -2.58,0.6 -2.78,2.23 -0.11,0.88 -0.15,1.77 -0.25,2.66 -0.35,3.31 -0.61,6.64 -1.08,9.94 -0.65,4.51 -1.31,9 -2.22,13.48 -1,5 -2.15,10 -3.51,14.88 -1.55,5.63 -3.35,11.2 -5.14,16.77 -0.49,1.52 -0.13,2.3 1.34,2.78 a 61.32,61.32 0 0 1 6.56,2.3 c 10.38,4.68 20.79,9.31 31,14.25 3.67,1.77 3.5,1.2 5.37,-1.37 a 146.22,146.22 0 0 0 24.48,-54.05 c 1.51,-6.69 2.16,-13.59 3.05,-20.41 0.45,-3.4 0.29,-3.43 -3.25,-3.43 z M 129.64,240.26 H 157 c 1.4,0 2.44,-0.07 2.59,-2 0.5,-6.32 1,-12.66 1.88,-18.93 1,-7.13 2.26,-14.25 3.8,-21.29 1.29,-5.9 3.1,-11.68 4.8,-17.48 0.82,-2.81 0.75,-3.12 -2,-4.19 -6.29,-2.46 -12.63,-4.79 -18.81,-7.5 -5.68,-2.49 -11.2,-5.37 -16.76,-8.15 -2.57,-1.28 -2.76,-1.34 -4.48,1.06 -1.56,2.17 -3,4.4 -4.48,6.62 a 136.42,136.42 0 0 0 -13.79,26.94 154.24,154.24 0 0 0 -6.25,20.1 c -1.64,7.16 -2.35,14.53 -3.45,21.81 -0.42,2.84 -0.26,3 2.69,3 q 13.44,0.03 26.9,0.01 z m 240.47,0 h 27.34 c 1.45,0 2.72,-0.18 2.45,-2.09 -1,-6.95 -1.51,-14 -3.08,-20.82 a 199.88,199.88 0 0 0 -6.67,-21.67 c -4.33,-12.25 -10.82,-23.4 -18.37,-33.95 -1.63,-2.26 -1.76,-2.19 -4.31,-0.91 -6.34,3.17 -12.66,6.41 -19.12,9.31 -5.66,2.55 -11.49,4.71 -17.28,7 -1.3,0.5 -1.73,1.15 -1.26,2.46 0.23,0.64 0.32,1.33 0.55,2 a 195.12,195.12 0 0 1 8,33.93 c 1.12,7.2 1.35,14.53 1.91,21.81 0.2,2.75 0.33,3 3.17,3 z m -160.77,0 v 0 c 9.39,0 18.77,0 28.16,0 2,0 2.62,-0.66 2.61,-2.63 q -0.09,-22.09 0,-44.19 c 0,-2 -0.76,-2.62 -2.65,-2.66 a 98.31,98.31 0 0 1 -10.44,-0.62 c -6.81,-0.9 -13.61,-1.94 -20.37,-3.17 -5.21,-1 -10.35,-2.26 -15.51,-3.48 -1.37,-0.33 -2.28,-0.1 -2.69,1.33 -0.47,1.64 -0.88,3.29 -1.42,4.91 a 172.73,172.73 0 0 0 -6.67,30 c -0.85,5.88 -1,11.85 -1.4,17.78 -0.16,2.53 0.08,2.68 2.63,2.68 z m 101.28,-56.62 -3.68,0.73 c -7.59,1.55 -15.14,3.42 -22.8,4.54 -7.2,1 -14.52,1.36 -21.8,1.9 -1.69,0.13 -2.69,0.5 -2.69,2.47 q 0.06,22.29 0,44.57 c 0,1.77 0.72,2.43 2.47,2.42 q 28.25,0 56.49,0 c 1.71,0 2.4,-0.72 2.31,-2.32 -0.27,-4.5 -0.31,-9 -0.91,-13.49 -0.77,-5.79 -1.85,-11.55 -3,-17.27 -1.25,-5.92 -2.75,-11.79 -4.25,-17.65 -0.56,-2 -1.44,-3.93 -2.14,-5.88 z m -20.39,76.21 v 0 h -27.12 c -3.17,0 -3.43,0.27 -3.43,3.37 q 0,21.36 0,42.72 c 0,2.9 0.45,3.41 3.37,3.68 1.3,0.11 2.6,0 3.9,0.11 3.14,0.18 6.3,0.19 9.41,0.63 6.53,0.93 13,2 19.53,3.16 3.08,0.53 6.16,1.11 9.18,1.92 3.02,0.81 3.32,0.82 4.14,-2.08 2.91,-10.19 6,-20.34 8.39,-30.66 1.5,-6.54 1.88,-13.34 2.68,-20 0.32,-2.66 0.14,-2.78 -2.52,-2.79 z m -80.52,0 v 0 c -9.32,0 -18.63,0 -28,0 -1.69,0 -2.41,0.54 -2.2,2.27 0.57,4.66 0.91,9.36 1.71,14 0.93,5.42 2,10.83 3.44,16.14 2,7.56 4.42,15 6.64,22.52 0.38,1.3 1,1.68 2.43,1.35 5,-1.18 9.91,-2.48 14.93,-3.28 6.85,-1.1 13.77,-1.82 20.66,-2.63 2.85,-0.33 5.72,-0.55 8.58,-0.7 1.7,-0.09 2.16,-0.89 2.15,-2.49 0,-14.79 0,-29.59 0,-44.38 0,-2.62 -0.13,-2.74 -2.84,-2.74 z m 50,-123.6 q 0,16.44 0,32.87 c 0,2.62 0.41,3 3,2.85 3.47,-0.25 6.95,-0.55 10.4,-1 5,-0.64 10,-1.34 14.92,-2.17 4.62,-0.78 9.21,-1.74 13.81,-2.67 1.31,-0.27 1.86,-1 1.12,-2.37 -1.08,-2 -1.89,-4.24 -3,-6.26 -4.64,-8.28 -9,-16.73 -14.13,-24.71 -4.59,-7.17 -9.9,-13.89 -15.08,-20.67 C 268,108.63 265,105.41 262,102.1 a 5.1,5.1 0 0 0 -1.53,-0.83 10.52,10.52 0 0 0 -0.75,1.73 6.89,6.89 0 0 0 0,1.64 z m -19.76,-35.61 a 17.37,17.37 0 0 0 -2.08,1.57 c -2.85,3.13 -5.76,6.21 -8.46,9.46 a 234.81,234.81 0 0 0 -25.82,38.13 c -2.28,4.19 -4.32,8.52 -6.4,12.82 -0.43,0.88 -1,2 0.65,2.43 2.56,0.68 5.1,1.48 7.7,2 5.34,1 10.69,2 16.08,2.81 5.2,0.73 10.44,1.23 15.68,1.65 2.76,0.22 2.81,0 2.82,-2.64 q 0,-32.79 0,-65.57 c -0.04,-0.71 -0.12,-1.42 -0.2,-2.64 z m 19.76,262 v 0 c 0,10.34 0,20.67 0,31 a 12,12 0 0 0 0.78,3 16.48,16.48 0 0 0 2.2,-2 319.34,319.34 0 0 0 31.07,-46.66 c 2,-3.71 3.9,-7.5 5.82,-11.27 1.1,-2.17 0.75,-3 -1.44,-3.48 -1.8,-0.39 -3.58,-0.83 -5.39,-1.11 -4,-0.64 -7.92,-1.27 -11.9,-1.75 -6,-0.72 -11.91,-1.41 -17.88,-1.93 -3.07,-0.27 -3.29,0.1 -3.29,3.16 q -0.01,15.58 0,31.09 z m 27.86,32.47 a 12,12 0 0 0 2.56,0 c 2.69,-0.77 5.4,-1.5 8,-2.48 10.38,-3.86 20.5,-8.21 29.94,-14.12 a 159.45,159.45 0 0 0 27.23,-21.24 c 1.24,-1.21 1.47,-1.92 -0.28,-2.85 a 234.91,234.91 0 0 0 -33.36,-14.53 c -1.25,-0.43 -1.91,0.11 -2.41,1.21 -1.29,2.85 -2.52,5.74 -4,8.51 -7,13.52 -14.54,26.74 -23.44,39.15 -1.36,1.95 -2.62,3.95 -4.27,6.4 z m -48.29,1.89 0.68,-0.33 c 0,-0.73 0.12,-1.45 0.12,-2.17 q 0,-31.35 0,-62.69 c 0,-3.31 -0.39,-3.64 -3.72,-3.17 -7.27,1 -14.56,2 -21.82,3.12 -4.09,0.65 -8.15,1.54 -12.2,2.42 -2.33,0.5 -2.65,1.11 -1.51,3.16 5.68,10.2 11.06,20.58 17.27,30.44 5.77,9.17 12.44,17.78 18.76,26.61 a 28.11,28.11 0 0 0 2.42,2.61 z m -26.7,-1.62 c -0.59,-1 -0.82,-1.48 -1.11,-1.9 -4,-5.94 -8.39,-11.67 -12,-17.86 -6.26,-10.8 -12.14,-21.83 -17.92,-32.91 -1.12,-2.17 -2,-2.21 -3.86,-1.43 -10.52,4.52 -21.06,9 -31.58,13.51 -2.64,1.13 -2.69,1.52 -0.67,3.47 a 153.35,153.35 0 0 0 63.97,36.74 21.15,21.15 0 0 0 3.17,0.35 z m 79.32,-289.85 -0.57,0.41 c 0.44,0.77 0.83,1.57 1.31,2.3 4.87,7.34 10.15,14.44 14.53,22.07 5.25,9.15 9.76,18.73 14.55,28.15 a 1.71,1.71 0 0 0 2.43,1 219.26,219.26 0 0 0 30,-13.17 c 3.18,-1.68 3.13,-1.75 0.49,-4.34 A 149.57,149.57 0 0 0 321.39,117.5 140.9,140.9 0 0 0 291.9,105.53 Z m -83.08,0.24 -0.62,-0.75 c -6.84,2.65 -13.79,5.07 -20.5,8 a 111.6,111.6 0 0 0 -23.6,13.52 c -6.59,5.07 -12.91,10.49 -19.29,15.83 -1.5,1.26 -1.32,1.9 0.51,2.83 2.3,1.19 4.62,2.36 7,3.37 7.91,3.35 15.86,6.6 23.78,9.93 1.53,0.64 2.21,0.11 2.75,-1.33 0.8,-2.1 1.72,-4.16 2.72,-6.17 a 275.92,275.92 0 0 1 26.55,-43.72 8.09,8.09 0 0 0 0.7,-1.51 z"
        fill="currentColor"
      />
    </g>
  </g>
</svg>
