<?xml version="1.0" encoding="UTF-8" standalone="no"?>
<svg
   viewBox="0 0 326.95468 228.82059"
   version="1.1"
   xmlns="http://www.w3.org/2000/svg"
   xmlns:svg="http://www.w3.org/2000/svg">
  <g transform="translate(-86.51,-135.58)">
    <g>
      <path
        d="m 224.75,135.58 h 50.55 a 28.15,28.15 0 0 0 3.14,0.42 c 12.26,0.32 24.54,0.25 36.76,1 19,1.17 38.07,2.44 57,4.5 18.34,2 31.34,14.32 35.62,32.31 3.91,16.46 5.23,33.26 5.49,50.07 0.32,21.07 0.17,42.17 -0.7,63.23 a 271.6,271.6 0 0 1 -4.45,37.68 c -3.5,18.91 -15.11,31 -34.28,33.9 a 410.91,410.91 0 0 1 -47.39,4.23 q -45.37,1.51 -90.81,1.48 c -35.17,-0.06 -70.34,-0.67 -105.33,-5.1 -20.16,-2.56 -34.14,-14.68 -37.83,-34.63 -2.33,-12.63 -3.3,-25.52 -4.61,-38.32 -0.75,-7.39 -1,-14.84 -1.4,-22.26 V 236 c 0.45,-7.2 0.66,-14.42 1.39,-21.58 1.32,-12.9 2.33,-25.87 4.61,-38.61 3.29,-18.43 16,-31 33.49,-34.16 A 170.36,170.36 0 0 1 148.19,139 c 23.4,-1.16 46.81,-1.95 70.22,-2.9 2.12,-0.1 4.23,-0.35 6.34,-0.52 z m -6.82,65.54 v 98.14 l 85.27,-49.07 z"
        fill="currentColor"
      />
    </g>
  </g>
</svg>
